<?xml version="1.0" encoding="utf-8"?>
<!-- Generator: Adobe Illustrator 16.0.4, SVG Export Plug-In . SVG Version: 6.00 Build 0)  -->
<!DOCTYPE svg PUBLIC "-//W3C//DTD SVG 1.1//EN" "http://www.w3.org/Graphics/SVG/1.1/DTD/svg11.dtd">
<svg version="1.1" id="Layer_1" xmlns="http://www.w3.org/2000/svg" xmlns:xlink="http://www.w3.org/1999/xlink" x="0px" y="0px"
	 width="1036px" height="285px" viewBox="0 0 1036 285" enable-background="new 0 0 1036 285" xml:space="preserve">
<path fill-rule="evenodd" clip-rule="evenodd" d="M321.304,281.248v-30.244l0.03-117.098l2.053-1.117
	c0.072-0.147,0.146-0.258,0.221-0.284c5.113-1.827,8.713-3.256,13.831-4.826c3.662-1.124,7.338-1.507,10.997-2.75
	c4.293-1.459,8.574-3.632,12.864-5.244c6.134-2.304,12.263-5.149,18.409-6.348c6.855-1.335,13.728-1.009,20.592-1.58
	c1.849-0.153,3.697-0.817,5.541-1.462c4.652-1.627,9.299-3.577,13.953-5.002c2.826-0.865,5.666-0.729,8.494-1.512
	c5.584-1.545,11.164-3.36,16.745-5.173c3.889-1.264,7.774-2.708,11.661-4.079c6.086-2.146,12.163-5.021,18.26-6.23
	c5.286-1.051,10.578-0.168,15.76-6.447c1.544-1.871,3.264-1.283,4.904-1.502c3.222-0.429,6.457-0.007,9.664-1.098
	c3.571-1.215,7.115-3.77,10.674-5.659c4.728-2.509,9.468-4.616,14.181-7.527c2.73-1.686,5.418-4.628,8.127-6.972
	c3.812-3.297,7.691-5.619,11.42-10.152c2.791-3.393,5.527-6.236,8.43-5.661c1.617,0.321,3.234,1.273,4.852,1.207
	c3.143-0.133,6.285-0.775,9.426-1.22c4.096-0.579,8.047,3.202,12.037,6.432c2.277,1.843,4.662,1.349,7.002,1.738
	c1.592,0.266,3.193-0.074,4.781,0.412c2.812,0.862,5.613,2.63,8.428,3.098c2.152,0.356,4.316-0.672,6.475-1.151
	c3.902-0.867,7.807-1.675,11.707-2.703c6.254-1.647,12.504-3.778,18.762-5.042c2.537-0.512,5.102,0.374,7.643,1.246
	c3.064,1.055,6.115,2.741,9.172,4.208c3.361,1.613,6.715,3.492,10.08,4.862c2.148,0.875,4.318,0.781,6.471,1.569
	c4.188,1.532,8.369,3.454,12.557,5.07c2.762,1.065,5.529,1.808,8.291,2.821c4.496,1.649,8.99,3.421,13.486,5.091
	c0.564,0.211,1.139-0.019,1.703,0.185c3.426,1.228,6.846,2.866,10.277,3.678c2.494,0.591,5.002,0.224,7.531,0.224
	c0,18.926,0,38.3,0,58.245c0,0.124,0,0.245,0,0.369V285h-407.5l0.001-3.752H321.304z"/>
<g>
	<path fill="#808080" d="M314.328,280.29h-0.25V133.937c-0.195,0.151-1.598,1.199-2.543,0.751
		c-3.783-1.793-6.938-5.863-10.029-9.972c-2.717-3.61-5.438-3.167-8.11-1.14c-2.503,1.897-4.925,0.937-7.144-0.316
		c-4.825-2.722-9.596-3.78-14.637-3.267c-2.937,0.299-6.323-0.697-8.826-3.436c-3.312-3.624-6.765-3.918-10.23-5.294
		c-3.527-1.4-6.527,0.175-9.719,3.145c-1.651,1.536-4.027,0.24-6.074,0.112c-5.301-0.328-10.605-0.558-15.9-1.137
		c-4.756-0.519-9.68,1.315-14.128-4.083c-1.049-1.274-2.646-1.267-3.978-1.172c-1.994,0.141-3.983,0.805-5.963,1.393
		c-1.65,0.49-3.28,1.25-4.929,1.778c-1.228,0.395-2.497,0.4-3.699,0.972c-0.921,0.437-1.786,1.403-2.636,2.283
		c-0.928,0.961-1.765,2.274-2.717,3.115c-2.39,2.107-5.089,3.319-7.168,6.217c-2.555,3.557-5.219,3.724-8.002,3.298
		c-3.706-0.567-7.404-1.473-11.082-2.546c-1.165-0.338-2.439-1.231-3.343-2.64c-4.687-7.303-10.138-9.783-15.983-10.798
		c-2.667-0.461-5.25-2.615-7.889-3.864c-1.105-0.521-2.254-0.897-3.389-0.973c-5.504-0.362-11.01-0.659-16.516-0.86
		c-3.282-0.12-6.572,0.212-9.848-0.094c-2.568-0.24-5.113-1.289-7.679-1.729c-3.536-0.606-7.34-2.736-10.554-0.975
		c-3.472,1.902-5.952,0.213-8.955-1.844c-4.164-2.849-8.542-4.56-12.859-6.5c-0.761-0.342-1.79,0.206-2.492,1.007
		c-1.413,1.611-2.67,2.447-4.418,1.557c-5.363-2.729-10.824-3.485-16.123,0.387c-1.68,1.229-3.16,3.777-4.547,6.131
		c-2.078,3.529-4.307,4.629-6.978,3.22c-0.678-0.356-1.66-0.185-2.222,0.548c-3.191,4.164-6.649,4.992-10.396,4.256
		c-2.473-0.486-4.991-0.08-7.489-0.13c-0.715-0.013-1.514,0.135-2.128-0.407c-1.075-0.945-1.961-0.429-2.948,0.097V285h314.517
		V280.29z"/>
	<path fill="#808080" d="M1028.84,83.811c-3.129-0.493-6.279,0.877-9.398-1.605c-2.076-1.652-4.373-2.135-6.592-2.854
		c-0.613-0.198-1.32,0.513-1.949,1.008c-3.992,3.141-8.021,6.061-12.354,5.425c-2.34-0.344-4.695-2.173-6.982-1.765
		c-3.426,0.612-6.625-1.791-9.947-1.973c-2.332-0.128-4.67,0.4-7.006,0.549c-2.332,0.149-4.695,0.79-6.863-1.938
		c-2.301-2.897-4.654-2.168-6.932,0.046c-3.01,2.924-6.076,2.774-9.223,1.467c-0.865-0.36-1.777-0.297-2.666-0.242
		c-0.889,0.054-1.812,0.78-2.652,0.44c-2.092-0.848-4.016-0.781-5.93,1.653c-0.539,0.686-1.512,0.013-2.262-0.296
		c-1.943-0.798-3.855-2.065-5.812-2.564c-5.689-1.449-11.211-3.924-15.91-11.41c-2.424-3.858-5.219-5.059-8.057-6.285
		c-0.973-0.421-1.951-1.001-2.865-1.82c-2.889-2.593-5.598-5.969-8.77-7.26c-2.697-1.098-5.273-3.498-7.951-4.896
		c-0.773-0.403-1.721,0.619-2.578,1.075c-1.25,0.664-2.48,1.502-3.738,2.096c-2.553,1.206-5.109,2.41-7.686,3.376
		c-0.883,0.332-1.949,0.536-2.717-0.208c-2.818-2.735-5.561-5.837-8.305-8.907c-2.262-2.529-4.059-1.88-6.143,1.095
		c-2.473,3.527-5.027,7.129-7.787,9.305c-2.648,2.086-5.604,2.406-8.426,3.471c-2.062,0.777-4.119,1.688-6.195,2.208
		c-2.926,0.733-5.867,1.342-8.756-0.811c-0.631-0.471-1.34-0.711-2.008-0.678c-2.176,0.108-4.352,0.532-6.527,0.565
		c-1.701,0.025-3.41-0.201-5.104-0.583c-2.285-0.515-4.348,1.018-6.482,2.388c-1.883,1.209-3.875,1.766-5.838,2.281
		c-2.338,0.616-4.697,0.898-7.049,1.288c-0.416,0.069-0.887,0.211-1.25-0.106c-2.703-2.348-5.578-1.86-8.385-2.578
		c-2.123-0.544-4.184-2.265-6.307-2.725c-1.838-0.399-3.725,0.227-5.59,0.431c-0.363,0.039-0.779,0.529-1.078,0.288
		c-1.869-1.507-3.486,0.513-5.207,1.382c-1.826,0.924-3.707,1.343-5.555,2.086c-1.387,0.558-2.83,0.897-4.119,2.009
		c-2.398,2.069-4.812,1.774-7.117,0.227c-2.879-1.932-5.338-1.098-7.863,2.31c-1.543,2.082-3.197,2.531-5.145,4.232
		c0,0.114-0.002,0.239-0.002,0.355l0,0V285h300.047V85.19C1033.545,84.225,1031.167,84.177,1028.84,83.811z"/>
</g>
<g>
	<path fill="#FFFFFF" d="M337.954,274.628l0.072,2.718l-0.108,0.144l-1.404,0.108l-0.108-0.126l0.054-2.844h-3.168l-1.35,0.035
		l-0.126-0.161v-1.188l4.482-6.479h1.692l-0.054,6.371h1.62l0.108,0.162l-0.09,1.296L337.954,274.628z M336.478,273.205v-4.229
		h-0.144l-2.916,4.229H336.478z"/>
	<path fill="#FFFFFF" d="M343.39,275.294c0,0.888-0.636,1.787-1.908,2.699l-0.594-0.54l-0.018-0.144
		c0.66-0.54,0.99-1.092,0.99-1.656c0-0.371-0.186-0.689-0.558-0.954v-0.162c0.443-0.287,0.882-0.485,1.314-0.594
		C343.131,274.315,343.39,274.766,343.39,275.294z"/>
	<path fill="#FFFFFF" d="M352.002,267.887c0.666,0.786,0.999,1.905,0.999,3.356c0,1.513-0.351,2.683-1.053,3.511
		s-1.701,1.241-2.997,1.241c-1.224,0-2.172-0.393-2.844-1.179s-1.008-1.893-1.008-3.321c0-1.523,0.356-2.702,1.071-3.536
		c0.714-0.834,1.719-1.251,3.015-1.251C350.397,266.708,351.336,267.101,352.002,267.887z M346.539,271.369
		c0,2.005,0.84,3.007,2.521,3.007c1.68,0,2.52-0.973,2.52-2.916c0-2.04-0.846-3.061-2.538-3.061
		C347.373,268.399,346.539,269.39,346.539,271.369z"/>
	<path fill="#FFFFFF" d="M361.452,267.887c0.666,0.786,0.999,1.905,0.999,3.356c0,1.513-0.351,2.683-1.053,3.511
		s-1.701,1.241-2.997,1.241c-1.224,0-2.172-0.393-2.844-1.179c-0.673-0.786-1.008-1.893-1.008-3.321
		c0-1.523,0.357-2.702,1.071-3.536s1.719-1.251,3.015-1.251C359.847,266.708,360.786,267.101,361.452,267.887z M355.989,271.369
		c0,2.005,0.84,3.007,2.52,3.007s2.52-0.973,2.52-2.916c0-2.04-0.846-3.061-2.538-3.061
		C356.823,268.399,355.989,269.39,355.989,271.369z"/>
	<path fill="#FFFFFF" d="M370.902,267.887c0.666,0.786,0.999,1.905,0.999,3.356c0,1.513-0.351,2.683-1.053,3.511
		c-0.702,0.828-1.701,1.241-2.997,1.241c-1.224,0-2.172-0.393-2.844-1.179c-0.672-0.786-1.008-1.893-1.008-3.321
		c0-1.523,0.357-2.702,1.071-3.536s1.719-1.251,3.015-1.251C369.297,266.708,370.236,267.101,370.902,267.887z M365.439,271.369
		c0,2.005,0.84,3.007,2.52,3.007c1.68,0,2.521-0.973,2.521-2.916c0-2.04-0.846-3.061-2.538-3.061
		C366.273,268.399,365.439,269.39,365.439,271.369z"/>
	<path fill="#FFFFFF" d="M382.143,263.342l-0.107,1.386l-0.126,0.108c-0.517-0.229-0.979-0.343-1.386-0.343
		c-0.888,0-1.338,0.517-1.35,1.549l-0.018,1.548h2.124l0.054,0.126l-0.108,1.044h-2.088l-0.054,3.438l0.126,3.654h-1.836
		l0.108-3.492l-0.036-3.6h-1.242l-0.072-0.108l0.09-1.062h1.224l-0.018-1.242c-0.012-1.02,0.267-1.803,0.837-2.349
		c0.57-0.546,1.377-0.819,2.421-0.819C381.153,263.18,381.639,263.233,382.143,263.342z"/>
	<path fill="#FFFFFF" d="M383.313,271.783c0.036,1.872,0.828,2.809,2.376,2.809c0.78,0,1.59-0.252,2.43-0.756l0.162,0.107
		l-0.216,1.458c-0.84,0.408-1.68,0.612-2.52,0.612c-1.236,0-2.199-0.381-2.889-1.144c-0.69-0.762-1.035-1.803-1.035-3.122
		c0-1.345,0.36-2.403,1.08-3.178c0.72-0.773,1.686-1.161,2.897-1.161c0.96,0,1.704,0.282,2.232,0.847
		c0.528,0.563,0.792,1.344,0.792,2.34c0,0.312-0.024,0.612-0.072,0.899l-0.306,0.288H383.313z M386.589,269.093
		c-0.264-0.282-0.63-0.423-1.098-0.423c-0.552,0-1.008,0.174-1.368,0.521c-0.36,0.349-0.601,0.84-0.72,1.477l3.546-0.091
		l0.036-0.216C386.985,269.798,386.853,269.375,386.589,269.093z"/>
	<path fill="#FFFFFF" d="M391.575,271.783c0.036,1.872,0.828,2.809,2.376,2.809c0.78,0,1.59-0.252,2.43-0.756l0.162,0.107
		l-0.216,1.458c-0.84,0.408-1.681,0.612-2.521,0.612c-1.236,0-2.199-0.381-2.889-1.144c-0.69-0.762-1.035-1.803-1.035-3.122
		c0-1.345,0.36-2.403,1.08-3.178c0.72-0.773,1.686-1.161,2.898-1.161c0.96,0,1.704,0.282,2.232,0.847
		c0.528,0.563,0.792,1.344,0.792,2.34c0,0.312-0.024,0.612-0.072,0.899l-0.306,0.288H391.575z M394.851,269.093
		c-0.264-0.282-0.63-0.423-1.098-0.423c-0.552,0-1.008,0.174-1.368,0.521c-0.36,0.349-0.6,0.84-0.72,1.477l3.546-0.091l0.036-0.216
		C395.247,269.798,395.115,269.375,394.851,269.093z"/>
	<path fill="#FFFFFF" d="M402.969,274.142l0.18,0.126l-0.18,1.152c-0.66,0.312-1.272,0.491-1.836,0.54
		c-0.744-0.12-1.284-0.369-1.62-0.747s-0.504-0.928-0.504-1.647l0.072-1.296l-0.019-3.51h-1.134l-0.072-0.108l0.09-1.062h1.098
		v-1.314l1.62-0.612l0.162,0.145l-0.036,1.782h2.304l0.072,0.126l-0.09,1.044h-2.322l-0.09,4.518
		c-0.013,0.444,0.062,0.753,0.225,0.927c0.162,0.175,0.435,0.262,0.819,0.262C402.104,274.466,402.524,274.357,402.969,274.142z"/>
</g>
</svg>
