<?xml version="1.0" encoding="utf-8"?>
<!-- Generator: Adobe Illustrator 16.0.4, SVG Export Plug-In . SVG Version: 6.00 Build 0)  -->
<!DOCTYPE svg PUBLIC "-//W3C//DTD SVG 1.1//EN" "http://www.w3.org/Graphics/SVG/1.1/DTD/svg11.dtd">
<svg version="1.1" id="Layer_1" xmlns="http://www.w3.org/2000/svg" xmlns:xlink="http://www.w3.org/1999/xlink" x="0px" y="0px"
	 width="1036px" height="285px" viewBox="0 0 1036 285" enable-background="new 0 0 1036 285" xml:space="preserve">
<path fill-rule="evenodd" clip-rule="evenodd" d="M185.366,213.193v-92.692c0.026-0.005,0.038-0.01,0-0.018v-11.43
	c7.627-3.271,15.058-9.029,22.898-9.158c5.609-0.093,11.188-5.267,16.814-7.697c4.424-1.911,8.893-3.284,13.359-4.485
	c1.37-0.368,2.813,1.092,4.203,0.896c3.885-0.547,7.76-1.511,11.638-2.333c1.232-0.262,2.46-0.643,3.694-0.885
	c4.667-0.912,9.485-3.929,13.961-2.066c4.297,1.787,8.258,0.628,12.334-0.681c9.19-2.951,18.363-6.238,27.541-9.428
	c7.074-2.459,14.144-5.011,21.219-7.461c4.277-1.481,8.58-4.274,12.838-3.934c6.47,0.516,12.737-1.97,19-4.659
	c5.527-2.374,10.936-6.353,16.438-9.137c1.748-0.885,3.638,0.029,5.447-0.312c1.93-0.363,3.84-1.305,5.766-1.86
	c1.316-0.381,2.654-0.372,3.966-0.818c8.048-2.735,16.076-5.845,24.144-8.167c2.508-0.722,5.206,1.843,7.664,0.786
	c7.498-3.225,14.852-0.498,22.266,1.289c3.4,0.82,6.858,0.721,10.279,0.385c3.471-0.341,7.242-4.002,10.318-1.713
	c5.113,3.804,9.67-0.827,14.445-1.559c5.458-0.836,10.932-4.931,16.307-4.086c6.549,1.027,13.004,5.689,19.494,8.847
	c5.102,2.482,10.164,6.636,15.299,7.233c7.391,0.861,13.771,8.661,20.533,13.963c2.76,2.163,5.518,4.6,8.355,5.868
	c7.208,3.22,14.453,5.946,21.695,8.688c5.491,2.078,11.017,3.646,16.494,5.897c2.92,1.199,5.787,3.235,8.65,5.13
	c3.786,2.507,7.524,5.461,11.324,7.817c2.904,1.799,6.07,1.857,8.762,4.7c3.404,3.597,6.566,7.922,10.38,9.259
	c5.904,2.067,11.69,6.888,17.603,7.896c9.58,1.638,19.198,1.967,28.809,2.587l-0.018-0.004l26.627-1.694
	c0.909-0.722,1.824-1.333,2.757-1.666c8.475-3.027,16.967-5.891,25.486-8.008c8.974-2.229,17.982-3.696,26.984-5.175
	c4.874-0.801,9.851,0.269,14.622-1.737c3.916-1.645,7.495-1.909,11.42-0.038c4.126,1.965,8.484,1.514,12.734,1.297
	c4.814-0.245,9.672-2.814,14.416-1.79c5.338,1.153,10.369,0.016,15.443-3.579c2.277-1.613,4.652-2.807,7.012-3.246
	c6.276-1.171,12.566-1.953,18.854-2.659c8.87-0.998,17.744-1.769,26.616-2.689c1.146-0.119,2.285-0.773,3.43-0.794
	c4.539-0.081,9.355-0.202,14.779-0.202V285H185.342v-71.807H185.366z"/>
<g>
	<path fill="#808080" d="M178.374,111.385c-0.006-0.76-0.016-1.523-0.016-2.275c-1.334-0.577-2.463-0.985-3.766-0.817
		c-3.672,0.478-7.303-0.922-10.914-4.13c-0.402-0.358-0.826-0.058-1.238-0.142c-2.148-0.438-4.295-1.121-6.441-1.263
		c-1.09-0.072-2.18,0.834-3.27,1.266c-4.748,1.879-9.508,1.707-14.26,4.927c-3.451,2.338-7.037-0.178-10.561-0.697
		c-1.092-0.159-2.188-0.635-3.271-1.355c-4.1-2.729-8.193-5.681-12.293-8.426c-4.283-2.868-8.594-4.911-12.85-8.581
		c-4.074-3.514-8.09-8.736-12.139-13.032c-1.291-1.368-2.611-1.992-3.904-3.27c-3.283-3.238-6.555-6.787-9.84-9.952
		c-2.498-2.407-5.021-4.209-7.518-6.656c-2.365-2.317-4.705-5.292-7.066-7.668c-2.23-2.242-4.465-4.529-6.717-5.985
		c-2.752-1.779-5.523-2.938-8.293-3.923c-1.6-0.568-3.213-0.024-4.816-0.399c-3.191-0.75-6.383-1.653-9.572-2.739
		c-5.006-1.705-10.006-4.049-15.018-5.184c-1.6-0.361-3.227,2.254-4.84,3.511c-2.502,1.947-4.994,4.183-7.504,5.785
		c-0.631,0.402-1.263,0.791-1.895,1.182V285h178V111.385z"/>
	<path fill="#808080" d="M1036.005,78.904c-2.299,0.781-4.598,1.75-6.857,3.101c-4.896,2.928-9.627,8.282-14.809,6.898
		c-0.547-0.146-1.121,0.447-1.682,0.695c-4.072,1.812-8.088-0.039-12.117-1.307c-2.07-0.652-4.154-1.053-6.223-1.794
		c-1.592-0.572-3.158-1.732-4.754-2.17c-0.822-0.225-1.723,0.235-2.52,0.943c-3.088,2.747-6.162,2.986-9.387,1.585
		c-2.762-1.198-5.533-2.759-8.455-0.657c-1.701,1.224-3.676-0.457-5.529-0.549c-2.701-0.134-5.406,0.166-8.107-0.043
		c-4.145-0.32-8.219,2.627-12.467-0.061c-3.016-1.907-6.324-0.752-9.498-0.527c-3.326,0.236-6.648,0.954-9.969,1.534
		c-2.041,0.356-4.08,0.847-6.197,1.296V285h118.939V78.808C1036.251,78.839,1036.127,78.862,1036.005,78.904z"/>
</g>
<g>
	<path fill="#FFFFFF" d="M199.136,273.745l0.072,2.718l-0.107,0.144l-1.404,0.108l-0.108-0.126l0.054-2.844h-3.168l-1.35,0.035
		l-0.126-0.161v-1.188l4.482-6.479h1.692l-0.054,6.371h1.62l0.108,0.162l-0.09,1.296L199.136,273.745z M197.66,272.322v-4.229
		h-0.144l-2.916,4.229H197.66z"/>
	<path fill="#FFFFFF" d="M204.572,274.411c0,0.888-0.636,1.787-1.908,2.699l-0.594-0.54l-0.018-0.144
		c0.66-0.54,0.99-1.092,0.99-1.656c0-0.371-0.186-0.689-0.558-0.954v-0.162c0.443-0.287,0.882-0.485,1.313-0.594
		C204.314,273.433,204.572,273.883,204.572,274.411z"/>
	<path fill="#FFFFFF" d="M213.185,267.004c0.666,0.786,0.999,1.905,0.999,3.356c0,1.513-0.351,2.683-1.053,3.511
		s-1.701,1.241-2.997,1.241c-1.224,0-2.172-0.393-2.844-1.179c-0.672-0.786-1.008-1.893-1.008-3.321
		c0-1.523,0.357-2.702,1.071-3.536c0.713-0.834,1.719-1.251,3.015-1.251C211.58,265.825,212.519,266.218,213.185,267.004z
		 M207.722,270.486c0,2.005,0.84,3.007,2.521,3.007c1.68,0,2.52-0.973,2.52-2.916c0-2.04-0.846-3.061-2.538-3.061
		C208.556,267.517,207.722,268.507,207.722,270.486z"/>
	<path fill="#FFFFFF" d="M222.635,267.004c0.666,0.786,0.999,1.905,0.999,3.356c0,1.513-0.351,2.683-1.053,3.511
		c-0.702,0.828-1.701,1.241-2.997,1.241c-1.224,0-2.172-0.393-2.844-1.179c-0.672-0.786-1.008-1.893-1.008-3.321
		c0-1.523,0.357-2.702,1.071-3.536s1.719-1.251,3.015-1.251C221.03,265.825,221.969,266.218,222.635,267.004z M217.172,270.486
		c0,2.005,0.84,3.007,2.52,3.007c1.68,0,2.52-0.973,2.52-2.916c0-2.04-0.846-3.061-2.538-3.061
		C218.006,267.517,217.172,268.507,217.172,270.486z"/>
	<path fill="#FFFFFF" d="M232.085,267.004c0.666,0.786,0.999,1.905,0.999,3.356c0,1.513-0.352,2.683-1.053,3.511
		c-0.702,0.828-1.701,1.241-2.997,1.241c-1.224,0-2.172-0.393-2.844-1.179s-1.008-1.893-1.008-3.321
		c0-1.523,0.357-2.702,1.071-3.536c0.714-0.834,1.719-1.251,3.015-1.251C230.479,265.825,231.419,266.218,232.085,267.004z
		 M226.622,270.486c0,2.005,0.84,3.007,2.52,3.007c1.68,0,2.52-0.973,2.52-2.916c0-2.04-0.846-3.061-2.538-3.061
		C227.456,267.517,226.622,268.507,226.622,270.486z"/>
	<path fill="#FFFFFF" d="M243.325,262.459l-0.108,1.386l-0.126,0.108c-0.516-0.229-0.978-0.343-1.386-0.343
		c-0.888,0-1.338,0.517-1.35,1.549l-0.018,1.548h2.124l0.054,0.126l-0.108,1.044h-2.088l-0.054,3.438l0.126,3.654h-1.836
		l0.107-3.492l-0.036-3.6h-1.242l-0.072-0.108l0.09-1.062h1.224l-0.018-1.242c-0.012-1.02,0.267-1.803,0.837-2.349
		c0.57-0.546,1.377-0.819,2.421-0.819C242.335,262.297,242.821,262.351,243.325,262.459z"/>
	<path fill="#FFFFFF" d="M244.495,270.9c0.036,1.872,0.828,2.809,2.376,2.809c0.78,0,1.59-0.252,2.43-0.756l0.162,0.107
		l-0.216,1.458c-0.84,0.408-1.68,0.612-2.52,0.612c-1.236,0-2.199-0.381-2.889-1.144c-0.69-0.762-1.035-1.803-1.035-3.122
		c0-1.345,0.36-2.403,1.08-3.178c0.72-0.773,1.686-1.161,2.898-1.161c0.96,0,1.704,0.282,2.232,0.847
		c0.527,0.563,0.792,1.344,0.792,2.34c0,0.312-0.024,0.612-0.072,0.899l-0.306,0.288H244.495z M247.771,268.21
		c-0.264-0.282-0.63-0.423-1.098-0.423c-0.552,0-1.008,0.174-1.368,0.521c-0.36,0.349-0.601,0.84-0.72,1.477l3.546-0.091
		l0.036-0.216C248.167,268.915,248.035,268.492,247.771,268.21z"/>
	<path fill="#FFFFFF" d="M252.757,270.9c0.036,1.872,0.828,2.809,2.376,2.809c0.78,0,1.59-0.252,2.43-0.756l0.162,0.107
		l-0.216,1.458c-0.84,0.408-1.68,0.612-2.52,0.612c-1.236,0-2.199-0.381-2.889-1.144c-0.69-0.762-1.035-1.803-1.035-3.122
		c0-1.345,0.36-2.403,1.08-3.178c0.72-0.773,1.686-1.161,2.898-1.161c0.96,0,1.704,0.282,2.232,0.847
		c0.528,0.563,0.792,1.344,0.792,2.34c0,0.312-0.024,0.612-0.072,0.899l-0.306,0.288H252.757z M256.033,268.21
		c-0.264-0.282-0.63-0.423-1.098-0.423c-0.552,0-1.008,0.174-1.368,0.521c-0.36,0.349-0.6,0.84-0.72,1.477l3.546-0.091l0.036-0.216
		C256.43,268.915,256.297,268.492,256.033,268.21z"/>
	<path fill="#FFFFFF" d="M264.151,273.259l0.18,0.126l-0.18,1.152c-0.66,0.312-1.272,0.491-1.836,0.54
		c-0.744-0.12-1.284-0.369-1.62-0.747s-0.504-0.928-0.504-1.647l0.072-1.296l-0.018-3.51h-1.134l-0.072-0.108l0.09-1.062h1.098
		v-1.314l1.62-0.612l0.162,0.145l-0.036,1.782h2.304l0.072,0.126l-0.09,1.044h-2.322l-0.09,4.518
		c-0.012,0.444,0.063,0.753,0.225,0.927c0.162,0.175,0.435,0.262,0.819,0.262C263.287,273.583,263.707,273.475,264.151,273.259z"/>
</g>
</svg>
