<?xml version="1.0" encoding="utf-8"?>
<!-- Generator: Adobe Illustrator 16.0.4, SVG Export Plug-In . SVG Version: 6.00 Build 0)  -->
<!DOCTYPE svg PUBLIC "-//W3C//DTD SVG 1.1//EN" "http://www.w3.org/Graphics/SVG/1.1/DTD/svg11.dtd">
<svg version="1.1" id="Layer_1" xmlns="http://www.w3.org/2000/svg" xmlns:xlink="http://www.w3.org/1999/xlink" x="0px" y="0px"
	 width="1036px" height="285px" viewBox="0 0 1036 285" enable-background="new 0 0 1036 285" xml:space="preserve">
<path fill="#010101" d="M283.914,239.432c0.143,0,0.283,0.006,0.424,0.008v-0.105h11.234c0.172-0.033,0.344-0.053,0.514-0.092
	c4.715-1.067,9.416-1.354,14.135-1.486c2.926-0.082,5.852-0.716,8.779-0.874c1.43-0.077,2.863,0.328,4.295,0.583
	c1.643,0.291,3.285,0.975,4.926,0.912c2.225-0.085,4.334-3.574,6.703-0.996c0.812,0.885,1.928,0.057,2.9-0.127
	c3.725-0.697,7.449-2.005,11.174-2.046c4.861-0.054,9.725,0.937,14.588,1.347c1.326,0.112,2.666-0.057,3.984-0.418
	c3.27-0.9,6.529-2.014,9.797-2.965c0.459-0.134,0.938,0.195,1.408,0.255c3.85,0.486,7.697,2.689,11.541-0.7
	c1.416-1.25,3.039-2.406,4.461-1.85c2.5,0.975,4.967,1.447,7.493,1.475c2.022,0.021,4.043,1.424,6.071,1.597
	c1.877,0.157,3.765-0.604,5.648-0.787c3.813-0.368,7.631-0.589,11.444-0.931c2.3-0.207,4.597-0.686,6.896-0.758
	c2.736-0.088,5.475,0.312,8.209,0.153c2.059-0.12,4.111-0.987,6.17-1.157c2.637-0.217,5.281,0.16,7.914-0.135
	c2.945-0.331,5.9-0.79,8.816-1.807c3.745-1.307,7.456-3.246,11.186-4.867c1.894-0.822,3.809-1.333,5.682-2.367
	c2.685-1.482,5.343-3.275,8.005-5.009c1.961-1.276,3.889-2.959,5.87-3.935c2.101-1.033,4.302-0.886,6.359-2.242
	c4.004-2.645,7.969-3.485,12.016-1.006c0.562,0.344,1.171,0.137,1.75,0.319c2.382,0.757,4.763,1.515,7.136,2.388
	c0.735,0.271,1.44,1.071,2.178,1.342c1.533,0.561,3.178,0.22,4.598,1.521c3.033,2.78,5.972,3.761,9.047,0.681
	c1.023-1.024,2.142-1.457,3.226-2.067c0.645-0.364,1.334-0.335,1.955-0.857c2.84-2.393,5.614-5.397,8.504-7.278
	c4.252-2.769,8.567-4.93,12.881-7.039c3.225-1.578,6.496-2.553,9.729-4.015c2.193-0.989,4.359-2.341,6.535-3.562
	c1.588-0.891,3.156-2.152,4.761-2.672c2.311-0.745,4.807,0.193,6.936-1.688c3.035-2.685,5.814,3.788,8.703,0.269
	c0.037-0.045,0.108,0.146,0.164,0.141c1.049-0.131,2.098-0.26,3.146-0.422c0.857-0.135,1.717-0.273,2.574-0.481
	c2.361-0.569,4.723-1.159,7.084-1.774c1.369-0.355,2.734-0.779,4.104-1.168c0.276-0.078,0.557-0.149,0.836-0.203
	c1.207-0.229,2.432-0.902,3.612-0.561c1.697,0.492,3.314,1.178,5.015-0.451c0.885-0.849,2.08-1.27,2.911-0.438
	c1.64,1.631,2.966,0.01,4.431-1.034c1.041-0.742,2.156-0.945,3.244-1.098c1.858-0.262,3.725-0.287,5.588-0.422
	c1.971-0.141,3.996-1.069,5.896-0.211c1.729,0.783,3.279,4.222,5.187,1.481c0.17-0.241,0.53,0.509,0.815,0.649
	c0.742,0.369,1.521,1.178,2.23,0.894c3.641-1.462,7.108,1.032,10.631,2.481c2.205,0.906,4.43,1.496,6.652,2.096
	c0.614,0.166,1.268-0.432,1.87-0.186c2.919,1.195,5.834,2.457,8.734,3.893c3.492,1.725,7.002,3.325,10.439,5.609
	c2.123,1.41,4.104,4.492,6.342,1.109c0.248-0.376,0.686-0.152,1.01,0.047c1.922,1.176,3.869,2.149,5.74,3.726
	c2.26,1.903,4.467,3.849,6.854,1.532c0.15-0.146,0.355-0.075,0.519,0.045c1.836,1.361,3.649,2.953,5.508,4.076
	c1.908,1.152,3.854,1.922,5.789,2.74c3.137,1.325,6.318,2.112,9.402,3.973c2.225,1.343,4.674,0.547,6.686,4.201
	c0.24,0.437,0.705-0.012,1.051,0.146c3.064,1.386,6.275,2.249,8.992,3.123V285H284.338v-45.203c-0.158,0-0.318,0-0.477,0
	C283.879,239.675,283.896,239.553,283.914,239.432z"/>
<g>
	<path fill="#818181" d="M1032.395,176.204c-3.11-0.429-6.211-2.117-9.318-2.187c-4.026-0.09-8.055,1.151-12.082,1.314
		c-3.436,0.139-6.874-0.557-10.312-0.643c-1.682-0.041-3.369,0.795-5.049,0.658c-3.658-0.301-7.312-1.275-10.969-1.365
		c-2.008-0.051-3.971-0.655-5.947-1.539c-0.666-0.297-1.375,0.463-2.065,0.531c-3.479,0.342-6.956,0.664-10.437,0.896
		c-3.106,0.207-6.201-0.646-9.33,0.407c-2.283,0.768-4.648-0.867-6.977-1.508c-1.182-0.326-2.355-1.033-3.539-1.203
		c-4.273-0.615-8.557-1.773-12.824-1.377c-3.584,0.334-7.146,3.434-10.725,3.563c-1.842,0.067-3.657,1.324-5.467,0.882
		c-2.15-0.525-4.271-2.191-6.42-2.917c-2.479-0.836-4.97-1.429-7.459-1.639c-1.211-0.103-2.431,0.938-3.647,1.397
		c-0.431,0.162-0.872,0.063-1.305,0.199c-1.625,0.504-3.257,0.883-4.87,1.633c-2.303,1.069-4.582,2.623-6.889,3.607
		c-2.921,1.246-5.865,1.938-8.783,3.227c-2.39,1.057-4.744,2.846-7.135,3.894c-1.068,0.469-2.185-0.167-3.277-0.152
		c-2.29,0.028-4.582,0.017-6.871,0.298c-1.305,0.16-2.6,1.041-3.906,1.299c-4.385,0.862-8.789,1.104-13.154,2.525
		c-3.651,1.189-7.256,3.793-10.891,5.598c-2.22,1.102-4.455,1.906-6.686,2.785c-3.371,1.325-6.742,2.629-10.117,3.885
		c-2.236,0.834-4.473,1.983-6.717,2.211c-1.748,0.178-3.506-1.084-5.265-1.243c-0.877-0.079-1.759,1.06-2.647,1.335
		c-2.039,0.633-4.088,0.988-6.127,1.636c-0.877,0.276-1.734,1.229-2.611,1.464c-1.229,0.326-2.475,0.374-3.711,0.352
		c-2.871-0.053-5.576,2.548-8.31,4.783c-0.284,0.232-0.632-0.422-0.946-0.389c-0.654,0.07-1.307,0.35-1.961,0.502
		c-1.502,0.348-3.06,1.579-4.49,0.732c-1.289-0.762-1.979,1.984-2.977,2.578c-1.16,0.688-2.33,1.213-3.494,1.802
		c-0.275,0.14-0.556,0.217-0.828,0.392c-1.65,1.059-3.295,2.122-4.502,2.904l-0.842,0.593V285h274.928V176.404
		C1034.426,176.396,1033.408,176.343,1032.395,176.204z"/>
</g>
<rect x="-0.005" y="242.807" fill="#FFFFFF" width="26.999" height="42.193"/>
<g>
	<path fill="#FFFFFF" d="M300.137,274.266l0.072,2.719l-0.108,0.144l-1.404,0.108l-0.108-0.127l0.054-2.844h-3.168l-1.35,0.035
		l-0.125-0.16v-1.188l4.482-6.479h1.692l-0.054,6.371h1.62l0.108,0.162l-0.09,1.296L300.137,274.266z M298.661,272.843v-4.229
		h-0.144l-2.916,4.229H298.661z"/>
	<path fill="#FFFFFF" d="M305.573,274.932c0,0.889-0.636,1.787-1.908,2.699l-0.594-0.54l-0.018-0.144
		c0.66-0.54,0.99-1.092,0.99-1.656c0-0.371-0.186-0.689-0.558-0.954v-0.162c0.444-0.286,0.882-0.485,1.314-0.594
		C305.315,273.953,305.573,274.402,305.573,274.932z"/>
	<path fill="#FFFFFF" d="M314.186,267.523c0.666,0.787,0.999,1.906,0.999,3.356c0,1.513-0.351,2.683-1.053,3.511
		c-0.702,0.828-1.701,1.241-2.997,1.241c-1.224,0-2.172-0.394-2.844-1.179c-0.672-0.786-1.008-1.893-1.008-3.321
		c0-1.522,0.357-2.702,1.071-3.536s1.719-1.25,3.015-1.25C312.581,266.346,313.52,266.738,314.186,267.523z M308.723,271.007
		c0,2.005,0.84,3.007,2.52,3.007c1.68,0,2.52-0.973,2.52-2.916c0-2.039-0.846-3.061-2.538-3.061
		C309.557,268.037,308.723,269.027,308.723,271.007z"/>
	<path fill="#FFFFFF" d="M323.636,267.523c0.666,0.787,0.999,1.906,0.999,3.356c0,1.513-0.351,2.683-1.053,3.511
		s-1.701,1.241-2.997,1.241c-1.224,0-2.172-0.394-2.844-1.179c-0.672-0.786-1.008-1.893-1.008-3.321
		c0-1.522,0.357-2.702,1.071-3.536c0.714-0.834,1.719-1.25,3.015-1.25C322.031,266.346,322.97,266.738,323.636,267.523z
		 M318.173,271.007c0,2.005,0.84,3.007,2.52,3.007c1.68,0,2.52-0.973,2.52-2.916c0-2.039-0.846-3.061-2.538-3.061
		C319.007,268.037,318.173,269.027,318.173,271.007z"/>
	<path fill="#FFFFFF" d="M333.086,267.523c0.666,0.787,0.999,1.906,0.999,3.356c0,1.513-0.351,2.683-1.053,3.511
		c-0.702,0.828-1.701,1.241-2.997,1.241c-1.224,0-2.172-0.394-2.844-1.179c-0.672-0.786-1.008-1.893-1.008-3.321
		c0-1.522,0.357-2.702,1.071-3.536s1.719-1.25,3.015-1.25C331.48,266.346,332.42,266.738,333.086,267.523z M327.623,271.007
		c0,2.005,0.84,3.007,2.52,3.007c1.68,0,2.52-0.973,2.52-2.916c0-2.039-0.846-3.061-2.538-3.061
		C328.457,268.037,327.623,269.027,327.623,271.007z"/>
	<path fill="#FFFFFF" d="M344.327,262.979l-0.108,1.387l-0.126,0.107c-0.516-0.229-0.978-0.343-1.386-0.343
		c-0.888,0-1.338,0.517-1.35,1.55l-0.018,1.547h2.124l0.054,0.127l-0.108,1.043h-2.088l-0.054,3.438l0.126,3.654h-1.836l0.108-3.492
		l-0.036-3.601h-1.242l-0.072-0.107l0.09-1.062h1.224l-0.018-1.242c-0.012-1.02,0.267-1.803,0.837-2.348
		c0.57-0.547,1.377-0.82,2.421-0.82C343.336,262.816,343.822,262.871,344.327,262.979z"/>
	<path fill="#FFFFFF" d="M345.497,271.421c0.036,1.872,0.828,2.81,2.376,2.81c0.78,0,1.59-0.252,2.43-0.756l0.162,0.106
		l-0.216,1.458c-0.84,0.408-1.68,0.611-2.52,0.611c-1.236,0-2.199-0.381-2.889-1.144c-0.69-0.762-1.035-1.803-1.035-3.122
		c0-1.345,0.36-2.402,1.08-3.178c0.72-0.773,1.686-1.161,2.898-1.161c0.959,0,1.704,0.282,2.232,0.847
		c0.528,0.563,0.792,1.344,0.792,2.34c0,0.312-0.024,0.613-0.072,0.899l-0.306,0.288L345.497,271.421L345.497,271.421z
		 M348.772,268.73c-0.264-0.282-0.63-0.424-1.098-0.424c-0.552,0-1.008,0.174-1.368,0.521c-0.36,0.349-0.6,0.84-0.72,1.477
		l3.546-0.091l0.036-0.216C349.168,269.436,349.036,269.014,348.772,268.73z"/>
	<path fill="#FFFFFF" d="M353.758,271.421c0.036,1.872,0.828,2.81,2.376,2.81c0.78,0,1.59-0.252,2.43-0.756l0.162,0.106
		l-0.216,1.458c-0.84,0.408-1.681,0.611-2.52,0.611c-1.236,0-2.199-0.381-2.889-1.144c-0.69-0.762-1.035-1.803-1.035-3.122
		c0-1.345,0.36-2.402,1.08-3.178c0.72-0.773,1.686-1.161,2.898-1.161c0.96,0,1.704,0.282,2.232,0.847
		c0.528,0.563,0.792,1.344,0.792,2.34c0,0.312-0.024,0.613-0.072,0.899l-0.306,0.288L353.758,271.421L353.758,271.421z
		 M357.035,268.73c-0.264-0.282-0.63-0.424-1.098-0.424c-0.552,0-1.008,0.174-1.368,0.521c-0.36,0.349-0.6,0.84-0.72,1.477
		l3.546-0.091l0.036-0.216C357.431,269.436,357.298,269.014,357.035,268.73z"/>
	<path fill="#FFFFFF" d="M365.152,273.779l0.18,0.125l-0.18,1.152c-0.66,0.312-1.272,0.491-1.836,0.541
		c-0.744-0.121-1.284-0.369-1.62-0.748c-0.336-0.377-0.504-0.928-0.504-1.646l0.072-1.296l-0.018-3.511h-1.134l-0.072-0.107
		l0.09-1.062h1.098v-1.313l1.62-0.612l0.162,0.145l-0.036,1.783h2.304l0.072,0.125l-0.09,1.045h-2.322l-0.09,4.518
		c-0.012,0.443,0.063,0.753,0.225,0.928c0.162,0.174,0.435,0.262,0.819,0.262C364.289,274.104,364.708,273.995,365.152,273.779z"/>
</g>
</svg>
