<?xml version="1.0" encoding="utf-8"?>
<!-- Generator: Adobe Illustrator 16.0.4, SVG Export Plug-In . SVG Version: 6.00 Build 0)  -->
<!DOCTYPE svg PUBLIC "-//W3C//DTD SVG 1.1//EN" "http://www.w3.org/Graphics/SVG/1.1/DTD/svg11.dtd">
<svg version="1.1" id="Layer_1" xmlns="http://www.w3.org/2000/svg" xmlns:xlink="http://www.w3.org/1999/xlink" x="0px" y="0px"
	 width="1036px" height="285px" viewBox="0 0 1036 285" enable-background="new 0 0 1036 285" xml:space="preserve">
<path fill-rule="evenodd" clip-rule="evenodd" d="M253.524,132.567c2.878-1.516,4.106-0.84,6.579-1.916
	c4.12-1.794,8.252-3.327,12.379-4.954c3.865-1.522,7.729-3.089,11.599-4.507c2.137-0.782,4.311-0.782,6.42-2.033
	c5.21-3.091,10.401-6.556,15.583-10.135c6.95-4.801,13.899-9.639,20.815-14.94c1.812-1.39,3.452-5.126,5.255-6.795
	c5.559-5.146,11.199-9.352,16.729-14.814c4.58-4.525,9.033-10.516,13.904-10.764c1.249-0.062,2.505-0.258,3.746,0.079
	c2.127,0.576,4.322,3.089,6.346,1.962c3.339-1.86,6.527-6.517,9.848-8.979c3.195-2.369,6.465-4.368,9.725-4.881
	c4.941-0.776,9.466,5.07,13.863,12.164c4.291,6.922,8.581,13.989,13.023,19.682c2.875,3.682,6.008,4.852,9.105,1.058
	c0.636-0.777,1.496-0.695,2.146,0.029c2.854,3.172,5.666,6.746,8.496,10.134c1.973,2.359,3.766,1.396,5.582-2.276
	c3.26-6.596,6.619-12.655,9.941-18.907c0.168-0.316,0.387-0.325,0.58-0.484c4.869-4.002,9.766-7.648,14.596-12.1
	c5.684-5.239,11.461-8.075,17.328-9.571c3.944-1.007,7.92-1.875,11.797-4.299c6.339-3.964,12.602-0.935,18.891,0.493
	c0.51,0.115,1.065,0.981,1.485,2.01c3.359,8.229,7.199,6.152,10.922,5.376c5.09-1.063,10.145-3.349,15.254,0.064
	c3.156,2.107,6.342,3.227,9.592-0.257c1.764-1.893,3.771-1.936,5.66-1.741c2.336,0.238,4.678,1.281,6.988,2.54
	c2.504,1.36,4.99,3.164,7.453,5.196c0.961,0.793,1.795,3.367,2.756,4.042c3.008,2.112,6.031,4.445,9.083,5.275
	c2.565,0.698,5.242,0.45,7.755-1.254c3.164-2.148,6.039-5.995,9.531-3.004c3.888,3.332,8.062,2.83,12.09,4.563
	c3.055,1.314,6.065,4.775,9.111,5.006c3.727,0.283,7.076,4.286,10.268,9.245c2.467,3.831,4.728,4.818,7.119,1.666
	c2.082-2.741,3.976-2.575,6.083-0.151c1.039,1.194,2.376-0.315,3.571-0.796c1.498-0.602,3.021-2.435,4.478-1.925
	c4.06,1.426,8.082,3.968,12.133,5.722c3.46,1.496,6.935,2.676,10.41,3.684c2.817,0.817,5.725,2.807,8.451,1.362
	c4.632-2.454,8.913,2.684,13.354,4.038c3.267,0.997,6.494,3.654,9.761,4.275c4.015,0.766,8.054,0.355,12.08,0.139
	c4.792-0.26,9.656-2.723,14.35-0.686c3.469,1.506,6.549-5.074,10.049-1.405c2.459,2.578,5.303,0.815,7.939,1.898
	c3.453,1.419,6.875,3.678,10.306,5.683c1.843,1.076,3.687,2.19,5.507,3.625c2.207,1.742,4.362,4.322,6.588,5.665
	c2.884,1.741,5.815,2.618,8.759,3.882c0,4.851,0,9.805,0,15.116c0,0.112,0,0.22,0,0.333v150H251.351V132.817L253.524,132.567z"/>
<g>
	<path fill="#808080" d="M244.384,132.667h-0.188c-3.002-2.919-11.942-7.727-15.672-8.16c-0.583-0.067-1.161-0.399-1.732-0.669
		c-6.206-2.937-12.434-5.743-18.604-8.896c-2.716-1.388-5.296-3.571-7.97-5.236c-1.992-1.24-4.002-2.694-6.068-3.156
		c-1.281-0.286-2.707,0.989-4.03,1.764c-4.999,2.929-9.95,6.12-14.981,8.865c-4.602,2.511-9.246,3.622-14.055,0.93
		c-2.195-1.229-4.547-0.927-6.967-0.407c-2.336,0.5-4.933-1.225-7.274-2.67c-2.736-1.688-5.126-4.563-8.196-5.284
		c-3.625-0.851-7.117-3.356-10.689-5.005c-0.732-0.338-1.662-0.478-2.32,0.021c-1.63,1.239-3.041,0.867-4.444-0.81
		c-1.972-2.356-4.085-3.008-6.41-1.807c-0.698,0.36-1.488,0.294-2.232,0.245c-3.055-0.198-6.108-0.65-9.161-0.619
		c-1.3,0.014-2.668,0.686-3.881,1.577c-4.23,3.112-8.342,0.865-12.494-0.457c-0.862-0.274-1.947-0.771-2.615-0.143
		c-3.119,2.934-6.215,0.928-9.373,0.688c-3.371-0.255-6.772,0.798-10.162,1.229c-0.972,0.124-1.981,0.369-2.92,0.058
		c-4.473-1.486-8.803-0.118-12.916,2.622c-3.061,2.039-6.117,2.487-9.25,2.107c-2.416-0.292-4.241,1.915-6.307,3.349
		c-5.162,3.587-10.354,7.13-15.659,9.965c-2.024,1.082-4.394,0.106-6.604,0.2c-3.627,0.152-7.252,0.391-10.879,0.561V285h244.057
		V132.667z"/>
	<path fill="#808080" d="M1029.002,121.925c-0.945-0.456-1.898-0.837-2.85-1.028c-3.111-0.622-6.492,1.348-9.279-2.234
		c-5.125-6.586-9.639,4.428-14.547,2.658c-5.16-1.858-10.4-2.183-15.59-1.565c-6.834,0.812-12.822-10.455-19.305-14.696
		c-5.793-3.791-11.242-13.513-16.951-19.354c-2.584-2.645-5.451-1.803-8.154-3.29c-5.418-2.981-10.811-6.506-16.217-9.749
		c-2.98-1.787-5.965-3.472-8.949-5.166c-0.314-0.18-0.668,0.146-0.959-0.202c-5.652-6.798-11.234-14.382-16.971-20.196
		c-2.721-2.759-5.861-4.52-8.574-2.63c-6.93,4.832-13.883,10.473-20.52,18.74c-4.041,5.03-8.094,4.796-12.037,5.19
		c-6.113,0.61-11.844,8.388-17.787,9.103c-7.332,0.881-13.844,10.158-20.314,19.38c-8.477,12.077-17.271,18.345-26.346,23.114
		c0,11.95,0,23.764,0,36.815c0.02,0,0.039,0,0.059,0V285h242.617V125.821C1033.886,124.531,1031.447,123.106,1029.002,121.925z"/>
</g>
<g>
	<path fill="#FFFFFF" d="M266.148,275.079l0.072,2.718l-0.108,0.144l-1.404,0.108l-0.108-0.126l0.054-2.844h-3.168l-1.35,0.035
		l-0.126-0.161v-1.188l4.482-6.479h1.692l-0.054,6.371h1.62l0.108,0.162l-0.09,1.296L266.148,275.079z M264.672,273.656v-4.229
		h-0.144l-2.916,4.229H264.672z"/>
	<path fill="#FFFFFF" d="M271.584,275.745c0,0.888-0.636,1.787-1.908,2.699l-0.594-0.54l-0.018-0.144
		c0.66-0.54,0.99-1.092,0.99-1.656c0-0.371-0.186-0.689-0.558-0.954v-0.162c0.443-0.287,0.882-0.485,1.314-0.594
		C271.326,274.767,271.584,275.217,271.584,275.745z"/>
	<path fill="#FFFFFF" d="M280.197,268.338c0.666,0.786,0.999,1.905,0.999,3.356c0,1.513-0.351,2.683-1.053,3.511
		s-1.701,1.241-2.997,1.241c-1.224,0-2.172-0.393-2.844-1.179s-1.008-1.893-1.008-3.321c0-1.523,0.356-2.702,1.071-3.536
		c0.714-0.834,1.719-1.251,3.015-1.251C278.592,267.159,279.531,267.552,280.197,268.338z M274.733,271.82
		c0,2.005,0.84,3.007,2.521,3.007c1.68,0,2.52-0.973,2.52-2.916c0-2.04-0.846-3.061-2.538-3.061
		C275.567,268.851,274.733,269.841,274.733,271.82z"/>
	<path fill="#FFFFFF" d="M289.646,268.338c0.666,0.786,0.999,1.905,0.999,3.356c0,1.513-0.351,2.683-1.053,3.511
		s-1.701,1.241-2.997,1.241c-1.224,0-2.172-0.393-2.844-1.179c-0.673-0.786-1.008-1.893-1.008-3.321
		c0-1.523,0.357-2.702,1.071-3.536s1.719-1.251,3.015-1.251C288.042,267.159,288.98,267.552,289.646,268.338z M284.184,271.82
		c0,2.005,0.84,3.007,2.52,3.007s2.52-0.973,2.52-2.916c0-2.04-0.846-3.061-2.538-3.061
		C285.018,268.851,284.184,269.841,284.184,271.82z"/>
	<path fill="#FFFFFF" d="M299.097,268.338c0.666,0.786,0.999,1.905,0.999,3.356c0,1.513-0.351,2.683-1.053,3.511
		c-0.702,0.828-1.701,1.241-2.997,1.241c-1.224,0-2.172-0.393-2.844-1.179c-0.672-0.786-1.008-1.893-1.008-3.321
		c0-1.523,0.357-2.702,1.071-3.536s1.719-1.251,3.015-1.251C297.491,267.159,298.431,267.552,299.097,268.338z M293.634,271.82
		c0,2.005,0.84,3.007,2.52,3.007c1.68,0,2.521-0.973,2.521-2.916c0-2.04-0.846-3.061-2.538-3.061
		C294.468,268.851,293.634,269.841,293.634,271.82z"/>
	<path fill="#FFFFFF" d="M310.337,263.793l-0.107,1.386l-0.126,0.108c-0.517-0.229-0.979-0.343-1.386-0.343
		c-0.888,0-1.338,0.517-1.35,1.549l-0.018,1.548h2.124l0.054,0.126l-0.108,1.044h-2.088l-0.054,3.438l0.126,3.654h-1.836
		l0.108-3.492l-0.036-3.6h-1.242l-0.072-0.108l0.09-1.062h1.224l-0.018-1.242c-0.012-1.02,0.267-1.803,0.837-2.349
		c0.57-0.546,1.377-0.819,2.421-0.819C309.347,263.631,309.833,263.685,310.337,263.793z"/>
	<path fill="#FFFFFF" d="M311.507,272.234c0.036,1.872,0.828,2.809,2.376,2.809c0.78,0,1.59-0.252,2.43-0.756l0.162,0.107
		l-0.216,1.458c-0.84,0.408-1.68,0.612-2.52,0.612c-1.236,0-2.199-0.381-2.889-1.144c-0.69-0.762-1.035-1.803-1.035-3.122
		c0-1.345,0.36-2.403,1.08-3.178c0.72-0.773,1.686-1.161,2.897-1.161c0.96,0,1.704,0.282,2.232,0.847
		c0.528,0.563,0.792,1.344,0.792,2.34c0,0.312-0.024,0.612-0.072,0.899l-0.306,0.288H311.507z M314.783,269.544
		c-0.264-0.282-0.63-0.423-1.098-0.423c-0.552,0-1.008,0.174-1.368,0.521c-0.36,0.349-0.601,0.84-0.72,1.477l3.546-0.091
		l0.036-0.216C315.179,270.249,315.047,269.826,314.783,269.544z"/>
	<path fill="#FFFFFF" d="M319.77,272.234c0.036,1.872,0.828,2.809,2.376,2.809c0.78,0,1.59-0.252,2.43-0.756l0.162,0.107
		l-0.216,1.458c-0.84,0.408-1.681,0.612-2.521,0.612c-1.236,0-2.199-0.381-2.889-1.144c-0.69-0.762-1.035-1.803-1.035-3.122
		c0-1.345,0.36-2.403,1.08-3.178c0.72-0.773,1.686-1.161,2.898-1.161c0.96,0,1.704,0.282,2.232,0.847
		c0.528,0.563,0.792,1.344,0.792,2.34c0,0.312-0.024,0.612-0.072,0.899l-0.306,0.288H319.77z M323.045,269.544
		c-0.264-0.282-0.63-0.423-1.098-0.423c-0.552,0-1.008,0.174-1.368,0.521c-0.36,0.349-0.6,0.84-0.72,1.477l3.546-0.091l0.036-0.216
		C323.441,270.249,323.309,269.826,323.045,269.544z"/>
	<path fill="#FFFFFF" d="M331.163,274.593l0.18,0.126l-0.18,1.152c-0.66,0.312-1.272,0.491-1.836,0.54
		c-0.744-0.12-1.284-0.369-1.62-0.747s-0.504-0.928-0.504-1.647l0.072-1.296l-0.019-3.51h-1.134l-0.072-0.108l0.09-1.062h1.098
		v-1.314l1.62-0.612l0.162,0.145l-0.036,1.782h2.304l0.072,0.126l-0.09,1.044h-2.322l-0.09,4.518
		c-0.013,0.444,0.062,0.753,0.225,0.927c0.162,0.175,0.435,0.262,0.819,0.262C330.299,274.917,330.719,274.809,331.163,274.593z"/>
</g>
</svg>
