<?xml version="1.0" encoding="utf-8"?>
<!-- Generator: Adobe Illustrator 16.0.4, SVG Export Plug-In . SVG Version: 6.00 Build 0)  -->
<!DOCTYPE svg PUBLIC "-//W3C//DTD SVG 1.1//EN" "http://www.w3.org/Graphics/SVG/1.1/DTD/svg11.dtd">
<svg version="1.1" id="Layer_1" xmlns="http://www.w3.org/2000/svg" xmlns:xlink="http://www.w3.org/1999/xlink" x="0px" y="0px"
	 width="1036px" height="285px" viewBox="0 0 1036 285" enable-background="new 0 0 1036 285" xml:space="preserve">
<path fill-rule="evenodd" clip-rule="evenodd" d="M329.635,89.632c2.478-0.959,4.658-6.795,6.755-8.84
	c0.785-0.766,1.58-1.587,2.422-2.029c2.5-1.318,5.025-2.465,7.541-3.672c1.664-0.799,3.314-1.745,4.998-2.349
	c3.958-1.419,8.028-2.033,11.871-4.186c3.282-1.839,6.537-2.131,9.854-2.326c0.592-0.035,1.186,0.36,1.783,0.5
	c0.871,0.204,1.745,0.459,2.621,0.508c1.764,0.098,3.617-0.579,5.275,0.247c2.51,1.251,5.018,1.138,7.537,1.444
	c0.405,0.049,0.863,0.117,1.197,0.501c1.447,1.654,2.947,1.186,4.482,0.748c0.938-0.268,1.904-0.249,2.857-0.266
	c2.034-0.033,4.069-0.026,6.104,0.006c0.906,0.014,1.812,0.1,2.717,0.208c1.463,0.174,2.928,0.62,4.383,0.523
	c1.218-0.08,2.416-0.893,3.637-1.157c0.971-0.21,1.963-0.015,2.941-0.119c3.722-0.394,7.352-0.923,11.064,1.57
	c5.33,3.578,10.568,8.216,16.38,8.391c2.083,0.063,4.181,0.298,6.245-0.076c2.168-0.392,4.311-0.89,6.158,1.78
	c4.553,6.574,9.973,7.845,15.315,9.503c1.156,0.358,2.528,0.312,3.564-0.577c1.776-1.526,3.474-2.234,5.447-2.236
	c2.036-0.003,4.075-1.435,6.104-2.301c2.775-1.184,5.296-4.271,8.387-3.239c1.312,0.438,2.99-0.296,4.148-1.636
	c2.919-3.375,6.22-4.464,9.326-6.658c1.812-1.281,3.76-1.986,5.678-2.541c2.838-0.821,5.701-1.306,8.557-1.877
	c1.126-0.226,2.26-0.438,3.389-0.409c1.385,0.035,2.905-0.319,4.123,0.646c2.395,1.899,4.904,1.739,7.354,2.292
	c1.273,0.287,2.646-1.154,3.981-1.755c2.653-1.191,5.294-2.534,7.975-3.432c1.433-0.48,2.948,0.027,4.409-0.25
	c2.809-0.534,5.615-1.181,8.404-2.016c4.615-1.382,9.199-3.188,13.828-4.343c2.349-0.587,4.773-0.373,7.149-0.093
	c1.647,0.194,3.278,1.067,4.906,1.728c3.124,1.266,6.239,2.617,9.362,3.889c1.34,0.545,2.75,1.691,4.023,1.301
	c2.02-0.618,3.774,0.105,5.549,1.64c0.409,0.354,0.908,0.867,1.292,0.694c3.75-1.694,7.366,0.531,10.806,2.395
	c2.955,1.602,5.897,2.213,8.682,1.24c4.475-1.564,8.899-0.358,13.335-0.813c0.408-0.042,0.825,0.295,1.237,0.3
	c2.444,0.028,4.889,0.011,7.334,0.01c0.918-0.001,1.853-0.211,2.751,0.046c1.554,0.445,3.079,1.241,4.626,1.779
	c1.773,0.616,3.559,1.107,5.336,1.668c0.455,0.144,0.902,0.433,1.36,0.503c2.778,0.431,5.569,0.661,8.179,2.911
	c0.503,0.435,1.082,0.529,1.601,0.913c1.278,0.947,2.541,1.973,3.811,2.967c0.583,0.456,1.158,0.968,1.754,1.353
	c0.989,0.641,1.996,1.184,2.99,1.8c0.432,0.268,0.846,0.641,1.276,0.92c1.298,0.842,2.598,1.677,3.902,2.484
	c0.735,0.456,1.469,0.97,2.225,1.245c0.697,0.254,1.465-0.028,2.129,0.372c1.709,1.034,3.338,2.694,5.074,3.41
	c1.732,0.713,3.491,1.18,5.252,1.629h2.855V285h-377.61V89.632z"/>
<g>
	<path fill="#808080" d="M322.668,99.82c0-0.193,0-0.379,0-0.57c0-3.022,0-5.871,0-8.645c-1.326,0.769-2.689,1.477-4.037,2.355
		c-2.715,1.775-5.457,3.337-8.121,5.569c-0.424,0.355-0.844,0.585-1.262,0.72h-2.225c-1.043-0.254-2.082-0.743-3.135-0.945
		c-1.879-0.36-3.77-0.246-5.654-0.438c-2.277-0.231-4.553-0.666-6.832-0.812c-1.457-0.095-2.916,0.234-4.377,0.261
		c-1.793,0.029-3.586-0.13-5.379-0.072c-1.355,0.043-2.719,0.057-4.059,0.521c-1.125,0.391-2.232,0.993-3.115,1.484h-4.963
		c-0.061-0.094-0.119-0.17-0.182-0.186c-5.266-1.354-10.238-5.55-15.211-10.231c-2.592-2.439-5.48-2.583-8.23-3.839
		c-3.074-1.404-6.135-3.048-9.219-4.271c-1.18-0.469-2.42,0.248-3.607-0.153c-1.086-0.368-2.24-1.013-3.18-2.417
		c-2.119-3.167-4.064-7.175-6.193-10.291c-2.459-3.599-5.006-6.806-7.578-9.786c-1.342-1.555-2.742-1.163-4.129,0.715
		c-1.244,1.683-2.627,2.638-3.949,3.901c-0.715,0.685-1.529,0.97-2.131,2.085c-1.748,3.239-3.553,3.115-5.457,1.507
		c-0.357-0.303-0.744-0.49-1.117-0.499c-1.982-0.049-3.965-0.097-5.947-0.01c-3.521,0.155-6.816-2.614-10.125-5.353
		c-3.119-2.584-6.25-5.109-9.408-7.348c-0.727-0.518-1.594,0.04-2.375,0.44c-3.135,1.604-6.217,1.406-9.223-1.697
		c-0.617-0.639-1.201-1.526-1.801-2.291c-2.852-3.629-5.758-1.532-8.652-0.6c-0.699,0.226-1.473,1.009-2.086,0.479
		c-1.146-0.991-1.977,0.15-2.748,1.899c-3.646,8.275-7.957,9.852-12.502,8.991c-0.539-0.103-1.061-0.983-1.586-1.532
		c-2.729-2.854-5.516-5.65-8.418-2.439c-1.654,1.83-3.107,4.931-4.697,7.221c-0.719,1.037-1.537,1.723-2.342,2.166
		c-1.76,0.971-3.537,1.685-5.309,2.503c-2.098,0.968-4.186,2.105-6.295,2.868c-4.553,1.648-9.111,3.215-13.678,4.558
		c-1.062,0.312-2.176-0.723-3.256-0.574c-1.939,0.265-3.869,1.268-5.807,1.359c-1.305,0.062-2.625-1.439-3.926-1.318
		c-2.744,0.252-5.545,0.193-8.137,3.178c-2.381,2.741-4.648,3.047-7.16,0.536c-1.838-1.837-3.859-2.494-5.957-1.058
		c-1.721,1.177-3.602,0.53-5.391,1.141c-2.299,0.781-4.598,1.75-6.857,3.101c-4.896,2.928-9.627,8.282-14.809,6.898
		c-0.547-0.146-1.121,0.447-1.682,0.695c-4.072,1.812-8.088-0.039-12.117-1.307c-2.07-0.652-4.154-1.053-6.223-1.794
		c-1.592-0.572-3.158-1.732-4.754-2.17c-0.822-0.225-1.723,0.235-2.52,0.943c-1.033,0.919-2.064,1.551-3.101,1.941V285h322.228
		V99.82z"/>
	<path fill="#808080" d="M1028,124.468c-3.62-0.118-7.237-0.471-10.857-0.636c-2.293-0.104-4.59,0.021-6.883-0.097
		c-4.037-0.204-8.074-0.794-12.107-0.704c-4.25,0.096-8.493,1.029-12.743,1.147c-2.359,0.065-4.726-1.104-7.093-1.163
		c-6.759-0.172-13.521,0.016-20.281-0.096c-2.949-0.049-5.896-0.605-8.846-0.689c-1.477-0.04-2.989,0.934-4.432,0.64
		c-6.407-1.304-12.965-0.031-19.227-4.035c-4.369-2.794-8.896-4.838-13.373-7.1c-2.834-1.434-5.668-3.261-8.57-3.8
		c-3.107-0.577-5.729-2.868-8.546-4.714c-3.741-2.449-7.777-3.474-11.593-5.626c-3.684-2.079-7.232-4.873-10.865-7.242
		c-3.949-2.576-7.918-5.065-11.899-7.482c-0.61-0.371-1.339-0.159-2.013-0.193c-1.051-0.053-2.232,0.457-3.13-0.214
		c-5.276-3.935-10.233,0.373-15.319,1.421c-1.727,0.356-3.506,0.551-5.224,0.222c-1.61-0.308-3.231-1.141-4.738-2.215
		c-2.526-1.803-4.945-1.238-7.341,0.417c-3.493,2.411-7.18,3.27-10.779,4.756c-3.117,1.288-5.746-0.38-8.579-0.278
		c-4.67,0.168-9.325,1.372-13.995,1.947c-2.204,0.271-4.426,0.104-6.64,0.119c-1.991,0.013-3.981,0.008-5.972-0.001
		c-0.82-0.004-1.904,0.55-2.42-0.156c-4.715-6.432-10.429-5.384-15.809-6.882c-2.272-0.632-4.5-1.743-6.755-2.581
		c-0.487-0.182-1.044-0.376-1.501-0.145c-4.342,2.197-8.668,4.486-12.998,6.749c-0.145,0.075-0.326,0.079-0.424,0.24
		c-3.161,5.182-7.596,4.755-11.292,7.725c-2.457,1.975-5.521,1.68-8.321,2.265c-1,0.209-2.027,0.422-3.223,0.431v36.348v23.598V285
		h322.228V124.598C1033.627,124.59,1030.812,124.56,1028,124.468z"/>
</g>
<g>
	<path fill="#FFFFFF" d="M347.419,272.465l0.072,2.718l-0.108,0.144l-1.404,0.108l-0.108-0.126l0.054-2.844h-3.168l-1.35,0.035
		l-0.126-0.161v-1.188l4.482-6.479h1.692l-0.054,6.371h1.62l0.108,0.162l-0.09,1.296L347.419,272.465z M345.942,271.042v-4.229
		h-0.144l-2.916,4.229H345.942z"/>
	<path fill="#FFFFFF" d="M352.854,273.131c0,0.888-0.636,1.787-1.908,2.699l-0.594-0.54l-0.018-0.144
		c0.66-0.54,0.99-1.092,0.99-1.656c0-0.371-0.186-0.689-0.558-0.954v-0.162c0.443-0.287,0.882-0.485,1.314-0.594
		C352.596,272.152,352.854,272.603,352.854,273.131z"/>
	<path fill="#FFFFFF" d="M361.467,265.724c0.666,0.786,0.999,1.905,0.999,3.356c0,1.513-0.351,2.683-1.053,3.511
		s-1.701,1.241-2.997,1.241c-1.224,0-2.172-0.393-2.844-1.179c-0.672-0.786-1.008-1.893-1.008-3.321
		c0-1.523,0.356-2.702,1.071-3.536c0.714-0.834,1.719-1.251,3.015-1.251C359.862,264.545,360.801,264.938,361.467,265.724z
		 M356.004,269.206c0,2.005,0.839,3.007,2.52,3.007c1.68,0,2.52-0.973,2.52-2.916c0-2.04-0.846-3.061-2.538-3.061
		C356.838,266.236,356.004,267.227,356.004,269.206z"/>
	<path fill="#FFFFFF" d="M370.917,265.724c0.666,0.786,0.999,1.905,0.999,3.356c0,1.513-0.351,2.683-1.053,3.511
		s-1.701,1.241-2.997,1.241c-1.224,0-2.172-0.393-2.844-1.179c-0.672-0.786-1.008-1.893-1.008-3.321
		c0-1.523,0.357-2.702,1.071-3.536s1.719-1.251,3.015-1.251C369.312,264.545,370.251,264.938,370.917,265.724z M365.454,269.206
		c0,2.005,0.84,3.007,2.52,3.007s2.52-0.973,2.52-2.916c0-2.04-0.846-3.061-2.538-3.061
		C366.288,266.236,365.454,267.227,365.454,269.206z"/>
	<path fill="#FFFFFF" d="M380.367,265.724c0.666,0.786,0.999,1.905,0.999,3.356c0,1.513-0.351,2.683-1.053,3.511
		c-0.702,0.828-1.701,1.241-2.997,1.241c-1.224,0-2.172-0.393-2.844-1.179c-0.672-0.786-1.008-1.893-1.008-3.321
		c0-1.523,0.357-2.702,1.071-3.536c0.714-0.834,1.719-1.251,3.015-1.251C378.762,264.545,379.701,264.938,380.367,265.724z
		 M374.904,269.206c0,2.005,0.84,3.007,2.52,3.007c1.68,0,2.521-0.973,2.521-2.916c0-2.04-0.846-3.061-2.538-3.061
		C375.738,266.236,374.904,267.227,374.904,269.206z"/>
	<path fill="#FFFFFF" d="M391.607,261.179l-0.107,1.386l-0.126,0.108c-0.517-0.229-0.979-0.343-1.386-0.343
		c-0.888,0-1.338,0.517-1.35,1.549l-0.018,1.548h2.124l0.054,0.126l-0.108,1.044h-2.088l-0.054,3.438l0.126,3.654h-1.836
		l0.108-3.492l-0.036-3.6h-1.242l-0.072-0.108l0.09-1.062h1.224l-0.018-1.242c-0.012-1.02,0.267-1.803,0.837-2.349
		c0.57-0.546,1.377-0.819,2.421-0.819C390.618,261.017,391.104,261.07,391.607,261.179z"/>
	<path fill="#FFFFFF" d="M392.778,269.62c0.036,1.872,0.828,2.809,2.376,2.809c0.78,0,1.59-0.252,2.43-0.756l0.162,0.107
		l-0.216,1.458c-0.84,0.408-1.68,0.612-2.52,0.612c-1.236,0-2.199-0.381-2.889-1.144c-0.69-0.762-1.035-1.803-1.035-3.122
		c0-1.345,0.36-2.403,1.08-3.178c0.72-0.773,1.686-1.161,2.897-1.161c0.96,0,1.704,0.282,2.232,0.847
		c0.528,0.563,0.792,1.344,0.792,2.34c0,0.312-0.024,0.612-0.072,0.899l-0.306,0.288H392.778z M396.054,266.93
		c-0.264-0.282-0.63-0.423-1.098-0.423c-0.552,0-1.008,0.174-1.368,0.521c-0.36,0.349-0.601,0.84-0.72,1.477l3.546-0.091
		l0.036-0.216C396.45,267.635,396.317,267.212,396.054,266.93z"/>
	<path fill="#FFFFFF" d="M401.04,269.62c0.036,1.872,0.828,2.809,2.376,2.809c0.78,0,1.59-0.252,2.43-0.756l0.162,0.107
		l-0.216,1.458c-0.84,0.408-1.681,0.612-2.521,0.612c-1.236,0-2.199-0.381-2.889-1.144c-0.69-0.762-1.035-1.803-1.035-3.122
		c0-1.345,0.36-2.403,1.08-3.178c0.72-0.773,1.686-1.161,2.898-1.161c0.96,0,1.704,0.282,2.232,0.847
		c0.528,0.563,0.792,1.344,0.792,2.34c0,0.312-0.024,0.612-0.072,0.899l-0.306,0.288H401.04z M404.316,266.93
		c-0.264-0.282-0.63-0.423-1.098-0.423c-0.552,0-1.008,0.174-1.368,0.521c-0.36,0.349-0.6,0.84-0.72,1.477l3.546-0.091l0.036-0.216
		C404.712,267.635,404.58,267.212,404.316,266.93z"/>
	<path fill="#FFFFFF" d="M412.434,271.979l0.18,0.126l-0.18,1.152c-0.66,0.312-1.272,0.491-1.836,0.54
		c-0.744-0.12-1.284-0.369-1.62-0.747s-0.504-0.928-0.504-1.647l0.072-1.296l-0.019-3.51h-1.134l-0.072-0.108l0.09-1.062h1.098
		v-1.314l1.62-0.612l0.162,0.145l-0.036,1.782h2.304l0.072,0.126l-0.09,1.044h-2.322l-0.09,4.518
		c-0.012,0.444,0.062,0.753,0.225,0.927c0.162,0.175,0.435,0.262,0.819,0.262C411.569,272.303,411.989,272.194,412.434,271.979z"/>
</g>
</svg>
