<?xml version="1.0" encoding="utf-8"?>
<!-- Generator: Adobe Illustrator 16.0.4, SVG Export Plug-In . SVG Version: 6.00 Build 0)  -->
<!DOCTYPE svg PUBLIC "-//W3C//DTD SVG 1.1//EN" "http://www.w3.org/Graphics/SVG/1.1/DTD/svg11.dtd">
<svg version="1.1" id="Layer_1" xmlns="http://www.w3.org/2000/svg" xmlns:xlink="http://www.w3.org/1999/xlink" x="0px" y="0px"
	 width="1036px" height="285px" viewBox="0 0 1036 285" enable-background="new 0 0 1036 285" xml:space="preserve">
<path fill-rule="evenodd" clip-rule="evenodd" d="M232.853,130.834c0-36.25,0-71.297,0-107.559c1.185,0,2.223-0.621,3.877-0.509
	c3.5,0.234,7.003,0.983,10.501,0.679c3.427-0.299,6.847-1.85,10.274-2.478c2.919-0.533,5.918,1.025,8.747-1.146
	c4.163-3.198,8.215-0.616,11.907,4.65c4.932,7.037,9.965,7.697,14.932,7.686c5.98-0.017,11.962-4.249,17.941-6.743
	c4.795-1.998,9.578-4.494,14.381-6.051c2.663-0.862,5.356-0.117,8.035-0.327c5.059-0.394,10.117-1.117,15.176-1.401
	c5.108-0.284,10.219-0.28,15.328-0.261c3.486,0.015,6.976,0.027,10.46,0.523c1.878,0.266,3.743,1.999,5.622,2.275
	c3.902,0.577,7.817,1.405,11.711,0.673c3.755-0.703,7.48-4.026,11.236-4.735c3.212-0.605,6.445,1.004,9.672,1.33
	c0.963,0.098,1.951-1.551,2.896-1.164c6.045,2.476,12.092,4.961,18.114,8.125c3.935,2.069,7.829,5.331,11.745,7.979
	c3.625,2.451,7.11,5.454,10.627,11.111c3.828,6.158,8.362,5.097,12.557,7.938c3.433,2.328,7.363,2.4,10.102,9.467
	c4.578,11.813,9.549,12.528,14.484,15.525c4.414,2.675,8.959,2.287,13.328,5.669c8.036,6.219,16.166,6.197,24.266,7.839
	c7.654,1.554,15.335,1.03,22.998,2.058c3.202,0.429,6.391,2.508,9.584,3.822c1.807,0.745,3.61,1.749,5.423,2.132
	c3.282,0.687,6.57,1.052,9.857,1.446c2.268,0.272,4.543-0.045,6.8,0.66c2.365,0.734,4.723,2.158,7.066,3.663
	c4.096,2.631,8.18,5.539,12.268,8.365c2.402,1.66,4.787,4.238,7.207,4.919c5.875,1.651,11.768,2.398,17.652,3.594
	c1.363,0.274,2.725,0.764,4.081,1.354c2.362,1.021,4.712,2.701,7.079,3.208c4.807,1.032,9.622,1.29,14.43,2.183
	c5.055,0.941,10.111,2.218,15.605,3.465c3.949-0.208,11.004-0.588,11.127-0.647c1.479-1.501,2.954-3.067,4.441-4.426
	c5.168-4.726,10.346-9.293,15.513-14.04c4.063-3.731,8.097-8.017,12.181-11.348c3.276-2.674,6.709-2.909,9.891-6.678
	c5.548-6.566,11.034-4.562,16.631-2.623c4.121,1.426,8.424,2.972,12.423-0.115c8.351-6.442,16.728-9.865,25.196-10.883
	c1.62-0.194,3.251,0.349,4.861-0.183c7.643-2.526,15.281-2.306,22.96-5.01c0,12.113,0,22.724,0,33.43l0,0V285h-573.27V130.834
	H232.853z"/>
<g>
	<path fill="#808080" d="M1028.848,53.913c-2.504-0.837-4.738-1.802-7.238,0.122c-2.609,2.01-5.387,3.181-8.102,0.012
		c-0.314-0.367-0.859-0.425-1.266-0.312c-4.342,1.212-8.662,2.683-13.023,3.674c-2.76,0.627-5.576,0.577-8.367,0.808
		c-1.771,0.146-3.604-0.184-5.304,0.456c-4.317,1.624-8.374,0.82-12.093-3.046c-3.293-3.425-6.844-2.401-10.125-1.23
		c-2.055,0.734-3.633,0.351-5.088-1.268c-2.069-2.299-4.215-3.121-6.278-1.09c-2.666,2.622-5.323,2.674-8.177,1.651
		c-2.121-0.76-4.268-1.85-6.402-1.844c-2.617,0.006-5.281,0.667-7.842,1.641c-4.311,1.639-8.594,1.432-12.953,0.876
		c-4.512-0.575-8.93-3.427-13.57-1.495c-0.824,0.345-1.822-0.575-2.754-0.769c-1.316-0.272-2.65-0.654-3.967-0.562
		c-3.951,0.277-7.666,2.508-11.412,4.316c-4.514,2.18-8.918,4.998-13.447,7.075c-4.033,1.85-8.156,4.13-12.27,4.308
		c-5.883,0.255-11.18,3.964-16.787,5.646c-2.592,0.776-5.301,0.681-7.953,0.618c-2.795-0.066-5.588-0.547-8.379-0.885
		c-1.443-0.176-2.898-0.759-4.32-0.583c-1.986,0.244-3.947,1.015-5.916,1.582c-0.953,0.274-1.902,0.6-2.801,1.437v0.017V285h222.633
		V53.874C1033.527,54.839,1031.018,54.639,1028.848,53.913z"/>
	<path fill="#808080" d="M225.809,71.693V23.22c-0.244-0.493-1.09-1.106-1.393-0.981c-1.152,0.475-2.262,1.282-3.324,2.141
		c-0.879,0.709-1.66,1.694-2.502,2.517c-1.236,1.21-2.406,2.022-3.928,0.576c-1.938-1.844-3.811-1.254-5.582,1.025
		c-0.518,0.667-1.592,0.999-2.219,0.656c-2.014-1.101-3.66,0.162-5.279,1.516c-0.855,0.716-1.461,0.915-2.406,0.202
		c-0.836-0.632-1.92-0.578-2.9-0.658c-1.769-0.145-3.367-0.779-5.02-1.987c-2.035-1.487-4.391-1.902-6.551-3.037
		c-1.738-0.912-3.527-1.884-5.049-3.404c-2.211-2.209-4.365-4.308-7.104-4.435c-0.418-0.019-0.902-0.298-1.229-0.7
		c-1.127-1.388-2.326-1.482-3.568-0.594c-1.672,1.195-2.973-0.691-4.16-1.605c-2.895-2.228-5.373-0.816-7.6,1.541
		c-1.65,1.749-3.375,1.441-5.055,1.699c-3.377,0.519-6.791,0.435-10.178,0.84c-0.74,0.089-1.463,1.113-2.135,1.837
		c-1.357,1.461-2.629,1.042-4.184,0.487c-2.775-0.99-4.451-4.549-6.975-6.046c-2.301-1.365-4.477-3.223-6.713-4.845
		c-0.191-0.14-0.424-0.161-0.639-0.209c-1.723-0.382-3.455-0.665-5.164-1.159c-1.625-0.47-2.992-0.184-4.105,1.941
		c-0.348,0.666-0.975,1.121-1.531,1.375c-1.609,0.732-2.916,2.138-4.32,3.488c-1.229,1.182-3.197,1.196-4.738,0.803
		c-2.01-0.513-3.889-2.14-5.885-2.925c-3.85-1.515-7.486-4.447-11.629-4.063c-2.723,0.252-4.982,2.426-7.424,3.871
		c-3.207,1.898-6.451,3.657-9.654,5.572c-1.609,0.964-3.123,2.348-4.76,3.17c-2.506,1.262-5.072,1.977-7.76,1.141
		c-2.148-0.668-4.115-1.803-6.146-3.123c-3.451-2.242-7.146-4.091-11.088-1.814c-1.615,0.934-3.557,0.588-5.139,1.604
		c-3.648,2.342-7.191,5.086-10.727,7.814c-1.879,1.449-3.721,0.839-5.182-0.705c-2.67-2.82-5.076-6.226-7.611-9.35
		c-0.357-0.44-0.807-0.754-1.244-0.981c-0.518-0.268-1.137-0.19-1.594-0.585c-1.646-1.42-3.219-1.536-4.771-0.962V285h226.162
		V71.693z"/>
</g>
<g>
	<path fill="#FFFFFF" d="M248.57,275.079l0.071,2.718l-0.107,0.144l-1.404,0.108l-0.107-0.126l0.054-2.844h-3.168l-1.351,0.035
		l-0.126-0.161v-1.188l4.482-6.479h1.692l-0.055,6.371h1.62l0.108,0.162l-0.09,1.296L248.57,275.079z M247.094,273.656v-4.229
		h-0.144l-2.916,4.229H247.094z"/>
	<path fill="#FFFFFF" d="M254.006,275.745c0,0.888-0.637,1.787-1.908,2.699l-0.594-0.54l-0.019-0.144
		c0.66-0.54,0.99-1.092,0.99-1.656c0-0.371-0.186-0.689-0.558-0.954v-0.162c0.443-0.287,0.882-0.485,1.313-0.594
		C253.748,274.767,254.006,275.217,254.006,275.745z"/>
	<path fill="#FFFFFF" d="M262.618,268.338c0.666,0.786,0.999,1.905,0.999,3.356c0,1.513-0.351,2.683-1.053,3.511
		s-1.701,1.241-2.997,1.241c-1.224,0-2.172-0.393-2.844-1.179s-1.008-1.893-1.008-3.321c0-1.523,0.356-2.702,1.071-3.536
		c0.713-0.834,1.719-1.251,3.015-1.251C261.014,267.159,261.952,267.552,262.618,268.338z M257.155,271.82
		c0,2.005,0.84,3.007,2.521,3.007c1.68,0,2.52-0.973,2.52-2.916c0-2.04-0.846-3.061-2.538-3.061
		C257.989,268.851,257.155,269.841,257.155,271.82z"/>
	<path fill="#FFFFFF" d="M272.068,268.338c0.666,0.786,0.999,1.905,0.999,3.356c0,1.513-0.351,2.683-1.053,3.511
		s-1.701,1.241-2.997,1.241c-1.224,0-2.172-0.393-2.844-1.179c-0.673-0.786-1.009-1.893-1.009-3.321
		c0-1.523,0.357-2.702,1.071-3.536s1.719-1.251,3.016-1.251C270.464,267.159,271.402,267.552,272.068,268.338z M266.605,271.82
		c0,2.005,0.84,3.007,2.521,3.007c1.68,0,2.52-0.973,2.52-2.916c0-2.04-0.846-3.061-2.538-3.061
		C267.439,268.851,266.605,269.841,266.605,271.82z"/>
	<path fill="#FFFFFF" d="M281.519,268.338c0.666,0.786,0.999,1.905,0.999,3.356c0,1.513-0.352,2.683-1.053,3.511
		c-0.702,0.828-1.701,1.241-2.997,1.241c-1.225,0-2.173-0.393-2.845-1.179s-1.008-1.893-1.008-3.321
		c0-1.523,0.357-2.702,1.071-3.536s1.719-1.251,3.015-1.251C279.913,267.159,280.853,267.552,281.519,268.338z M276.056,271.82
		c0,2.005,0.84,3.007,2.52,3.007s2.521-0.973,2.521-2.916c0-2.04-0.847-3.061-2.538-3.061
		C276.89,268.851,276.056,269.841,276.056,271.82z"/>
	<path fill="#FFFFFF" d="M292.759,263.793l-0.107,1.386l-0.126,0.108c-0.517-0.229-0.979-0.343-1.387-0.343
		c-0.888,0-1.338,0.517-1.35,1.549l-0.018,1.548h2.124l0.054,0.126l-0.108,1.044h-2.088l-0.054,3.438l0.126,3.654h-1.836
		l0.107-3.492l-0.035-3.6h-1.242l-0.072-0.108l0.09-1.062h1.225l-0.019-1.242c-0.012-1.02,0.267-1.803,0.837-2.349
		s1.377-0.819,2.421-0.819C291.77,263.631,292.255,263.685,292.759,263.793z"/>
	<path fill="#FFFFFF" d="M293.929,272.234c0.036,1.872,0.828,2.809,2.376,2.809c0.78,0,1.591-0.252,2.431-0.756l0.162,0.107
		l-0.217,1.458c-0.84,0.408-1.68,0.612-2.52,0.612c-1.236,0-2.199-0.381-2.889-1.144c-0.69-0.762-1.035-1.803-1.035-3.122
		c0-1.345,0.359-2.403,1.08-3.178c0.72-0.773,1.686-1.161,2.897-1.161c0.96,0,1.704,0.282,2.232,0.847
		c0.527,0.563,0.792,1.344,0.792,2.34c0,0.312-0.024,0.612-0.072,0.899l-0.306,0.288H293.929z M297.205,269.544
		c-0.264-0.282-0.63-0.423-1.098-0.423c-0.553,0-1.008,0.174-1.368,0.521c-0.36,0.349-0.601,0.84-0.72,1.477l3.546-0.091
		l0.036-0.216C297.602,270.249,297.469,269.826,297.205,269.544z"/>
	<path fill="#FFFFFF" d="M302.191,272.234c0.036,1.872,0.828,2.809,2.376,2.809c0.779,0,1.59-0.252,2.43-0.756l0.162,0.107
		l-0.216,1.458c-0.84,0.408-1.681,0.612-2.521,0.612c-1.235,0-2.199-0.381-2.889-1.144c-0.69-0.762-1.035-1.803-1.035-3.122
		c0-1.345,0.36-2.403,1.08-3.178c0.72-0.773,1.686-1.161,2.898-1.161c0.96,0,1.703,0.282,2.231,0.847
		c0.528,0.563,0.792,1.344,0.792,2.34c0,0.312-0.024,0.612-0.072,0.899l-0.306,0.288H302.191z M305.467,269.544
		c-0.264-0.282-0.63-0.423-1.098-0.423c-0.552,0-1.008,0.174-1.368,0.521c-0.359,0.349-0.6,0.84-0.72,1.477l3.546-0.091l0.036-0.216
		C305.863,270.249,305.73,269.826,305.467,269.544z"/>
	<path fill="#FFFFFF" d="M313.585,274.593l0.18,0.126l-0.18,1.152c-0.66,0.312-1.272,0.491-1.836,0.54
		c-0.744-0.12-1.284-0.369-1.62-0.747s-0.504-0.928-0.504-1.647l0.072-1.296l-0.019-3.51h-1.134l-0.072-0.108l0.09-1.062h1.099
		v-1.314l1.62-0.612l0.162,0.145l-0.036,1.782h2.304l0.072,0.126l-0.09,1.044h-2.322l-0.09,4.518
		c-0.013,0.444,0.062,0.753,0.225,0.927c0.162,0.175,0.435,0.262,0.819,0.262C312.721,274.917,313.141,274.809,313.585,274.593z"/>
</g>
</svg>
