<?xml version="1.0" encoding="utf-8"?>
<!-- Generator: Adobe Illustrator 16.0.4, SVG Export Plug-In . SVG Version: 6.00 Build 0)  -->
<!DOCTYPE svg PUBLIC "-//W3C//DTD SVG 1.1//EN" "http://www.w3.org/Graphics/SVG/1.1/DTD/svg11.dtd">
<svg version="1.1" id="Layer_1" xmlns="http://www.w3.org/2000/svg" xmlns:xlink="http://www.w3.org/1999/xlink" x="0px" y="0px"
	 width="1036px" height="285px" viewBox="0 0 1036 285" enable-background="new 0 0 1036 285" xml:space="preserve">
<path fill-rule="evenodd" clip-rule="evenodd" d="M222.156,46.213c6.898,5.037,13.688,13.51,20.529,20.403
	c0.746,0.75,1.545,0.274,2.319,0.406c1.582,0.267,3.17,0.231,4.741,0.975c0.863,0.411,1.686,2.591,2.551,3.23
	c5.387,3.982,10.775,7.921,16.173,11.554c6.271,4.219,12.534,10.461,18.834,11.618c10.934,2.009,21.886-1.322,32.72,10.732
	c4.702,5.231,9.686,4.332,14.514,7.281c8.02,4.898,15.991,11.472,24.131,10.743c1.699-0.151,3.395,5.107,5.128,5.808
	c5.159,2.081,10.343,2.827,15.506,4.695c3.823,1.382,7.628,3.935,11.449,5.542c4.562,1.922,9.136,4.853,13.698,4.641
	c4.444-0.207,8.883-3.76,13.32-5.976c4.68-2.339,9.396-3.728,14.023-7.579c4.539-3.779,9.11-0.912,13.682-3.656
	c2.476-1.488,5.477,4.567,8.34,4.253c4.555-0.499,9.114-0.185,13.664-1.094c4.029-0.806,7.924-9.573,12.066-4.964
	c0.336,0.373,0.727-0.384,1.092-0.611c4.102-2.585,8.19-5.958,12.309-7.509c3.402-1.28,6.842-0.004,10.26-0.583
	c5.131-0.865,10.259-3.473,15.385-3.32c7.074,0.21,14.146,2.254,21.217,3.6c3.883,0.74,7.77,1.32,11.646,2.563
	c10.172,3.259,20.332,7.317,30.51,10.044c3.641,0.975,7.34-2.525,10.969-1.211c5.861,2.125,11.672,7.323,17.53,9.78
	c6.075,2.546,12.095,6.791,18.286,5.142c8.609-2.297,17.264-0.583,25.898-0.57c0.67,0.002,1.344-0.048,2.008,0.239
	c8.014,3.46,16.023,7.155,24.041,10.413c4.494,1.826,9.002,2.805,13.499,4.45c3.161,1.157,6.312,2.989,9.472,4.156
	c2.696,0.995,5.406,1.146,8.1,2.287c2.047,0.865,4.07,3.165,6.118,3.966c1.956,0.763,3.941-0.16,5.896,0.649
	c7.793,3.23,15.568,7.732,23.373,10.02c5.556,1.626,11.152-0.3,16.72,0.784c4.415,0.859,8.805,4.802,13.221,5.732
	c7.118,1.501,14.25,1.668,21.376,2.354c1.9,0.183,3.812-0.344,5.701,0.438c1.893,0.784,3.762,2.796,5.33,4.026V285h-597v-93.334
	c0-47.432,0-93.848,0-141.37C215.873,48.652,219.123,43.997,222.156,46.213z"/>
<g>
	<path fill="#808080" d="M205.533,87.422c0-12.693,0-23.992,0-36.951c-1.09,0-2.225-1.213-3.332-0.964
		c-5.477,1.234-10.94,2.695-16.424,3.817c-1.119,0.229-2.299-0.894-3.459-0.972c-5.129-0.346-10.273-0.25-15.393-0.863
		c-5.791-0.693-10.896-5.201-15.693-11.136c-1.678-2.078-3.441-3.976-5.26-5.581c-2.305-2.033-4.52-2.396-6.973,0.364
		c-1.064,1.199-3.445,0.892-4.373-0.604c-2.549-4.11-4.991-1.62-7.482-0.879c-1.053,0.312-2.275,0.779-3.031,2.017
		c-2.158,3.528-4.842,2.927-7.314,3.934c-0.623,0.254-1.316,0.238-1.947,0.021c-2.506-0.862-5.088-1.367-7.477-2.907
		c-3.709-2.393-7.107-1.808-10.512,1.615c-1.771,1.783-3.592,3.581-5.506,4.612c-1.172,0.631-2.693,0.424-3.832-0.449
		c-5.045-3.873-10.107-5.321-15.365-1.779c-0.201,0.135-0.408,0.341-0.561,0.613c-2.729,4.881-6.211,3.383-9.453,4.444
		c-3.605,1.181-6.609-2.227-9.927-2.307c-2.55-0.062-5.118,0.55-7.655,1.185c-3.576,0.895-7.176,1.736-10.686,3.246
		c-3.805,1.636-7.516,4.023-11.271,6.056c-0.406,0.22-0.84,0.308-1.264,0.36c-2.975,0.366-5.949,0.796-8.926,1.035
		c-3.633,0.29-8.207,0.128-11.836-0.032C0.391,55.279,0.193,55.257,0,55.222V285h205.533V87.422z"/>
</g>
<rect x="986" y="239" fill="#FFFFFF" width="50" height="46"/>
<g>
	<path fill="#FFFFFF" d="M230.249,275.412l0.071,2.718l-0.107,0.144l-1.404,0.108l-0.107-0.126l0.054-2.844h-3.168l-1.351,0.035
		l-0.126-0.161v-1.188l4.482-6.479h1.692l-0.055,6.371h1.62l0.108,0.162l-0.09,1.296L230.249,275.412z M228.772,273.989v-4.229
		h-0.144l-2.916,4.229H228.772z"/>
	<path fill="#FFFFFF" d="M235.685,276.078c0,0.888-0.636,1.787-1.908,2.699l-0.594-0.54l-0.019-0.144
		c0.66-0.54,0.99-1.092,0.99-1.656c0-0.371-0.186-0.689-0.558-0.954v-0.162c0.443-0.287,0.882-0.485,1.313-0.594
		C235.427,275.1,235.685,275.55,235.685,276.078z"/>
	<path fill="#FFFFFF" d="M244.297,268.671c0.666,0.786,0.999,1.905,0.999,3.356c0,1.513-0.351,2.683-1.053,3.511
		s-1.701,1.241-2.997,1.241c-1.224,0-2.172-0.393-2.844-1.179s-1.008-1.893-1.008-3.321c0-1.523,0.356-2.702,1.07-3.536
		s1.72-1.251,3.016-1.251C242.692,267.492,243.631,267.885,244.297,268.671z M238.834,272.153c0,2.005,0.84,3.007,2.521,3.007
		c1.68,0,2.52-0.973,2.52-2.916c0-2.04-0.846-3.061-2.538-3.061C239.668,269.184,238.834,270.174,238.834,272.153z"/>
	<path fill="#FFFFFF" d="M253.747,268.671c0.666,0.786,0.999,1.905,0.999,3.356c0,1.513-0.351,2.683-1.053,3.511
		s-1.701,1.241-2.997,1.241c-1.224,0-2.172-0.393-2.844-1.179c-0.673-0.786-1.009-1.893-1.009-3.321
		c0-1.523,0.357-2.702,1.071-3.536s1.719-1.251,3.016-1.251C252.143,267.492,253.081,267.885,253.747,268.671z M248.284,272.153
		c0,2.005,0.84,3.007,2.521,3.007c1.68,0,2.52-0.973,2.52-2.916c0-2.04-0.846-3.061-2.538-3.061
		C249.118,269.184,248.284,270.174,248.284,272.153z"/>
	<path fill="#FFFFFF" d="M263.197,268.671c0.666,0.786,0.999,1.905,0.999,3.356c0,1.513-0.352,2.683-1.053,3.511
		c-0.702,0.828-1.701,1.241-2.997,1.241c-1.225,0-2.173-0.393-2.845-1.179s-1.008-1.893-1.008-3.321
		c0-1.523,0.357-2.702,1.071-3.536s1.719-1.251,3.015-1.251C261.592,267.492,262.531,267.885,263.197,268.671z M257.734,272.153
		c0,2.005,0.84,3.007,2.52,3.007s2.521-0.973,2.521-2.916c0-2.04-0.847-3.061-2.538-3.061
		C258.568,269.184,257.734,270.174,257.734,272.153z"/>
	<path fill="#FFFFFF" d="M274.438,264.126l-0.107,1.386l-0.126,0.108c-0.517-0.229-0.979-0.343-1.387-0.343
		c-0.888,0-1.338,0.517-1.35,1.549l-0.018,1.548h2.124l0.054,0.126l-0.108,1.044h-2.088l-0.054,3.438l0.126,3.654h-1.836
		l0.107-3.492l-0.035-3.6h-1.242l-0.072-0.108l0.09-1.062h1.225l-0.019-1.242c-0.012-1.02,0.267-1.803,0.837-2.349
		s1.377-0.819,2.421-0.819C273.448,263.964,273.934,264.018,274.438,264.126z"/>
	<path fill="#FFFFFF" d="M275.607,272.567c0.036,1.872,0.828,2.809,2.376,2.809c0.78,0,1.591-0.252,2.431-0.756l0.162,0.107
		l-0.217,1.458c-0.84,0.408-1.68,0.612-2.52,0.612c-1.236,0-2.199-0.381-2.889-1.144c-0.69-0.762-1.035-1.803-1.035-3.122
		c0-1.345,0.359-2.403,1.08-3.178c0.72-0.773,1.686-1.161,2.897-1.161c0.96,0,1.704,0.282,2.232,0.847
		c0.527,0.563,0.792,1.344,0.792,2.34c0,0.312-0.024,0.612-0.072,0.899l-0.306,0.288H275.607z M278.884,269.877
		c-0.264-0.282-0.63-0.423-1.098-0.423c-0.553,0-1.008,0.174-1.368,0.521c-0.36,0.349-0.601,0.84-0.72,1.477l3.546-0.091
		l0.036-0.216C279.28,270.582,279.147,270.159,278.884,269.877z"/>
	<path fill="#FFFFFF" d="M283.87,272.567c0.036,1.872,0.828,2.809,2.376,2.809c0.779,0,1.59-0.252,2.43-0.756l0.162,0.107
		l-0.216,1.458c-0.841,0.408-1.681,0.612-2.521,0.612c-1.235,0-2.199-0.381-2.889-1.144c-0.69-0.762-1.035-1.803-1.035-3.122
		c0-1.345,0.36-2.403,1.08-3.178c0.72-0.773,1.686-1.161,2.898-1.161c0.96,0,1.703,0.282,2.231,0.847
		c0.528,0.563,0.792,1.344,0.792,2.34c0,0.312-0.024,0.612-0.072,0.899l-0.306,0.288H283.87z M287.146,269.877
		c-0.264-0.282-0.63-0.423-1.098-0.423c-0.552,0-1.008,0.174-1.368,0.521c-0.359,0.349-0.6,0.84-0.72,1.477l3.546-0.091l0.036-0.216
		C287.542,270.582,287.41,270.159,287.146,269.877z"/>
	<path fill="#FFFFFF" d="M295.264,274.926l0.18,0.126l-0.18,1.152c-0.66,0.312-1.272,0.491-1.836,0.54
		c-0.744-0.12-1.284-0.369-1.62-0.747s-0.504-0.928-0.504-1.647l0.072-1.296l-0.019-3.51h-1.134l-0.072-0.108l0.091-1.062h1.098
		v-1.314l1.62-0.612l0.162,0.145l-0.036,1.782h2.304l0.072,0.126l-0.09,1.044h-2.322l-0.09,4.518
		c-0.013,0.444,0.062,0.753,0.225,0.927c0.162,0.175,0.435,0.262,0.819,0.262C294.399,275.25,294.819,275.142,295.264,274.926z"/>
</g>
</svg>
