<?xml version="1.0" encoding="utf-8"?>
<!-- Generator: Adobe Illustrator 16.0.4, SVG Export Plug-In . SVG Version: 6.00 Build 0)  -->
<!DOCTYPE svg PUBLIC "-//W3C//DTD SVG 1.1//EN" "http://www.w3.org/Graphics/SVG/1.1/DTD/svg11.dtd">
<svg version="1.1" id="Layer_1" xmlns="http://www.w3.org/2000/svg" xmlns:xlink="http://www.w3.org/1999/xlink" x="0px" y="0px"
	 width="1036px" height="285px" viewBox="0 0 1036 285" enable-background="new 0 0 1036 285" xml:space="preserve">
<path fill-rule="evenodd" clip-rule="evenodd" d="M329.157,122.952c3.979-2.196,7.934-5.445,11.904-7.985
	c2.395-1.532,4.803-2.524,7.203-3.787c3.76-1.975,7.518-4.026,11.277-5.918c0.82-0.412,1.654-0.024,2.473-0.47
	c2.941-1.592,5.873-3.59,8.816-5.031c2.045-1.002,4.105-1.134,6.15-2.033c2.176-0.955,4.344-3.334,6.516-3.33
	c3.008,0.005,6.02,1.422,9.021,2.671c2.357,0.981,4.703,2.759,7.059,3.934c2.223,1.11,4.451,2.485,6.68,2.669
	c2.557,0.211,5.123-0.532,7.68-1.283c2.32-0.681,4.641-1.683,6.949-2.979c4.391-2.463,8.709-8.367,13.184-6.673
	c0.357,0.136,0.727-0.275,1.088-0.521c2.432-1.643,4.857-3.681,7.297-4.857c2.32-1.118,4.691-0.353,6.982-2.199
	c3.271-2.637,6.473-7.434,9.74-10.306c2.908-2.559,5.857-4.068,8.801-5.425c1.568-0.724,3.184,0.697,4.74-0.326
	c3.107-2.045,6.201-4.809,9.277-7.839c2.453-2.415,4.846-6.845,7.314-8.291c4.66-2.731,9.355-4.099,14.039-5.732
	c1.666-0.581,3.355,0.28,5.016-0.511c3.85-1.837,7.693-4.096,11.531-6.542c2.51-1.603,5.002-3.838,7.504-5.785
	c1.613-1.257,3.24-3.872,4.84-3.511c5.012,1.135,10.012,3.479,15.018,5.184c3.189,1.086,6.381,1.989,9.572,2.739
	c1.604,0.375,3.217-0.169,4.816,0.399c2.77,0.984,5.541,2.144,8.293,3.923c2.252,1.456,4.486,3.743,6.717,5.985
	c2.361,2.376,4.701,5.351,7.066,7.668c2.496,2.447,5.02,4.249,7.518,6.656c3.285,3.165,6.557,6.714,9.84,9.952
	c1.293,1.277,2.613,1.901,3.904,3.27c4.049,4.296,8.064,9.519,12.139,13.032c4.256,3.67,8.566,5.713,12.85,8.581
	c4.1,2.745,8.193,5.697,12.293,8.426c1.084,0.721,2.18,1.196,3.271,1.355c3.523,0.52,7.109,3.035,10.561,0.697
	c4.752-3.22,9.512-3.048,14.26-4.927c1.09-0.432,2.18-1.338,3.27-1.266c2.146,0.142,4.293,0.825,6.441,1.263
	c0.412,0.084,0.836-0.217,1.238,0.142c3.611,3.208,7.242,4.607,10.914,4.13c1.303-0.168,2.432,0.24,3.766,0.817
	c0,0.752,0.01,1.516,0.016,2.275v173.615H323.793V124.876C325.583,124.847,327.389,123.928,329.157,122.952z"/>
<g>
	<path fill="#808080" d="M316.826,124.881l-4.283,0.37c-5.209-2.463-10.412-4.736-15.652-6.949c-4.329-1.828-8.72-3.312-13.125-4.39
		c-9.697-2.371-19.415-4.491-29.14-6.467c-2.111-0.43-4.306-0.113-6.427,0.375c-4.352,0.998-8.701,2.129-13.01,3.616
		c-3.739,1.292-7.434,3.052-11.121,4.783c-4.698,2.208-9.257,0.955-13.846-1.185c-8.1-3.774-16.203-7.531-24.354-10.9
		c-4.745-1.962-9.583-3.168-14.384-4.679c-0.857-0.27-1.89,0.118-2.572-0.621c-6.355-6.897-12.65-2.274-18.854,0.487
		c-4.673,2.082-8.861,0.895-13.328-2.026c-6.114-3.997-12.43-7.218-18.785-9.686c-6.062-2.351-11.918-5.113-17.706-9.456
		c-5.319-3.99-11.286-5.113-16.966-7.519c-2.75-1.165-5.463-2.792-8.247-3.456c-3.271-0.779-6.602-0.733-9.905-1.055
		c-8.859-0.863-17.713-1.98-26.578-2.471c-3.455-0.19-7.103,0.003-10.369,1.796c-8.98,4.927-17.821,10.721-26.691,16.314
		C0.986,82.077,0.493,82.41,0,82.751v202.058h316.825V124.881z"/>
	<path fill="#808080" d="M1019.531,31.779c-5.375-0.845-10.848,3.25-16.307,4.086c-4.775,0.731-9.332,5.362-14.445,1.559
		c-3.076-2.289-6.848,1.372-10.318,1.713c-3.42,0.336-6.879,0.436-10.279-0.385c-7.414-1.787-14.768-4.514-22.266-1.289
		c-2.457,1.057-5.156-1.508-7.664-0.786c-8.066,2.322-16.096,5.432-24.143,8.167c-1.312,0.446-2.65,0.438-3.967,0.818
		c-1.926,0.556-3.836,1.497-5.766,1.86c-1.809,0.341-3.699-0.573-5.447,0.312c-5.502,2.784-10.91,6.763-16.438,9.137
		c-6.262,2.689-12.529,5.175-19,4.659c-4.258-0.341-8.561,2.452-12.838,3.934c-7.074,2.45-14.145,5.002-21.219,7.461
		c-9.178,3.189-18.35,6.477-27.541,9.428c-4.076,1.309-8.037,2.468-12.334,0.681c-4.475-1.862-9.293,1.154-13.961,2.066
		c-1.234,0.242-2.461,0.623-3.693,0.885c-3.879,0.822-7.754,1.786-11.639,2.333c-1.389,0.196-2.832-1.264-4.203-0.896
		c-4.467,1.201-8.936,2.574-13.359,4.485c-5.627,2.431-11.205,7.604-16.814,7.697c-7.84,0.129-15.271,5.887-22.898,9.158v11.43
		c0.039,0.008,0.027,0.013,0,0.018v92.692h-0.023v71.807H1036V39.062C1030.525,36.104,1025.062,32.647,1019.531,31.779z"/>
</g>
<g>
	<path fill="#FFFFFF" d="M338.761,274.888l0.072,2.718l-0.107,0.144l-1.404,0.108l-0.108-0.126l0.054-2.844h-3.168l-1.35,0.035
		l-0.126-0.161v-1.188l4.482-6.479h1.692l-0.054,6.371h1.62l0.108,0.162l-0.09,1.296L338.761,274.888z M337.285,273.465v-4.229
		h-0.144l-2.916,4.229H337.285z"/>
	<path fill="#FFFFFF" d="M344.197,275.554c0,0.888-0.636,1.787-1.908,2.699l-0.594-0.54l-0.018-0.144
		c0.66-0.54,0.99-1.092,0.99-1.656c0-0.371-0.186-0.689-0.558-0.954v-0.162c0.443-0.287,0.882-0.485,1.313-0.594
		C343.939,274.575,344.197,275.025,344.197,275.554z"/>
	<path fill="#FFFFFF" d="M352.81,268.146c0.666,0.786,0.999,1.905,0.999,3.356c0,1.513-0.351,2.683-1.053,3.511
		s-1.701,1.241-2.997,1.241c-1.224,0-2.172-0.393-2.844-1.179c-0.672-0.786-1.008-1.893-1.008-3.321
		c0-1.523,0.357-2.702,1.071-3.536c0.713-0.834,1.719-1.251,3.015-1.251C351.205,266.968,352.144,267.36,352.81,268.146z
		 M347.347,271.629c0,2.005,0.84,3.007,2.521,3.007c1.68,0,2.52-0.973,2.52-2.916c0-2.04-0.846-3.061-2.538-3.061
		C348.181,268.659,347.347,269.649,347.347,271.629z"/>
	<path fill="#FFFFFF" d="M362.26,268.146c0.666,0.786,0.999,1.905,0.999,3.356c0,1.513-0.351,2.683-1.053,3.511
		c-0.702,0.828-1.701,1.241-2.997,1.241c-1.224,0-2.172-0.393-2.844-1.179c-0.672-0.786-1.008-1.893-1.008-3.321
		c0-1.523,0.357-2.702,1.071-3.536s1.719-1.251,3.015-1.251C360.655,266.968,361.594,267.36,362.26,268.146z M356.797,271.629
		c0,2.005,0.84,3.007,2.52,3.007c1.68,0,2.52-0.973,2.52-2.916c0-2.04-0.846-3.061-2.538-3.061
		C357.631,268.659,356.797,269.649,356.797,271.629z"/>
	<path fill="#FFFFFF" d="M371.71,268.146c0.666,0.786,0.999,1.905,0.999,3.356c0,1.513-0.352,2.683-1.053,3.511
		c-0.702,0.828-1.701,1.241-2.997,1.241c-1.224,0-2.172-0.393-2.844-1.179s-1.008-1.893-1.008-3.321
		c0-1.523,0.357-2.702,1.071-3.536c0.714-0.834,1.719-1.251,3.015-1.251C370.104,266.968,371.044,267.36,371.71,268.146z
		 M366.247,271.629c0,2.005,0.84,3.007,2.52,3.007c1.68,0,2.52-0.973,2.52-2.916c0-2.04-0.846-3.061-2.538-3.061
		C367.081,268.659,366.247,269.649,366.247,271.629z"/>
	<path fill="#FFFFFF" d="M382.95,263.602l-0.108,1.386l-0.126,0.108c-0.516-0.229-0.978-0.343-1.386-0.343
		c-0.888,0-1.338,0.517-1.35,1.549l-0.018,1.548h2.124l0.054,0.126l-0.108,1.044h-2.088l-0.054,3.438l0.126,3.654h-1.836
		l0.107-3.492l-0.036-3.6h-1.242l-0.072-0.108l0.09-1.062h1.224l-0.018-1.242c-0.012-1.02,0.267-1.803,0.837-2.349
		c0.57-0.546,1.377-0.819,2.421-0.819C381.96,263.439,382.446,263.493,382.95,263.602z"/>
	<path fill="#FFFFFF" d="M384.12,272.043c0.036,1.872,0.828,2.809,2.376,2.809c0.78,0,1.59-0.252,2.43-0.756l0.162,0.107
		l-0.216,1.458c-0.84,0.408-1.68,0.612-2.52,0.612c-1.236,0-2.199-0.381-2.889-1.144c-0.69-0.762-1.035-1.803-1.035-3.122
		c0-1.345,0.36-2.403,1.08-3.178c0.72-0.773,1.686-1.161,2.898-1.161c0.96,0,1.704,0.282,2.232,0.847
		c0.527,0.563,0.792,1.344,0.792,2.34c0,0.312-0.024,0.612-0.072,0.899l-0.306,0.288H384.12z M387.396,269.353
		c-0.264-0.282-0.63-0.423-1.098-0.423c-0.552,0-1.008,0.174-1.368,0.521c-0.36,0.349-0.601,0.84-0.72,1.477l3.546-0.091
		l0.036-0.216C387.792,270.058,387.66,269.635,387.396,269.353z"/>
	<path fill="#FFFFFF" d="M392.382,272.043c0.036,1.872,0.828,2.809,2.376,2.809c0.78,0,1.59-0.252,2.43-0.756l0.162,0.107
		l-0.216,1.458c-0.84,0.408-1.68,0.612-2.52,0.612c-1.236,0-2.199-0.381-2.889-1.144c-0.69-0.762-1.035-1.803-1.035-3.122
		c0-1.345,0.36-2.403,1.08-3.178c0.72-0.773,1.686-1.161,2.898-1.161c0.96,0,1.704,0.282,2.232,0.847
		c0.528,0.563,0.792,1.344,0.792,2.34c0,0.312-0.024,0.612-0.072,0.899l-0.306,0.288H392.382z M395.658,269.353
		c-0.264-0.282-0.63-0.423-1.098-0.423c-0.552,0-1.008,0.174-1.368,0.521c-0.36,0.349-0.6,0.84-0.72,1.477l3.546-0.091l0.036-0.216
		C396.055,270.058,395.922,269.635,395.658,269.353z"/>
	<path fill="#FFFFFF" d="M403.776,274.401l0.18,0.126l-0.18,1.152c-0.66,0.312-1.272,0.491-1.836,0.54
		c-0.744-0.12-1.284-0.369-1.62-0.747s-0.504-0.928-0.504-1.647l0.072-1.296l-0.018-3.51h-1.134l-0.072-0.108l0.09-1.062h1.098
		v-1.314l1.62-0.612l0.162,0.145l-0.036,1.782h2.304l0.072,0.126l-0.09,1.044h-2.322l-0.09,4.518
		c-0.012,0.444,0.063,0.753,0.225,0.927c0.162,0.175,0.435,0.262,0.819,0.262C402.912,274.726,403.332,274.617,403.776,274.401z"/>
</g>
</svg>
