<?xml version="1.0" encoding="utf-8"?>
<!-- Generator: Adobe Illustrator 16.0.4, SVG Export Plug-In . SVG Version: 6.00 Build 0)  -->
<!DOCTYPE svg PUBLIC "-//W3C//DTD SVG 1.1//EN" "http://www.w3.org/Graphics/SVG/1.1/DTD/svg11.dtd">
<svg version="1.1" id="Layer_1" xmlns="http://www.w3.org/2000/svg" xmlns:xlink="http://www.w3.org/1999/xlink" x="0px" y="0px"
	 width="1036px" height="285px" viewBox="0 0 1036 285" enable-background="new 0 0 1036 285" xml:space="preserve">
<path d="M877.4,104.833c0-9.01,0-17.243,0-26.734c-1.607,0.403-3.182,0.191-4.48,0.486c-4.456,1.009-8.91,2.046-13.368,2.979
	c-3.967,0.829-7.953,1.249-11.901,2.403c-2.248,0.658-4.411,2.978-6.659,3.588c-6.32,1.718-12.678,2.683-18.998,4.413
	c-8.642,2.367-16.729,12.114-25.73,10.353c-1.27-0.249-2.554-0.008-3.843,0.363v-0.005l-47.991,1.037l0.013,0.004
	c-2.355-0.272-4.727-0.494-7.101-0.554c-5.729-0.143-11.466,0.833-17.192,0.594c-7.17-0.299-14.348-0.945-21.496-2.216
	c-4.08-0.724-8.192-2.252-12.146-4.714c-7.787-4.85-15.414-11.179-23.224-15.794c-6.104-3.606-12.405-5.305-18.581-8.303
	c-5.625-2.731-11.297-5.319-16.766-9.352c-5.431-4.006-10.725-7.813-16.543-7.126c-4.469,0.527-8.977-0.636-13.467-1.073
	c-1.713-0.167-3.469,0.094-5.132-0.706c-4.929-2.368-9.831-4.729-14.878-2.112c-8.775,4.552-17.521,9.477-26.342,13.444
	c-3.492,1.57-7.176,1.749-10.736,1.217c-4.439-0.666-8.828-3.073-13.265-4.095c-6.782-1.561-13.586-2.605-20.383-3.804
	c-1.144-0.201-2.329-0.482-3.441-0.015c-2.761,1.161-5.467,3.206-8.241,4.004c-2.548,0.733-5.27,1.479-7.713,0.142
	c-5.262-2.876-10.349-7.507-15.589-10.651c-7.558-4.537-15.237-7.957-22.773-12.676c-6.02-3.771-11.942-8.495-17.833-13.305
	c-4.301-3.511-8.405-9.283-13.18-5.297c-1.63,1.359-3.119,3.653-4.69,5.43c-2.963,3.35-6.127,4.943-9.089,9.192
	c-4.559,6.541-9.869,12.134-15.085,13.583c-5.493,1.525-10.719,3.465-15.958,7.775c-5.18,4.263-10.668,6.417-16.015,9.565
	c-4.419,2.604-8.827,5.32-13.245,7.94c-0.324,0.192-0.688,0.012-1.034-0.008c-2.496-0.137-5.005-0.744-7.485-0.33
	c-7.969,1.33-15.922,3.171-23.89,4.525c-2.857,0.485-5.749-0.18-8.61,0.245c-6.875,1.021-13.734,2.673-20.611,3.521
	c-9.328,1.151-18.681,1.3-27.998,2.781c-9.491,1.509-18.702,7.872-28.435,6.74c-7.818-0.909-15.721,3.083-23.603,4.236
	c-8.753,1.28-17.539,1.348-26.285,2.815c-5.628,0.945-11.22,3.16-16.984,4.991l-1.328,0.416V285h719.333V104.334"/>
<g>
	<path fill="#808080" d="M153.047,124.729c0.009,0,0.018,0,0.027,0c0-7.279,0-14.015,0-19.979c-1.284-0.776-2.473-0.676-3.644-1.8
		c-3.122-2.996-6.247-5.953-9.347-9.661c-1.542-1.845-3.01-6.717-4.553-7.729c-3.06-2.009-5.924-9.482-9.038-10.427
		c-2.056-0.624-4.066-6.13-6.117-8.881c-1.015-1.361-2.073-1.491-3.114-2.075c-0.631-0.354-1.272-0.237-1.897-0.804
		c-1.757-1.597-3.506-3.551-5.263-5.139c-1.074-0.97-2.161-1.386-3.237-2.289c-1.957-1.641-3.91-3.438-5.863-5.207
		c-2.622-2.372-5.246-4.64-7.863-7.215c-2.42-2.385-4.827-5.308-7.248-7.643c-2.654-2.562-5.314-4.904-7.978-7.01
		c-2.983-2.359-5.981-6.366-8.96-5.975c-3.498,0.461-6.987,4.652-10.47,7.662c-2.777,2.399-5.532,5.821-8.312,8.107
		c-2.508,2.062-5.038,3.03-7.553,4.784c-3.26,2.275-6.513,4.947-9.773,7.267c-2.436,1.732-4.88,3.065-7.318,4.773
		c-4.008,2.811-8.01,5.99-12.021,8.619c-3.542,2.32-7.099,3.813-10.64,6.195c-1.04,0.698-2.083,1.144-3.126,1.55V285h153.306
		V124.729z"/>
	<path fill="#808080" d="M1034.822,68.301c-1.438,1.092-2.855,2.534-4.295,3.594c-2.002,1.473-4.015,2.721-6.021,4.094
		c-1.828,1.25-3.646,2.769-5.484,3.732c-1.33,0.696-2.691,0.596-4.034,1.002c-1.214,0.367-2.423,0.929-3.633,1.429
		c-0.354,0.146-0.708,0.347-1.062,0.569c-2.521,1.591-5.039,3.19-6.986,4.426h-5.705c-0.164-0.107-0.328-0.207-0.492-0.283
		c-1.801-0.83-3.654-0.518-5.35-3.61c-0.315-0.575-0.775-0.108-1.168-0.131c-0.348-0.02-0.695,0-1.041-0.087
		c-1.038-0.264-2.074-0.73-3.113-0.825c-1.681-0.155-3.412,0.855-5.035-0.276c-4.433-3.093-8.819-7.04-13.223-10.667
		c-1.221-1.005-2.412-2.176-3.686-0.475c-0.511,0.684-1.141,0.195-1.717,0.266c-1.35,0.165-2.699,0.421-4.049,0.499
		c-1.891,0.11-3.785,0.375-5.671,0.042c-1.605-0.282-3.203-1.933-4.802-1.887c-3.217,0.093-6.436,0.716-9.646,1.544
		c-1.672,0.432-3.322,1.885-4.99,2.664c-2.703,1.263-5.408,3.12-8.12,3.321c-3.486,0.26-6.981-0.867-10.472-1.402
		c-0.107-0.016-0.215-0.116-0.322-0.129c-1.691-0.187-3.384-0.379-5.075-0.542c-1.534-0.147-3.11,0.5-4.595-0.554
		c-3-2.128-5.959-0.458-8.928,0.149c-1.999,0.409-3.788,1.122-5.787,1.657c-2.319,0.62-5.596,0.239-7.92,0.678
		c-0.002,0-0.004,0.004-0.006,0.005v2.094c0.039,0.531,0.073,1.037,0.061,1.34c-0.089,2.161-0.045,4.398-0.037,6.713H882.4V284
		h153.341V67.617C1035.435,67.848,1035.128,68.068,1034.822,68.301z"/>
</g>
<g>
	<path fill="#FFFFFF" d="M178.605,274.079l0.072,2.718l-0.108,0.144l-1.404,0.108l-0.108-0.126l0.054-2.844h-3.168l-1.35,0.035
		l-0.126-0.161v-1.188l4.482-6.479h1.692l-0.054,6.371h1.62l0.108,0.162l-0.09,1.296L178.605,274.079z M177.13,272.656v-4.229
		h-0.144l-2.916,4.229H177.13z"/>
	<path fill="#FFFFFF" d="M184.042,274.745c0,0.888-0.636,1.787-1.908,2.699l-0.594-0.54l-0.018-0.144
		c0.66-0.54,0.99-1.092,0.99-1.656c0-0.371-0.187-0.689-0.558-0.954v-0.162c0.444-0.287,0.882-0.485,1.314-0.594
		C183.783,273.767,184.042,274.217,184.042,274.745z"/>
	<path fill="#FFFFFF" d="M192.654,267.338c0.666,0.786,0.999,1.905,0.999,3.356c0,1.513-0.351,2.683-1.053,3.511
		c-0.702,0.828-1.701,1.241-2.997,1.241c-1.224,0-2.172-0.393-2.844-1.179c-0.672-0.786-1.008-1.893-1.008-3.321
		c0-1.523,0.357-2.702,1.071-3.536s1.719-1.251,3.015-1.251C191.049,266.159,191.988,266.552,192.654,267.338z M187.191,270.82
		c0,2.005,0.84,3.007,2.52,3.007c1.68,0,2.52-0.973,2.52-2.916c0-2.04-0.846-3.061-2.538-3.061
		C188.025,267.851,187.191,268.841,187.191,270.82z"/>
	<path fill="#FFFFFF" d="M202.104,267.338c0.666,0.786,0.999,1.905,0.999,3.356c0,1.513-0.351,2.683-1.053,3.511
		c-0.702,0.828-1.701,1.241-2.997,1.241c-1.224,0-2.172-0.393-2.844-1.179s-1.008-1.893-1.008-3.321
		c0-1.523,0.357-2.702,1.071-3.536s1.719-1.251,3.015-1.251C200.499,266.159,201.438,266.552,202.104,267.338z M196.641,270.82
		c0,2.005,0.84,3.007,2.52,3.007c1.68,0,2.52-0.973,2.52-2.916c0-2.04-0.846-3.061-2.538-3.061
		C197.475,267.851,196.641,268.841,196.641,270.82z"/>
	<path fill="#FFFFFF" d="M211.554,267.338c0.666,0.786,0.999,1.905,0.999,3.356c0,1.513-0.351,2.683-1.053,3.511
		s-1.701,1.241-2.997,1.241c-1.224,0-2.172-0.393-2.844-1.179c-0.672-0.786-1.008-1.893-1.008-3.321
		c0-1.523,0.357-2.702,1.071-3.536c0.714-0.834,1.719-1.251,3.015-1.251C209.949,266.159,210.888,266.552,211.554,267.338z
		 M206.091,270.82c0,2.005,0.84,3.007,2.52,3.007s2.52-0.973,2.52-2.916c0-2.04-0.846-3.061-2.538-3.061
		C206.925,267.851,206.091,268.841,206.091,270.82z"/>
	<path fill="#FFFFFF" d="M222.795,262.793l-0.108,1.386l-0.126,0.108c-0.516-0.229-0.978-0.343-1.386-0.343
		c-0.888,0-1.338,0.517-1.35,1.549l-0.018,1.548h2.124l0.054,0.126l-0.108,1.044h-2.088l-0.054,3.438l0.126,3.654h-1.836
		l0.108-3.492l-0.036-3.6h-1.242l-0.072-0.108l0.09-1.062h1.224l-0.018-1.242c-0.012-1.02,0.267-1.803,0.837-2.349
		s1.377-0.819,2.421-0.819C221.805,262.631,222.291,262.685,222.795,262.793z"/>
	<path fill="#FFFFFF" d="M223.965,271.234c0.036,1.872,0.828,2.809,2.376,2.809c0.78,0,1.59-0.252,2.43-0.756l0.162,0.107
		l-0.216,1.458c-0.84,0.408-1.68,0.612-2.52,0.612c-1.236,0-2.199-0.381-2.889-1.144c-0.69-0.762-1.035-1.803-1.035-3.122
		c0-1.345,0.36-2.403,1.08-3.178c0.72-0.773,1.686-1.161,2.898-1.161c0.96,0,1.704,0.282,2.232,0.847
		c0.528,0.563,0.792,1.344,0.792,2.34c0,0.312-0.024,0.612-0.072,0.899l-0.306,0.288H223.965z M227.241,268.544
		c-0.264-0.282-0.63-0.423-1.098-0.423c-0.552,0-1.008,0.174-1.368,0.521c-0.36,0.349-0.6,0.84-0.72,1.477l3.546-0.091l0.036-0.216
		C227.637,269.249,227.504,268.826,227.241,268.544z"/>
	<path fill="#FFFFFF" d="M232.227,271.234c0.036,1.872,0.828,2.809,2.376,2.809c0.78,0,1.59-0.252,2.43-0.756l0.162,0.107
		l-0.216,1.458c-0.84,0.408-1.68,0.612-2.52,0.612c-1.236,0-2.199-0.381-2.889-1.144c-0.69-0.762-1.035-1.803-1.035-3.122
		c0-1.345,0.36-2.403,1.08-3.178c0.72-0.773,1.686-1.161,2.898-1.161c0.96,0,1.704,0.282,2.232,0.847
		c0.528,0.563,0.792,1.344,0.792,2.34c0,0.312-0.024,0.612-0.072,0.899l-0.306,0.288H232.227z M235.503,268.544
		c-0.264-0.282-0.63-0.423-1.098-0.423c-0.552,0-1.008,0.174-1.368,0.521c-0.36,0.349-0.6,0.84-0.72,1.477l3.546-0.091l0.036-0.216
		C235.899,269.249,235.767,268.826,235.503,268.544z"/>
	<path fill="#FFFFFF" d="M243.621,273.593l0.18,0.126l-0.18,1.152c-0.66,0.312-1.272,0.491-1.836,0.54
		c-0.744-0.12-1.284-0.369-1.62-0.747s-0.504-0.928-0.504-1.647l0.072-1.296l-0.018-3.51h-1.134l-0.072-0.108l0.09-1.062h1.098
		v-1.314l1.62-0.612l0.162,0.145l-0.036,1.782h2.304l0.072,0.126l-0.09,1.044h-2.322l-0.09,4.518
		c-0.012,0.444,0.063,0.753,0.225,0.927c0.162,0.175,0.435,0.262,0.819,0.262C242.757,273.917,243.177,273.809,243.621,273.593z"/>
</g>
</svg>
