<?xml version="1.0" encoding="utf-8"?>
<!-- Generator: Adobe Illustrator 16.0.4, SVG Export Plug-In . SVG Version: 6.00 Build 0)  -->
<!DOCTYPE svg PUBLIC "-//W3C//DTD SVG 1.1//EN" "http://www.w3.org/Graphics/SVG/1.1/DTD/svg11.dtd">
<svg version="1.1" id="Layer_1" xmlns="http://www.w3.org/2000/svg" xmlns:xlink="http://www.w3.org/1999/xlink" x="0px" y="0px"
	 width="1036px" height="285px" viewBox="0 0 1036 285" enable-background="new 0 0 1036 285" xml:space="preserve">
<path fill-rule="evenodd" clip-rule="evenodd" d="M227.991,150.333c1.842-0.365,3.65-0.759,5.362-1.762
	c4.698-2.753,9.262-6.374,13.878-9.648c3.751-2.662,7.257-5.942,9.907-12.133c0.684-1.597,2.142-2.642,3.268-2.724
	c5.041-0.369,10.01,0.669,14.846,3.763c5.428,3.474,10.742,8.102,16.689,6.971c1.209-0.23,2.411-0.729,3.621-0.798
	c6.051-0.348,12.104-0.627,18.154-0.855c2.562-0.097,5.125-0.074,7.686,0.02c1.424,0.052,2.842,0.482,4.266,0.531
	c3.037,0.104,6.084-0.16,9.114,0.162c2.568,0.273,5.132,1.814,7.675,1.631c4.504-0.324,8.993-1.469,13.48-2.404
	c1.631-0.341,3.322-1.962,4.842-1.44c3.586,1.235,6.744-1.714,9.988-3.169c4.012-1.796,7.832-5.188,11.728-7.934
	c1.063-0.75,2.076-1.792,3.151-2.456c3.731-2.305,7.463-4.621,11.23-6.673c1.227-0.666,2.588-0.919,3.855-0.695
	c3.225,0.571,6.425,2.052,9.645,2.166c3.203,0.114,6.435-0.756,9.622-1.633c3.033-0.832,6.119-1.679,9.013-3.516
	c4.323-2.746,8.668-3.465,13.155-2.993c1.377,0.146,2.954,0.142,4.137-0.982c3.872-3.684,7.745-4.289,11.503-0.296
	c3.069,3.264,6.062,4.576,9.618,3.872c6.483-1.282,12.842,1.32,19.095,4.504c3.229,1.645,6.424,0.896,9.527-0.499
	c1.259-0.564,2.278-1.554,3.577-0.412c0.614,0.542,1.413,0.395,2.128,0.407c2.498,0.05,5.017-0.356,7.489,0.13
	c3.746,0.736,7.204-0.092,10.396-4.256c0.561-0.732,1.543-0.904,2.221-0.548c2.672,1.409,4.9,0.31,6.979-3.22
	c1.387-2.354,2.867-4.902,4.547-6.131c5.299-3.872,10.76-3.115,16.123-0.387c1.748,0.891,3.004,0.055,4.418-1.557
	c0.701-0.801,1.73-1.349,2.492-1.007c4.316,1.94,8.695,3.651,12.859,6.5c3.002,2.057,5.482,3.746,8.955,1.844
	c3.213-1.762,7.018,0.368,10.553,0.975c2.566,0.44,5.111,1.489,7.68,1.729c3.275,0.306,6.564-0.026,9.848,0.094
	c5.506,0.201,11.012,0.498,16.516,0.86c1.135,0.075,2.283,0.451,3.389,0.973c2.639,1.249,5.221,3.403,7.889,3.864
	c5.846,1.015,11.297,3.495,15.982,10.798c0.904,1.408,2.178,2.302,3.344,2.64c3.678,1.073,7.375,1.979,11.082,2.546
	c2.783,0.426,5.447,0.259,8.002-3.298c2.078-2.897,4.777-4.109,7.168-6.217c0.951-0.841,1.789-2.154,2.717-3.115
	c0.85-0.88,1.715-1.847,2.635-2.283c1.203-0.571,2.473-0.577,3.699-0.972c1.648-0.528,3.279-1.288,4.93-1.778
	c1.979-0.588,3.969-1.252,5.963-1.393c1.332-0.095,2.928-0.103,3.977,1.172c4.449,5.398,9.373,3.564,14.129,4.083
	c5.295,0.579,10.6,0.809,15.9,1.137c2.047,0.128,4.422,1.424,6.074-0.112c3.191-2.97,6.191-4.545,9.719-3.145
	c3.465,1.376,6.918,1.67,10.23,5.294c2.502,2.738,5.889,3.734,8.826,3.436c5.041-0.514,9.811,0.545,14.637,3.267
	c2.219,1.253,4.641,2.214,7.143,0.316c2.674-2.027,5.395-2.471,8.111,1.14c3.092,4.108,6.246,8.179,10.029,9.972
	c0.944,0.448,2.348-0.6,2.543-0.751V280.29h0.25V285H224.859V150.942L227.991,150.333z"/>
<g>
	<path fill="#FFFFFF" d="M240.954,274.659l0.072,2.718l-0.108,0.144l-1.404,0.108l-0.108-0.126l0.054-2.844h-3.168l-1.35,0.035
		l-0.126-0.161v-1.188l4.482-6.479h1.692l-0.054,6.371h1.62l0.108,0.162l-0.09,1.296L240.954,274.659z M239.478,273.236v-4.229
		h-0.144l-2.916,4.229H239.478z"/>
	<path fill="#FFFFFF" d="M246.39,275.325c0,0.888-0.636,1.787-1.908,2.699l-0.594-0.54l-0.018-0.144
		c0.66-0.54,0.99-1.092,0.99-1.656c0-0.371-0.186-0.689-0.558-0.954v-0.162c0.443-0.287,0.882-0.485,1.314-0.594
		C246.131,274.347,246.39,274.797,246.39,275.325z"/>
	<path fill="#FFFFFF" d="M255.002,267.918c0.666,0.786,0.999,1.905,0.999,3.356c0,1.513-0.351,2.683-1.053,3.511
		s-1.701,1.241-2.997,1.241c-1.224,0-2.172-0.393-2.844-1.179s-1.008-1.893-1.008-3.321c0-1.523,0.356-2.702,1.071-3.536
		c0.714-0.834,1.719-1.251,3.015-1.251C253.397,266.739,254.336,267.132,255.002,267.918z M249.539,271.4
		c0,2.005,0.84,3.007,2.521,3.007c1.68,0,2.52-0.973,2.52-2.916c0-2.04-0.846-3.061-2.538-3.061
		C250.373,268.431,249.539,269.421,249.539,271.4z"/>
	<path fill="#FFFFFF" d="M264.452,267.918c0.666,0.786,0.999,1.905,0.999,3.356c0,1.513-0.351,2.683-1.053,3.511
		s-1.701,1.241-2.997,1.241c-1.224,0-2.172-0.393-2.844-1.179c-0.673-0.786-1.008-1.893-1.008-3.321
		c0-1.523,0.357-2.702,1.071-3.536s1.719-1.251,3.015-1.251C262.847,266.739,263.786,267.132,264.452,267.918z M258.989,271.4
		c0,2.005,0.84,3.007,2.52,3.007s2.52-0.973,2.52-2.916c0-2.04-0.846-3.061-2.538-3.061
		C259.823,268.431,258.989,269.421,258.989,271.4z"/>
	<path fill="#FFFFFF" d="M273.902,267.918c0.666,0.786,0.999,1.905,0.999,3.356c0,1.513-0.351,2.683-1.053,3.511
		c-0.702,0.828-1.701,1.241-2.997,1.241c-1.224,0-2.172-0.393-2.844-1.179c-0.672-0.786-1.008-1.893-1.008-3.321
		c0-1.523,0.357-2.702,1.071-3.536s1.719-1.251,3.015-1.251C272.297,266.739,273.236,267.132,273.902,267.918z M268.439,271.4
		c0,2.005,0.84,3.007,2.52,3.007c1.68,0,2.521-0.973,2.521-2.916c0-2.04-0.846-3.061-2.538-3.061
		C269.273,268.431,268.439,269.421,268.439,271.4z"/>
	<path fill="#FFFFFF" d="M285.143,263.373l-0.107,1.386l-0.126,0.108c-0.517-0.229-0.979-0.343-1.386-0.343
		c-0.888,0-1.338,0.517-1.35,1.549l-0.018,1.548h2.124l0.054,0.126l-0.108,1.044h-2.088l-0.054,3.438l0.126,3.654h-1.836
		l0.108-3.492l-0.036-3.6h-1.242l-0.072-0.108l0.09-1.062h1.224l-0.018-1.242c-0.012-1.02,0.267-1.803,0.837-2.349
		c0.57-0.546,1.377-0.819,2.421-0.819C284.153,263.211,284.639,263.265,285.143,263.373z"/>
	<path fill="#FFFFFF" d="M286.313,271.814c0.036,1.872,0.828,2.809,2.376,2.809c0.78,0,1.59-0.252,2.43-0.756l0.162,0.107
		l-0.216,1.458c-0.84,0.408-1.68,0.612-2.52,0.612c-1.236,0-2.199-0.381-2.889-1.144c-0.69-0.762-1.035-1.803-1.035-3.122
		c0-1.345,0.36-2.403,1.08-3.178c0.72-0.773,1.686-1.161,2.897-1.161c0.96,0,1.704,0.282,2.232,0.847
		c0.528,0.563,0.792,1.344,0.792,2.34c0,0.312-0.024,0.612-0.072,0.899l-0.306,0.288H286.313z M289.589,269.124
		c-0.264-0.282-0.63-0.423-1.098-0.423c-0.552,0-1.008,0.174-1.368,0.521c-0.36,0.349-0.601,0.84-0.72,1.477l3.546-0.091
		l0.036-0.216C289.985,269.829,289.853,269.406,289.589,269.124z"/>
	<path fill="#FFFFFF" d="M294.575,271.814c0.036,1.872,0.828,2.809,2.376,2.809c0.78,0,1.59-0.252,2.43-0.756l0.162,0.107
		l-0.216,1.458c-0.84,0.408-1.681,0.612-2.521,0.612c-1.236,0-2.199-0.381-2.889-1.144c-0.69-0.762-1.035-1.803-1.035-3.122
		c0-1.345,0.36-2.403,1.08-3.178c0.72-0.773,1.686-1.161,2.898-1.161c0.96,0,1.704,0.282,2.232,0.847
		c0.528,0.563,0.792,1.344,0.792,2.34c0,0.312-0.024,0.612-0.072,0.899l-0.306,0.288H294.575z M297.851,269.124
		c-0.264-0.282-0.63-0.423-1.098-0.423c-0.552,0-1.008,0.174-1.368,0.521c-0.36,0.349-0.6,0.84-0.72,1.477l3.546-0.091l0.036-0.216
		C298.247,269.829,298.115,269.406,297.851,269.124z"/>
	<path fill="#FFFFFF" d="M305.969,274.173l0.18,0.126l-0.18,1.152c-0.66,0.312-1.272,0.491-1.836,0.54
		c-0.744-0.12-1.284-0.369-1.62-0.747s-0.504-0.928-0.504-1.647l0.072-1.296l-0.019-3.51h-1.134l-0.072-0.108l0.09-1.062h1.098
		v-1.314l1.62-0.612l0.162,0.145l-0.036,1.782h2.304l0.072,0.126l-0.09,1.044h-2.322l-0.09,4.518
		c-0.013,0.444,0.062,0.753,0.225,0.927c0.162,0.175,0.435,0.262,0.819,0.262C305.104,274.497,305.524,274.389,305.969,274.173z"/>
</g>
<g>
	<path fill="#808080" d="M217.892,281.208V150.945c-9.053,0.313-21.345,1.058-30.381,1.636c-8.338,0.53-16.677,0.905-25.012,1.798
		c-1.271,0.138-2.537,0.903-3.803,1.742l0.002-0.002l-21.912-0.729c-2.707-2.175-5.412-4.377-8.146-6.015
		c-3.045-1.823-6.15-2.481-9.232-3.5c-3.614-1.192-7.246-1.853-10.848-3.389c-6.558-2.796-13.11-5.785-19.643-9.206
		c-9.59-5.023-19.127-11.452-28.749-15.462c-6.976-2.908-13.957-7.508-21.066-5.362c-3.054,0.921-6.122,1.385-9.188,1.587
		c-4.81,0.318-9.634,1.062-14.427,0.095c-4.803-0.968-9.569-4.005-14.363-5.772c-0.494-0.183-0.989-0.351-1.483-0.528V285h218.233
		L217.892,281.208z"/>
	<path fill="#808080" d="M1035.131,59.094c-2.709,2.344-5.396,5.286-8.127,6.972c-4.713,2.911-9.454,5.019-14.182,7.527
		c-3.559,1.89-7.103,4.444-10.674,5.659c-3.207,1.091-6.442,0.669-9.664,1.098c-1.641,0.219-3.36-0.369-4.904,1.502
		c-5.182,6.279-10.474,5.396-15.76,6.447c-6.097,1.209-12.174,4.084-18.26,6.23c-3.887,1.371-7.772,2.815-11.661,4.079
		c-5.581,1.812-11.161,3.628-16.745,5.173c-2.828,0.783-5.668,0.646-8.494,1.512c-4.654,1.425-9.301,3.375-13.953,5.002
		c-1.844,0.645-3.692,1.309-5.541,1.462c-6.864,0.571-13.736,0.245-20.592,1.58c-6.146,1.198-12.275,4.044-18.409,6.348
		c-4.29,1.612-8.571,3.785-12.864,5.244c-3.659,1.243-7.335,1.626-10.997,2.75c-5.118,1.57-8.718,2.999-13.831,4.826
		c-0.075,0.026-0.148,0.137-0.221,0.284l-2.053,1.117l-0.03,117.098v30.244h-0.008L818.16,285h217.48V58.668
		C1035.471,58.811,1035.301,58.947,1035.131,59.094z"/>
</g>
</svg>
