<?xml version="1.0" encoding="utf-8"?>
<!-- Generator: Adobe Illustrator 16.0.4, SVG Export Plug-In . SVG Version: 6.00 Build 0)  -->
<!DOCTYPE svg PUBLIC "-//W3C//DTD SVG 1.1//EN" "http://www.w3.org/Graphics/SVG/1.1/DTD/svg11.dtd">
<svg version="1.1" id="Layer_1" xmlns="http://www.w3.org/2000/svg" xmlns:xlink="http://www.w3.org/1999/xlink" x="0px" y="0px"
	 width="1036px" height="285px" viewBox="0 0 1036 285" enable-background="new 0 0 1036 285" xml:space="preserve">
<path fill-rule="evenodd" clip-rule="evenodd" d="M79.422,107.965c0.021-3.412,0.03-6.629,0-9.312c0,0,1.02-0.231,2.556-0.8
	c4.242-1.568,8.438-3.559,12.677-5.183c4.021-1.54,8.065-3.914,12.111-3.985c6.967-0.122,14.009,2.683,20.891,1.576
	c5.831-0.938,10.946,2.262,16.26,4.443c5.083,2.086,9.913,6.179,14.987,8.364c3.98,1.714,8.234,3.162,12.239,2.43
	c7.212-1.322,14.293-4.844,21.491-6.578c9.811-2.363,19.665-5.027,29.526-5.422c6.741-0.271,13.595,2.528,20.275,5.033
	c5.819,2.181,11.025,1.008,16.352-3.74c3.466-3.091,7.361-4.852,11.166-6.366c6.99-2.783,14.062-4.869,21.084-7.387
	c8.623-3.096,17.174-7.111,25.866-9.209c4.842-1.168,9.888,0.733,14.504-3.841c1.208-1.195,2.604-2.059,3.965-2.39
	c5.714-1.388,11.45-2.492,17.176-3.748c3.019-0.661,6.058-1.166,9.04-2.194c4.156-1.434,8.268-3.276,12.396-4.967
	c6.995-2.869,13.991-5.752,20.985-8.639c4.422-1.826,8.755-4.254,13.432-1.978c2.813,1.369,5.795,1.84,8.717,2.151
	c3.555,0.38,7.141-0.194,10.687,0.289c6.351,0.867,12.728,3.63,19.008,2.956c6.021-0.647,11.564-0.268,17.556,2.181
	c7.036,2.877,13.896,5.497,20.402,11.42c4.051,3.687,8.463,6.104,12.77,8.781c5.646,3.509,11.418,6.362,16.998,10.162
	c4.375,2.979,8.511,7.092,12.819,10.424c1.108,0.856,2.458,0.797,3.704,0.92c1.523,0.151,3.056-0.038,4.58,0.079
	c2.724,0.212,5.445,0.512,8.166,0.831c5.379,0.632,10.971-0.19,16.09,2.252c12.598,6.013,25.278,5.703,38.094,5.148
	c9.547-0.412,18.172-7.678,27.379-10.585c5.16-1.63,10.003-6.477,15.031-9.65c8.87-5.594,17.711-11.388,26.691-16.314
	c3.267-1.793,6.914-1.986,10.369-1.796c8.865,0.49,17.719,1.607,26.578,2.471c3.305,0.321,6.635,0.275,9.906,1.055
	c2.783,0.664,5.496,2.291,8.246,3.456c5.68,2.405,11.646,3.528,16.967,7.519c5.787,4.343,11.645,7.105,17.705,9.456
	c6.355,2.468,12.672,5.688,18.785,9.686c4.467,2.921,8.656,4.108,13.328,2.026c6.203-2.762,12.498-7.385,18.854-0.487
	c0.684,0.739,1.715,0.352,2.572,0.621c4.801,1.511,9.639,2.717,14.385,4.679c8.15,3.369,16.254,7.126,24.354,10.9
	c4.59,2.14,9.148,3.393,13.846,1.185c3.688-1.731,7.383-3.491,11.121-4.783c4.309-1.487,8.658-2.618,13.01-3.616
	c2.121-0.488,4.316-0.805,6.428-0.375c9.725,1.976,19.441,4.096,29.139,6.467c4.406,1.077,8.797,2.562,13.125,4.39
	c5.24,2.213,10.443,4.486,15.652,6.949l4.283-0.37v159.928H79.422V107.965z"/>
<g>
	<g>
		<path fill="#808080" d="M1031.438,96.737c-3.002-1.249-6.014-2.666-9.021-2.671c-2.172-0.004-4.34,2.375-6.516,3.33
			c-2.045,0.899-4.105,1.031-6.15,2.033c-2.943,1.441-5.875,3.439-8.816,5.031c-0.818,0.445-1.652,0.058-2.473,0.47
			c-3.76,1.892-7.518,3.943-11.277,5.918c-2.4,1.263-4.809,2.255-7.203,3.787c-3.971,2.54-7.926,5.789-11.904,7.985
			c-1.768,0.976-3.574,1.895-5.363,1.924v159.933h73.198V99.206C1034.421,98.301,1032.932,97.359,1031.438,96.737z"/>
	</g>
	<path fill="#808080" d="M72.455,114.583c0-0.146,0-0.292,0-0.438c0-5.156,0-10.188,0-15.491c-3.365,2.121-6.555,0.058-9.797-0.374
		c-1.512-0.2-3.021-0.467-4.537-0.565c-3.225-0.21-6.451-0.296-9.676-0.506c-0.932-0.061-1.859-0.359-2.785-0.573
		c-0.309-0.071-0.611-0.327-0.912-0.313c-3.016,0.137-6.029,0.318-9.045,0.473c-0.607,0.031-1.227,0.096-1.824-0.024
		c-2.119-0.424-4.252-0.776-6.338-1.438c-1.463-0.466-2.881-1.31-4.279-2.129c-3.025-1.771-6.07-3.203-9.373-3.547
		c-1.514-0.158-2.996-1.343-4.459-2.189c-3.037-1.757-6.119-1.902-9.369-1.637c-0.05,0.004-0.099,0.013-0.149,0.017v198.632h72.543
		V114.583z"/>
</g>
<g>
	<path fill="#FFFFFF" d="M94.148,273.699l0.072,2.718l-0.107,0.144l-1.404,0.108l-0.108-0.126l0.054-2.844h-3.168l-1.35,0.035
		l-0.126-0.161v-1.188l4.482-6.479h1.692l-0.054,6.371h1.62l0.108,0.162l-0.09,1.296L94.148,273.699z M92.672,272.276v-4.229h-0.144
		l-2.916,4.229H92.672z"/>
	<path fill="#FFFFFF" d="M99.584,274.365c0,0.888-0.636,1.787-1.908,2.699l-0.594-0.54l-0.018-0.144
		c0.66-0.54,0.99-1.092,0.99-1.656c0-0.371-0.186-0.689-0.558-0.954v-0.162c0.443-0.287,0.882-0.485,1.313-0.594
		C99.326,273.387,99.584,273.837,99.584,274.365z"/>
	<path fill="#FFFFFF" d="M108.197,266.958c0.666,0.786,0.999,1.905,0.999,3.356c0,1.513-0.351,2.683-1.053,3.511
		s-1.701,1.241-2.997,1.241c-1.224,0-2.172-0.393-2.844-1.179c-0.672-0.786-1.008-1.893-1.008-3.321
		c0-1.523,0.357-2.702,1.071-3.536c0.713-0.834,1.719-1.251,3.015-1.251C106.592,265.779,107.531,266.172,108.197,266.958z
		 M102.733,270.44c0,2.005,0.84,3.007,2.521,3.007c1.68,0,2.52-0.973,2.52-2.916c0-2.04-0.846-3.061-2.538-3.061
		C103.567,267.471,102.733,268.461,102.733,270.44z"/>
	<path fill="#FFFFFF" d="M117.646,266.958c0.666,0.786,0.999,1.905,0.999,3.356c0,1.513-0.351,2.683-1.053,3.511
		c-0.702,0.828-1.701,1.241-2.997,1.241c-1.224,0-2.172-0.393-2.844-1.179c-0.672-0.786-1.008-1.893-1.008-3.321
		c0-1.523,0.357-2.702,1.071-3.536s1.719-1.251,3.015-1.251C116.042,265.779,116.98,266.172,117.646,266.958z M112.184,270.44
		c0,2.005,0.84,3.007,2.52,3.007c1.68,0,2.52-0.973,2.52-2.916c0-2.04-0.846-3.061-2.538-3.061
		C113.018,267.471,112.184,268.461,112.184,270.44z"/>
	<path fill="#FFFFFF" d="M127.097,266.958c0.666,0.786,0.999,1.905,0.999,3.356c0,1.513-0.352,2.683-1.053,3.511
		c-0.702,0.828-1.701,1.241-2.997,1.241c-1.224,0-2.172-0.393-2.844-1.179s-1.008-1.893-1.008-3.321
		c0-1.523,0.357-2.702,1.071-3.536c0.714-0.834,1.719-1.251,3.015-1.251C125.491,265.779,126.431,266.172,127.097,266.958z
		 M121.633,270.44c0,2.005,0.84,3.007,2.52,3.007c1.68,0,2.52-0.973,2.52-2.916c0-2.04-0.846-3.061-2.538-3.061
		C122.467,267.471,121.633,268.461,121.633,270.44z"/>
	<path fill="#FFFFFF" d="M138.337,262.413l-0.108,1.386l-0.126,0.108c-0.516-0.229-0.978-0.343-1.386-0.343
		c-0.888,0-1.338,0.517-1.35,1.549l-0.018,1.548h2.124l0.054,0.126l-0.108,1.044h-2.088l-0.054,3.438l0.126,3.654h-1.836
		l0.107-3.492l-0.036-3.6h-1.242l-0.072-0.108l0.09-1.062h1.224l-0.018-1.242c-0.012-1.02,0.267-1.803,0.837-2.349
		c0.57-0.546,1.377-0.819,2.421-0.819C137.347,262.251,137.833,262.305,138.337,262.413z"/>
	<path fill="#FFFFFF" d="M139.507,270.854c0.036,1.872,0.828,2.809,2.376,2.809c0.78,0,1.59-0.252,2.43-0.756l0.162,0.107
		l-0.216,1.458c-0.84,0.408-1.68,0.612-2.52,0.612c-1.236,0-2.199-0.381-2.889-1.144c-0.69-0.762-1.035-1.803-1.035-3.122
		c0-1.345,0.36-2.403,1.08-3.178c0.72-0.773,1.686-1.161,2.898-1.161c0.96,0,1.704,0.282,2.232,0.847
		c0.527,0.563,0.792,1.344,0.792,2.34c0,0.312-0.024,0.612-0.072,0.899l-0.306,0.288H139.507z M142.783,268.164
		c-0.264-0.282-0.63-0.423-1.098-0.423c-0.552,0-1.008,0.174-1.368,0.521c-0.36,0.349-0.601,0.84-0.72,1.477l3.546-0.091
		l0.036-0.216C143.179,268.869,143.047,268.446,142.783,268.164z"/>
	<path fill="#FFFFFF" d="M147.769,270.854c0.036,1.872,0.828,2.809,2.376,2.809c0.78,0,1.59-0.252,2.43-0.756l0.162,0.107
		l-0.216,1.458c-0.84,0.408-1.68,0.612-2.52,0.612c-1.236,0-2.199-0.381-2.889-1.144c-0.69-0.762-1.035-1.803-1.035-3.122
		c0-1.345,0.36-2.403,1.08-3.178c0.72-0.773,1.686-1.161,2.898-1.161c0.96,0,1.704,0.282,2.232,0.847
		c0.528,0.563,0.792,1.344,0.792,2.34c0,0.312-0.024,0.612-0.072,0.899l-0.306,0.288H147.769z M151.045,268.164
		c-0.264-0.282-0.63-0.423-1.098-0.423c-0.552,0-1.008,0.174-1.368,0.521c-0.36,0.349-0.6,0.84-0.72,1.477l3.546-0.091l0.036-0.216
		C151.441,268.869,151.309,268.446,151.045,268.164z"/>
	<path fill="#FFFFFF" d="M159.163,273.213l0.18,0.126l-0.18,1.152c-0.66,0.312-1.272,0.491-1.836,0.54
		c-0.744-0.12-1.284-0.369-1.62-0.747s-0.504-0.928-0.504-1.647l0.072-1.296l-0.018-3.51h-1.134l-0.072-0.108l0.09-1.062h1.098
		v-1.314l1.62-0.612l0.162,0.145l-0.036,1.782h2.304l0.072,0.126l-0.09,1.044h-2.322l-0.09,4.518
		c-0.012,0.444,0.063,0.753,0.225,0.927c0.162,0.175,0.435,0.262,0.819,0.262C158.299,273.537,158.719,273.429,159.163,273.213z"/>
</g>
</svg>
