<?xml version="1.0" encoding="utf-8"?>
<!-- Generator: Adobe Illustrator 16.0.4, SVG Export Plug-In . SVG Version: 6.00 Build 0)  -->
<!DOCTYPE svg PUBLIC "-//W3C//DTD SVG 1.1//EN" "http://www.w3.org/Graphics/SVG/1.1/DTD/svg11.dtd">
<svg version="1.1" id="Layer_1" xmlns="http://www.w3.org/2000/svg" xmlns:xlink="http://www.w3.org/1999/xlink" x="0px" y="0px"
	 width="1036px" height="285px" viewBox="0 0 1036 285" enable-background="new 0 0 1036 285" xml:space="preserve">
<path d="M658.062,104.75c-1.283-0.776-2.473-0.676-3.643-1.8c-3.123-2.996-6.247-5.953-9.348-9.661
	c-1.542-1.845-3.01-6.717-4.553-7.729c-3.06-2.009-5.924-9.482-9.037-10.427c-2.057-0.624-4.066-6.13-6.117-8.881
	c-1.015-1.361-2.073-1.491-3.113-2.075c-0.632-0.354-1.272-0.237-1.898-0.804c-1.757-1.597-3.506-3.551-5.263-5.139
	c-1.074-0.97-2.161-1.386-3.237-2.289c-1.956-1.641-3.909-3.438-5.862-5.207c-2.622-2.372-5.246-4.64-7.862-7.215
	c-2.42-2.385-4.827-5.308-7.248-7.643c-2.654-2.562-5.314-4.904-7.979-7.01c-2.983-2.359-5.981-6.366-8.961-5.975
	c-3.497,0.461-6.986,4.652-10.469,7.662c-2.777,2.399-5.533,5.821-8.312,8.107c-2.508,2.062-5.037,3.03-7.553,4.784
	c-3.26,2.275-6.514,4.947-9.773,7.267c-2.436,1.732-4.881,3.065-7.318,4.773c-4.008,2.811-8.01,5.99-12.02,8.619
	c-3.542,2.32-7.099,3.813-10.64,6.195c-3.612,2.429-7.267,1.805-10.848,7.065c-1.539,2.265-3.206,0.934-4.786,2.408
	c-1.599,1.491-3.147,5.073-4.745,6.613c-3.557,3.425-7.127,6.329-10.7,9.106c-3.572,2.776-7.155,4.98-10.727,7.745
	c-2.351,1.82-4.743,2.923-7.025,6.571c-5.014,8.019-10.036,12.887-15.244,11.444c-2.958-0.819-5.937,2.095-8.91,2.511
	c-2.021,0.285-4.048-1.299-6.072-1.237c-3.021,0.088-6.042,1.246-9.063,1.278c-2.582,0.027-5.164-1.137-7.747-1.325
	c-3.43-0.25-6.86-0.209-10.29-0.03c-7.687,0.402-15.375,0.946-23.062,1.528c-0.182,0.014-0.363,0.324-0.543,0.682h-0.06V285h280
	V124.729c0.01,0,0.019,0,0.027,0C658.062,117.45,658.062,110.715,658.062,104.75z"/>
<g>
	<path fill="#808080" d="M1032.562,62.932c-6.782-1.561-13.586-2.605-20.383-3.804c-1.144-0.201-2.329-0.482-3.44-0.015
		c-2.762,1.161-5.467,3.206-8.242,4.004c-2.547,0.733-5.27,1.479-7.713,0.142c-5.262-2.876-10.348-7.507-15.588-10.651
		c-7.559-4.537-15.238-7.957-22.773-12.676c-6.02-3.771-11.941-8.495-17.833-13.305c-4.301-3.511-8.405-9.283-13.181-5.297
		c-1.629,1.359-3.118,3.653-4.689,5.43c-2.963,3.35-6.127,4.943-9.09,9.192c-4.559,6.541-9.868,12.134-15.085,13.583
		c-5.493,1.525-10.72,3.465-15.958,7.775c-5.181,4.263-10.669,6.417-16.016,9.565c-4.42,2.604-8.827,5.32-13.244,7.94
		c-0.324,0.192-0.689,0.012-1.034-0.008c-2.496-0.137-5.005-0.744-7.485-0.33c-7.969,1.33-15.922,3.171-23.89,4.525
		c-2.857,0.485-5.749-0.18-8.61,0.245c-6.874,1.021-13.733,2.673-20.611,3.521c-9.328,1.151-18.681,1.3-27.998,2.781
		c-9.49,1.509-18.701,7.872-28.434,6.74c-7.818-0.909-15.721,3.083-23.604,4.236c-8.753,1.28-17.539,1.348-26.285,2.815
		c-5.628,0.945-11.221,3.16-16.984,4.991l-1.328,0.416V285h373.926V64.305C1035.516,63.771,1034.041,63.272,1032.562,62.932z"/>
</g>
<rect x="-0.964" y="249.324" fill="#FFFFFF" width="37.964" height="35.676"/>
<g>
	<path fill="#FFFFFF" d="M397.605,275.574l0.072,2.718l-0.108,0.144l-1.404,0.108l-0.108-0.126l0.054-2.844h-3.168l-1.35,0.035
		l-0.126-0.161v-1.188l4.482-6.479h1.692l-0.054,6.371h1.62l0.108,0.162l-0.09,1.296L397.605,275.574z M396.13,274.151v-4.229
		h-0.144l-2.916,4.229H396.13z"/>
	<path fill="#FFFFFF" d="M403.042,276.24c0,0.888-0.636,1.787-1.908,2.699l-0.594-0.54l-0.018-0.144
		c0.66-0.54,0.99-1.092,0.99-1.656c0-0.371-0.187-0.689-0.558-0.954v-0.162c0.444-0.287,0.882-0.485,1.314-0.594
		C402.783,275.262,403.042,275.712,403.042,276.24z"/>
	<path fill="#FFFFFF" d="M411.654,268.833c0.666,0.786,0.999,1.905,0.999,3.356c0,1.513-0.351,2.683-1.053,3.511
		c-0.702,0.828-1.701,1.241-2.997,1.241c-1.224,0-2.172-0.393-2.844-1.179c-0.672-0.786-1.008-1.893-1.008-3.321
		c0-1.523,0.357-2.702,1.071-3.536s1.719-1.251,3.015-1.251C410.049,267.654,410.988,268.047,411.654,268.833z M406.191,272.315
		c0,2.005,0.84,3.007,2.52,3.007c1.68,0,2.52-0.973,2.52-2.916c0-2.04-0.846-3.061-2.538-3.061
		C407.025,269.346,406.191,270.336,406.191,272.315z"/>
	<path fill="#FFFFFF" d="M421.104,268.833c0.666,0.786,0.999,1.905,0.999,3.356c0,1.513-0.351,2.683-1.053,3.511
		c-0.702,0.828-1.701,1.241-2.997,1.241c-1.224,0-2.172-0.393-2.844-1.179s-1.008-1.893-1.008-3.321
		c0-1.523,0.357-2.702,1.071-3.536s1.719-1.251,3.015-1.251C419.499,267.654,420.438,268.047,421.104,268.833z M415.641,272.315
		c0,2.005,0.84,3.007,2.52,3.007c1.68,0,2.52-0.973,2.52-2.916c0-2.04-0.846-3.061-2.538-3.061
		C416.475,269.346,415.641,270.336,415.641,272.315z"/>
	<path fill="#FFFFFF" d="M430.554,268.833c0.666,0.786,0.999,1.905,0.999,3.356c0,1.513-0.351,2.683-1.053,3.511
		s-1.701,1.241-2.997,1.241c-1.224,0-2.172-0.393-2.844-1.179c-0.672-0.786-1.008-1.893-1.008-3.321
		c0-1.523,0.357-2.702,1.071-3.536c0.714-0.834,1.719-1.251,3.015-1.251C428.949,267.654,429.888,268.047,430.554,268.833z
		 M425.091,272.315c0,2.005,0.84,3.007,2.52,3.007s2.52-0.973,2.52-2.916c0-2.04-0.846-3.061-2.538-3.061
		C425.925,269.346,425.091,270.336,425.091,272.315z"/>
	<path fill="#FFFFFF" d="M441.795,264.288l-0.108,1.386l-0.126,0.108c-0.516-0.229-0.978-0.343-1.386-0.343
		c-0.888,0-1.338,0.517-1.35,1.549l-0.018,1.548h2.124l0.054,0.126l-0.108,1.044h-2.088l-0.054,3.438l0.126,3.654h-1.836
		l0.108-3.492l-0.036-3.6h-1.242l-0.072-0.108l0.09-1.062h1.224l-0.018-1.242c-0.012-1.02,0.267-1.803,0.837-2.349
		s1.377-0.819,2.421-0.819C440.805,264.126,441.291,264.18,441.795,264.288z"/>
	<path fill="#FFFFFF" d="M442.965,272.729c0.036,1.872,0.828,2.809,2.376,2.809c0.78,0,1.59-0.252,2.43-0.756l0.162,0.107
		l-0.216,1.458c-0.84,0.408-1.68,0.612-2.52,0.612c-1.236,0-2.199-0.381-2.889-1.144c-0.69-0.762-1.035-1.803-1.035-3.122
		c0-1.345,0.36-2.403,1.08-3.178c0.72-0.773,1.686-1.161,2.898-1.161c0.96,0,1.704,0.282,2.232,0.847
		c0.528,0.563,0.792,1.344,0.792,2.34c0,0.312-0.024,0.612-0.072,0.899l-0.306,0.288H442.965z M446.241,270.039
		c-0.264-0.282-0.63-0.423-1.098-0.423c-0.552,0-1.008,0.174-1.368,0.521c-0.36,0.349-0.6,0.84-0.72,1.477l3.546-0.091l0.036-0.216
		C446.637,270.744,446.504,270.321,446.241,270.039z"/>
	<path fill="#FFFFFF" d="M451.227,272.729c0.036,1.872,0.828,2.809,2.376,2.809c0.78,0,1.59-0.252,2.43-0.756l0.162,0.107
		l-0.216,1.458c-0.84,0.408-1.68,0.612-2.52,0.612c-1.236,0-2.199-0.381-2.889-1.144c-0.69-0.762-1.035-1.803-1.035-3.122
		c0-1.345,0.36-2.403,1.08-3.178c0.72-0.773,1.686-1.161,2.898-1.161c0.96,0,1.704,0.282,2.232,0.847
		c0.528,0.563,0.792,1.344,0.792,2.34c0,0.312-0.024,0.612-0.072,0.899l-0.306,0.288H451.227z M454.503,270.039
		c-0.264-0.282-0.63-0.423-1.098-0.423c-0.552,0-1.008,0.174-1.368,0.521c-0.36,0.349-0.6,0.84-0.72,1.477l3.546-0.091l0.036-0.216
		C454.899,270.744,454.767,270.321,454.503,270.039z"/>
	<path fill="#FFFFFF" d="M462.621,275.088l0.18,0.126l-0.18,1.152c-0.66,0.312-1.272,0.491-1.836,0.54
		c-0.744-0.12-1.284-0.369-1.62-0.747s-0.504-0.928-0.504-1.647l0.072-1.296l-0.018-3.51h-1.134l-0.072-0.108l0.09-1.062h1.098
		v-1.314l1.62-0.612l0.162,0.145l-0.036,1.782h2.304l0.072,0.126l-0.09,1.044h-2.322l-0.09,4.518
		c-0.012,0.444,0.063,0.753,0.225,0.927c0.162,0.175,0.435,0.262,0.819,0.262C461.757,275.412,462.177,275.304,462.621,275.088z"/>
</g>
</svg>
