<?xml version="1.0" encoding="utf-8"?>
<!-- Generator: Adobe Illustrator 16.0.4, SVG Export Plug-In . SVG Version: 6.00 Build 0)  -->
<!DOCTYPE svg PUBLIC "-//W3C//DTD SVG 1.1//EN" "http://www.w3.org/Graphics/SVG/1.1/DTD/svg11.dtd">
<svg version="1.1" id="Layer_1" xmlns="http://www.w3.org/2000/svg" xmlns:xlink="http://www.w3.org/1999/xlink" x="0px" y="0px"
	 width="1036px" height="285px" viewBox="0 0 1036 285" enable-background="new 0 0 1036 285" xml:space="preserve">
<path fill="#010101" d="M353.534,219.926l0.842-0.593c1.207-0.782,2.852-1.847,4.502-2.903c0.273-0.176,0.553-0.253,0.828-0.393
	c1.164-0.589,2.334-1.112,3.494-1.801c0.998-0.596,1.688-3.342,2.977-2.579c1.432,0.847,2.988-0.386,4.49-0.732
	c0.654-0.151,1.307-0.432,1.961-0.502c0.315-0.032,0.662,0.621,0.946,0.39c2.733-2.236,5.438-4.836,8.31-4.785
	c1.236,0.023,2.48-0.023,3.711-0.351c0.877-0.233,1.734-1.187,2.611-1.464c2.039-0.646,4.088-1.003,6.127-1.636
	c0.89-0.275,1.771-1.414,2.648-1.335c1.758,0.158,3.516,1.421,5.264,1.244c2.244-0.229,4.479-1.377,6.717-2.211
	c3.375-1.256,6.746-2.561,10.117-3.887c2.229-0.878,4.466-1.684,6.686-2.785c3.636-1.804,7.238-4.405,10.892-5.597
	c4.365-1.423,8.77-1.663,13.154-2.526c1.307-0.258,2.602-1.138,3.905-1.299c2.289-0.281,4.581-0.269,6.871-0.297
	c1.094-0.015,2.209,0.621,3.278,0.152c2.39-1.048,4.745-2.837,7.134-3.893c2.918-1.289,5.863-1.98,8.784-3.228
	c2.306-0.983,4.585-2.538,6.888-3.606c1.613-0.75,3.245-1.129,4.87-1.634c0.433-0.136,0.874-0.036,1.305-0.2
	c1.219-0.457,2.438-1.5,3.648-1.396c2.489,0.21,4.979,0.803,7.458,1.639c2.147,0.725,4.27,2.391,6.42,2.918
	c1.81,0.441,3.625-0.813,5.467-0.883c3.578-0.131,7.142-3.23,10.726-3.564c4.268-0.396,8.551,0.763,12.823,1.377
	c1.185,0.17,2.357,0.879,3.539,1.203c2.327,0.642,4.693,2.275,6.978,1.508c3.129-1.053,6.223-0.199,9.33-0.406
	c3.479-0.23,6.957-0.555,10.436-0.896c0.691-0.067,1.4-0.828,2.066-0.529c1.977,0.883,3.938,1.486,5.946,1.537
	c3.657,0.091,7.312,1.065,10.97,1.365c1.68,0.137,3.366-0.699,5.049-0.658c3.438,0.086,6.876,0.781,10.312,0.644
	c4.028-0.163,8.057-1.403,12.082-1.313c3.108,0.067,6.208,1.758,9.319,2.186c2.616,0.357,5.25,0.284,7.863-0.229
	c3.145-0.615,6.271-2.502,9.416-2.746c4.523-0.354,9.026-0.844,13.541-2.274c4.412-1.399,8.876-1.199,13.315-1.769
	c3.574-0.459,7.146-0.776,10.721-1.207c1.408-0.17,2.821,0.078,4.226,0.078c0,10.752,0,27.567,0,51.274c0,0.205,0,0.408,0,0.613V285
	H353.534V219.926z"/>
<path fill="#818181" d="M691.765,168.018c0.839-0.134,1.564-0.148,2.318-0.191c1.629-0.094,3.271,0.119,4.883-0.157
	c1.945-0.334,3.84-0.553,5.748,0.478c0.568,0.307,1.262,0.098,1.887-0.026c2.515-0.493,5.017-1.288,7.535-1.521
	c3.412-0.313,6.799,0.221,10.136,1.698c1.133,0.504,2.387,0.224,3.573,0.449c2.283,0.438,4.537-1.675,6.84-0.161
	c0.404,0.268,0.927,0.007,1.388,0.075c1.061,0.155,2.121,0.332,3.176,0.565c0.828,0.183,1.646,0.461,2.469,0.701
	c1.564,0.457,3.138,0.856,4.689,1.396c1.666,0.577,3.311,1.325,4.977,1.899c0.291,0.102,0.666-0.205,0.961-0.457
	c0.933-0.798,1.82-0.562,2.799-0.127c0.853,0.379,1.787,0.23,2.688,0.303c0.295,0.023,0.625-0.141,0.877,0.033
	c1.496,1.023,3,0.431,4.502,0.164c2.57-0.457,4.99-2.316,7.66-1.998c2.123,0.254,4.266,0.051,6.4,0.06
	c1.059,0.004,2.118,0.131,3.172,0.022c2.112-0.218,4.239-0.361,6.325-0.914c1.556-0.41,3.035-1.574,4.584-2.117
	c3.476-1.217,6.966-2.318,10.462-3.336c2.008-0.586,4.1-0.463,5.896-2.512c0.328-0.373,0.881-0.3,1.326-0.268
	c2.186,0.158,4.373-1.387,6.57,0.033c0.239,0.156,0.637-0.284,0.944-0.508c1.16-0.838,2.291-0.705,3.431,0.143
	c0.77,0.572,1.543,1.156,2.348,1.547c3.258,1.581,6.539,3.021,9.789,4.643c2.67,1.334,5.299,2.904,7.965,4.254
	c0.828,0.418,1.881,1.033,2.557,0.53c1.078-0.804,1.828-0.051,2.734,0.351c0.652,0.287,1.361,0.348,2.039,0.309
	c1.701-0.1,3.41-0.604,5.094-0.411c2.777,0.314,5.533,0.869,8.277-0.407c0.219-0.103,0.492,0.054,0.731,0.145
	c1.638,0.62,3.255,1.427,4.908,1.847c3.062,0.775,6.144,1.353,9.222,1.962c1.614,0.32,3.241,0.797,4.854,0.717
	c1.375-0.069,2.713-0.491,4.062,0.383c0.479,0.312,1.106,0.421,1.598,0.195c1.309-0.601,2.643-0.17,4.016-0.811
	c1.476-0.688,3.304,0.339,4.918,1.016c2.351,0.985,4.64,2.363,6.97,3.489c0.506,0.244,1.073,0.121,1.614,0.174
	c1.503,0.146,3.007,0.291,4.511,0.438l1.963,0.224h4.115c2.338-0.521,4.674-1.125,6.989-1.873c1.263-0.406,2.479-1.195,3.711-1.833
	c2.505-1.294,5.105-2,7.363-4.606c1.379-1.592,3.037-2.633,4.65-3.504c1.745-0.94,3.573-1.502,5.387-2.029
	c1.172-0.34,2.379-0.33,3.57-0.455c0.547-0.059,1.153,0.178,1.633-0.139c2.467-1.627,5.082-1.373,7.61-1.424
	c3.336-0.07,6.529-0.812,9.666-2.631c1.22-0.707,2.476-1.281,3.738-1.715c0.945-0.324,1.951-0.596,2.894-0.396
	c0.895,0.188,1.686,0.724,2.467-0.543c0.213-0.344,0.717-0.322,1.073-0.263c1.537,0.261,3.136,0.128,4.47,1.823
	c0.149,0.189,0.42,0.255,0.61,0.188c1.478-0.52,2.925,1.14,4.427,0.062c0.668-0.479,1.434-0.727,2.162-0.773
	c1.438-0.094,2.895,0.303,4.155-1.41c0.254-0.346,0.785-0.152,1.189-0.157c0.416-0.005,0.885,0.274,1.238,0.042
	c1.422-0.934,2.709-2.216,4.332-2.515c1.35-0.248,2.623-1.66,3.899-2.539c0.832,0.42,1.699,1.176,2.586,1.24
	c1.634,0.12,3.279-0.146,4.918-0.291c0.455-0.041,0.927-0.119,1.355-0.359c3.143-1.764,6.172-1.03,9.198,0.883
	c0.949,0.602,2.078,1.203,3.021,0.9c2.861-0.912,5.68-2.205,8.496-3.475c1.516-0.683,2.455-1.193,4.383-1.568
	c0,9.245,0,20.148,0,29.359c0,0.224,0,0.446,0,0.67V285h-344V183.35v-0.684c0-0.111,0-0.221,0-0.333v-14.315H691.765z"/>
<g>
	<path fill="#818181" d="M346.567,219.952c-2.717-0.874-5.928-1.737-8.992-3.123c-0.346-0.157-0.811,0.29-1.051-0.146
		c-2.012-3.656-4.461-2.859-6.686-4.203c-3.084-1.858-6.266-2.646-9.402-3.972c-1.936-0.819-3.881-1.588-5.789-2.741
		c-1.857-1.121-3.672-2.715-5.508-4.074c-0.162-0.121-0.367-0.191-0.518-0.047c-2.387,2.316-4.594,0.371-6.854-1.531
		c-1.871-1.575-3.818-2.551-5.74-3.727c-0.324-0.199-0.762-0.422-1.01-0.046c-2.238,3.382-4.219,0.302-6.342-1.11
		c-3.438-2.283-6.947-3.885-10.439-5.608c-2.9-1.437-5.816-2.696-8.734-3.894c-0.604-0.246-1.256,0.353-1.871,0.187
		c-2.223-0.601-4.447-1.188-6.652-2.097c-3.521-1.448-6.99-3.942-10.631-2.48c-0.709,0.284-1.488-0.523-2.23-0.895
		c-0.285-0.141-0.646-0.891-0.816-0.648c-1.906,2.739-3.457-0.697-5.186-1.48c-1.9-0.859-3.926,0.068-5.896,0.211
		c-1.863,0.134-3.729,0.16-5.588,0.421c-1.088,0.151-2.203,0.354-3.244,1.098c-1.465,1.044-2.791,2.665-4.43,1.034
		c-0.832-0.83-2.027-0.409-2.912,0.439c-1.699,1.629-3.316,0.942-5.014,0.449c-1.182-0.342-2.406,0.333-3.613,0.562
		c-0.279,0.054-0.559,0.125-0.836,0.204c-1.369,0.388-2.734,0.812-4.104,1.168c-2.361,0.615-4.723,1.205-7.084,1.773
		c-0.857,0.208-1.717,0.348-2.574,0.481c-1.049,0.163-2.098,0.291-3.146,0.422c-0.055,0.006-0.127-0.185-0.164-0.14
		c-2.889,3.52-5.668-2.953-8.703-0.27c-2.129,1.883-4.625,0.943-6.936,1.688c-1.604,0.521-3.172,1.783-4.76,2.673
		c-2.176,1.221-4.342,2.571-6.535,3.562c-3.234,1.461-6.506,2.436-9.73,4.014c-4.312,2.11-8.629,4.271-12.881,7.039
		c-2.889,1.881-5.664,4.888-8.504,7.279c-0.621,0.522-1.311,0.493-1.955,0.857c-1.084,0.611-2.201,1.043-3.225,2.066
		c-3.076,3.082-6.014,2.102-9.047-0.68c-1.42-1.301-3.064-0.96-4.598-1.521c-0.736-0.27-1.441-1.07-2.178-1.342
		c-2.373-0.873-4.754-1.63-7.135-2.387c-0.58-0.184-1.189,0.023-1.75-0.318c-4.047-2.48-8.012-1.64-12.016,1.004
		c-2.059,1.357-4.26,1.211-6.359,2.242c-1.982,0.977-3.91,2.658-5.871,3.936c-2.662,1.732-5.32,3.525-8.004,5.009
		c-1.873,1.034-3.789,1.545-5.682,2.367c-3.729,1.62-7.439,3.562-11.186,4.866c-2.916,1.018-5.871,1.477-8.816,1.808
		c-2.633,0.295-5.277-0.082-7.914,0.135c-2.059,0.171-4.111,1.037-6.17,1.157c-2.734,0.158-5.473-0.241-8.209-0.154
		c-2.299,0.073-4.596,0.551-6.895,0.758c-3.814,0.342-7.631,0.562-11.445,0.932c-1.885,0.183-3.771,0.945-5.648,0.787
		c-0.306-0.025-0.611-0.086-0.917-0.158V285h346.124L346.567,219.952L346.567,219.952z"/>
</g>
<g>
	<path fill="#FFFFFF" d="M369.236,275.079l0.072,2.718l-0.108,0.145l-1.404,0.107l-0.108-0.126l0.054-2.844h-3.168l-1.35,0.034
		l-0.126-0.16v-1.188l4.482-6.479h1.692l-0.054,6.371h1.62l0.108,0.161l-0.09,1.297L369.236,275.079z M367.761,273.656v-4.229
		h-0.144l-2.916,4.229H367.761z"/>
	<path fill="#FFFFFF" d="M374.672,275.745c0,0.888-0.636,1.787-1.908,2.698l-0.594-0.539l-0.018-0.145
		c0.66-0.539,0.99-1.092,0.99-1.656c0-0.371-0.187-0.688-0.558-0.953v-0.162c0.444-0.287,0.882-0.485,1.314-0.594
		C374.414,274.768,374.672,275.217,374.672,275.745z"/>
	<path fill="#FFFFFF" d="M383.285,268.338c0.666,0.786,0.999,1.905,0.999,3.355c0,1.514-0.351,2.684-1.053,3.512
		s-1.701,1.24-2.997,1.24c-1.224,0-2.172-0.393-2.844-1.178c-0.672-0.787-1.008-1.894-1.008-3.322c0-1.522,0.357-2.701,1.071-3.535
		c0.714-0.834,1.719-1.251,3.015-1.251C381.68,267.159,382.619,267.552,383.285,268.338z M377.822,271.82
		c0,2.005,0.84,3.007,2.52,3.007c1.68,0,2.52-0.974,2.52-2.916c0-2.04-0.846-3.062-2.538-3.062
		C378.656,268.852,377.822,269.841,377.822,271.82z"/>
	<path fill="#FFFFFF" d="M392.735,268.338c0.666,0.786,0.999,1.905,0.999,3.355c0,1.514-0.351,2.684-1.053,3.512
		c-0.702,0.828-1.701,1.24-2.997,1.24c-1.224,0-2.172-0.393-2.844-1.178c-0.672-0.787-1.008-1.894-1.008-3.322
		c0-1.522,0.357-2.701,1.071-3.535c0.714-0.834,1.719-1.251,3.015-1.251C391.13,267.159,392.069,267.552,392.735,268.338z
		 M387.272,271.82c0,2.005,0.84,3.007,2.52,3.007s2.52-0.974,2.52-2.916c0-2.04-0.846-3.062-2.538-3.062
		C388.106,268.852,387.272,269.841,387.272,271.82z"/>
	<path fill="#FFFFFF" d="M402.185,268.338c0.666,0.786,0.999,1.905,0.999,3.355c0,1.514-0.351,2.684-1.053,3.512
		s-1.701,1.24-2.997,1.24c-1.224,0-2.172-0.393-2.844-1.178c-0.672-0.787-1.008-1.894-1.008-3.322c0-1.522,0.357-2.701,1.071-3.535
		c0.714-0.834,1.719-1.251,3.015-1.251C400.58,267.159,401.52,267.552,402.185,268.338z M396.722,271.82
		c0,2.005,0.841,3.007,2.521,3.007s2.52-0.974,2.52-2.916c0-2.04-0.846-3.062-2.538-3.062
		C397.556,268.852,396.722,269.841,396.722,271.82z"/>
	<path fill="#FFFFFF" d="M413.426,263.793l-0.107,1.387l-0.126,0.107c-0.517-0.229-0.979-0.344-1.387-0.344
		c-0.888,0-1.338,0.518-1.35,1.55l-0.019,1.548h2.125l0.054,0.126l-0.108,1.044h-2.088l-0.054,3.438l0.126,3.654h-1.836l0.107-3.492
		l-0.036-3.6h-1.241l-0.072-0.107l0.09-1.062h1.224l-0.018-1.242c-0.012-1.02,0.267-1.803,0.837-2.349s1.377-0.819,2.421-0.819
		C412.436,263.631,412.921,263.686,413.426,263.793z"/>
	<path fill="#FFFFFF" d="M414.596,272.234c0.036,1.871,0.828,2.809,2.376,2.809c0.78,0,1.591-0.252,2.431-0.756l0.162,0.107
		l-0.217,1.457c-0.84,0.408-1.68,0.612-2.52,0.612c-1.236,0-2.199-0.381-2.889-1.144c-0.69-0.762-1.035-1.803-1.035-3.122
		c0-1.345,0.359-2.403,1.08-3.179c0.72-0.772,1.686-1.16,2.897-1.16c0.96,0,1.704,0.281,2.232,0.847
		c0.527,0.563,0.792,1.344,0.792,2.34c0,0.312-0.024,0.612-0.072,0.899l-0.306,0.287h-4.933V272.234z M417.872,269.544
		c-0.264-0.282-0.63-0.423-1.098-0.423c-0.553,0-1.009,0.174-1.368,0.521c-0.36,0.349-0.601,0.84-0.721,1.477l3.547-0.092
		l0.035-0.215C418.268,270.249,418.135,269.826,417.872,269.544z"/>
	<path fill="#FFFFFF" d="M422.857,272.234c0.035,1.871,0.827,2.809,2.376,2.809c0.779,0,1.59-0.252,2.43-0.756l0.162,0.107
		l-0.216,1.457c-0.841,0.408-1.681,0.612-2.521,0.612c-1.235,0-2.199-0.381-2.889-1.144c-0.69-0.762-1.035-1.803-1.035-3.122
		c0-1.345,0.36-2.403,1.08-3.179c0.72-0.772,1.686-1.16,2.897-1.16c0.96,0,1.704,0.281,2.232,0.847
		c0.528,0.563,0.792,1.344,0.792,2.34c0,0.312-0.024,0.612-0.072,0.899l-0.306,0.287h-4.932V272.234z M426.134,269.544
		c-0.264-0.282-0.63-0.423-1.098-0.423c-0.552,0-1.008,0.174-1.368,0.521c-0.36,0.349-0.6,0.84-0.72,1.477l3.546-0.092l0.036-0.215
		C426.53,270.249,426.396,269.826,426.134,269.544z"/>
	<path fill="#FFFFFF" d="M434.251,274.593l0.18,0.126l-0.18,1.152c-0.66,0.312-1.272,0.49-1.836,0.54
		c-0.744-0.12-1.284-0.369-1.62-0.747s-0.504-0.928-0.504-1.646l0.072-1.297l-0.019-3.51h-1.134l-0.072-0.107l0.09-1.062h1.099
		v-1.314l1.62-0.611l0.162,0.145l-0.036,1.782h2.304l0.072,0.126l-0.09,1.044h-2.322l-0.09,4.519
		c-0.013,0.443,0.062,0.752,0.225,0.927s0.436,0.262,0.819,0.262C433.388,274.917,433.808,274.809,434.251,274.593z"/>
</g>
</svg>
