<?xml version="1.0" encoding="utf-8"?>
<!-- Generator: Adobe Illustrator 16.0.4, SVG Export Plug-In . SVG Version: 6.00 Build 0)  -->
<!DOCTYPE svg PUBLIC "-//W3C//DTD SVG 1.1//EN" "http://www.w3.org/Graphics/SVG/1.1/DTD/svg11.dtd">
<svg version="1.1" id="Layer_1" xmlns="http://www.w3.org/2000/svg" xmlns:xlink="http://www.w3.org/1999/xlink" x="0px" y="0px"
	 width="1036px" height="285px" viewBox="0 0 1036 285" enable-background="new 0 0 1036 285" xml:space="preserve">
<path d="M306.604,40.061c2.637-1.138,5.351-1.316,8.059-2.57c0.775-0.358,1.553-0.851,2.297-1.554
	c4.105-3.885,8.209-7.812,12.299-11.821c1.244-1.219,2.428-2.904,3.672-4.107c3.135-3.031,6.229-6.926,9.461-8.435
	c1.701-0.793,3.801,1.967,5.48,4.39c4.684,6.754,9.539,11.838,14.721,14.737c1.684,0.942,3.256,3.387,4.938,4.351
	c4.435,2.542,8.908,4.557,13.354,6.972c1.706,0.926,3.445,1.887,5.045,3.686c2.454,2.761,4.654,1.125,6.912-1.439
	c2.984-3.387,5.951-6.933,9-9.81c2.488-2.348,4.598,1.629,6.781,4.294c4.959,6.054,10.127,10.078,15.564,11.143
	c0.574,0.111,1.197,0.197,1.701,0.852c2.691,3.491,5.461,2.858,8.256,1.548c0.301-0.141,0.768-0.601,0.887-0.236
	c1.217,3.721,2.873,1.887,4.308,2.639c0.479,0.251,1.237-0.418,1.552-1.421c2.416-7.679,5.639-10.562,9.102-11.702
	c4-1.318,8.02-2.831,12.035-2.961c3.365-0.107,6.272-3.733,9.354-6.218c1.493-1.203,3.095-1.428,4.655-1.898
	c1.471-0.443,4.467-1.081,5.945-1.16c1.986-0.45,5.526-0.05,7.533,0.142c3.926,0.374,7.82,0.155,11.68-2.45
	c4.353-2.938,8.721-5.853,13.135-7.893c3.996-1.846,8.076-3.685,12.096-3.354c4.182,0.342,8.344,3.149,12.49,5.211
	c0.838,0.416,1.566,2.376,2.363,3.526c3.043,4.385,5.99,9.451,9.17,12.875c2.81,3.024,5.859,5.484,8.955,2.705
	c1.688-1.518,3.248-4.182,4.947-5.566c5.025-4.096,10.098-7.717,15.422-6.719c4.111,0.771,8.223,1.725,12.338,2.286
	c1.736,0.237,3.486-0.432,5.23-0.5c2.525-0.099,5.053-0.028,7.576-0.021c0.428,0.001,0.91-0.312,1.27,0.125
	c4.176,5.076,8.334,0.717,12.506,0.083c2.104-0.319,4.254-0.063,6.334,0.792c2.775,1.139,5.455,0.769,8.172-0.968
	c4.574-2.925,9.184-2.852,13.877-2.017c6.461,1.147,12.955,0.701,19.434,1.125c7.211,0.473,14.438,0.597,21.625,2.053
	c2.465,0.5,5.104,3.447,7.188,7.261c3.068,5.612,6.504,7.749,9.846,10.896c5.15,4.852,10.307,9.697,15.521,13.979
	c3.883,3.188,7.838,4.645,11.398,7.093l0.771,0.63V285h-426.25V71.532c-0.002,0-0.002,0-0.004,0V40.061z"/>
<g>
	<path fill="#808080" d="M299.636,89.512c0-0.06,0-0.118,0-0.178c0-16.44,0-32.396,0-49.201
		c-5.17-4.771-10.386-10.055-15.662-14.182c-1.688-1.322-3.544,0.149-5.311,0.838c-1.535,0.6-3.07,1.597-4.574,2.947
		c-3.318,2.979-6.646,5.901-9.91,9.631c-1.715,1.961-3.276,0.813-4.935-0.231c-1.849-1.164-3.73-1.935-5.601-2.021
		c-2.58-0.116-5.162,0.795-7.744,0.854c-2.996,0.069-5.961-0.533-8.916-3.429c-1.715-1.68-3.596-0.78-5.401-1.123
		c-0.556-0.105-1.12-0.278-1.661-0.765c-0.931-0.837-1.906-1.453-2.756-3.034c-2.018-3.765-4.051-0.944-6.079-1.211
		c-3.661-0.481-7.306-2.794-10.962-4.095c-1.52-0.541-3.072-1.09-4.578-0.483c-2.104,0.846-4.08,0.752-6.164-1.718
		c-1.516-1.796-3.276-0.372-4.926-0.649c-1.569-0.266-3.229,0.217-4.678-1.64c-1.442-1.851-2.719-1.021-4.031,0.121
		c-3.885,3.384-7.729,7.485-11.627,10.561c-2.337,1.843-4.752,2.153-7.122,3.418c-1.665,0.888-3.313,2.208-4.969,3.361
		c-3.612,2.517-7.21,5.396-10.839,7.446c-2.127,1.202-4.312,0.784-6.457,1.653c-2.719,1.104-6.846,2.885-9.539,4.719
		c-0.35-0.203-2.124-0.037-2.441-0.601c-2.356-4.188-4.59,1.106-6.889,1.395c-2.475,0.311-4.936,2.074-7.408,2.707
		c-4.877,1.247-9.766,1.805-14.635,3.312c-3.658,1.135-7.287,3.743-10.947,4.847c-1.934,0.584-3.902-0.752-5.857-1.02
		c-1.408-0.191-2.82-0.055-4.23-0.053c-0.355,0.001-0.711-0.017-1.064,0.085c-1.213,0.349-2.629-0.677-3.597,1.401
		c-2.526,5.425-5.302,5.611-7.978,6.813c-4.405,1.979-8.865,2.071-13.291,3.457c-3.528,1.105-7.041,2.947-10.561,4.486
		c-0.219,0.095-0.43,0.522-0.648,0.568c-3.463,0.734-6.928,1.371-10.389,2.149c-5.437,1.223-10.869,2.674-16.307,3.761
		c-3.58,0.717-7.168,1.117-10.752,1.383c-2.735,0.203-5.471,0.345-8.206,0.482V285h299.642V89.512z"/>
	<path fill="#808080" d="M1022.658,37.394c-1.026-0.102-2.073,1.007-3.1,1.697c-4.181,2.811-8.144,8.231-12.603,7.803
		c-1.652-0.159-3.369,1.613-4.988,3.131c-4.431,4.151-8.856,4.236-13.271,0.287c-3.936-3.521-7.775-8.027-11.751-11.05
		c-7.526-5.724-15.161-9.879-22.983-6.007c-3.535,1.75-7.008,4.548-10.533,6.502c-1.793,0.992-3.643,1.726-5.459,1.604
		c-4.824-0.321-9.561,1.319-14.334,3.183c-3.89,1.519-7.881,1.257-11.822,1.064c-3.546-0.174-7.083-1.768-10.629-1.955
		c-6.398-0.338-12.812,0.541-19.201-0.288c-5.539-0.719-10.871,3.12-16.314,4.316c-3.174,0.697-6.389,1.338-9.484,3.325
		c-8.544,5.485-17.173,2.089-25.757,2.851c-2.401,0.213-4.815-1.555-7.231-1.887c-6.068-0.835-12.008,1.915-17.958,5.25
		c-6.073,3.403-12.214,5.877-18.353,8.164c-3.572,1.332-7.207,2.353-10.797,2.005c-6.793-0.659-13.57-2.693-20.364-3.52
		c-1.948-0.236-3.925,1.785-5.895,2.642c-3.332,1.449-6.67,2.798-10.005,4.187v0.313v20.515V285h296.169V33.005
		C1031.623,36.156,1027.191,37.845,1022.658,37.394z"/>
</g>
<g>
	<path fill="#FFFFFF" d="M322.206,274.516l0.071,2.718l-0.107,0.144l-1.404,0.108l-0.107-0.126l0.054-2.844h-3.168l-1.351,0.035
		l-0.126-0.161v-1.188l4.482-6.479h1.692l-0.055,6.371h1.62l0.108,0.162l-0.09,1.296L322.206,274.516z M320.729,273.093v-4.229
		h-0.144l-2.916,4.229H320.729z"/>
	<path fill="#FFFFFF" d="M327.642,275.182c0,0.888-0.636,1.787-1.908,2.699l-0.594-0.54l-0.019-0.144
		c0.66-0.54,0.99-1.092,0.99-1.656c0-0.371-0.186-0.689-0.558-0.954v-0.162c0.443-0.287,0.882-0.485,1.313-0.594
		C327.384,274.203,327.642,274.653,327.642,275.182z"/>
	<path fill="#FFFFFF" d="M336.254,267.774c0.666,0.786,0.999,1.905,0.999,3.356c0,1.513-0.351,2.683-1.053,3.511
		s-1.701,1.241-2.997,1.241c-1.224,0-2.172-0.393-2.844-1.179s-1.008-1.893-1.008-3.321c0-1.523,0.356-2.702,1.07-3.536
		s1.72-1.251,3.016-1.251C334.649,266.596,335.588,266.988,336.254,267.774z M330.791,271.257c0,2.005,0.84,3.007,2.521,3.007
		c1.68,0,2.52-0.973,2.52-2.916c0-2.04-0.846-3.061-2.538-3.061C331.625,268.287,330.791,269.277,330.791,271.257z"/>
	<path fill="#FFFFFF" d="M345.704,267.774c0.666,0.786,0.999,1.905,0.999,3.356c0,1.513-0.351,2.683-1.053,3.511
		s-1.701,1.241-2.997,1.241c-1.224,0-2.172-0.393-2.844-1.179c-0.673-0.786-1.009-1.893-1.009-3.321
		c0-1.523,0.357-2.702,1.071-3.536s1.719-1.251,3.016-1.251C344.1,266.596,345.038,266.988,345.704,267.774z M340.241,271.257
		c0,2.005,0.84,3.007,2.521,3.007c1.68,0,2.52-0.973,2.52-2.916c0-2.04-0.846-3.061-2.538-3.061
		C341.075,268.287,340.241,269.277,340.241,271.257z"/>
	<path fill="#FFFFFF" d="M355.154,267.774c0.666,0.786,0.999,1.905,0.999,3.356c0,1.513-0.352,2.683-1.053,3.511
		c-0.702,0.828-1.701,1.241-2.997,1.241c-1.225,0-2.173-0.393-2.845-1.179s-1.008-1.893-1.008-3.321
		c0-1.523,0.357-2.702,1.071-3.536s1.719-1.251,3.015-1.251C353.549,266.596,354.488,266.988,355.154,267.774z M349.691,271.257
		c0,2.005,0.84,3.007,2.52,3.007s2.521-0.973,2.521-2.916c0-2.04-0.847-3.061-2.538-3.061
		C350.525,268.287,349.691,269.277,349.691,271.257z"/>
	<path fill="#FFFFFF" d="M366.395,263.229l-0.107,1.386l-0.126,0.108c-0.517-0.229-0.979-0.343-1.387-0.343
		c-0.888,0-1.338,0.517-1.35,1.549l-0.018,1.548h2.124l0.054,0.126l-0.108,1.044h-2.088l-0.054,3.438l0.126,3.654h-1.836
		l0.107-3.492l-0.035-3.6h-1.242l-0.072-0.108l0.09-1.062h1.225l-0.019-1.242c-0.012-1.02,0.267-1.803,0.837-2.349
		s1.377-0.819,2.421-0.819C365.405,263.067,365.891,263.121,366.395,263.229z"/>
	<path fill="#FFFFFF" d="M367.564,271.671c0.036,1.872,0.828,2.809,2.376,2.809c0.78,0,1.591-0.252,2.431-0.756l0.162,0.107
		l-0.217,1.458c-0.84,0.408-1.68,0.612-2.52,0.612c-1.236,0-2.199-0.381-2.889-1.144c-0.69-0.762-1.035-1.803-1.035-3.122
		c0-1.345,0.359-2.403,1.08-3.178c0.72-0.773,1.686-1.161,2.897-1.161c0.96,0,1.704,0.282,2.232,0.847
		c0.527,0.563,0.792,1.344,0.792,2.34c0,0.312-0.024,0.612-0.072,0.899l-0.306,0.288H367.564z M370.841,268.98
		c-0.264-0.282-0.63-0.423-1.098-0.423c-0.553,0-1.008,0.174-1.368,0.521c-0.36,0.349-0.601,0.84-0.72,1.477l3.546-0.091
		l0.036-0.216C371.237,269.686,371.104,269.263,370.841,268.98z"/>
	<path fill="#FFFFFF" d="M375.827,271.671c0.036,1.872,0.828,2.809,2.376,2.809c0.779,0,1.59-0.252,2.43-0.756l0.162,0.107
		l-0.216,1.458c-0.841,0.408-1.681,0.612-2.521,0.612c-1.235,0-2.199-0.381-2.889-1.144c-0.69-0.762-1.035-1.803-1.035-3.122
		c0-1.345,0.36-2.403,1.08-3.178c0.72-0.773,1.686-1.161,2.898-1.161c0.96,0,1.703,0.282,2.231,0.847
		c0.528,0.563,0.792,1.344,0.792,2.34c0,0.312-0.024,0.612-0.072,0.899l-0.306,0.288H375.827z M379.103,268.98
		c-0.264-0.282-0.63-0.423-1.098-0.423c-0.552,0-1.008,0.174-1.368,0.521c-0.359,0.349-0.6,0.84-0.72,1.477l3.546-0.091l0.036-0.216
		C379.499,269.686,379.367,269.263,379.103,268.98z"/>
	<path fill="#FFFFFF" d="M387.221,274.029l0.18,0.126l-0.18,1.152c-0.66,0.312-1.272,0.491-1.836,0.54
		c-0.744-0.12-1.284-0.369-1.62-0.747s-0.504-0.928-0.504-1.647l0.072-1.296l-0.019-3.51h-1.134l-0.072-0.108l0.091-1.062h1.098
		v-1.314l1.62-0.612l0.162,0.145l-0.036,1.782h2.304l0.072,0.126l-0.09,1.044h-2.322l-0.09,4.518
		c-0.013,0.444,0.062,0.753,0.225,0.927c0.162,0.175,0.435,0.262,0.819,0.262C386.356,274.354,386.776,274.245,387.221,274.029z"/>
</g>
</svg>
