<?xml version="1.0" encoding="utf-8"?>
<!-- Generator: Adobe Illustrator 16.0.4, SVG Export Plug-In . SVG Version: 6.00 Build 0)  -->
<!DOCTYPE svg PUBLIC "-//W3C//DTD SVG 1.1//EN" "http://www.w3.org/Graphics/SVG/1.1/DTD/svg11.dtd">
<svg version="1.1" id="Layer_1" xmlns="http://www.w3.org/2000/svg" xmlns:xlink="http://www.w3.org/1999/xlink" x="0px" y="0px"
	 width="1036px" height="285px" viewBox="0 0 1036 285" enable-background="new 0 0 1036 285" xml:space="preserve">
<path fill-rule="evenodd" clip-rule="evenodd" d="M337.583,89.34c0-0.241,0.22-0.105,0.22-0.347c3.799,0,7.376-0.377,11.175-0.377
	c0,0.022,0,0.045,0,0.067c0.111-0.042,0.182-0.067,0.182-0.067s11.691,0.355,17.207,0.412c0.164-0.019,0.33-0.047,0.494-0.063
	c7.756-0.736,15.514-1.482,23.271-2.064c6.355-0.478,12.713-0.636,19.069-1.106c3.584-0.266,7.172-0.666,10.752-1.383
	c5.438-1.087,10.87-2.538,16.307-3.761c3.461-0.778,6.926-1.415,10.389-2.149c0.219-0.046,0.43-0.474,0.648-0.568
	c3.52-1.539,7.032-3.381,10.561-4.486c4.426-1.386,8.886-1.478,13.291-3.457c2.676-1.202,5.451-1.389,7.978-6.813
	c0.968-2.078,2.384-1.053,3.597-1.401c0.354-0.102,0.709-0.084,1.064-0.085c1.41-0.002,2.822-0.139,4.23,0.053
	c1.955,0.268,3.924,1.604,5.857,1.02c3.66-1.104,7.289-3.712,10.947-4.847c4.869-1.508,9.758-2.065,14.635-3.312
	c2.473-0.633,4.934-2.396,7.408-2.707c2.299-0.288,4.532-5.583,6.889-1.395c0.317,0.563,2.092,0.397,2.441,0.601
	c2.693-1.834,6.82-3.615,9.539-4.719c2.145-0.869,4.33-0.451,6.457-1.653c3.629-2.051,7.227-4.93,10.839-7.446
	c1.655-1.153,3.304-2.474,4.969-3.361c2.37-1.265,4.785-1.575,7.122-3.418c3.898-3.075,7.742-7.177,11.627-10.561
	c1.312-1.143,2.589-1.972,4.031-0.121c1.449,1.856,3.108,1.374,4.678,1.64c1.649,0.277,3.41-1.146,4.926,0.649
	c2.084,2.47,4.06,2.563,6.164,1.718c1.506-0.606,3.059-0.058,4.578,0.483c3.656,1.301,7.301,3.613,10.962,4.095
	c2.028,0.267,4.062-2.554,6.079,1.211c0.85,1.581,1.825,2.197,2.756,3.034c0.541,0.486,1.105,0.659,1.661,0.765
	c1.806,0.343,3.687-0.557,5.401,1.123c2.955,2.896,5.92,3.498,8.916,3.429c2.582-0.059,5.164-0.97,7.744-0.854
	c1.87,0.086,3.752,0.856,5.601,2.021c1.658,1.045,3.22,2.192,4.935,0.231c3.264-3.729,6.592-6.651,9.91-9.631
	c1.504-1.351,3.039-2.348,4.574-2.947c1.767-0.688,3.622-2.16,5.311-0.838c5.276,4.127,10.492,9.41,15.662,14.182
	c0,16.805,0,32.761,0,49.201c0,0.06,0,0.118,0,0.178V285h-363V89.34C337.618,89.34,337.601,89.34,337.583,89.34z"/>
<g>
	<path fill="#808080" d="M330.615,114.654c0-0.094,0-0.186,0-0.279c0-8.486,0-16.854,0-25.382c-2.121,0.76-4.18,1.504-6.242,2.232
		c-0.42,0.148-0.977,0.533-1.257,0.311c-2.142-1.708-4.342,0.372-6.388-0.22c-2.481-0.719-4.507,0.813-6.74,1.359
		c-0.98,0.24-2.127-0.256-3.119-0.727c-1.893-0.896-3.746-1.035-5.703-0.433c-0.984,0.302-2.051,0.056-3.072,0.169
		c-2.879,0.319-5.77,0.558-8.629,1.088c-2.975,0.552-5.919,1.41-8.878,2.125c-0.288,0.069-0.595,0.015-0.874,0.114
		c-1.831,0.649-3.643,1.431-5.492,1.956c-1.059,0.301-2.18,0.243-3.275,0.272c-2.08,0.058-4.164-0.012-6.244,0.111
		c-1.77,0.104-3.537,0.378-5.301,0.627c-2.004,0.283-4.002,0.636-6.004,0.933c-1.934,0.287-3.916,0.281-5.791,0.889
		c-1.535,0.497-2.975,0.485-4.4-0.119c-2.883-1.224-5.578-0.219-8.229,1.125c-1.438,0.729-2.57,0.322-3.869-0.645
		c-1.154-0.858-2.555-1.087-3.832-1.655c-2.684-1.192-5.113-0.365-7.547,1.362c-1.633,1.158-3.4,2.063-5.183,2.687
		c-0.815,0.285-1.856-0.214-2.712-0.653c-1.895-0.974-3.719-2.19-5.611-3.166c-0.334-0.172-0.934,0.213-1.281,0.572
		c-2.09,2.158-4.527,2.727-7.029,2.786c-3.445,0.083-6.746,0.858-9.857,2.95c-0.33,0.222-0.746,0.253-1.125,0.279
		c-3.578,0.25-7.158,0.543-10.738,0.687c-1.676,0.066-3.363-0.323-5.037-0.229c-2.035,0.113-4.061,0.512-6.09,0.801
		c-1.691,0.241-3.379,0.571-5.074,0.738c-3.064,0.3-6.131,0.591-9.199,0.71c-1.047,0.04-2.115-0.715-3.156-0.643
		c-3.865,0.267-7.723,0.732-11.582,1.106c-0.336,0.032-0.734,0.08-1.006-0.121c-3.025-2.246-6.436-2.459-9.688-3.496
		c-0.996-0.317-1.955-0.842-2.934-1.254c-1.837-0.773-3.648-1.729-5.523-2.256c-3.307-0.928-6.602-1.451-9.682-3.852
		c-2.576-2.008-5.633-2.843-8.445-4.316c-2.496-1.309-4.916-2.899-7.432-4.136c-1.625-0.8-3.375-1.696-5.043-1.613
		c-1.611,0.08-3.186,1.38-4.783,2.109c-2.473,1.128-4.963,2.191-7.429,3.35c-2.024,0.95-4.007,2.066-6.036,2.988
		c-4.084,1.854-8.158,3.769-12.295,5.38c-2.65,1.033-5.385,1.719-8.113,2.292c-4.031,0.848-8.092,1.457-12.138,2.161
		c-0.194,0.034-0.417-0.07-0.587,0.024c-2.512,1.409-4.438-0.162-6.426-2.06c-2.717-2.592-5.861-2.474-8.902-1.565
		c-2.025,0.604-3.902,2.084-5.9,2.938c-2.963,1.267-5.973,2.329-8.965,3.467c-0.783,0.299-1.576,0.775-2.365,0.78
		c-0.777,0.006-1.575,0.04-2.361,0.001V285h330.615V114.654z"/>
	<path fill="#808080" d="M1034.197,29.61c-2.717,1.736-5.396,2.106-8.172,0.968c-2.08-0.855-4.229-1.111-6.334-0.792
		c-4.172,0.634-8.33,4.993-12.506-0.083c-0.359-0.438-0.842-0.124-1.27-0.125c-2.523-0.007-5.051-0.077-7.576,0.021
		c-1.744,0.068-3.494,0.737-5.23,0.5c-4.115-0.562-8.227-1.516-12.338-2.286c-5.324-0.998-10.396,2.623-15.422,6.719
		c-1.699,1.385-3.26,4.049-4.947,5.566c-3.096,2.779-6.146,0.319-8.955-2.705c-3.18-3.424-6.127-8.49-9.17-12.875
		c-0.797-1.15-1.525-3.11-2.363-3.526c-4.146-2.062-8.309-4.869-12.49-5.211c-4.02-0.33-8.1,1.509-12.096,3.354
		c-4.414,2.04-8.782,4.955-13.135,7.893c-3.859,2.605-7.754,2.824-11.68,2.45c-2.007-0.191-5.547-0.592-7.533-0.142
		c-1.479,0.079-4.475,0.717-5.945,1.16c-1.561,0.471-3.162,0.695-4.655,1.898c-3.082,2.484-5.989,6.11-9.354,6.218
		c-4.016,0.13-8.035,1.643-12.035,2.961c-3.463,1.141-6.686,4.023-9.102,11.702c-0.314,1.003-1.072,1.672-1.552,1.421
		c-1.435-0.752-3.091,1.082-4.308-2.639c-0.119-0.364-0.586,0.096-0.887,0.236c-2.795,1.311-5.564,1.943-8.256-1.548
		c-0.504-0.654-1.127-0.74-1.701-0.852c-5.438-1.064-10.605-5.089-15.564-11.143c-2.184-2.665-4.293-6.642-6.781-4.294
		c-3.049,2.877-6.016,6.423-9,9.81c-2.258,2.564-4.458,4.2-6.912,1.439c-1.6-1.799-3.339-2.76-5.045-3.686
		c-4.445-2.415-8.919-4.43-13.354-6.972c-1.682-0.964-3.254-3.408-4.938-4.351c-5.182-2.899-10.037-7.983-14.721-14.737
		c-1.68-2.423-3.779-5.183-5.48-4.39c-3.232,1.509-6.326,5.403-9.461,8.435c-1.244,1.203-2.428,2.889-3.672,4.107
		c-4.09,4.01-8.193,7.937-12.299,11.821c-0.744,0.703-1.521,1.195-2.297,1.554c-2.708,1.254-5.422,1.433-8.059,2.57v31.472
		c0.002,0,0.002,0,0.004,0V285H1036V28.611C1035.398,28.897,1034.798,29.227,1034.197,29.61z"/>
</g>
<g>
	<path fill="#FFFFFF" d="M354.325,275.079l0.072,2.718l-0.108,0.144l-1.404,0.108l-0.108-0.126l0.054-2.844h-3.168l-1.35,0.035
		l-0.126-0.161v-1.188l4.482-6.479h1.692l-0.054,6.371h1.62l0.108,0.162l-0.09,1.296L354.325,275.079z M352.849,273.656v-4.229
		h-0.144l-2.916,4.229H352.849z"/>
	<path fill="#FFFFFF" d="M359.761,275.745c0,0.888-0.636,1.787-1.908,2.699l-0.594-0.54l-0.018-0.144
		c0.66-0.54,0.99-1.092,0.99-1.656c0-0.371-0.186-0.689-0.558-0.954v-0.162c0.444-0.287,0.882-0.485,1.314-0.594
		C359.502,274.767,359.761,275.217,359.761,275.745z"/>
	<path fill="#FFFFFF" d="M368.374,268.338c0.666,0.786,0.999,1.905,0.999,3.356c0,1.513-0.351,2.683-1.053,3.511
		c-0.702,0.828-1.701,1.241-2.997,1.241c-1.224,0-2.172-0.393-2.844-1.179c-0.672-0.786-1.008-1.893-1.008-3.321
		c0-1.523,0.357-2.702,1.071-3.536s1.719-1.251,3.015-1.251C366.769,267.159,367.708,267.552,368.374,268.338z M362.911,271.82
		c0,2.005,0.84,3.007,2.52,3.007c1.68,0,2.52-0.973,2.52-2.916c0-2.04-0.846-3.061-2.538-3.061
		C363.745,268.851,362.911,269.841,362.911,271.82z"/>
	<path fill="#FFFFFF" d="M377.823,268.338c0.666,0.786,0.999,1.905,0.999,3.356c0,1.513-0.351,2.683-1.053,3.511
		c-0.702,0.828-1.701,1.241-2.997,1.241c-1.224,0-2.172-0.393-2.844-1.179s-1.008-1.893-1.008-3.321
		c0-1.523,0.357-2.702,1.071-3.536s1.719-1.251,3.015-1.251C376.218,267.159,377.157,267.552,377.823,268.338z M372.36,271.82
		c0,2.005,0.84,3.007,2.52,3.007s2.52-0.973,2.52-2.916c0-2.04-0.846-3.061-2.538-3.061
		C373.194,268.851,372.36,269.841,372.36,271.82z"/>
	<path fill="#FFFFFF" d="M387.273,268.338c0.666,0.786,0.999,1.905,0.999,3.356c0,1.513-0.351,2.683-1.053,3.511
		s-1.701,1.241-2.997,1.241c-1.224,0-2.172-0.393-2.844-1.179c-0.672-0.786-1.008-1.893-1.008-3.321
		c0-1.523,0.357-2.702,1.071-3.536c0.714-0.834,1.719-1.251,3.015-1.251C385.668,267.159,386.607,267.552,387.273,268.338z
		 M381.81,271.82c0,2.005,0.84,3.007,2.52,3.007s2.52-0.973,2.52-2.916c0-2.04-0.846-3.061-2.538-3.061
		C382.644,268.851,381.81,269.841,381.81,271.82z"/>
	<path fill="#FFFFFF" d="M398.514,263.793l-0.108,1.386l-0.126,0.108c-0.516-0.229-0.978-0.343-1.386-0.343
		c-0.888,0-1.338,0.517-1.35,1.549l-0.018,1.548h2.124l0.054,0.126l-0.108,1.044h-2.088l-0.054,3.438l0.126,3.654h-1.836
		l0.108-3.492l-0.036-3.6h-1.242l-0.072-0.108l0.09-1.062h1.224l-0.018-1.242c-0.012-1.02,0.267-1.803,0.837-2.349
		s1.377-0.819,2.421-0.819C397.524,263.631,398.01,263.685,398.514,263.793z"/>
	<path fill="#FFFFFF" d="M399.684,272.234c0.036,1.872,0.828,2.809,2.376,2.809c0.78,0,1.59-0.252,2.43-0.756l0.162,0.107
		l-0.216,1.458c-0.84,0.408-1.68,0.612-2.52,0.612c-1.236,0-2.199-0.381-2.889-1.144c-0.69-0.762-1.035-1.803-1.035-3.122
		c0-1.345,0.36-2.403,1.08-3.178c0.72-0.773,1.686-1.161,2.898-1.161c0.959,0,1.704,0.282,2.232,0.847
		c0.528,0.563,0.792,1.344,0.792,2.34c0,0.312-0.024,0.612-0.072,0.899l-0.306,0.288H399.684z M402.96,269.544
		c-0.264-0.282-0.63-0.423-1.098-0.423c-0.552,0-1.008,0.174-1.368,0.521c-0.36,0.349-0.6,0.84-0.72,1.477l3.546-0.091l0.036-0.216
		C403.356,270.249,403.224,269.826,402.96,269.544z"/>
	<path fill="#FFFFFF" d="M407.946,272.234c0.036,1.872,0.828,2.809,2.376,2.809c0.78,0,1.59-0.252,2.43-0.756l0.162,0.107
		l-0.216,1.458c-0.84,0.408-1.681,0.612-2.52,0.612c-1.236,0-2.199-0.381-2.889-1.144c-0.69-0.762-1.035-1.803-1.035-3.122
		c0-1.345,0.36-2.403,1.08-3.178c0.72-0.773,1.686-1.161,2.898-1.161c0.96,0,1.704,0.282,2.232,0.847
		c0.528,0.563,0.792,1.344,0.792,2.34c0,0.312-0.024,0.612-0.072,0.899l-0.306,0.288H407.946z M411.222,269.544
		c-0.264-0.282-0.63-0.423-1.098-0.423c-0.552,0-1.008,0.174-1.368,0.521c-0.36,0.349-0.6,0.84-0.72,1.477l3.546-0.091l0.036-0.216
		C411.618,270.249,411.486,269.826,411.222,269.544z"/>
	<path fill="#FFFFFF" d="M419.34,274.593l0.18,0.126l-0.18,1.152c-0.66,0.312-1.272,0.491-1.836,0.54
		c-0.744-0.12-1.284-0.369-1.62-0.747s-0.504-0.928-0.504-1.647l0.072-1.296l-0.018-3.51H414.3l-0.072-0.108l0.09-1.062h1.098
		v-1.314l1.62-0.612l0.162,0.145l-0.036,1.782h2.304l0.072,0.126l-0.09,1.044h-2.322l-0.09,4.518
		c-0.012,0.444,0.063,0.753,0.225,0.927c0.162,0.175,0.435,0.262,0.819,0.262C418.476,274.917,418.896,274.809,419.34,274.593z"/>
</g>
</svg>
