<?xml version="1.0" encoding="utf-8"?>
<!-- Generator: Adobe Illustrator 16.0.4, SVG Export Plug-In . SVG Version: 6.00 Build 0)  -->
<!DOCTYPE svg PUBLIC "-//W3C//DTD SVG 1.1//EN" "http://www.w3.org/Graphics/SVG/1.1/DTD/svg11.dtd">
<svg version="1.1" id="Layer_1" xmlns="http://www.w3.org/2000/svg" xmlns:xlink="http://www.w3.org/1999/xlink" x="0px" y="0px"
	 width="1036px" height="285px" viewBox="0 0 1036 285" enable-background="new 0 0 1036 285" xml:space="preserve">
<path fill-rule="evenodd" clip-rule="evenodd" d="M222.014,75.051c0.898-0.837,1.848-1.162,2.801-1.437
	c1.969-0.567,3.93-1.338,5.916-1.582c1.422-0.176,2.877,0.407,4.32,0.583c2.791,0.338,5.584,0.818,8.379,0.885
	c2.652,0.062,5.361,0.158,7.953-0.618c5.607-1.682,10.904-5.391,16.787-5.646c4.113-0.178,8.236-2.458,12.27-4.308
	c4.529-2.077,8.934-4.896,13.447-7.075c3.746-1.809,7.461-4.039,11.412-4.316c1.316-0.093,2.65,0.289,3.967,0.562
	c0.932,0.193,1.93,1.113,2.754,0.769c4.641-1.932,9.059,0.92,13.57,1.495c4.359,0.556,8.643,0.763,12.953-0.876
	c2.561-0.974,5.225-1.635,7.842-1.641c2.135-0.006,4.281,1.084,6.402,1.844c2.854,1.022,5.511,0.971,8.177-1.651
	c2.063-2.031,4.209-1.209,6.278,1.09c1.455,1.618,3.033,2.002,5.088,1.268c3.281-1.171,6.832-2.194,10.125,1.23
	c3.719,3.866,7.775,4.67,12.093,3.046c1.7-0.64,3.532-0.31,5.304-0.456c2.791-0.23,5.607-0.181,8.367-0.808
	c4.361-0.991,8.682-2.462,13.023-3.674c0.406-0.112,0.951-0.055,1.266,0.312c2.715,3.169,5.492,1.998,8.102-0.012
	c2.5-1.924,4.734-0.959,7.238-0.122c2.389,0.799,5.193,0.977,7.43-0.354c3.994-2.372,7.678-6.158,11.531-9.215
	c3.379-2.679,7.073-3.458,10.527-1.506c2.271,1.284,4.189,2.096,6.361,0.32c0.25-0.205,0.568-0.356,0.838-0.297
	c5.787,1.279,11.062-2.899,16.557-4.541c5.885-1.76,11.572-5.324,17.682-5.037c0.781,0.037,1.633-0.068,2.344-0.549
	c3.222-2.184,6.4-4.541,9.605-6.79c0.369-0.259,0.871-0.507,1.207-0.299c1.541,0.958,3.061,2.018,4.557,3.156
	c2.17,1.651,4.322,3.371,6.463,5.122c1.299,1.062,2.562,2.24,3.844,3.358c2.387,2.081,4.705,4.436,7.18,6.178
	c5.719,4.026,11.498,7.814,17.285,11.562c1.584,1.025,3.266,1.711,4.936,2.285c1.691,0.581,3.514,0.393,5.117,1.315
	c3.705,2.133,7.281,4.871,10.967,7.107c3.664,2.223,7.371,4.293,11.115,6.098c1.42,0.684,3.002,0.421,4.508,0.62
	c2.371,0.313,4.736,0.701,7.107,0.964c1.393,0.154,2.898,0.688,4.16,0.03c1.285-0.669,2.049-0.566,2.748,1.228l4.801,0.19
	l4.201-0.735h0.002c2.771-1.151,5.424-2.245,8.061-3.402c3.408-1.495,6.789-3.154,10.201-4.62c1.514-0.649,3.086-1.483,4.609-1.368
	c2.029,0.153,4.007,0.368,6.061,0.015c2.1-0.361,4.303,0.885,6.396,0.482c4.408-0.847,8.757-2.597,13.168-3.431
	c3.77-0.714,7.4-4.507,11.369-1.645c0.293,0.21,0.832,0.171,1.054-0.146c2.419-3.444,5.476-3.398,8.353-4.495
	c7.707-2.939,15.316-6.222,23.408-4.94c3.146,0.498,6.43-1.299,9.643-2.127c2.293-0.591,4.467-1.151,6.779,0.653
	c3.93,3.065,7.975,5.785,12.067,8.196c3.177,1.87,6.474,3.271,9.771,4.473c3.594,1.311,7.244,2.226,10.885,3.178
	c4.238,1.108,8.201,3.859,12.861,1.482c3.771-1.925,7.502-3.661,11.006-6.707c0.937-0.813,2.019-1.2,3.053-1.654
	c2.459-1.079,4.92-2.161,7.402-3.066c0.721-0.263,1.537-0.086,2.279,0.153c2.982,0.959,5.865,2.124,8.993,0.454
	c2.2-1.176,4.659-2.299,7.093-2.758c0,2.419,0,10.388,0,22.215V285H222.014V75.067"/>
<g>
	<path fill="#808080" d="M1035.081,68.887c-1.127-0.515-2.219-1.793-3.328-2.69c-1.066-0.861-2.123-2.072-3.208-2.435
		c-1.995-0.669-4.114,0.299-5.985-1.476c-2.484-2.354-4.993-2.853-7.508-3.913c-0.742-0.314-1.467-1.06-2.209-1.383
		c-1.037-0.452-2.09-0.531-3.121-1.061c-1.604-0.819-3.184-2.107-4.791-2.797c-3.424-1.467-6.871-2.395-10.168-6.053
		c-2.166-2.407-4.346-4.783-6.567-6.592c-2.108-1.716-4.276-2.681-6.418-3.965c-0.077-0.045-0.161,0.04-0.239,0.028
		c-1.052-0.169-2.109-0.178-3.154-0.567c-1.008-0.378-1.94-0.675-2.854,1.396c-0.566,1.283-1.27,2.248-1.954,2.677
		c-3.808,2.387-7.649,4.247-11.435,6.922c-2.754,1.943-5.501,2.715-8.298,2.3c-0.752-0.112-1.501-0.718-2.249-0.675
		c-1.892,0.105-3.78,0.541-5.672,0.676c-4.395,0.312-8.791,0.646-13.186,0.709c-1.503,0.022-3.021-0.489-4.512-1.18
		c-2.546-1.177-5.7-3.336-8.244-4.551c-0.971,0.38-2.461,0.266-3.326,0.48c-2.315,0.57-4.633,1.027-6.949,1.559
		c-0.751,0.174-1.523,0.921-2.244,0.561c-1.678-0.843-3.318-2.429-4.996-3.262c-1.115-0.554-2.269-0.335-3.404-0.444
		c-1.934-0.182-3.899,0.27-5.788-0.73c-1.315-0.696-2.526-0.847-3.843-0.328c-3.405,1.344-6.832,2.911-10.252,2.952
		c-2.326,0.026-4.602,0.087-6.836,2.037c-0.897,0.782-1.692,1.364-2.648,0.28c-0.834-0.946-1.822-1.242-2.707-0.911
		c-2.121,0.792-4.212,2.435-6.335,3.155c-2.685,0.91-5.386,1.557-8.084,1.749c-2.75,0.196-5.507-0.337-8.261-0.47
		c-1.741-0.085-3.486,0.039-5.229-0.049c-1.107-0.058-2.244-0.949-3.314-0.406c-3.578,1.814-7.133,3.684-10.705,2.057
		c-0.88-0.401-1.782,0.505-2.659,0.364c0,12.833,0,22.167,0,34.691V285H1036V69.284
		C1035.693,69.151,1035.387,69.026,1035.081,68.887z"/>
	<path fill="#808080" d="M215.047,108.276c0-10.706,0-21.316,0-33.43c-7.679,2.704-15.317,2.483-22.96,5.01
		c-1.61,0.531-3.241-0.012-4.861,0.183c-8.469,1.018-16.846,4.44-25.196,10.883c-3.999,3.087-8.302,1.541-12.423,0.115
		c-5.597-1.938-11.083-3.943-16.631,2.623c-3.182,3.769-6.614,4.004-9.891,6.678c-4.084,3.331-8.117,7.616-12.181,11.348
		c-5.167,4.747-10.345,9.314-15.513,14.04c-1.487,1.358-2.962,2.925-4.441,4.426c-0.123,0.06-7.178,0.439-11.127,0.647
		c-5.494-1.247-10.551-2.523-15.605-3.465c-4.808-0.893-9.623-1.15-14.43-2.183c-2.367-0.507-4.717-2.187-7.079-3.208
		c-1.356-0.59-2.718-1.079-4.081-1.354c-5.885-1.195-11.777-1.942-17.652-3.594c-2.42-0.681-4.805-3.259-7.207-4.919
		c-4.088-2.826-8.172-5.734-12.268-8.365c-0.5-0.32-1-0.637-1.501-0.943V285h215.047V108.276z"/>
</g>
<g>
	<path fill="#FFFFFF" d="M236.57,275.079l0.071,2.718l-0.107,0.144l-1.404,0.108l-0.107-0.126l0.054-2.844h-3.168l-1.351,0.035
		l-0.126-0.161v-1.188l4.482-6.479h1.692l-0.055,6.371h1.62l0.108,0.162l-0.09,1.296L236.57,275.079z M235.094,273.656v-4.229
		h-0.144l-2.916,4.229H235.094z"/>
	<path fill="#FFFFFF" d="M242.006,275.745c0,0.888-0.637,1.787-1.908,2.699l-0.594-0.54l-0.019-0.144
		c0.66-0.54,0.99-1.092,0.99-1.656c0-0.371-0.186-0.689-0.558-0.954v-0.162c0.443-0.287,0.882-0.485,1.313-0.594
		C241.748,274.767,242.006,275.217,242.006,275.745z"/>
	<path fill="#FFFFFF" d="M250.618,268.338c0.666,0.786,0.999,1.905,0.999,3.356c0,1.513-0.351,2.683-1.053,3.511
		s-1.701,1.241-2.997,1.241c-1.224,0-2.172-0.393-2.844-1.179s-1.008-1.893-1.008-3.321c0-1.523,0.356-2.702,1.071-3.536
		c0.713-0.834,1.719-1.251,3.015-1.251C249.014,267.159,249.952,267.552,250.618,268.338z M245.155,271.82
		c0,2.005,0.84,3.007,2.521,3.007c1.68,0,2.52-0.973,2.52-2.916c0-2.04-0.846-3.061-2.538-3.061
		C245.989,268.851,245.155,269.841,245.155,271.82z"/>
	<path fill="#FFFFFF" d="M260.068,268.338c0.666,0.786,0.999,1.905,0.999,3.356c0,1.513-0.351,2.683-1.053,3.511
		s-1.701,1.241-2.997,1.241c-1.224,0-2.172-0.393-2.844-1.179c-0.673-0.786-1.009-1.893-1.009-3.321
		c0-1.523,0.357-2.702,1.071-3.536s1.719-1.251,3.016-1.251C258.464,267.159,259.402,267.552,260.068,268.338z M254.605,271.82
		c0,2.005,0.84,3.007,2.521,3.007c1.68,0,2.52-0.973,2.52-2.916c0-2.04-0.846-3.061-2.538-3.061
		C255.439,268.851,254.605,269.841,254.605,271.82z"/>
	<path fill="#FFFFFF" d="M269.519,268.338c0.666,0.786,0.999,1.905,0.999,3.356c0,1.513-0.352,2.683-1.053,3.511
		c-0.702,0.828-1.701,1.241-2.997,1.241c-1.225,0-2.173-0.393-2.845-1.179s-1.008-1.893-1.008-3.321
		c0-1.523,0.357-2.702,1.071-3.536s1.719-1.251,3.015-1.251C267.913,267.159,268.853,267.552,269.519,268.338z M264.056,271.82
		c0,2.005,0.84,3.007,2.52,3.007s2.521-0.973,2.521-2.916c0-2.04-0.847-3.061-2.538-3.061
		C264.89,268.851,264.056,269.841,264.056,271.82z"/>
	<path fill="#FFFFFF" d="M280.759,263.793l-0.107,1.386l-0.126,0.108c-0.517-0.229-0.979-0.343-1.387-0.343
		c-0.888,0-1.338,0.517-1.35,1.549l-0.018,1.548h2.124l0.054,0.126l-0.108,1.044h-2.088l-0.054,3.438l0.126,3.654h-1.836
		l0.107-3.492l-0.035-3.6h-1.242l-0.072-0.108l0.09-1.062h1.225l-0.019-1.242c-0.012-1.02,0.267-1.803,0.837-2.349
		s1.377-0.819,2.421-0.819C279.77,263.631,280.255,263.685,280.759,263.793z"/>
	<path fill="#FFFFFF" d="M281.929,272.234c0.036,1.872,0.828,2.809,2.376,2.809c0.78,0,1.591-0.252,2.431-0.756l0.162,0.107
		l-0.217,1.458c-0.84,0.408-1.68,0.612-2.52,0.612c-1.236,0-2.199-0.381-2.889-1.144c-0.69-0.762-1.035-1.803-1.035-3.122
		c0-1.345,0.359-2.403,1.08-3.178c0.72-0.773,1.686-1.161,2.897-1.161c0.96,0,1.704,0.282,2.232,0.847
		c0.527,0.563,0.792,1.344,0.792,2.34c0,0.312-0.024,0.612-0.072,0.899l-0.306,0.288H281.929z M285.205,269.544
		c-0.264-0.282-0.63-0.423-1.098-0.423c-0.553,0-1.008,0.174-1.368,0.521c-0.36,0.349-0.601,0.84-0.72,1.477l3.546-0.091
		l0.036-0.216C285.602,270.249,285.469,269.826,285.205,269.544z"/>
	<path fill="#FFFFFF" d="M290.191,272.234c0.036,1.872,0.828,2.809,2.376,2.809c0.779,0,1.59-0.252,2.43-0.756l0.162,0.107
		l-0.216,1.458c-0.84,0.408-1.681,0.612-2.521,0.612c-1.235,0-2.199-0.381-2.889-1.144c-0.69-0.762-1.035-1.803-1.035-3.122
		c0-1.345,0.36-2.403,1.08-3.178c0.72-0.773,1.686-1.161,2.898-1.161c0.96,0,1.703,0.282,2.231,0.847
		c0.528,0.563,0.792,1.344,0.792,2.34c0,0.312-0.024,0.612-0.072,0.899l-0.306,0.288H290.191z M293.467,269.544
		c-0.264-0.282-0.63-0.423-1.098-0.423c-0.552,0-1.008,0.174-1.368,0.521c-0.359,0.349-0.6,0.84-0.72,1.477l3.546-0.091l0.036-0.216
		C293.863,270.249,293.73,269.826,293.467,269.544z"/>
	<path fill="#FFFFFF" d="M301.585,274.593l0.18,0.126l-0.18,1.152c-0.66,0.312-1.272,0.491-1.836,0.54
		c-0.744-0.12-1.284-0.369-1.62-0.747s-0.504-0.928-0.504-1.647l0.072-1.296l-0.019-3.51h-1.134l-0.072-0.108l0.09-1.062h1.099
		v-1.314l1.62-0.612l0.162,0.145l-0.036,1.782h2.304l0.072,0.126l-0.09,1.044h-2.322l-0.09,4.518
		c-0.013,0.444,0.062,0.753,0.225,0.927c0.162,0.175,0.435,0.262,0.819,0.262C300.721,274.917,301.141,274.809,301.585,274.593z"/>
</g>
</svg>
