<?xml version="1.0" encoding="utf-8"?>
<!-- Generator: Adobe Illustrator 16.0.4, SVG Export Plug-In . SVG Version: 6.00 Build 0)  -->
<!DOCTYPE svg PUBLIC "-//W3C//DTD SVG 1.1//EN" "http://www.w3.org/Graphics/SVG/1.1/DTD/svg11.dtd">
<svg version="1.1" id="Layer_1" xmlns="http://www.w3.org/2000/svg" xmlns:xlink="http://www.w3.org/1999/xlink" x="0px" y="0px"
	 width="13940px" height="285px" viewBox="0 0 13940 285" enable-background="new 0 0 13940 285" xml:space="preserve">
<path fill-rule="evenodd" clip-rule="evenodd" d="M13352.275,46.896c6.898,5.037,13.688,13.51,20.529,20.403
	c0.746,0.75,1.545,0.274,2.319,0.406c1.582,0.267,3.17,0.231,4.741,0.975c0.863,0.411,1.686,2.591,2.551,3.23
	c5.387,3.982,10.775,7.921,16.173,11.554c6.271,4.219,12.534,10.461,18.834,11.618c10.934,2.009,21.886-1.322,32.72,10.732
	c4.702,5.231,9.686,4.332,14.514,7.281c8.02,4.898,15.991,11.472,24.131,10.743c1.699-0.151,3.395,5.107,5.128,5.808
	c5.159,2.081,10.343,2.827,15.506,4.695c3.823,1.382,7.628,3.935,11.449,5.542c4.562,1.922,9.136,4.853,13.698,4.641
	c4.444-0.207,8.883-3.76,13.32-5.976c4.68-2.339,9.396-3.728,14.023-7.579c4.539-3.779,9.11-0.912,13.682-3.656
	c2.476-1.488,5.477,4.567,8.34,4.253c4.555-0.499,9.114-0.185,13.664-1.094c4.029-0.806,7.924-9.573,12.066-4.964
	c0.336,0.373,0.727-0.384,1.092-0.611c4.102-2.585,8.19-5.958,12.309-7.509c3.402-1.28,6.842-0.004,10.26-0.583
	c5.131-0.865,10.259-3.473,15.385-3.32c7.074,0.21,14.146,2.254,21.217,3.6c3.883,0.74,7.77,1.32,11.646,2.563
	c10.172,3.259,20.332,7.317,30.51,10.044c3.641,0.975,7.34-2.525,10.969-1.211c5.861,2.125,11.672,7.323,17.53,9.78
	c6.075,2.546,12.095,6.791,18.286,5.142c8.609-2.297,17.264-0.583,25.898-0.57c0.67,0.002,1.344-0.048,2.008,0.239
	c8.014,3.46,16.023,7.155,24.041,10.413c4.494,1.826,9.002,2.805,13.499,4.45c3.161,1.157,6.312,2.989,9.472,4.156
	c2.696,0.995,5.406,1.146,8.1,2.287c2.047,0.865,4.07,3.165,6.118,3.966c1.956,0.763,3.941-0.16,5.896,0.649
	c7.793,3.23,15.568,7.732,23.373,10.02c5.556,1.626,11.152-0.3,16.72,0.784c4.415,0.859,8.805,4.802,13.221,5.732
	c7.118,1.501,14.25,1.668,21.376,2.354c1.9,0.183,3.812-0.344,5.701,0.438c1.893,0.784,3.762,2.796,5.33,4.026v93.334h-597v-93.334
	c0-47.432,0-93.848,0-141.37C13345.992,49.335,13349.242,44.68,13352.275,46.896z"/>
<path fill-rule="evenodd" clip-rule="evenodd" d="M12748.646,88.104v197.578h587.006V88.104c0-12.693,0-23.992,0-36.951
	c-1.09,0-2.225-1.213-3.332-0.964c-5.477,1.234-10.94,2.695-16.424,3.817c-1.119,0.229-2.299-0.894-3.459-0.972
	c-5.129-0.346-10.273-0.25-15.393-0.863c-5.791-0.693-10.896-5.201-15.693-11.136c-1.678-2.078-3.441-3.976-5.26-5.581
	c-2.305-2.033-4.52-2.396-6.973,0.364c-1.064,1.199-3.445,0.892-4.373-0.604c-2.549-4.11-4.991-1.62-7.482-0.879
	c-1.053,0.312-2.275,0.779-3.031,2.017c-2.158,3.528-4.842,2.927-7.314,3.934c-0.623,0.254-1.316,0.238-1.947,0.021
	c-2.506-0.862-5.088-1.367-7.477-2.907c-3.709-2.393-7.107-1.808-10.512,1.615c-1.771,1.783-3.592,3.581-5.506,4.612
	c-1.172,0.631-2.693,0.424-3.832-0.449c-5.045-3.873-10.107-5.321-15.365-1.779c-0.201,0.135-0.408,0.341-0.561,0.613
	c-2.729,4.881-6.211,3.383-9.453,4.444c-3.605,1.181-6.609-2.227-9.927-2.307c-2.55-0.062-5.118,0.55-7.655,1.185
	c-3.576,0.895-7.176,1.736-10.686,3.246c-3.805,1.636-7.516,4.023-11.271,6.056c-0.406,0.22-0.84,0.308-1.264,0.36
	c-2.975,0.366-5.949,0.796-8.926,1.035c-3.633,0.29-8.207,0.128-11.836-0.032c-5.152-1.03-11.069-0.528-16.071-2.14
	c-4.056-1.307-8.313-4.365-12.524-0.553c-0.18,0.164-0.43,0.113-0.643,0.087c-4.996-0.614-9.881,0.185-14.568,3.794
	c-0.443,0.341-1.055,0.497-1.486,0.207c-2.709-1.816-4.791,0.769-7.125,2.751c-2.088,1.773-4.51,2.34-6.82,2.96
	c-4.111,1.104-8.107,2.528-11.969,5.787c-2.357,1.989-5.137,2.175-7.713,3.283c-1.537,0.661-3.211,1.002-4.531,2.438
	c-2.635,2.862-5.438,2.807-8.309,3.446c-5.027,1.123-9.84-0.657-14.764-1.531c-3.939-0.7-7.994,1.276-12.008,1.521
	c-3.236,0.196-6.496-0.82-9.729-0.565c-3.252,0.258-6.312-1.816-9.723-0.906c-4.176,1.116-8.566-0.638-12.867-1.122
	c-2.047-0.23-4.107-0.191-6.141-0.636c-3.34-0.729-6.668-2.533-9.992-2.457c-4.13,0.094-8.244,1.771-12.377,2.505
	c-2.398,0.427-4.824,0.444-7.238,0.462c-2.574,0.019-5.148-0.28-7.723-0.258c-3.318,0.029-6.643,0.05-9.953,0.43
	c-2.637,0.303-5.395,0.367-7.859,1.9c-4.883,3.039-9.787,3.648-14.842,3.013c-1.141-0.144-2.312,1.068-3.49,1.359
	c-1.467,0.364-2.959,0.591-4.438,0.57c-2.407-0.035-4.812-0.297-7.218-0.508c-1.141-0.1-2.297-0.13-3.418-0.491
	c-2.395-0.774-4.773-1.746-7.158-2.627c-0.141-0.052-0.316-0.112-0.43-0.004c-3.951,3.775-7.957,0.289-11.824-0.37
	c-4.111-0.7-8.082-0.455-12.139,0.182c-1.309,0.205-2.695-1.32-4.043-2.064c-0.6-0.33-1.187-0.913-1.795-0.996
	c-4.328-0.59-8.658-1.263-12.996-1.514c-1.766-0.103-3.557,0.672-5.32,1.239c-2.467,0.795-4.92,2.509-7.377,2.489
	c-3.564-0.027-7.141-1.062-10.684-2.026c-2.463-0.67-4.688-2.682-7.43-1.326c-2.469,1.222-5.277-0.242-7.873,0.393
	c-5.213,1.272-10.281,0.323-15.414-1.429c-1.859-0.636-3.939,0.893-5.91,1.532c-2.113,0.685-4.262,1.19-6.312,2.312
	c-2.451,1.342-4.814,3.259-7.219,4.916c-0.498,0.343-1.164,1.189-1.484,0.866c-3.654-3.69-6.424,0.747-9.374,3.433
	c-0.522,0.475-0.989,1.151-1.437,1.753H12748.646z"/>
<path d="M12741.679,88.227v197.456H12436.4V88.227c0-12.524,0-21.858,0-34.691c0.877,0.141,1.779-0.766,2.659-0.364
	c3.572,1.627,7.127-0.242,10.705-2.057c1.07-0.543,2.207,0.349,3.314,0.406c1.742,0.088,3.487-0.036,5.229,0.049
	c2.754,0.133,5.511,0.666,8.261,0.47c2.698-0.192,5.399-0.839,8.084-1.749c2.123-0.721,4.214-2.363,6.335-3.155
	c0.885-0.331,1.873-0.035,2.707,0.911c0.956,1.084,1.751,0.502,2.648-0.28c2.234-1.95,4.51-2.011,6.836-2.037
	c3.42-0.041,6.847-1.608,10.252-2.952c1.316-0.519,2.527-0.368,3.843,0.328c1.889,1,3.854,0.549,5.788,0.73
	c1.136,0.109,2.289-0.109,3.404,0.444c1.678,0.833,3.318,2.419,4.996,3.262c0.721,0.36,1.493-0.387,2.244-0.561
	c2.316-0.531,4.634-0.988,6.949-1.559c0.865-0.215,2.355-0.101,3.326-0.48c2.544,1.215,5.698,3.374,8.244,4.551
	c1.491,0.69,3.009,1.202,4.512,1.18c4.395-0.063,8.791-0.396,13.186-0.709c1.892-0.135,3.78-0.57,5.672-0.676
	c0.748-0.043,1.497,0.562,2.249,0.675c2.797,0.415,5.544-0.356,8.298-2.3c3.785-2.675,7.627-4.535,11.435-6.922
	c0.685-0.429,1.388-1.394,1.954-2.677c0.913-2.071,1.846-1.774,2.854-1.396c1.045,0.39,2.103,0.398,3.154,0.567
	c0.078,0.012,0.162-0.073,0.239-0.028c2.142,1.284,4.31,2.249,6.418,3.965c2.222,1.809,4.401,4.185,6.567,6.592
	c3.297,3.658,6.744,4.586,10.168,6.053c1.607,0.689,3.188,1.978,4.791,2.797c1.031,0.529,2.084,0.608,3.121,1.061
	c0.742,0.323,1.467,1.068,2.209,1.383c2.515,1.061,5.023,1.559,7.508,3.913c1.871,1.774,3.99,0.807,5.985,1.476
	c1.085,0.362,2.142,1.573,3.208,2.435c1.109,0.897,2.201,2.176,3.328,2.69c2.709,1.235,5.43,2.208,8.15,3.123
	c2.962,0.994,5.898,2.929,8.919,1.095c0.864-0.526,1.839,1.071,2.769,1.204c2.69,0.382,5.389,0.261,8.074,0.807
	c3.284,0.669,6.587-3.062,9.853,0.555c0.288,0.317,0.636,0.109,0.956,0.109c2.542,0.006,5.084-0.019,7.625,0.01
	c2.26,0.026,4.445,0.621,6.686,2.615c2.072,1.844,4.398,0.78,6.609,1.207c1.063,0.204,2.119,0.887,3.179,1.354
	c2.94,1.299,5.878,2.733,8.827,3.849c1.912,0.725,3.842,1.305,5.766,1.372c2.655,0.096,5.312-0.353,7.968-0.563
	c0.24-0.019,0.482-0.058,0.721,0.011C12737.284,86.92,12739.384,87.548,12741.679,88.227"/>
<path fill-rule="evenodd" clip-rule="evenodd" d="M11836.014,75.733c0.898-0.837,1.848-1.162,2.801-1.437
	c1.969-0.567,3.93-1.338,5.916-1.582c1.422-0.176,2.877,0.407,4.32,0.583c2.791,0.338,5.584,0.818,8.379,0.885
	c2.652,0.062,5.361,0.158,7.953-0.618c5.607-1.682,10.904-5.391,16.787-5.646c4.113-0.178,8.236-2.458,12.27-4.308
	c4.529-2.077,8.934-4.896,13.447-7.075c3.746-1.809,7.461-4.039,11.412-4.316c1.316-0.093,2.65,0.289,3.967,0.562
	c0.932,0.193,1.93,1.113,2.754,0.769c4.641-1.932,9.059,0.92,13.57,1.495c4.359,0.556,8.643,0.763,12.953-0.876
	c2.561-0.974,5.225-1.635,7.842-1.641c2.135-0.006,4.281,1.084,6.402,1.844c2.854,1.022,5.511,0.971,8.177-1.651
	c2.063-2.031,4.209-1.209,6.278,1.09c1.455,1.618,3.033,2.002,5.088,1.268c3.281-1.171,6.832-2.194,10.125,1.23
	c3.719,3.866,7.775,4.67,12.093,3.046c1.7-0.64,3.532-0.31,5.304-0.456c2.791-0.23,5.607-0.181,8.367-0.808
	c4.361-0.991,8.682-2.462,13.023-3.674c0.406-0.112,0.951-0.055,1.266,0.312c2.715,3.169,5.492,1.998,8.102-0.012
	c2.5-1.924,4.734-0.959,7.238-0.122c2.389,0.799,5.193,0.977,7.43-0.354c3.994-2.372,7.678-6.158,11.531-9.215
	c3.379-2.679,7.073-3.458,10.527-1.506c2.271,1.284,4.189,2.096,6.361,0.32c0.25-0.205,0.568-0.356,0.838-0.297
	c5.787,1.279,11.062-2.899,16.557-4.541c5.885-1.76,11.572-5.324,17.682-5.037c0.781,0.037,1.633-0.068,2.344-0.549
	c3.222-2.184,6.4-4.541,9.605-6.79c0.369-0.259,0.871-0.507,1.207-0.299c1.541,0.958,3.061,2.018,4.557,3.156
	c2.17,1.651,4.322,3.371,6.463,5.122c1.299,1.062,2.562,2.24,3.844,3.358c2.387,2.081,4.705,4.436,7.18,6.178
	c5.719,4.026,11.498,7.814,17.285,11.562c1.584,1.025,3.266,1.711,4.936,2.285c1.691,0.581,3.514,0.393,5.117,1.315
	c3.705,2.133,7.281,4.871,10.967,7.107c3.664,2.223,7.371,4.293,11.115,6.098c1.42,0.684,3.002,0.421,4.508,0.62
	c2.371,0.313,4.736,0.701,7.107,0.964c1.393,0.154,2.898,0.688,4.16,0.03c1.285-0.669,2.049-0.566,2.748,1.228l4.801,0.19
	l4.201-0.735h0.002c2.771-1.151,5.424-2.245,8.061-3.402c3.408-1.495,6.789-3.154,10.201-4.62c1.514-0.649,3.086-1.483,4.609-1.368
	c2.029,0.153,4.007,0.368,6.061,0.015c2.1-0.361,4.303,0.885,6.396,0.482c4.408-0.847,8.757-2.597,13.168-3.431
	c3.77-0.714,7.4-4.507,11.369-1.645c0.293,0.21,0.832,0.171,1.054-0.146c2.419-3.444,5.476-3.398,8.353-4.495
	c7.707-2.939,15.316-6.222,23.408-4.94c3.146,0.498,6.43-1.299,9.643-2.127c2.293-0.591,4.467-1.151,6.779,0.653
	c3.93,3.065,7.975,5.785,12.067,8.196c3.177,1.87,6.474,3.271,9.771,4.473c3.594,1.311,7.244,2.226,10.885,3.178
	c4.238,1.108,8.201,3.859,12.861,1.482c3.771-1.925,7.502-3.661,11.006-6.707c0.937-0.813,2.019-1.2,3.053-1.654
	c2.459-1.079,4.92-2.161,7.402-3.066c0.721-0.263,1.537-0.086,2.279,0.153c2.982,0.959,5.865,2.124,8.993,0.454
	c2.2-1.176,4.659-2.299,7.093-2.758c0,2.419,0,10.388,0,22.215v209.933h-593.418V75.75"/>
<path fill-rule="evenodd" clip-rule="evenodd" d="M9504.583,90.022c0-0.241,0.22-0.105,0.22-0.347c3.799,0,7.376-0.377,11.175-0.377
	c0,0.022,0,0.045,0,0.067c0.111-0.042,0.182-0.067,0.182-0.067s11.691,0.355,17.207,0.412c0.164-0.019,0.33-0.047,0.494-0.063
	c7.756-0.736,15.514-1.482,23.271-2.064c6.355-0.478,12.713-0.636,19.069-1.106c3.584-0.266,7.172-0.666,10.752-1.383
	c5.438-1.087,10.87-2.538,16.307-3.761c3.461-0.778,6.926-1.415,10.389-2.149c0.219-0.046,0.43-0.474,0.648-0.568
	c3.52-1.539,7.032-3.381,10.561-4.486c4.426-1.386,8.886-1.478,13.291-3.457c2.676-1.202,5.451-1.389,7.978-6.813
	c0.968-2.078,2.384-1.053,3.597-1.401c0.354-0.102,0.709-0.084,1.064-0.085c1.41-0.002,2.822-0.139,4.23,0.053
	c1.955,0.268,3.924,1.604,5.857,1.02c3.66-1.104,7.289-3.712,10.947-4.847c4.869-1.508,9.758-2.065,14.635-3.312
	c2.473-0.633,4.934-2.396,7.408-2.707c2.299-0.288,4.532-5.583,6.889-1.395c0.317,0.563,2.092,0.397,2.441,0.601
	c2.693-1.834,6.82-3.615,9.539-4.719c2.145-0.869,4.33-0.451,6.457-1.653c3.629-2.051,7.227-4.93,10.839-7.446
	c1.655-1.153,3.304-2.474,4.969-3.361c2.37-1.265,4.785-1.575,7.122-3.418c3.898-3.075,7.742-7.177,11.627-10.561
	c1.312-1.143,2.589-1.972,4.031-0.121c1.449,1.856,3.108,1.374,4.678,1.64c1.649,0.277,3.41-1.146,4.926,0.649
	c2.084,2.47,4.06,2.563,6.164,1.718c1.506-0.606,3.059-0.058,4.578,0.483c3.656,1.301,7.301,3.613,10.962,4.095
	c2.028,0.267,4.062-2.554,6.079,1.211c0.85,1.581,1.825,2.197,2.756,3.034c0.541,0.486,1.105,0.659,1.661,0.765
	c1.806,0.343,3.687-0.557,5.401,1.123c2.955,2.896,5.92,3.498,8.916,3.429c2.582-0.059,5.164-0.97,7.744-0.854
	c1.87,0.086,3.752,0.856,5.601,2.021c1.658,1.045,3.22,2.192,4.935,0.231c3.264-3.729,6.592-6.651,9.91-9.631
	c1.504-1.351,3.039-2.348,4.574-2.947c1.767-0.688,3.622-2.16,5.311-0.838c5.276,4.127,10.492,9.41,15.662,14.182
	c0,16.805,0,32.761,0,49.201c0,0.06,0,0.118,0,0.178v195.488h-363V90.022C9504.618,90.022,9504.601,90.022,9504.583,90.022z"/>
<path fill-rule="evenodd" clip-rule="evenodd" d="M9101.6,116.125c0.006,0,0.01,0,0.016,0v-0.247l4.561-0.82
	c2.211-0.733,4.531-2.073,6.904-3.043c1.107-0.453,2.154-1.23,3.275-1.555c2.701-0.779,5.471-0.612,8.205-1.714
	c1.98-0.799,4.426-1.582,6.502,0.358c1.15,1.075,2.203,0.654,3.453,0.36c3.012-0.708,6.072-1.123,9.125-1.39
	c1.762-0.153,3.547,0.233,5.322,0.334c0.732,0.042,1.475,0.04,2.203-0.059c4.543-0.615,9.031-0.679,13.484,1.178
	c1.471,0.613,3.135,0.48,4.711,0.469c0.789-0.005,1.582-0.481,2.365-0.78c2.992-1.138,6.002-2.2,8.965-3.467
	c1.998-0.854,3.875-2.333,5.9-2.938c3.041-0.908,6.186-1.026,8.902,1.565c1.988,1.897,3.914,3.469,6.426,2.06
	c0.17-0.095,0.393,0.01,0.587-0.024c4.046-0.704,8.106-1.313,12.138-2.161c2.729-0.573,5.463-1.259,8.113-2.292
	c4.137-1.611,8.211-3.525,12.295-5.38c2.029-0.922,4.012-2.038,6.036-2.988c2.466-1.158,4.956-2.222,7.429-3.35
	c1.598-0.729,3.172-2.029,4.783-2.109c1.668-0.083,3.418,0.813,5.043,1.613c2.516,1.236,4.936,2.827,7.432,4.136
	c2.812,1.474,5.869,2.309,8.445,4.316c3.08,2.4,6.375,2.924,9.682,3.852c1.875,0.526,3.687,1.482,5.523,2.256
	c0.979,0.412,1.938,0.937,2.934,1.254c3.252,1.037,6.662,1.25,9.688,3.496c0.271,0.201,0.67,0.153,1.006,0.121
	c3.859-0.374,7.717-0.84,11.582-1.106c1.041-0.072,2.109,0.683,3.156,0.643c3.068-0.119,6.135-0.41,9.199-0.71
	c1.695-0.167,3.383-0.497,5.074-0.738c2.029-0.289,4.055-0.688,6.09-0.801c1.674-0.094,3.361,0.296,5.037,0.229
	c3.58-0.144,7.16-0.437,10.738-0.687c0.379-0.026,0.795-0.058,1.125-0.279c3.111-2.092,6.412-2.867,9.857-2.95
	c2.502-0.06,4.939-0.628,7.029-2.786c0.348-0.359,0.947-0.744,1.281-0.572c1.893,0.976,3.717,2.192,5.611,3.166
	c0.855,0.439,1.896,0.938,2.712,0.653c1.782-0.623,3.55-1.528,5.183-2.687c2.434-1.728,4.863-2.555,7.547-1.362
	c1.277,0.568,2.678,0.797,3.832,1.655c1.299,0.967,2.432,1.373,3.869,0.645c2.65-1.344,5.346-2.349,8.229-1.125
	c1.426,0.604,2.865,0.616,4.4,0.119c1.875-0.607,3.857-0.602,5.791-0.889c2.002-0.297,4-0.649,6.004-0.933
	c1.764-0.249,3.531-0.522,5.301-0.627c2.08-0.123,4.164-0.054,6.244-0.111c1.096-0.029,2.217,0.028,3.275-0.272
	c1.85-0.525,3.661-1.307,5.492-1.956c0.279-0.1,0.586-0.045,0.874-0.114c2.959-0.715,5.903-1.573,8.878-2.125
	c2.859-0.53,5.75-0.769,8.629-1.088c1.021-0.113,2.088,0.133,3.072-0.169c1.957-0.603,3.811-0.463,5.703,0.433
	c0.992,0.471,2.139,0.967,3.119,0.727c2.233-0.546,4.259-2.078,6.74-1.359c2.046,0.592,4.246-1.488,6.388,0.22
	c0.28,0.223,0.837-0.162,1.257-0.311c2.062-0.729,4.121-1.473,6.242-2.232c0,8.528,0,16.896,0,25.382c0,0.094,0,0.186,0,0.279
	v170.346h-396V115.878C9101.611,115.876,9101.605,116.127,9101.6,116.125z"/>
<path fill-rule="evenodd" clip-rule="evenodd" d="M5466.196,133.25c2.878-1.516,4.106-0.84,6.579-1.916
	c4.12-1.794,8.252-3.327,12.379-4.954c3.865-1.522,7.729-3.089,11.599-4.507c2.137-0.782,4.311-0.782,6.42-2.033
	c5.21-3.091,10.401-6.556,15.583-10.135c6.95-4.801,13.899-9.639,20.815-14.94c1.812-1.39,3.452-5.126,5.255-6.795
	c5.559-5.146,11.199-9.352,16.729-14.814c4.58-4.525,9.033-10.516,13.904-10.764c1.249-0.062,2.505-0.258,3.746,0.079
	c2.127,0.576,4.322,3.089,6.346,1.962c3.339-1.86,6.527-6.517,9.848-8.979c3.195-2.369,6.465-4.368,9.725-4.881
	c4.941-0.776,9.466,5.07,13.863,12.164c4.291,6.922,8.581,13.989,13.023,19.682c2.875,3.682,6.008,4.852,9.105,1.058
	c0.636-0.777,1.496-0.695,2.146,0.029c2.854,3.172,5.666,6.746,8.496,10.134c1.973,2.359,3.766,1.396,5.582-2.276
	c3.26-6.596,6.619-12.655,9.941-18.907c0.168-0.316,0.387-0.325,0.58-0.484c4.869-4.002,9.766-7.648,14.596-12.1
	c5.684-5.239,11.461-8.075,17.328-9.571c3.944-1.007,7.92-1.875,11.797-4.299c6.339-3.964,12.602-0.935,18.891,0.493
	c0.51,0.115,1.064,0.981,1.484,2.01c3.359,8.229,7.199,6.152,10.922,5.376c5.09-1.063,10.145-3.349,15.254,0.064
	c3.156,2.107,6.343,3.227,9.592-0.257c1.765-1.893,3.772-1.936,5.66-1.741c2.337,0.238,4.678,1.281,6.988,2.54
	c2.504,1.36,4.99,3.164,7.453,5.196c0.961,0.793,1.795,3.367,2.756,4.042c3.008,2.112,6.032,4.445,9.083,5.275
	c2.565,0.698,5.242,0.45,7.755-1.254c3.164-2.148,6.039-5.995,9.531-3.004c3.888,3.332,8.062,2.83,12.09,4.563
	c3.055,1.314,6.065,4.775,9.111,5.006c3.727,0.283,7.076,4.286,10.268,9.245c2.467,3.831,4.728,4.818,7.119,1.666
	c2.082-2.741,3.976-2.575,6.083-0.151c1.039,1.194,2.376-0.315,3.571-0.796c1.498-0.602,3.021-2.435,4.478-1.925
	c4.06,1.426,8.082,3.968,12.133,5.722c3.46,1.496,6.935,2.676,10.41,3.684c2.817,0.817,5.725,2.807,8.451,1.362
	c4.632-2.454,8.913,2.684,13.354,4.038c3.267,0.997,6.494,3.654,9.761,4.275c4.015,0.766,8.054,0.355,12.08,0.139
	c4.792-0.26,9.656-2.723,14.35-0.686c3.469,1.506,6.549-5.074,10.049-1.405c2.459,2.578,5.303,0.815,7.939,1.898
	c3.453,1.419,6.875,3.678,10.306,5.683c1.843,1.076,3.687,2.19,5.507,3.625c2.207,1.742,4.362,4.322,6.588,5.665
	c2.884,1.741,5.815,2.618,8.759,3.882c0,4.851,0,9.805,0,15.116c0,0.112,0,0.22,0,0.333v150h-535.333V133.5L5466.196,133.25z"/>
<path fill-rule="evenodd" clip-rule="evenodd" d="M476.73,220.608l0.842-0.593c1.207-0.782,2.852-1.847,4.502-2.904
	c0.273-0.175,0.553-0.252,0.828-0.392c1.164-0.589,2.334-1.112,3.494-1.801c0.998-0.595,1.688-3.341,2.977-2.579
	c1.432,0.847,2.988-0.385,4.49-0.732c0.654-0.152,1.307-0.432,1.961-0.502c0.315-0.033,0.662,0.621,0.946,0.389
	c2.733-2.236,5.438-4.836,8.31-4.784c1.236,0.023,2.48-0.024,3.711-0.351c0.877-0.233,1.734-1.187,2.611-1.464
	c2.039-0.646,4.088-1.003,6.127-1.636c0.89-0.275,1.771-1.414,2.648-1.335c1.758,0.159,3.516,1.421,5.264,1.244
	c2.244-0.228,4.48-1.377,6.717-2.211c3.375-1.256,6.746-2.56,10.117-3.886c2.23-0.878,4.466-1.684,6.686-2.785
	c3.635-1.804,7.238-4.406,10.891-5.597c4.365-1.423,8.77-1.663,13.154-2.526c1.307-0.258,2.602-1.138,3.906-1.299
	c2.289-0.281,4.581-0.269,6.871-0.297c1.094-0.015,2.209,0.621,3.278,0.152c2.39-1.048,4.745-2.837,7.134-3.893
	c2.918-1.289,5.863-1.98,8.784-3.227c2.306-0.984,4.585-2.538,6.888-3.607c1.613-0.75,3.245-1.129,4.87-1.633
	c0.433-0.136,0.874-0.037,1.305-0.2c1.218-0.458,2.438-1.5,3.648-1.397c2.489,0.21,4.98,0.803,7.458,1.639
	c2.148,0.725,4.27,2.391,6.42,2.917c1.81,0.442,3.625-0.813,5.467-0.882c3.578-0.131,7.141-3.23,10.725-3.564
	c4.268-0.396,8.551,0.762,12.824,1.377c1.184,0.17,2.357,0.878,3.539,1.203c2.327,0.641,4.693,2.275,6.977,1.508
	c3.129-1.053,6.223-0.2,9.33-0.407c3.479-0.231,6.957-0.554,10.436-0.896c0.691-0.068,1.4-0.828,2.066-0.53
	c1.977,0.883,3.939,1.487,5.947,1.538c3.657,0.09,7.311,1.065,10.969,1.365c1.68,0.137,3.367-0.699,5.049-0.658
	c3.438,0.086,6.876,0.781,10.312,0.643c4.028-0.163,8.056-1.404,12.082-1.314c3.108,0.068,6.208,1.758,9.319,2.186
	c2.616,0.358,5.25,0.284,7.863-0.228c3.145-0.616,6.271-2.502,9.416-2.747c4.524-0.354,9.027-0.843,13.541-2.274
	c4.413-1.399,8.876-1.199,13.316-1.769c3.574-0.459,7.146-0.776,10.721-1.206c1.408-0.17,2.821,0.077,4.225,0.077
	c0,10.752,0,27.568,0,51.275c0,0.205,0,0.408,0,0.613v65.054H476.73V220.608z"/>
<path fill-rule="evenodd" clip-rule="evenodd" d="M0.129,240.113c0.143,0,0.283,0.007,0.424,0.008v-0.105h11.234
	c0.172-0.033,0.344-0.053,0.514-0.092c4.715-1.067,9.416-1.354,14.135-1.486c2.926-0.082,5.852-0.716,8.779-0.874
	c1.43-0.078,2.863,0.328,4.295,0.583c1.643,0.291,3.285,0.975,4.926,0.912c2.225-0.085,4.334-3.575,6.703-0.996
	c0.812,0.885,1.928,0.056,2.9-0.127c3.725-0.697,7.449-2.005,11.174-2.046c4.861-0.054,9.725,0.937,14.588,1.347
	c1.326,0.112,2.666-0.057,3.984-0.419c3.27-0.899,6.529-2.013,9.797-2.964c0.459-0.134,0.938,0.195,1.408,0.255
	c3.85,0.486,7.697,2.689,11.541-0.701c1.416-1.249,3.039-2.405,4.461-1.849c2.5,0.975,4.967,1.447,7.492,1.474
	c2.023,0.021,4.043,1.425,6.072,1.597c1.877,0.158,3.764-0.604,5.648-0.787c3.814-0.368,7.631-0.589,11.445-0.931
	c2.299-0.207,4.596-0.685,6.895-0.758c2.736-0.087,5.475,0.312,8.209,0.154c2.059-0.12,4.111-0.987,6.17-1.157
	c2.637-0.217,5.281,0.16,7.914-0.135c2.945-0.331,5.9-0.79,8.816-1.807c3.746-1.306,7.457-3.246,11.186-4.867
	c1.893-0.822,3.809-1.333,5.682-2.367c2.684-1.482,5.342-3.275,8.004-5.009c1.961-1.276,3.889-2.959,5.871-3.935
	c2.1-1.032,4.301-0.885,6.359-2.242c4.004-2.644,7.969-3.485,12.016-1.005c0.561,0.344,1.17,0.136,1.75,0.319
	c2.381,0.757,4.762,1.514,7.135,2.387c0.736,0.271,1.441,1.072,2.178,1.342c1.533,0.561,3.178,0.22,4.598,1.521
	c3.033,2.78,5.971,3.761,9.047,0.68c1.023-1.024,2.141-1.456,3.225-2.067c0.645-0.364,1.334-0.335,1.955-0.857
	c2.84-2.393,5.615-5.398,8.504-7.279c4.252-2.768,8.568-4.929,12.881-7.039c3.225-1.578,6.496-2.553,9.73-4.014
	c2.193-0.99,4.359-2.341,6.535-3.562c1.588-0.89,3.156-2.152,4.76-2.672c2.311-0.745,4.807,0.194,6.936-1.688
	c3.035-2.685,5.814,3.788,8.703,0.269c0.037-0.045,0.109,0.146,0.164,0.14c1.049-0.131,2.098-0.259,3.146-0.422
	c0.857-0.134,1.717-0.273,2.574-0.481c2.361-0.569,4.723-1.159,7.084-1.774c1.369-0.356,2.734-0.78,4.104-1.168
	c0.277-0.079,0.557-0.15,0.836-0.204c1.207-0.228,2.432-0.902,3.613-0.561c1.697,0.493,3.314,1.179,5.014-0.45
	c0.885-0.849,2.08-1.27,2.912-0.439c1.639,1.631,2.965,0.01,4.43-1.034c1.041-0.743,2.156-0.945,3.244-1.098
	c1.859-0.261,3.725-0.287,5.588-0.421c1.971-0.142,3.996-1.07,5.896-0.211c1.729,0.783,3.279,4.221,5.186,1.481
	c0.17-0.242,0.531,0.508,0.816,0.649c0.742,0.37,1.521,1.178,2.23,0.894c3.641-1.462,7.109,1.032,10.631,2.481
	c2.205,0.907,4.43,1.496,6.652,2.096c0.615,0.166,1.268-0.432,1.871-0.186c2.918,1.196,5.834,2.457,8.734,3.893
	c3.492,1.725,7.002,3.325,10.439,5.609c2.123,1.411,4.104,4.492,6.342,1.11c0.248-0.376,0.686-0.153,1.01,0.046
	c1.922,1.176,3.869,2.15,5.74,3.726c2.26,1.903,4.467,3.849,6.854,1.532c0.15-0.146,0.355-0.075,0.518,0.046
	c1.836,1.36,3.65,2.953,5.508,4.075c1.908,1.153,3.854,1.922,5.789,2.741c3.137,1.325,6.318,2.112,9.402,3.972
	c2.225,1.343,4.674,0.547,6.686,4.202c0.24,0.436,0.705-0.012,1.051,0.146c3.064,1.386,6.275,2.249,8.992,3.123v65.048H0.553
	v-45.203c-0.158,0-0.318,0-0.477,0C0.094,240.357,0.111,240.235,0.129,240.113z"/>
<path d="M814.961,168.7c0.838-0.134,1.564-0.149,2.318-0.192c1.629-0.093,3.27,0.119,4.883-0.157
	c1.945-0.334,3.84-0.553,5.748,0.477c0.568,0.307,1.262,0.098,1.887-0.026c2.514-0.493,5.016-1.288,7.535-1.521
	c3.412-0.313,6.799,0.222,10.135,1.699c1.133,0.504,2.387,0.223,3.574,0.449c2.283,0.438,4.537-1.675,6.84-0.161
	c0.404,0.267,0.926,0.007,1.387,0.075c1.061,0.156,2.121,0.332,3.176,0.565c0.828,0.183,1.646,0.461,2.469,0.702
	c1.564,0.457,3.137,0.856,4.689,1.395c1.666,0.577,3.311,1.325,4.977,1.9c0.291,0.101,0.666-0.205,0.961-0.457
	c0.932-0.798,1.82-0.562,2.799-0.128c0.852,0.379,1.787,0.231,2.688,0.304c0.295,0.023,0.625-0.141,0.877,0.032
	c1.496,1.024,3,0.431,4.502,0.164c2.57-0.456,4.99-2.316,7.66-1.997c2.123,0.254,4.266,0.05,6.4,0.059
	c1.059,0.004,2.119,0.131,3.172,0.023c2.113-0.218,4.24-0.362,6.326-0.914c1.555-0.41,3.035-1.575,4.584-2.118
	c3.475-1.216,6.965-2.318,10.461-3.336c2.008-0.585,4.1-0.462,5.896-2.511c0.328-0.373,0.881-0.3,1.326-0.268
	c2.186,0.159,4.373-1.387,6.57,0.034c0.24,0.156,0.637-0.285,0.945-0.508c1.16-0.839,2.291-0.705,3.43,0.142
	c0.77,0.572,1.543,1.156,2.348,1.547c3.258,1.581,6.539,3.021,9.789,4.643c2.67,1.334,5.299,2.904,7.965,4.253
	c0.828,0.418,1.881,1.034,2.557,0.531c1.078-0.804,1.828-0.051,2.734,0.35c0.652,0.288,1.361,0.348,2.039,0.309
	c1.701-0.099,3.41-0.603,5.094-0.411c2.777,0.314,5.533,0.869,8.277-0.407c0.219-0.103,0.492,0.053,0.732,0.144
	c1.637,0.62,3.254,1.427,4.908,1.847c3.062,0.775,6.143,1.353,9.221,1.962c1.615,0.32,3.242,0.797,4.855,0.716
	c1.375-0.069,2.713-0.491,4.062,0.383c0.48,0.312,1.107,0.421,1.598,0.196c1.309-0.601,2.643-0.171,4.016-0.811
	c1.475-0.687,3.303,0.339,4.918,1.016c2.35,0.985,4.639,2.363,6.969,3.489c0.506,0.244,1.074,0.121,1.615,0.174
	c1.502,0.145,3.006,0.291,4.51,0.437l1.963,0.224h4.115c2.338-0.521,4.674-1.125,6.99-1.873c1.262-0.407,2.479-1.195,3.711-1.833
	c2.504-1.294,5.105-2,7.363-4.606c1.379-1.593,3.037-2.633,4.65-3.504c1.746-0.941,3.574-1.503,5.387-2.03
	c1.172-0.34,2.379-0.33,3.57-0.455c0.547-0.059,1.154,0.178,1.633-0.139c2.467-1.626,5.082-1.372,7.611-1.424
	c3.336-0.069,6.529-0.812,9.666-2.63c1.219-0.707,2.475-1.281,3.738-1.715c0.945-0.324,1.951-0.596,2.893-0.397
	c0.895,0.189,1.686,0.724,2.467-0.543c0.213-0.344,0.717-0.322,1.074-0.262c1.537,0.261,3.135,0.128,4.469,1.823
	c0.15,0.189,0.42,0.255,0.611,0.188c1.477-0.52,2.924,1.139,4.426,0.062c0.668-0.478,1.434-0.726,2.162-0.773
	c1.438-0.094,2.895,0.303,4.156-1.411c0.254-0.346,0.785-0.152,1.189-0.157c0.416-0.005,0.885,0.274,1.238,0.042
	c1.422-0.934,2.709-2.216,4.332-2.514c1.35-0.249,2.623-1.661,3.9-2.539c0.832,0.42,1.699,1.175,2.586,1.239
	c1.633,0.121,3.279-0.146,4.918-0.291c0.455-0.041,0.926-0.119,1.355-0.358c3.143-1.764,6.172-1.031,9.199,0.882
	c0.949,0.601,2.078,1.203,3.021,0.901c2.861-0.913,5.68-2.206,8.496-3.475c1.516-0.683,2.455-1.193,4.383-1.568
	c0,9.244,0,20.148,0,29.359c0,0.224,0,0.446,0,0.67v101.997h-344V184.031v-0.683c0-0.112,0-0.221,0-0.333V168.7H814.961z"/>
<path fill-rule="evenodd" clip-rule="evenodd" d="M1637.75,115.941V96.229c0.326-0.045,1.088-0.152,1.512-0.244
	c0.311-0.067,0.906-0.473,1.324-0.563c0.988-0.213,1.943-0.741,2.932-0.965c3.459-0.781,6.928-2.482,10.389-3.237
	c0.191-0.041,0.357-0.304,0.541-0.439c0.746-0.548,1.467-1.439,2.246-1.564c2.875-0.46,5.77-0.66,8.656-0.969
	c1.43-0.152,2.883-0.128,4.277-0.546c1.537-0.46,2.957-1.017,4.568-0.141c1.137,0.616,2.51,0.782,3.707,0.498
	c1.09-0.26,1.762,0.069,2.5,1.113c0.947,1.336,1.941,2.146,3.336,0.843c0.555-0.516,1.508-0.022,2.264-0.158
	c1.416-0.253,3.078-0.031,4.184-1.063c3.457-3.229,7.264-4.564,11.186-4.654c2.309-0.053,4.604,2.179,7.018,0.398
	c0.062-0.047,0.189,0.11,0.291,0.15c1.818,0.723,3.613,1.647,5.463,2.11c2.332,0.583,4.711,2.204,7.051-0.39
	c0.465-0.516,1.523-0.262,2.199,0.092c2.484,1.302,4.93,2.616,7.652,2.153c1.689-0.286,3.465-0.812,5.086-0.351
	c2.139,0.609,3.912-0.463,5.789-1.354c0.5-0.238,1-0.656,1.502-0.664c0.777-0.013,1.617,0.033,2.322,0.449
	c1.645,0.972,3.176,2.399,4.85,3.216c1.262,0.617,2.697,0.418,4.012,0.855c2.367,0.787,4.686,1.635,7.174,1.176
	c1.373-0.253,2.863,0.647,4.205,0.274c2.557-0.711,4.873,0.03,7.215,1.332c0.707,0.393,1.527,0.558,2.285,0.495
	c1.924-0.157,3.846-0.737,5.764-0.704c1.754,0.031,3.664,0.106,5.225,1.108c4.102,2.629,8.354,3.846,12.762,4.46
	c2.852,0.397,5.701,1.034,8.504,1.911c3.83,1.198,7.602,2.797,11.422,4.084c2.08,0.702,4.232,0.957,6.305,1.699
	c2.832,1.014,5.615,2.311,8.422,3.462c1.189,0.487,2.619,0.454,3.535,1.458c2.232,2.448,4.541,3.461,7.291,2.779
	c1.094-0.271,2.277-0.142,3.383,0.131c0.428,0.105,0.852,0.229,1.266,0.357l9.309,0.464c0.094-0.048,0.18-0.092,0.264-0.136
	c2.445-1.295,4.951-2.394,7.324-3.935c3.033-1.969,6.035-2.961,9.236-1.09c1.264,0.737,2.496,1.614,3.785,2.226
	c2.244,1.062,4.52,1.979,6.783,2.953l5.41-0.392c0.084-0.03,0.168-0.058,0.25-0.091c3.922-1.565,7.807-3.355,11.766-4.666
	c2.072-0.686,4.299-0.295,6.402-0.838c2.877-0.742,5.703-1.903,8.549-2.9c5.99-2.1,11.969-4.274,17.975-6.279
	c2.254-0.753,4.582-1.643,6.85-1.506c2.121,0.128,4.189,1.628,6.309,2.354c2.941,1.007,5.891,1.92,8.941,0.732
	c1.961-0.765,3.586-2.77,5.883-2.586c1.029,0.083,2.371-1.221,3.654-1.707c1.943-0.738,3.732-2.321,5.664-3.165
	c3.693-1.612,7.484-2.747,11.15-4.478c3.004-1.418,5.957-2.492,9.156-2.754c3.25-0.266,6.332-0.12,9.369,1.637
	c1.463,0.847,2.945,2.031,4.459,2.189c3.303,0.344,6.348,1.776,9.373,3.547c1.398,0.819,2.816,1.663,4.279,2.129
	c2.086,0.662,4.219,1.015,6.338,1.438c0.598,0.12,1.217,0.056,1.824,0.024c3.016-0.154,6.029-0.336,9.045-0.473
	c0.301-0.014,0.604,0.242,0.912,0.313c0.926,0.214,1.854,0.513,2.785,0.573c3.225,0.21,6.451,0.296,9.676,0.506
	c1.516,0.099,3.025,0.365,4.537,0.565c3.242,0.432,6.432,2.495,9.797,0.374c0,5.303,0,10.335,0,15.491c0,0.146,0,0.292,0,0.438
	v169.895H1637.75V115.941z"/>
<path fill-rule="evenodd" clip-rule="evenodd" d="M1630.782,285.683h-465.156l0.095-132.037l0.281-0.083
	c0-0.057,0.332-0.209,0.332-0.209c1.361-0.338,2.284-1.249,3.646-1.507c2.571-0.487,5.164-0.345,7.712-1.438
	c5.474-2.352,10.925-5.303,16.381-8.046c4-2.009,7.991-4.157,11.994-6.095c4.17-2.019,8.336-4.234,12.523-5.684
	c5.619-1.946,11.254-3.47,16.892-4.751c6.413-1.459,12.84-2.287,19.255-3.716c3.354-0.747,6.691-2.406,10.044-3.264
	c2.71-0.693,5.434-1.266,8.147-1.081c5.918,0.403,11.832,1.386,17.75,1.964c0.9,0.088,1.806-0.759,2.711-1.101
	c2.636-0.991,5.287-1.627,7.905-2.994c3.601-1.878,7.196-3.979,10.758-6.573c3.838-2.793,7.64-6.181,11.446-9.463
	c3.522-3.037,6.994-6.923,10.555-9.265c4.345-2.86,8.85-3.283,13.119-7.016c4.115-3.599,8.029-1.294,12.018,0.342
	c2.256,0.924,4.467,3.47,6.724,3.985c6.903,1.576,13.819,2.547,20.73,3.689c1.235,0.203,2.48-0.154,3.712,0.175
	c3.81,1.021,7.607,2.582,11.42,3.284c2.951,0.543,5.918,0.113,8.877,0.107c2.872-0.007,5.747,0.266,8.615-0.109
	c3.651-0.478,7.295-1.791,10.946-2.188c6.019-0.654,12.04-0.841,18.061-1.267c5.16-0.364,10.317-0.827,15.476-1.167
	c1.922-0.126,3.852,0.328,5.766-0.104c4.155-0.937,8.297-2.726,12.453-3.351c7.612-1.141,15.229-1.748,22.845-2.452
	c2.388-0.22,4.779,0.146,7.168-0.085c2.341-0.227,4.684-0.763,7.02-1.354c4.095-1.036,8.183-2.464,12.283-3.245
	c2.549-0.486,5.117,0.293,7.668-0.168c5.017-0.906,10.026-3.259,15.038-3.222c6.912,0.05,13.744-5.844,20.684-2.677
	c2.544,1.162,5.11,1.709,7.661,2.709c4.623,1.811,9.243,3.725,13.863,5.652c1.353,0.565,2.71,1.152,4.048,2.033
	c2.235,1.472,4.439,3.645,6.689,4.656c1.839,0.828,3.742-0.104,5.588,0.612c6.146,2.383,12.16,5.567,18.244,7.067
	c0,2.803,0.006,5.66,0.014,8.539V285.683z"/>
<path fill-rule="evenodd" clip-rule="evenodd" d="M2073.384,109.17c0.021-3.412,0.03-6.629,0-9.312c0,0,1.02-0.231,2.556-0.8
	c4.242-1.568,8.438-3.559,12.677-5.183c4.021-1.54,8.065-3.914,12.111-3.985c6.967-0.122,14.009,2.683,20.891,1.576
	c5.831-0.938,10.946,2.262,16.26,4.443c5.083,2.086,9.913,6.179,14.987,8.364c3.98,1.714,8.234,3.162,12.239,2.43
	c7.212-1.322,14.293-4.844,21.491-6.578c9.811-2.363,19.665-5.027,29.526-5.422c6.741-0.271,13.595,2.528,20.275,5.033
	c5.819,2.181,11.025,1.008,16.352-3.74c3.466-3.091,7.361-4.852,11.166-6.366c6.99-2.783,14.062-4.869,21.084-7.387
	c8.623-3.096,17.174-7.111,25.866-9.209c4.842-1.168,9.888,0.733,14.504-3.841c1.208-1.195,2.604-2.059,3.965-2.39
	c5.714-1.388,11.45-2.492,17.176-3.748c3.019-0.661,6.058-1.166,9.04-2.194c4.156-1.434,8.268-3.276,12.396-4.967
	c6.995-2.869,13.991-5.752,20.985-8.639c4.422-1.826,8.755-4.254,13.432-1.978c2.813,1.369,5.795,1.84,8.717,2.151
	c3.555,0.38,7.141-0.194,10.687,0.289c6.351,0.867,12.728,3.63,19.008,2.956c6.021-0.647,11.564-0.268,17.556,2.181
	c7.036,2.877,13.896,5.497,20.402,11.42c4.051,3.687,8.463,6.104,12.77,8.781c5.646,3.509,11.418,6.362,16.998,10.162
	c4.375,2.979,8.512,7.092,12.819,10.424c1.108,0.856,2.458,0.797,3.704,0.92c1.523,0.151,3.056-0.038,4.58,0.079
	c2.724,0.212,5.445,0.512,8.166,0.831c5.379,0.632,10.971-0.19,16.09,2.252c12.598,6.013,25.278,5.703,38.094,5.148
	c9.547-0.412,18.172-7.678,27.379-10.585c5.16-1.63,10.003-6.477,15.031-9.65c8.87-5.594,17.711-11.388,26.691-16.314
	c3.267-1.793,6.914-1.986,10.369-1.796c8.865,0.49,17.719,1.607,26.578,2.471c3.304,0.321,6.635,0.275,9.905,1.055
	c2.784,0.664,5.497,2.291,8.247,3.456c5.68,2.405,11.646,3.528,16.966,7.519c5.788,4.343,11.645,7.105,17.706,9.456
	c6.355,2.468,12.671,5.688,18.785,9.686c4.467,2.921,8.655,4.108,13.328,2.026c6.203-2.762,12.498-7.385,18.854-0.487
	c0.683,0.739,1.715,0.352,2.572,0.621c4.801,1.511,9.639,2.717,14.384,4.679c8.151,3.369,16.255,7.126,24.354,10.9
	c4.589,2.14,9.147,3.393,13.846,1.185c3.688-1.731,7.382-3.491,11.121-4.783c4.309-1.487,8.658-2.618,13.01-3.616
	c2.121-0.488,4.315-0.805,6.427-0.375c9.725,1.976,19.442,4.096,29.14,6.467c4.405,1.077,8.796,2.562,13.125,4.39
	c5.24,2.213,10.443,4.486,15.652,6.949l4.283-0.37v159.928h-876.322V109.17z"/>
<path fill-rule="evenodd" clip-rule="evenodd" d="M2962.037,123.826c3.979-2.196,7.934-5.445,11.904-7.985
	c2.395-1.532,4.803-2.524,7.203-3.787c3.76-1.975,7.518-4.026,11.277-5.918c0.82-0.412,1.654-0.024,2.473-0.47
	c2.941-1.592,5.873-3.59,8.816-5.031c2.045-1.002,4.105-1.134,6.15-2.033c2.176-0.955,4.344-3.334,6.516-3.33
	c3.008,0.005,6.02,1.422,9.021,2.671c2.357,0.981,4.703,2.759,7.059,3.934c2.223,1.11,4.451,2.485,6.68,2.669
	c2.557,0.211,5.123-0.532,7.68-1.283c2.32-0.681,4.641-1.683,6.949-2.979c4.391-2.463,8.709-8.367,13.184-6.673
	c0.357,0.136,0.727-0.275,1.088-0.521c2.432-1.643,4.857-3.681,7.297-4.857c2.32-1.118,4.691-0.353,6.982-2.199
	c3.271-2.637,6.473-7.434,9.74-10.306c2.908-2.559,5.857-4.068,8.801-5.425c1.568-0.724,3.184,0.697,4.74-0.326
	c3.107-2.045,6.201-4.809,9.277-7.839c2.453-2.415,4.846-6.845,7.314-8.291c4.66-2.731,9.355-4.099,14.039-5.732
	c1.666-0.581,3.355,0.28,5.016-0.511c3.85-1.837,7.693-4.096,11.531-6.542c2.51-1.603,5.002-3.838,7.504-5.785
	c1.613-1.257,3.24-3.872,4.84-3.511c5.012,1.135,10.012,3.479,15.018,5.184c3.189,1.086,6.381,1.989,9.572,2.739
	c1.604,0.375,3.217-0.169,4.816,0.399c2.77,0.984,5.541,2.144,8.293,3.923c2.252,1.456,4.486,3.743,6.717,5.985
	c2.361,2.376,4.701,5.351,7.066,7.668c2.496,2.447,5.02,4.249,7.518,6.656c3.285,3.165,6.557,6.714,9.84,9.952
	c1.293,1.277,2.613,1.901,3.904,3.27c4.049,4.296,8.064,9.519,12.139,13.032c4.256,3.67,8.566,5.713,12.85,8.581
	c4.1,2.745,8.193,5.697,12.293,8.426c1.084,0.721,2.18,1.196,3.271,1.355c3.523,0.52,7.109,3.035,10.561,0.697
	c4.752-3.22,9.512-3.048,14.26-4.927c1.09-0.432,2.18-1.338,3.27-1.266c2.146,0.142,4.293,0.825,6.441,1.263
	c0.412,0.084,0.836-0.217,1.238,0.142c3.611,3.208,7.242,4.607,10.914,4.13c1.303-0.168,2.432,0.24,3.766,0.817
	c0,0.752,0.01,1.516,0.016,2.275v173.615h-372.207V125.75C2958.463,125.721,2960.27,124.802,2962.037,123.826z"/>
<path fill-rule="evenodd" clip-rule="evenodd" d="M3335.873,213.876v-92.692c0.026-0.005,0.038-0.01,0-0.018v-11.43
	c7.627-3.271,15.058-9.029,22.898-9.158c5.609-0.093,11.188-5.267,16.814-7.697c4.424-1.911,8.893-3.284,13.359-4.485
	c1.37-0.368,2.813,1.092,4.203,0.896c3.885-0.547,7.76-1.511,11.638-2.333c1.232-0.262,2.46-0.643,3.694-0.885
	c4.667-0.912,9.485-3.929,13.961-2.066c4.297,1.787,8.258,0.628,12.334-0.681c9.19-2.951,18.363-6.238,27.541-9.428
	c7.074-2.459,14.144-5.011,21.219-7.461c4.277-1.481,8.58-4.274,12.838-3.934c6.47,0.516,12.737-1.97,19-4.659
	c5.527-2.374,10.936-6.353,16.438-9.137c1.748-0.885,3.638,0.029,5.447-0.312c1.93-0.363,3.84-1.305,5.766-1.86
	c1.316-0.381,2.654-0.372,3.966-0.818c8.048-2.735,16.076-5.845,24.144-8.167c2.508-0.722,5.206,1.843,7.664,0.786
	c7.498-3.225,14.852-0.498,22.266,1.289c3.4,0.82,6.858,0.721,10.279,0.385c3.471-0.341,7.242-4.002,10.318-1.713
	c5.113,3.804,9.67-0.827,14.445-1.559c5.458-0.836,10.932-4.931,16.307-4.086c6.549,1.027,13.004,5.689,19.494,8.847
	c5.102,2.482,10.164,6.636,15.299,7.233c7.391,0.861,13.771,8.661,20.533,13.963c2.76,2.163,5.518,4.6,8.355,5.868
	c7.208,3.22,14.453,5.946,21.695,8.688c5.491,2.078,11.017,3.646,16.494,5.897c2.92,1.199,5.787,3.235,8.65,5.13
	c3.786,2.507,7.524,5.461,11.324,7.817c2.904,1.799,6.07,1.857,8.762,4.7c3.404,3.597,6.566,7.922,10.38,9.259
	c5.904,2.067,11.69,6.888,17.603,7.896c9.58,1.638,19.198,1.967,28.809,2.587l-0.018-0.004l26.627-1.694
	c0.909-0.722,1.824-1.333,2.757-1.666c8.475-3.027,16.967-5.891,25.486-8.008c8.974-2.229,17.982-3.696,26.984-5.175
	c4.874-0.801,9.851,0.269,14.622-1.737c3.916-1.645,7.495-1.909,11.42-0.038c4.126,1.965,8.484,1.514,12.734,1.297
	c4.814-0.245,9.672-2.814,14.416-1.79c5.338,1.153,10.369,0.016,15.443-3.579c2.277-1.613,4.652-2.807,7.012-3.246
	c6.276-1.171,12.566-1.953,18.854-2.659c8.87-0.998,17.744-1.769,26.616-2.689c1.146-0.119,2.285-0.773,3.43-0.794
	c4.539-0.081,9.355-0.202,14.779-0.202v197.128h-725.126v-71.807H3335.873z"/>
<path fill-rule="evenodd" clip-rule="evenodd" d="M4074.139,87.236c3.32-0.58,6.643-1.298,9.969-1.534
	c3.174-0.225,6.482-1.38,9.498,0.527c4.248,2.688,8.322-0.26,12.467,0.061c2.701,0.209,5.406-0.091,8.107,0.043
	c1.854,0.092,3.828,1.772,5.529,0.549c2.922-2.102,5.693-0.541,8.455,0.657c3.225,1.401,6.299,1.162,9.387-1.585
	c0.797-0.708,1.697-1.168,2.52-0.943c1.596,0.438,3.162,1.598,4.754,2.17c2.068,0.741,4.152,1.142,6.223,1.794
	c4.029,1.268,8.045,3.118,12.117,1.307c0.561-0.248,1.135-0.841,1.682-0.695c5.182,1.384,9.912-3.971,14.809-6.898
	c2.26-1.351,4.559-2.319,6.857-3.101c1.789-0.61,3.67,0.036,5.391-1.141c2.098-1.437,4.119-0.779,5.957,1.058
	c2.512,2.511,4.779,2.205,7.16-0.536c2.592-2.984,5.393-2.926,8.137-3.178c1.301-0.121,2.621,1.38,3.926,1.318
	c1.938-0.092,3.867-1.095,5.807-1.359c1.08-0.148,2.193,0.887,3.256,0.574c4.566-1.343,9.125-2.909,13.678-4.558
	c2.109-0.763,4.197-1.9,6.295-2.868c1.771-0.818,3.549-1.532,5.309-2.503c0.805-0.443,1.623-1.129,2.342-2.166
	c1.59-2.29,3.043-5.391,4.697-7.221c2.902-3.211,5.689-0.415,8.418,2.439c0.525,0.549,1.047,1.43,1.586,1.532
	c4.545,0.86,8.855-0.716,12.502-8.991c0.771-1.749,1.602-2.891,2.748-1.899c0.613,0.529,1.387-0.254,2.086-0.479
	c2.895-0.933,5.801-3.029,8.652,0.6c0.6,0.765,1.184,1.652,1.801,2.291c3.006,3.104,6.088,3.301,9.223,1.697
	c0.781-0.4,1.648-0.958,2.375-0.44c3.158,2.238,6.289,4.764,9.408,7.348c3.309,2.738,6.604,5.508,10.125,5.353
	c1.982-0.087,3.965-0.039,5.947,0.01c0.373,0.009,0.76,0.196,1.117,0.499c1.904,1.608,3.709,1.732,5.457-1.507
	c0.602-1.115,1.416-1.4,2.131-2.085c1.322-1.264,2.705-2.219,3.949-3.901c1.387-1.878,2.787-2.27,4.129-0.715
	c2.572,2.98,5.119,6.188,7.578,9.786c2.129,3.116,4.074,7.124,6.193,10.291c0.939,1.404,2.094,2.049,3.18,2.417
	c1.188,0.401,2.428-0.315,3.607,0.153c3.084,1.224,6.145,2.867,9.219,4.271c2.75,1.256,5.639,1.399,8.23,3.839
	c4.973,4.682,9.945,8.878,15.211,10.231c0.062,0.016,0.121,0.092,0.182,0.186h4.963c0.883-0.491,1.99-1.094,3.115-1.484
	c1.34-0.465,2.703-0.479,4.059-0.521c1.793-0.058,3.586,0.102,5.379,0.072c1.461-0.026,2.92-0.355,4.377-0.261
	c2.279,0.146,4.555,0.58,6.832,0.812c1.885,0.191,3.775,0.077,5.654,0.438c1.053,0.202,2.092,0.691,3.135,0.945h2.225
	c0.418-0.135,0.838-0.364,1.262-0.72c2.664-2.232,5.406-3.794,8.121-5.569c1.348-0.879,2.711-1.587,4.037-2.355
	c0,2.773,0,5.622,0,8.645c0,0.191,0,0.377,0,0.57v185.18h-388.736V88.532C4070.059,88.083,4072.098,87.593,4074.139,87.236z"/>
<path fill-rule="evenodd" clip-rule="evenodd" d="M4463.645,90.314c2.478-0.959,4.658-6.795,6.755-8.84
	c0.785-0.766,1.58-1.587,2.422-2.029c2.5-1.318,5.025-2.465,7.541-3.672c1.664-0.799,3.314-1.745,4.998-2.349
	c3.958-1.419,8.028-2.033,11.871-4.186c3.282-1.839,6.537-2.131,9.854-2.326c0.592-0.035,1.186,0.36,1.783,0.5
	c0.871,0.204,1.745,0.459,2.621,0.508c1.764,0.098,3.617-0.579,5.275,0.247c2.51,1.251,5.018,1.138,7.537,1.444
	c0.405,0.049,0.863,0.117,1.197,0.501c1.447,1.654,2.947,1.186,4.482,0.748c0.938-0.268,1.904-0.249,2.857-0.266
	c2.034-0.033,4.069-0.026,6.104,0.006c0.906,0.014,1.812,0.1,2.717,0.208c1.463,0.174,2.928,0.62,4.383,0.523
	c1.218-0.08,2.416-0.893,3.637-1.157c0.971-0.21,1.963-0.015,2.941-0.119c3.722-0.394,7.352-0.923,11.064,1.57
	c5.33,3.578,10.568,8.216,16.38,8.391c2.083,0.063,4.181,0.298,6.245-0.076c2.168-0.392,4.311-0.89,6.158,1.78
	c4.553,6.574,9.973,7.845,15.315,9.503c1.156,0.358,2.528,0.312,3.564-0.577c1.776-1.526,3.474-2.234,5.447-2.236
	c2.036-0.003,4.075-1.435,6.104-2.301c2.775-1.184,5.296-4.271,8.387-3.239c1.312,0.438,2.99-0.296,4.148-1.636
	c2.919-3.375,6.22-4.464,9.326-6.658c1.812-1.281,3.76-1.986,5.678-2.541c2.838-0.821,5.701-1.306,8.557-1.877
	c1.126-0.226,2.26-0.438,3.389-0.409c1.385,0.035,2.905-0.319,4.123,0.646c2.395,1.899,4.904,1.739,7.354,2.292
	c1.273,0.287,2.646-1.154,3.981-1.755c2.653-1.191,5.294-2.534,7.975-3.432c1.433-0.48,2.948,0.027,4.409-0.25
	c2.809-0.534,5.615-1.181,8.404-2.016c4.615-1.382,9.199-3.188,13.828-4.343c2.349-0.587,4.773-0.373,7.149-0.093
	c1.647,0.194,3.278,1.067,4.906,1.728c3.124,1.266,6.239,2.617,9.362,3.889c1.34,0.545,2.75,1.691,4.023,1.301
	c2.02-0.618,3.774,0.105,5.549,1.64c0.409,0.354,0.908,0.867,1.292,0.694c3.75-1.694,7.366,0.531,10.806,2.395
	c2.955,1.602,5.897,2.213,8.682,1.24c4.475-1.564,8.899-0.358,13.335-0.813c0.408-0.042,0.825,0.295,1.237,0.3
	c2.444,0.028,4.889,0.011,7.334,0.01c0.918-0.001,1.853-0.211,2.751,0.046c1.554,0.445,3.079,1.241,4.626,1.779
	c1.773,0.616,3.559,1.107,5.336,1.668c0.455,0.144,0.902,0.433,1.36,0.503c2.778,0.431,5.569,0.661,8.179,2.911
	c0.503,0.435,1.082,0.529,1.601,0.913c1.278,0.947,2.541,1.973,3.811,2.967c0.583,0.456,1.158,0.968,1.754,1.353
	c0.989,0.641,1.996,1.184,2.99,1.8c0.432,0.268,0.846,0.641,1.276,0.92c1.298,0.842,2.598,1.677,3.902,2.484
	c0.735,0.456,1.469,0.97,2.225,1.245c0.697,0.254,1.465-0.028,2.129,0.372c1.709,1.034,3.338,2.694,5.074,3.41
	c1.732,0.713,3.491,1.18,5.252,1.629h2.855v188.5h-377.61V90.314z"/>
<path fill-rule="evenodd" clip-rule="evenodd" d="M4848.223,97.18c1.195-0.009,2.223-0.222,3.223-0.431
	c2.801-0.585,5.864-0.29,8.321-2.265c3.696-2.97,8.131-2.543,11.292-7.725c0.098-0.161,0.279-0.165,0.424-0.24
	c4.33-2.263,8.656-4.552,12.998-6.749c0.457-0.231,1.014-0.037,1.501,0.145c2.255,0.838,4.482,1.949,6.755,2.581
	c5.38,1.498,11.094,0.45,15.809,6.882c0.516,0.706,1.6,0.152,2.42,0.156c1.99,0.009,3.98,0.014,5.972,0.001
	c2.214-0.015,4.436,0.152,6.64-0.119c4.67-0.575,9.325-1.779,13.995-1.947c2.833-0.102,5.462,1.566,8.579,0.278
	c3.6-1.486,7.286-2.345,10.779-4.756c2.396-1.655,4.814-2.22,7.341-0.417c1.507,1.074,3.128,1.907,4.738,2.215
	c1.718,0.329,3.497,0.135,5.224-0.222c5.086-1.048,10.043-5.355,15.319-1.421c0.897,0.671,2.079,0.161,3.13,0.214
	c0.674,0.034,1.402-0.178,2.013,0.193c3.981,2.417,7.95,4.906,11.899,7.482c3.633,2.369,7.182,5.163,10.865,7.242
	c3.815,2.152,7.852,3.177,11.593,5.626c2.817,1.846,5.438,4.137,8.546,4.714c2.902,0.539,5.736,2.366,8.57,3.8
	c4.477,2.262,9.004,4.306,13.373,7.1c6.262,4.004,12.819,2.731,19.227,4.035c1.442,0.294,2.955-0.68,4.432-0.64
	c2.95,0.084,5.896,0.641,8.846,0.689c6.761,0.111,13.522-0.076,20.281,0.096c2.367,0.06,4.733,1.229,7.093,1.163
	c4.25-0.118,8.493-1.052,12.743-1.147c4.033-0.09,8.07,0.5,12.107,0.704c2.293,0.117,4.59-0.008,6.883,0.097
	c3.62,0.165,7.237,0.518,10.857,0.636c4.203,0.137,8.408,0.168,12.612,0.128c4.158-0.04,8.345,0.264,12.467-0.472
	c5.212-0.932,10.319-3.615,15.646-1.24c1.85,0.825,3.853,0.857,5.782,0.812c5.122-0.119,10.24-0.511,15.361-0.727
	c2.211-0.094,4.58,0.882,6.604-0.2c5.306-2.835,10.497-6.378,15.659-9.965c2.065-1.434,3.891-3.641,6.307-3.349
	c3.133,0.38,6.189-0.068,9.25-2.107c4.113-2.74,8.443-4.108,12.916-2.622c0.938,0.312,1.948,0.066,2.92-0.058
	c3.39-0.432,6.791-1.484,10.162-1.229c3.158,0.239,6.254,2.245,9.373-0.688c0.668-0.629,1.753-0.132,2.615,0.143
	c4.152,1.322,8.264,3.569,12.494,0.457c1.213-0.892,2.581-1.563,3.881-1.577c3.053-0.031,6.106,0.421,9.161,0.619
	c0.744,0.049,1.534,0.115,2.232-0.245c2.325-1.201,4.438-0.55,6.41,1.807c1.403,1.677,2.814,2.049,4.444,0.81
	c0.658-0.499,1.588-0.359,2.32-0.021c3.572,1.648,7.064,4.154,10.689,5.005c3.07,0.721,5.46,3.596,8.196,5.284
	c2.342,1.445,4.938,3.17,7.274,2.67c2.42-0.52,4.771-0.822,6.967,0.407c4.809,2.692,9.453,1.581,14.055-0.93
	c5.031-2.745,9.982-5.937,14.981-8.865c1.323-0.774,2.749-2.05,4.03-1.764c2.066,0.462,4.076,1.916,6.068,3.156
	c2.674,1.665,5.254,3.849,7.97,5.236c6.17,3.152,12.397,5.959,18.604,8.896c0.571,0.27,1.149,0.602,1.732,0.669
	c3.729,0.434,12.67,5.241,15.672,8.16h0.188v152.333h-608.834V157.125v-23.598V97.18z"/>
<path d="M6032.67,97.566c6.472-9.222,12.983-18.499,20.314-19.38c5.944-0.715,11.675-8.492,17.787-9.103
	c3.943-0.395,7.997-0.16,12.038-5.19c6.637-8.268,13.589-13.908,20.52-18.74c2.712-1.89,5.854-0.129,8.574,2.63
	c5.735,5.814,11.318,13.398,16.971,20.196c0.291,0.349,0.644,0.022,0.959,0.202c2.984,1.694,5.969,3.379,8.949,5.166
	c5.405,3.243,10.799,6.768,16.217,9.749c2.703,1.487,5.569,0.646,8.153,3.29c5.709,5.842,11.158,15.563,16.952,19.354
	c6.481,4.241,12.471,15.508,19.304,14.696c5.189-0.617,10.431-0.293,15.591,1.565c4.908,1.77,9.422-9.244,14.546-2.658
	c2.787,3.582,6.168,1.612,9.279,2.234c0.952,0.191,1.904,0.572,2.851,1.028c4.958,2.396,9.895,5.799,14.877,7.038
	c6.26,1.558,12.557,1.357,18.838,1.923c0.723,0.065,1.451-0.008,2.165,0.297c3.544,1.51,7.091,4.55,10.626,4.379
	c5.709-0.276,11.445,2.97,17.154-4.096c3.512-4.349,7.509-3.847,11.261-6.07c5.877-3.483,11.725-7.559,17.597-11.145
	c6.096-3.725,12.408-2.672,18.353-9.88c0.36-0.437,0.798-0.152,1.199-0.154c4.859-0.022,9.72,0.109,14.577-0.141
	c1.453-0.074,2.91-1.955,4.35-1.736c5.779,0.875,11.559,3.515,17.326,3.156c9.668-0.604,19.324-3.188,28.991-4.512
	c2.38-0.327,4.783,0.818,7.168,1.569c5.829,1.833,11.659,3.665,17.478,5.812c4.794,1.768,9.561,4.805,14.363,5.772
	c4.793,0.967,9.617,0.224,14.427-0.095c3.065-0.202,6.134-0.666,9.188-1.587c7.109-2.146,14.091,2.454,21.066,5.362
	c9.622,4.01,19.159,10.438,28.749,15.462c6.532,3.421,13.085,6.41,19.643,9.206c3.602,1.536,7.233,2.196,10.848,3.389
	c3.082,1.019,6.188,1.677,9.232,3.5c2.734,1.638,5.439,3.84,8.146,6.015l21.912,0.729l-0.002,0.002
	c1.266-0.839,2.531-1.604,3.803-1.742c8.335-0.893,16.674-1.268,25.012-1.798c9.036-0.578,21.328-1.322,30.381-1.636v130.263
	l-0.018,3.792h-654V157.496c-0.021,0-0.039,0-0.06,0c0-13.052,0-24.865,0-36.815C6015.399,115.911,6024.193,109.644,6032.67,97.566z
	"/>
<path fill-rule="evenodd" clip-rule="evenodd" d="M6670.5,151.016c1.842-0.365,3.65-0.759,5.362-1.762
	c4.698-2.753,9.262-6.374,13.878-9.648c3.751-2.662,7.257-5.942,9.907-12.133c0.684-1.597,2.142-2.642,3.268-2.724
	c5.041-0.369,10.01,0.669,14.846,3.763c5.428,3.474,10.742,8.102,16.689,6.971c1.209-0.23,2.411-0.729,3.621-0.798
	c6.051-0.348,12.104-0.627,18.154-0.855c2.562-0.097,5.125-0.074,7.686,0.02c1.424,0.052,2.842,0.482,4.266,0.531
	c3.037,0.104,6.084-0.16,9.114,0.162c2.568,0.273,5.132,1.814,7.675,1.631c4.504-0.324,8.993-1.469,13.48-2.404
	c1.631-0.341,3.322-1.962,4.842-1.44c3.586,1.235,6.744-1.714,9.988-3.169c4.012-1.796,7.832-5.188,11.728-7.934
	c1.063-0.75,2.076-1.792,3.151-2.456c3.731-2.305,7.463-4.621,11.23-6.673c1.227-0.666,2.588-0.919,3.855-0.695
	c3.225,0.571,6.425,2.052,9.645,2.166c3.203,0.114,6.435-0.756,9.622-1.633c3.033-0.832,6.119-1.679,9.013-3.516
	c4.323-2.746,8.668-3.465,13.155-2.993c1.377,0.146,2.954,0.142,4.137-0.982c3.872-3.684,7.745-4.289,11.503-0.296
	c3.069,3.264,6.062,4.576,9.618,3.872c6.483-1.282,12.842,1.32,19.095,4.504c3.229,1.645,6.424,0.896,9.527-0.499
	c1.259-0.564,2.278-1.554,3.577-0.412c0.614,0.542,1.413,0.395,2.128,0.407c2.498,0.05,5.017-0.356,7.489,0.13
	c3.746,0.736,7.204-0.092,10.396-4.256c0.562-0.732,1.544-0.904,2.222-0.548c2.671,1.409,4.899,0.31,6.978-3.22
	c1.387-2.354,2.867-4.902,4.547-6.131c5.299-3.872,10.76-3.115,16.123-0.387c1.748,0.891,3.004,0.055,4.418-1.557
	c0.701-0.801,1.73-1.349,2.492-1.007c4.316,1.94,8.695,3.651,12.859,6.5c3.002,2.057,5.482,3.746,8.955,1.844
	c3.213-1.762,7.018,0.368,10.553,0.975c2.566,0.44,5.111,1.489,7.68,1.729c3.275,0.306,6.564-0.026,9.848,0.094
	c5.506,0.201,11.012,0.498,16.516,0.86c1.135,0.075,2.283,0.451,3.389,0.973c2.639,1.249,5.221,3.403,7.889,3.864
	c5.846,1.015,11.297,3.495,15.982,10.798c0.904,1.408,2.178,2.302,3.344,2.64c3.678,1.073,7.375,1.979,11.082,2.546
	c2.783,0.426,5.447,0.259,8.002-3.298c2.078-2.897,4.777-4.109,7.168-6.217c0.951-0.841,1.789-2.154,2.717-3.115
	c0.85-0.88,1.715-1.847,2.635-2.283c1.203-0.571,2.473-0.577,3.699-0.972c1.648-0.528,3.279-1.288,4.93-1.778
	c1.979-0.588,3.969-1.252,5.963-1.393c1.332-0.095,2.928-0.103,3.977,1.172c4.449,5.398,9.373,3.564,14.129,4.083
	c5.295,0.579,10.6,0.809,15.9,1.137c2.047,0.128,4.422,1.424,6.074-0.112c3.191-2.97,6.191-4.545,9.719-3.145
	c3.465,1.376,6.918,1.67,10.23,5.294c2.502,2.738,5.889,3.734,8.826,3.436c5.041-0.514,9.811,0.545,14.637,3.267
	c2.219,1.253,4.641,2.214,7.143,0.316c2.674-2.027,5.395-2.471,8.111,1.14c3.092,4.108,6.246,8.179,10.029,9.972
	c0.944,0.448,2.348-0.6,2.543-0.751v146.354h0.25v4.71h-586.334V151.625L6670.5,151.016z"/>
<path fill-rule="evenodd" clip-rule="evenodd" d="M7260.679,281.931v-30.244l0.03-117.098l2.053-1.117
	c0.072-0.147,0.146-0.258,0.221-0.284c5.113-1.827,8.713-3.256,13.831-4.826c3.662-1.124,7.338-1.507,10.997-2.75
	c4.293-1.459,8.574-3.632,12.864-5.244c6.134-2.304,12.263-5.149,18.409-6.348c6.855-1.335,13.728-1.009,20.592-1.58
	c1.849-0.153,3.697-0.817,5.541-1.462c4.652-1.627,9.299-3.577,13.953-5.002c2.826-0.865,5.666-0.729,8.494-1.512
	c5.584-1.545,11.164-3.36,16.745-5.173c3.889-1.264,7.774-2.708,11.661-4.079c6.086-2.146,12.163-5.021,18.26-6.23
	c5.286-1.051,10.578-0.168,15.76-6.447c1.544-1.871,3.264-1.283,4.904-1.502c3.222-0.429,6.457-0.007,9.664-1.098
	c3.571-1.215,7.115-3.77,10.674-5.659c4.728-2.509,9.469-4.616,14.182-7.527c2.73-1.686,5.418-4.628,8.127-6.972
	c3.812-3.297,7.69-5.619,11.42-10.152c2.791-3.393,5.527-6.236,8.429-5.661c1.618,0.321,3.235,1.273,4.853,1.207
	c3.143-0.133,6.285-0.775,9.426-1.22c4.096-0.579,8.047,3.202,12.036,6.432c2.278,1.843,4.663,1.349,7.002,1.738
	c1.593,0.266,3.194-0.074,4.782,0.412c2.812,0.862,5.613,2.63,8.428,3.098c2.151,0.356,4.316-0.672,6.474-1.151
	c3.903-0.867,7.807-1.675,11.707-2.703c6.255-1.647,12.504-3.778,18.763-5.042c2.537-0.512,5.102,0.374,7.643,1.246
	c3.064,1.055,6.115,2.741,9.172,4.208c3.36,1.613,6.715,3.492,10.08,4.862c2.148,0.875,4.318,0.781,6.471,1.569
	c4.188,1.532,8.369,3.454,12.557,5.07c2.761,1.065,5.528,1.808,8.291,2.821c4.496,1.649,8.99,3.421,13.485,5.091
	c0.565,0.211,1.14-0.019,1.704,0.185c3.426,1.228,6.846,2.866,10.276,3.678c2.494,0.591,5.002,0.224,7.532,0.224
	c0,18.926,0,38.3,0,58.245c0,0.124,0,0.245,0,0.369v151.381h-407.5l0.001-3.752H7260.679z"/>
<path fill-rule="evenodd" clip-rule="evenodd" d="M7675.14,75.688c1.947-1.701,3.602-2.15,5.145-4.232
	c2.525-3.407,4.984-4.241,7.863-2.31c2.305,1.548,4.719,1.843,7.117-0.227c1.289-1.111,2.732-1.451,4.119-2.009
	c1.848-0.743,3.729-1.162,5.555-2.086c1.721-0.869,3.338-2.889,5.207-1.382c0.299,0.241,0.715-0.249,1.078-0.288
	c1.865-0.204,3.752-0.83,5.59-0.431c2.123,0.46,4.184,2.181,6.307,2.725c2.807,0.718,5.682,0.23,8.385,2.578
	c0.363,0.317,0.834,0.176,1.25,0.106c2.352-0.39,4.712-0.672,7.05-1.288c1.963-0.516,3.955-1.072,5.838-2.281
	c2.135-1.37,4.196-2.902,6.481-2.388c1.693,0.382,3.403,0.608,5.104,0.583c2.176-0.033,4.351-0.457,6.527-0.565
	c0.668-0.033,1.376,0.207,2.008,0.678c2.888,2.152,5.829,1.544,8.755,0.811c2.077-0.521,4.133-1.431,6.195-2.208
	c2.823-1.064,5.778-1.385,8.427-3.471c2.76-2.176,5.314-5.777,7.786-9.305c2.085-2.975,3.881-3.624,6.143-1.095
	c2.745,3.07,5.486,6.172,8.306,8.907c0.768,0.744,1.834,0.54,2.717,0.208c2.575-0.966,5.132-2.17,7.686-3.376
	c1.257-0.594,2.487-1.432,3.737-2.096c0.857-0.456,1.806-1.479,2.579-1.075c2.678,1.398,5.254,3.799,7.95,4.896
	c3.172,1.291,5.881,4.667,8.771,7.26c0.914,0.819,1.892,1.399,2.865,1.82c2.838,1.227,5.633,2.427,8.056,6.285
	c4.7,7.486,10.221,9.961,15.91,11.41c1.957,0.499,3.869,1.767,5.812,2.564c0.751,0.309,1.724,0.981,2.263,0.296
	c1.913-2.435,3.838-2.501,5.93-1.653c0.839,0.34,1.763-0.387,2.651-0.44c0.889-0.055,1.802-0.118,2.666,0.242
	c3.146,1.308,6.213,1.457,9.223-1.467c2.278-2.214,4.631-2.943,6.933-0.046c2.168,2.728,4.53,2.087,6.862,1.938
	c2.336-0.148,4.675-0.677,7.006-0.549c3.323,0.182,6.521,2.585,9.947,1.973c2.287-0.408,4.643,1.421,6.982,1.765
	c4.333,0.636,8.361-2.284,12.354-5.425c0.629-0.495,1.335-1.206,1.948-1.008c2.219,0.72,4.516,1.202,6.593,2.854
	c3.119,2.482,6.27,1.112,9.398,1.605c2.582,0.406,5.229,0.409,7.714,1.724c2.245,1.188,4.338,3.646,6.265,5.466h0.19l3.082-0.314
	c0.635-0.288,1.268-0.624,1.91-0.753c1.62-0.324,3.27-0.221,4.868-0.792c6.185-2.208,12.334-4.893,18.535-6.84
	c3.826-1.202,7.488-4.228,11.447-4.047c2.069,0.095,4.16-0.94,6.224-1.684c3.043-1.096,6.075-2.336,9.104-3.604
	c5.438-2.277,10.863-4.725,16.312-6.896c2.747-1.096,5.411-3.601,8.35-2.014c0.965,0.521,2.104,0.03,3.119-0.429
	c2.249-1.015,4.449-2.553,6.708-3.428c5.197-2.012,10.438-3.538,15.623-5.685c3.492-1.445,6.896-3.865,10.385-5.368
	c2.268-0.976,4.396-1.746,6.702-2.241v238.094h-429.613V76.043h-0.001C7675.138,75.927,7675.14,75.802,7675.14,75.688z"/>
<path d="M8697.133,110.406c3.693,1.115,7.332,2.345,11.007,3.26c2.026,0.504,4.11,0.509,6.171,0.656
	c2.404,0.171,4.812,0.237,7.218,0.377c2.626,0.151,5.251,0.429,7.878,0.472c1.521,0.023,3.047-0.294,4.568-0.485
	c0.237-0.029,0.471-0.182,0.698-0.306c4.677-2.538,9.636-2.432,14.47-3.48c1.467-0.317,3.078,0.041,4.406-0.741
	c3.828-2.254,7.991-1.363,11.842-3.285c2.131-1.064,4.518-0.605,6.525-2.718c1.045-1.1,2.398-1.545,3.623-2.244
	c0.245-0.141,0.675-0.279,0.789-0.095c0.887,1.433,1.633,0.566,2.445-0.164c0.91-0.818,1.852-1.567,2.807-2.259
	c0.314-0.229,0.717-0.247,1.08-0.252c0.873-0.011,1.807,0.355,2.608,0.008c1.741-0.755,3.414-1.865,5.118-2.817
	c0.133-0.075,0.288-0.083,0.434-0.083c2.146-0.004,4.297-0.091,6.44,0.039c1.003,0.061,1.988,0.595,2.991,0.825
	c2.462,0.565,4.924,1.169,7.4,1.562c0.76,0.12,1.699-0.077,2.323-0.679c1.39-1.34,2.611-3.068,3.942-4.555
	c0.693-0.774,1.508-2.012,2.21-1.927c2.147,0.257,4.358,0.659,6.372,1.733c2.889,1.539,5.475,4.438,8.824,3.483
	c0.89-0.254,1.866,0.132,2.799,0.273c1.014,0.155,2.02,0.478,3.033,0.538c3.337,0.201,6.677,0.314,10.016,0.465
	c3.188,0.145,6.393,0.039,9.557,0.521c2.37,0.361,4.718,1.326,7.023,2.302c3.621,1.532,7.25,2.957,10.982,3.701
	c1.105,0.22,2.239,0.146,3.338,0.405c2.389,0.563,4.754,1.357,7.146,1.871c3.303,0.707,6.623,1.222,9.933,1.859
	c2.854,0.551,5.693,1.315,8.556,1.701c3.358,0.455,6.734,0.799,10.104,0.817c2.491,0.014,5.01-0.333,7.469-0.941
	c3.77-0.931,7.484-2.337,11.25-3.301c1.319-0.338,2.738-0.165,4.078,0.122c3.229,0.694,6.422,1.769,9.656,2.368
	c4.154,0.771,8.349,1.058,12.494,1.903c1.537,0.313,2.857-0.055,4.249-0.739c0.729-0.357,1.528-0.721,2.271-0.628
	c3.039,0.38,6.072,0.893,9.1,1.449c0.955,0.176,2.042,0.284,2.801,1.036c2.292,2.273,4.45,0.969,6.484-0.441
	c2.398-1.663,4.846-2.722,7.449-2.479c2.309,0.215,4.65,0.57,6.885,1.42c2.518,0.957,4.924,2.563,7.392,3.832
	c1.538,0.79,3.067,1.805,4.655,2.146c3.691,0.793,7.415,1.243,11.127,1.821c1.447,0.225,2.894,0.477,4.346,0.617
	c4.168,0.405,8.339,0.787,12.512,1.11c0.664,0.052,1.353-0.44,2.01-0.351c1.76,0.242,3.511,0.527,5.141,0.801h11.502
	c2.774-0.364,5.554-0.629,8.335-0.818c1.397-0.095,2.817,0.426,4.208,0.272c1.682-0.186,3.342-0.821,5.017-1.199
	c1.287-0.289,2.62-0.273,3.866-0.771c1.529-0.61,2.95-1.895,4.488-2.364c1.289-0.393,2.682-0.088,4.024,0.008
	c1.522,0.108,3.04,0.461,4.56,0.457c1.133-0.003,2.264-0.403,3.455-0.639c0,1.729,0,3.314,0,5.055c0,0.206,0,0.404,0,0.615v164.135
	h-397.5V121.429V110.406z"/>
<path d="M9874.604,40.743c2.637-1.138,5.351-1.316,8.059-2.57c0.775-0.358,1.553-0.851,2.297-1.554
	c4.105-3.885,8.209-7.812,12.299-11.821c1.244-1.219,2.428-2.904,3.672-4.107c3.135-3.031,6.229-6.926,9.461-8.435
	c1.701-0.793,3.801,1.967,5.48,4.39c4.684,6.754,9.539,11.838,14.721,14.737c1.684,0.942,3.256,3.387,4.938,4.351
	c4.435,2.542,8.908,4.557,13.354,6.972c1.706,0.926,3.445,1.887,5.045,3.686c2.454,2.761,4.654,1.125,6.912-1.439
	c2.984-3.387,5.951-6.933,9-9.81c2.488-2.348,4.598,1.629,6.781,4.294c4.959,6.054,10.127,10.078,15.564,11.143
	c0.574,0.111,1.197,0.197,1.701,0.852c2.691,3.491,5.461,2.858,8.256,1.548c0.301-0.141,0.768-0.601,0.887-0.236
	c1.217,3.721,2.873,1.887,4.308,2.639c0.479,0.251,1.237-0.418,1.552-1.421c2.416-7.679,5.639-10.562,9.102-11.702
	c4-1.318,8.02-2.831,12.035-2.961c3.365-0.107,6.272-3.733,9.354-6.218c1.493-1.203,3.095-1.428,4.655-1.898
	c1.471-0.443,4.467-1.081,5.945-1.16c1.986-0.45,5.526-0.05,7.533,0.142c3.926,0.374,7.82,0.155,11.68-2.45
	c4.353-2.938,8.721-5.853,13.135-7.893c3.996-1.846,8.076-3.685,12.096-3.354c4.182,0.342,8.344,3.149,12.49,5.211
	c0.838,0.416,1.566,2.376,2.363,3.526c3.043,4.385,5.99,9.451,9.17,12.875c2.81,3.024,5.859,5.484,8.955,2.705
	c1.688-1.518,3.248-4.182,4.947-5.566c5.025-4.096,10.098-7.717,15.422-6.719c4.111,0.771,8.223,1.725,12.338,2.286
	c1.736,0.237,3.486-0.432,5.23-0.5c2.525-0.099,5.053-0.028,7.576-0.021c0.428,0.001,0.91-0.312,1.27,0.125
	c4.176,5.076,8.334,0.717,12.506,0.083c2.104-0.319,4.254-0.063,6.334,0.792c2.775,1.139,5.455,0.769,8.172-0.968
	c4.574-2.925,9.184-2.852,13.877-2.017c6.461,1.147,12.955,0.701,19.434,1.125c7.211,0.473,14.438,0.597,21.625,2.053
	c2.465,0.5,5.104,3.447,7.188,7.261c3.068,5.612,6.504,7.749,9.846,10.896c5.15,4.852,10.307,9.697,15.521,13.979
	c3.883,3.188,7.838,4.645,11.398,7.093l0.771,0.63v214.37h-426.25V72.215c-0.002,0-0.002,0-0.004,0V40.743z"/>
<path fill-rule="evenodd" clip-rule="evenodd" d="M10307.825,71.381c3.335-1.389,6.673-2.737,10.005-4.187
	c1.97-0.856,3.946-2.878,5.895-2.642c6.794,0.826,13.571,2.86,20.364,3.52c3.59,0.348,7.225-0.673,10.797-2.005
	c6.139-2.287,12.279-4.761,18.353-8.164c5.95-3.335,11.89-6.085,17.958-5.25c2.416,0.332,4.83,2.1,7.231,1.887
	c8.584-0.762,17.213,2.635,25.757-2.851c3.096-1.987,6.311-2.628,9.484-3.325c5.443-1.196,10.775-5.035,16.314-4.316
	c6.39,0.829,12.803-0.05,19.201,0.288c3.546,0.188,7.083,1.781,10.629,1.955c3.941,0.192,7.933,0.454,11.822-1.064
	c4.773-1.863,9.51-3.504,14.334-3.183c1.816,0.121,3.666-0.612,5.459-1.604c3.525-1.954,6.998-4.752,10.533-6.502
	c7.822-3.872,15.457,0.283,22.983,6.007c3.976,3.022,7.815,7.529,11.751,11.05c4.415,3.949,8.841,3.864,13.271-0.287
	c1.619-1.518,3.336-3.29,4.988-3.131c4.459,0.429,8.422-4.992,12.603-7.803c1.026-0.69,2.073-1.799,3.1-1.697
	c4.837,0.481,9.56-1.474,14.215-5.043c1.628-1.248,3.185-3.825,4.824-4.289c4.238-1.199,8.503-1.939,12.761-2.143
	c3.881-0.185,7.772,0.315,11.646,1.045c1.687,0.318,3.329,2.284,5.017,2.943c3.272,1.277,6.561,2.259,9.849,3.173
	c2.237,0.623,4.51,0.481,6.719,1.548c1.186,0.572,2.114,0.503,2.918-1.987c3.104-9.626,7.189-13.097,11.435-15.088
	c2.853-1.339,5.771-1.425,8.647-2.409c4.393-1.506,8.722-1.337,13.01,2.337c1.346,1.153,2.785,1.369,4.178,2.066
	c4.658,2.332,8.641-4.926,12.912-7.93c3.213-2.258,6.328-3.972,9.556-0.737c1.282,1.286,2.664,3.656,3.889,3.163
	c4.019-1.618,8.233-2.575,11.909-7.042c4.911-5.97,10.017-5.378,15.002-6.752c3.754-1.034,7.666,2.814,11.506,4.526
	c0.289,0.128,0.602,0.378,0.835,0.855c2.687,5.491,5.71,8.083,8.925,9.382c1.329,0.538,2.623,1.91,3.92,3.041
	c2.774,2.419,5.502,5.426,8.32,7.248c2.393,1.549,4.784,6.998,7.37,2.637c0.183-0.308,0.533,0.24,0.771,0.37
	c0,14.686,0,27.988,0,42.556h0.035v214.136h-483V92.209V71.694V71.381z"/>
<path d="M10801.602,29.897c3.732,2.424,7.49,4.201,11.621,4.078c4.65-0.139,8.986,2.438,13.275,4.753
	c3.271,1.765,6.484,3.772,9.855,4.788h6.125c0.645-0.312,1.287-0.618,1.939-0.884c1.248-0.51,2.596-0.628,3.755-1.419
	c2.03-1.385,3.491-4.765,6.175-3.9c0.443,0.143,1.002-0.592,1.512-0.906s1.01-0.696,1.537-0.901
	c3.133-1.216,6.279-2.344,9.404-3.595c1.799-0.72,3.621-1.41,5.332-2.483c2.445-1.533,4.869-3.219,7.176-5.185
	c2.496-2.127,4.836-4.68,7.275-6.97c0.352-0.33,0.871-0.323,1.314-0.321c1.943,0.01,3.863-0.072,5.426-2.222
	c2.221-3.055,4.971-4.166,7.793-4.194c2.273-0.022,4.592,0.66,6.818,1.483c3.754,1.388,7.734,0.899,11.352,3.135
	c2.436,1.505,4.736,3.529,7.113,5.271c2.426,1.778,4.863,3.524,7.312,5.228c1.225,0.852,2.459,1.734,3.744,2.306
	c1.008,0.448,2.105,0.628,3.154,0.571c0.803-0.044,1.58-0.768,2.393-0.969c2.123-0.526,4.439-2.079,6.035,1.622
	c1.318,3.065,3.412,3.788,5.455,4.155c4.285,0.772,8.602,1.191,12.91,1.592c2.621,0.243,4.799-1.405,6.98-3.692
	c1.939-2.034,4.318-3.098,6.525-4.509c0.648-0.414,1.439-0.352,2.047-0.853c2.277-1.879,4.447-4.087,6.77-5.815
	c2.311-1.721,4.625-3.595,7.4-3.059c0.992,0.19,2.059-0.369,3.074-0.697c2.797-0.901,5.564-2.07,8.385-2.689
	c1.014-0.223,2.15,0.785,3.221,1.296c1.441,0.688,2.863,1.477,4.309,2.143c0.572,0.265,1.188,0.419,1.783,0.438
	c0.666,0.021,1.426,0.113,1.984-0.312c2.471-1.885,4.91-2.935,7.535-0.67c0.457,0.395,1.076,0.317,1.594,0.585
	c0.438,0.228,0.887,0.541,1.244,0.981c2.535,3.124,4.941,6.529,7.611,9.35c1.461,1.544,3.303,2.154,5.182,0.705
	c3.535-2.729,7.078-5.473,10.727-7.814c1.582-1.016,3.523-0.67,5.139-1.604c3.941-2.276,7.637-0.428,11.088,1.814
	c2.031,1.32,3.998,2.455,6.146,3.123c2.688,0.836,5.254,0.121,7.76-1.141c1.637-0.822,3.15-2.206,4.76-3.17
	c3.203-1.915,6.447-3.674,9.654-5.572c2.441-1.445,4.701-3.619,7.424-3.871c4.143-0.384,7.779,2.549,11.629,4.063
	c1.996,0.785,3.875,2.412,5.885,2.925c1.541,0.394,3.51,0.379,4.738-0.803c1.404-1.351,2.711-2.756,4.32-3.488
	c0.557-0.254,1.184-0.709,1.531-1.375c1.113-2.125,2.48-2.411,4.105-1.941c1.709,0.494,3.441,0.777,5.164,1.159
	c0.215,0.048,0.447,0.069,0.639,0.209c2.236,1.622,4.412,3.479,6.713,4.845c2.523,1.497,4.199,5.056,6.975,6.046
	c1.555,0.555,2.826,0.974,4.184-0.487c0.672-0.724,1.395-1.748,2.135-1.837c3.387-0.405,6.801-0.321,10.178-0.84
	c1.68-0.258,3.404,0.05,5.055-1.699c2.227-2.357,4.705-3.769,7.6-1.541c1.188,0.914,2.488,2.801,4.16,1.605
	c1.242-0.889,2.441-0.794,3.568,0.594c0.326,0.402,0.811,0.682,1.229,0.7c2.738,0.127,4.893,2.226,7.104,4.435
	c1.521,1.521,3.311,2.492,5.049,3.404c2.16,1.135,4.516,1.55,6.551,3.037c1.652,1.208,3.251,1.843,5.02,1.987
	c0.98,0.08,2.064,0.026,2.9,0.658c0.945,0.713,1.551,0.514,2.406-0.202c1.619-1.354,3.266-2.616,5.279-1.516
	c0.627,0.343,1.701,0.011,2.219-0.656c1.771-2.279,3.645-2.869,5.582-1.025c1.521,1.446,2.691,0.634,3.928-0.576
	c0.842-0.822,1.623-1.808,2.502-2.517c1.062-0.858,2.172-1.666,3.324-2.141c0.303-0.125,1.148,0.488,1.393,0.981v48.474l0,0v213.307
	h-451V43.911c-0.006,0-0.01,0-0.016,0c0-5.17,0-9.976,0-14.944C10799.145,29.271,10800.486,29.174,10801.602,29.897z"/>
<path fill-rule="evenodd" clip-rule="evenodd" d="M11255.853,131.517c0-36.25,0-71.297,0-107.559c1.185,0,2.223-0.621,3.877-0.509
	c3.5,0.234,7.003,0.983,10.501,0.679c3.427-0.299,6.847-1.85,10.274-2.478c2.919-0.533,5.918,1.025,8.747-1.146
	c4.163-3.198,8.215-0.616,11.907,4.65c4.932,7.037,9.965,7.697,14.932,7.686c5.98-0.017,11.962-4.249,17.941-6.743
	c4.795-1.998,9.578-4.494,14.381-6.051c2.663-0.862,5.356-0.117,8.035-0.327c5.059-0.394,10.117-1.117,15.176-1.401
	c5.108-0.284,10.219-0.28,15.328-0.261c3.486,0.015,6.976,0.027,10.46,0.523c1.878,0.266,3.743,1.999,5.622,2.275
	c3.902,0.577,7.817,1.405,11.711,0.673c3.755-0.703,7.48-4.026,11.236-4.735c3.212-0.605,6.445,1.004,9.672,1.33
	c0.963,0.098,1.951-1.551,2.896-1.164c6.045,2.476,12.092,4.961,18.114,8.125c3.935,2.069,7.829,5.331,11.745,7.979
	c3.625,2.451,7.11,5.454,10.627,11.111c3.828,6.158,8.362,5.097,12.557,7.938c3.433,2.328,7.363,2.4,10.102,9.467
	c4.578,11.813,9.549,12.528,14.484,15.525c4.414,2.675,8.959,2.287,13.328,5.669c8.036,6.219,16.166,6.197,24.266,7.839
	c7.654,1.554,15.335,1.03,22.998,2.058c3.202,0.429,6.391,2.508,9.584,3.822c1.807,0.745,3.61,1.749,5.423,2.132
	c3.282,0.687,6.57,1.052,9.857,1.446c2.268,0.272,4.543-0.045,6.8,0.66c2.365,0.734,4.723,2.158,7.066,3.663
	c4.096,2.631,8.18,5.539,12.268,8.365c2.402,1.66,4.787,4.238,7.207,4.919c5.875,1.651,11.768,2.398,17.652,3.594
	c1.363,0.274,2.725,0.764,4.081,1.354c2.362,1.021,4.712,2.701,7.079,3.208c4.807,1.032,9.622,1.29,14.43,2.183
	c5.055,0.941,10.111,2.218,15.605,3.465c3.949-0.208,11.004-0.588,11.127-0.647c1.479-1.501,2.954-3.067,4.441-4.426
	c5.168-4.726,10.346-9.293,15.513-14.04c4.063-3.731,8.097-8.017,12.181-11.348c3.276-2.674,6.709-2.909,9.891-6.678
	c5.548-6.566,11.034-4.562,16.631-2.623c4.121,1.426,8.424,2.972,12.423-0.115c8.351-6.442,16.728-9.865,25.196-10.883
	c1.62-0.194,3.251,0.349,4.861-0.183c7.643-2.526,15.281-2.306,22.96-5.01c0,12.113,0,22.724,0,33.43l0,0v176.724h-573.27V131.517
	H11255.853z"/>
<path fill-rule="evenodd" clip-rule="evenodd" d="M8116.916,48.956c3.316,0.805,6.627,1.778,9.953,2.3
	c1.396,0.22,2.886-1.263,4.225-0.702c4.376,1.834,8.701,4.264,13.049,6.442c2.619,1.313,5.221,2.936,7.871,3.788
	c3.156,1.016,6.366,1.186,9.535,2.047c2.46,0.669,4.943,3.008,7.33,2.521c4.128-0.844,8.203-3.16,12.271-5.145
	c1.922-0.937,3.799-3.778,5.656-3.613c7.027,0.628,14.033,2.334,21.057,3.232c3.674,0.47,7.369,0.097,11.055,0.115
	c2.396,0.012,4.793,0.033,7.189,0.067c2.861,0.042,5.748-0.432,8.574,0.289c3.5,0.892,6.88,3.51,10.521,1.651
	c2.053-1.047,4.248-1.178,6.367-1.008c4.475,0.358,8.941,1.695,13.411,1.693c6.101-0.003,12.212,1.291,18.284-2.541
	c3.499-2.207,7.322-1.754,10.952-3.121c4.234-1.596,8.508-2.479,12.469-7.295c2.881-3.503,6.216-5.296,9.716-3.214
	c1.973,1.173,4.058,1.455,6.099,2.014c4.362,1.196,8.743,2.114,13.091,3.522c3.283,1.064,6.506,3.414,9.796,3.955
	c7.028,1.155,13.831-2.213,20.598-6.199c4.062-2.395,8.16-2.79,12.321,0.562c3.645,2.935,7.488,4.701,11.273,6.71
	c5.434,2.883,10.922,5.273,16.334,8.333c4.298,2.428,8.445,6.474,12.789,8.135c6.701,2.56,13.512,3.698,20.277,5.417
	c0.352,0.091,0.715-0.065,1.072-0.039c2.17,0.152,4.428-0.463,6.486,0.686c2.611,1.456,4.957,1.349,7.514-0.502
	c2.261-1.639,4.734-1.771,7.07-2.981c5.243-2.716,10.425-6.065,15.699-8.413c3.182-1.418,6.493-1.358,9.738-2.131
	c1.397-0.332,2.851-2.018,4.145-1.486c3.686,1.513,7.284,4.022,10.95,5.802c2.829,1.373,5.692,2.537,8.568,3.255
	c4.053,1.01,8.177,0.919,12.186,2.416c3.931,1.468,7.806,4.795,11.646,0.108c3.275-4,6.495-5.312,10.133-2.464
	c3.268,2.561,6.646,4.521,10.023,6.294c3.66,1.919,7.373,3.354,11.072,4.88c0.365,0.15,0.833-0.399,1.199-0.843
	c2.111-2.562,4.211-5.17,6.305-7.803c5.538-6.96,11.564-5.504,17.545-5.14c1.582,0.099,3.183-0.352,4.758-0.823
	c1.53-0.461,3.086-2.147,4.547-1.763c3.777,0.997,7.531,2.611,11.248,4.449c1.711,0.845,3.456,2.283,4.928,4.353
	c2.092,2.944,3.861,7.001,5.935,10.027c1.196,1.746,2.679,2.917,4.102,3.446c3.77,1.404,7.578,2.286,11.368,3.438
	c3.502,1.066,6.995,2.302,10.502,3.295c2.323,0.658,4.727,0.434,6.984,1.624c7.754,4.085,15.354,9.321,23.506,9.103
	c4.232-0.113,8.461,1.629,11.351,2.481l0.606,0.16v175.34H8111.72V110.436V47.645C8113.562,48.111,8115.242,48.55,8116.916,48.956z"
	/>
</svg>
