<?xml version="1.0" encoding="utf-8"?>
<!-- Generator: Adobe Illustrator 16.0.4, SVG Export Plug-In . SVG Version: 6.00 Build 0)  -->
<!DOCTYPE svg PUBLIC "-//W3C//DTD SVG 1.1//EN" "http://www.w3.org/Graphics/SVG/1.1/DTD/svg11.dtd">
<svg version="1.1" id="Layer_1" xmlns="http://www.w3.org/2000/svg" xmlns:xlink="http://www.w3.org/1999/xlink" x="0px" y="0px"
	 width="1036px" height="285px" viewBox="0 0 1036 285" enable-background="new 0 0 1036 285" xml:space="preserve">
<path fill="#010101" d="M304.292,115.255V95.542c0.326-0.045,1.088-0.152,1.512-0.244c0.311-0.067,0.906-0.473,1.324-0.563
	c0.988-0.213,1.943-0.741,2.932-0.965c3.459-0.781,6.928-2.482,10.389-3.237c0.191-0.041,0.357-0.304,0.541-0.439
	c0.746-0.548,1.467-1.439,2.246-1.564c2.875-0.46,5.77-0.66,8.656-0.969c1.43-0.152,2.883-0.128,4.277-0.546
	c1.537-0.46,2.957-1.017,4.568-0.141c1.137,0.616,2.51,0.782,3.707,0.498c1.09-0.26,1.762,0.069,2.5,1.113
	c0.947,1.336,1.941,2.146,3.336,0.843c0.555-0.516,1.508-0.022,2.264-0.158c1.416-0.253,3.078-0.031,4.184-1.063
	c3.457-3.229,7.264-4.564,11.186-4.654c2.309-0.053,4.604,2.179,7.018,0.398c0.062-0.047,0.189,0.11,0.291,0.15
	c1.818,0.723,3.613,1.647,5.463,2.11c2.332,0.583,4.711,2.204,7.051-0.39c0.465-0.516,1.523-0.262,2.199,0.092
	c2.484,1.302,4.93,2.616,7.652,2.153c1.689-0.286,3.465-0.812,5.086-0.351c2.139,0.609,3.912-0.463,5.789-1.354
	c0.5-0.238,1-0.656,1.502-0.664c0.777-0.013,1.617,0.033,2.322,0.449c1.645,0.972,3.176,2.399,4.85,3.216
	c1.263,0.617,2.697,0.418,4.013,0.855c2.366,0.787,4.686,1.635,7.174,1.176c1.373-0.253,2.862,0.647,4.205,0.274
	c2.557-0.711,4.873,0.03,7.215,1.332c0.707,0.393,1.526,0.558,2.285,0.495c1.924-0.157,3.846-0.737,5.764-0.704
	c1.754,0.031,3.664,0.106,5.225,1.108c4.103,2.629,8.354,3.846,12.763,4.46c2.852,0.397,5.701,1.034,8.504,1.911
	c3.83,1.198,7.602,2.797,11.422,4.084c2.08,0.702,4.232,0.957,6.305,1.699c2.832,1.014,5.615,2.311,8.422,3.462
	c1.189,0.487,2.619,0.454,3.535,1.458c2.232,2.448,4.541,3.461,7.291,2.779c1.094-0.271,2.277-0.142,3.383,0.131
	c0.429,0.105,0.853,0.229,1.267,0.357l9.308,0.464c0.094-0.048,0.18-0.092,0.264-0.136c2.445-1.295,4.951-2.394,7.324-3.935
	c3.033-1.969,6.035-2.961,9.236-1.09c1.264,0.737,2.496,1.614,3.785,2.226c2.244,1.062,4.52,1.979,6.783,2.953l5.409-0.392
	c0.084-0.03,0.168-0.058,0.25-0.091c3.922-1.565,7.808-3.355,11.767-4.666c2.071-0.686,4.299-0.295,6.401-0.838
	c2.877-0.742,5.703-1.903,8.55-2.9c5.989-2.1,11.969-4.274,17.975-6.279c2.254-0.753,4.582-1.643,6.85-1.506
	c2.121,0.128,4.189,1.628,6.31,2.354c2.94,1.007,5.891,1.92,8.94,0.732c1.961-0.765,3.586-2.77,5.883-2.586
	c1.029,0.083,2.371-1.221,3.654-1.707c1.943-0.738,3.732-2.321,5.664-3.165c3.693-1.612,7.484-2.747,11.15-4.478
	c3.004-1.418,5.957-2.492,9.155-2.754c3.25-0.266,6.332-0.12,9.369,1.637c1.463,0.847,2.945,2.031,4.459,2.189
	c3.304,0.344,6.349,1.776,9.373,3.547c1.398,0.819,2.816,1.663,4.279,2.129c2.086,0.662,4.219,1.015,6.338,1.438
	c0.598,0.12,1.217,0.056,1.824,0.024c3.016-0.154,6.028-0.336,9.045-0.473c0.301-0.014,0.604,0.242,0.912,0.313
	c0.926,0.214,1.854,0.513,2.785,0.573c3.225,0.21,6.45,0.296,9.676,0.506c1.516,0.099,3.024,0.365,4.537,0.565
	c3.241,0.432,6.432,2.495,9.797,0.374c0,5.303,0,10.335,0,15.491c0,0.146,0,0.292,0,0.438V284.99H304.292V115.255z"/>
<g>
	<path fill="#818181" d="M297.324,104.103c-0.008-2.879-0.014-5.736-0.014-8.539c-6.084-1.5-12.099-4.685-18.244-7.067
		c-1.846-0.716-3.749,0.216-5.588-0.612c-2.25-1.012-4.454-3.185-6.689-4.656c-1.338-0.881-2.695-1.468-4.048-2.033
		c-4.62-1.928-9.24-3.842-13.863-5.652c-2.551-1-5.117-1.547-7.661-2.709c-6.939-3.167-13.771,2.727-20.684,2.677
		c-5.012-0.037-10.021,2.315-15.038,3.222c-2.551,0.461-5.119-0.318-7.668,0.168c-4.101,0.781-8.188,2.209-12.283,3.245
		c-2.336,0.592-4.679,1.128-7.02,1.354c-2.389,0.23-4.78-0.135-7.168,0.085c-7.615,0.704-15.232,1.312-22.845,2.452
		c-4.156,0.625-8.298,2.414-12.453,3.351c-1.914,0.433-3.844-0.021-5.766,0.104c-5.158,0.34-10.315,0.803-15.476,1.167
		c-6.021,0.426-12.042,0.612-18.061,1.267c-3.651,0.396-7.295,1.71-10.946,2.188c-2.868,0.375-5.743,0.103-8.615,0.109
		c-2.959,0.006-5.926,0.436-8.877-0.107c-3.812-0.702-7.61-2.264-11.42-3.284c-1.231-0.329-2.477,0.028-3.712-0.175
		c-6.911-1.143-13.827-2.113-20.73-3.689c-2.257-0.516-4.468-3.062-6.724-3.985c-3.988-1.636-7.902-3.94-12.018-0.342
		c-4.27,3.732-8.774,4.155-13.119,7.016c-0.217,0.143-0.432,0.307-0.648,0.46V285h297.376V104.103H297.324z"/>
	<path fill="#818181" d="M1034.486,55.209c-4.127,1.69-8.238,3.533-12.396,4.967c-2.981,1.028-6.021,1.533-9.041,2.194
		c-5.725,1.256-11.461,2.36-17.176,3.748c-1.359,0.331-2.756,1.194-3.965,2.39c-4.615,4.574-9.662,2.673-14.505,3.841
		c-8.69,2.098-17.241,6.113-25.864,9.209c-7.023,2.518-14.095,4.604-21.084,7.387c-3.806,1.515-7.701,3.275-11.166,6.366
		c-5.326,4.748-10.533,5.921-16.353,3.74c-6.682-2.505-13.534-5.305-20.274-5.033c-9.861,0.395-19.717,3.059-29.527,5.422
		c-7.197,1.734-14.279,5.256-21.49,6.578c-4.006,0.732-8.26-0.716-12.239-2.43c-5.074-2.186-9.904-6.278-14.986-8.364
		c-5.314-2.182-10.43-5.381-16.26-4.443c-6.883,1.106-13.924-1.698-20.892-1.576c-4.047,0.071-8.09,2.445-12.11,3.985
		c-4.24,1.624-8.437,3.614-12.679,5.183c-1.534,0.568-2.555,0.8-2.555,0.8c0.029,2.683,0.021,5.899,0,9.312v176.513h296.021V54.609
		C1035.461,54.808,1034.974,55.009,1034.486,55.209z"/>
</g>
<g>
	<path fill="#FFFFFF" d="M322.104,275.074l0.072,2.719l-0.108,0.145l-1.404,0.107l-0.108-0.125l0.054-2.846h-3.168l-1.35,0.035
		l-0.126-0.16v-1.188l4.482-6.48h1.692l-0.054,6.371h1.62l0.108,0.162l-0.09,1.297L322.104,275.074z M320.628,273.652v-4.229h-0.144
		l-2.916,4.229H320.628z"/>
	<path fill="#FFFFFF" d="M327.54,275.74c0,0.889-0.636,1.787-1.908,2.699l-0.594-0.539l-0.018-0.145
		c0.66-0.539,0.99-1.092,0.99-1.656c0-0.371-0.186-0.689-0.558-0.953v-0.162c0.444-0.287,0.882-0.484,1.314-0.594
		C327.282,274.764,327.54,275.213,327.54,275.74z"/>
	<path fill="#FFFFFF" d="M336.153,268.334c0.666,0.785,0.999,1.904,0.999,3.355c0,1.514-0.351,2.684-1.053,3.512
		c-0.702,0.828-1.701,1.24-2.997,1.24c-1.224,0-2.172-0.393-2.844-1.178c-0.672-0.787-1.008-1.895-1.008-3.322
		c0-1.521,0.357-2.701,1.071-3.535c0.714-0.834,1.719-1.252,3.015-1.252C334.548,267.156,335.487,267.549,336.153,268.334z
		 M330.69,271.816c0,2.006,0.84,3.008,2.52,3.008s2.52-0.973,2.52-2.916c0-2.041-0.846-3.061-2.538-3.061
		C331.524,268.848,330.69,269.838,330.69,271.816z"/>
	<path fill="#FFFFFF" d="M345.603,268.334c0.666,0.785,0.999,1.904,0.999,3.355c0,1.514-0.351,2.684-1.053,3.512
		c-0.702,0.828-1.701,1.24-2.997,1.24c-1.224,0-2.172-0.393-2.844-1.178c-0.672-0.787-1.008-1.895-1.008-3.322
		c0-1.521,0.357-2.701,1.071-3.535s1.719-1.252,3.015-1.252C343.998,267.156,344.937,267.549,345.603,268.334z M340.14,271.816
		c0,2.006,0.84,3.008,2.52,3.008c1.68,0,2.52-0.973,2.52-2.916c0-2.041-0.846-3.061-2.538-3.061
		C340.974,268.848,340.14,269.838,340.14,271.816z"/>
	<path fill="#FFFFFF" d="M355.053,268.334c0.666,0.785,0.999,1.904,0.999,3.355c0,1.514-0.351,2.684-1.053,3.512
		s-1.701,1.24-2.997,1.24c-1.224,0-2.172-0.393-2.844-1.178c-0.672-0.787-1.008-1.895-1.008-3.322c0-1.521,0.357-2.701,1.071-3.535
		c0.714-0.834,1.719-1.252,3.015-1.252C353.447,267.156,354.387,267.549,355.053,268.334z M349.589,271.816
		c0,2.006,0.84,3.008,2.52,3.008c1.68,0,2.52-0.973,2.52-2.916c0-2.041-0.846-3.061-2.538-3.061
		C350.423,268.848,349.589,269.838,349.589,271.816z"/>
	<path fill="#FFFFFF" d="M366.293,263.789l-0.108,1.387l-0.126,0.107c-0.516-0.229-0.978-0.344-1.386-0.344
		c-0.888,0-1.338,0.518-1.35,1.549l-0.018,1.549h2.124l0.054,0.125l-0.108,1.045h-2.088l-0.054,3.438l0.126,3.654h-1.836
		l0.108-3.492l-0.036-3.6h-1.242l-0.072-0.107l0.09-1.062h1.224l-0.018-1.242c-0.012-1.02,0.267-1.803,0.837-2.35
		c0.57-0.545,1.377-0.818,2.421-0.818C365.303,263.627,365.789,263.682,366.293,263.789z"/>
	<path fill="#FFFFFF" d="M367.463,272.23c0.036,1.873,0.828,2.809,2.376,2.809c0.78,0,1.59-0.252,2.43-0.756l0.162,0.107
		l-0.216,1.459c-0.84,0.408-1.68,0.611-2.52,0.611c-1.236,0-2.199-0.381-2.889-1.145c-0.69-0.762-1.035-1.803-1.035-3.121
		c0-1.346,0.36-2.402,1.08-3.178c0.72-0.773,1.686-1.162,2.898-1.162c0.959,0,1.704,0.283,2.232,0.848
		c0.528,0.562,0.792,1.344,0.792,2.34c0,0.312-0.024,0.611-0.072,0.898l-0.306,0.289H367.463L367.463,272.23z M370.739,269.539
		c-0.264-0.281-0.63-0.422-1.098-0.422c-0.552,0-1.008,0.174-1.368,0.521s-0.6,0.84-0.72,1.477l3.546-0.092l0.036-0.215
		C371.135,270.244,371.003,269.822,370.739,269.539z"/>
	<path fill="#FFFFFF" d="M375.725,272.23c0.036,1.873,0.828,2.809,2.376,2.809c0.78,0,1.59-0.252,2.43-0.756l0.162,0.107
		l-0.216,1.459c-0.84,0.408-1.681,0.611-2.52,0.611c-1.236,0-2.199-0.381-2.889-1.145c-0.69-0.762-1.035-1.803-1.035-3.121
		c0-1.346,0.36-2.402,1.08-3.178c0.72-0.773,1.686-1.162,2.898-1.162c0.96,0,1.704,0.283,2.232,0.848
		c0.528,0.562,0.792,1.344,0.792,2.34c0,0.312-0.024,0.611-0.072,0.898l-0.306,0.289H375.725L375.725,272.23z M379.001,269.539
		c-0.264-0.281-0.63-0.422-1.098-0.422c-0.552,0-1.008,0.174-1.368,0.521c-0.36,0.348-0.6,0.84-0.72,1.477l3.546-0.092l0.036-0.215
		C379.397,270.244,379.265,269.822,379.001,269.539z"/>
	<path fill="#FFFFFF" d="M387.119,274.59l0.18,0.125l-0.18,1.152c-0.66,0.312-1.272,0.49-1.836,0.539
		c-0.744-0.119-1.284-0.369-1.62-0.746c-0.336-0.379-0.504-0.928-0.504-1.646l0.072-1.297l-0.018-3.51h-1.134l-0.072-0.107
		l0.09-1.062h1.098v-1.314l1.62-0.611l0.162,0.145l-0.036,1.781h2.304l0.072,0.127l-0.09,1.045h-2.322l-0.09,4.518
		c-0.012,0.443,0.063,0.752,0.225,0.926c0.162,0.176,0.435,0.262,0.819,0.262C386.255,274.912,386.675,274.805,387.119,274.59z"/>
</g>
</svg>
