<?xml version="1.0" encoding="utf-8"?>
<!-- Generator: Adobe Illustrator 16.0.4, SVG Export Plug-In . SVG Version: 6.00 Build 0)  -->
<!DOCTYPE svg PUBLIC "-//W3C//DTD SVG 1.1//EN" "http://www.w3.org/Graphics/SVG/1.1/DTD/svg11.dtd">
<svg version="1.1" id="Layer_1" xmlns="http://www.w3.org/2000/svg" xmlns:xlink="http://www.w3.org/1999/xlink" x="0px" y="0px"
	 width="1036px" height="285px" viewBox="0 0 1036 285" enable-background="new 0 0 1036 285" xml:space="preserve">
<path d="M675.679,87.544V285H370.4V87.544c0-12.524,0-21.858,0-34.691c0.877,0.141,1.779-0.766,2.659-0.364
	c3.572,1.627,7.127-0.242,10.705-2.057c1.07-0.543,2.207,0.349,3.314,0.406c1.742,0.088,3.487-0.036,5.229,0.049
	c2.754,0.133,5.511,0.666,8.261,0.47c2.698-0.192,5.399-0.839,8.084-1.749c2.123-0.721,4.214-2.363,6.335-3.155
	c0.885-0.331,1.873-0.035,2.707,0.911c0.956,1.084,1.751,0.502,2.648-0.28c2.234-1.95,4.51-2.011,6.836-2.037
	c3.42-0.041,6.847-1.608,10.252-2.952c1.316-0.519,2.527-0.368,3.843,0.328c1.889,1,3.854,0.549,5.788,0.73
	c1.136,0.109,2.289-0.109,3.404,0.444c1.678,0.833,3.318,2.419,4.996,3.262c0.721,0.36,1.493-0.387,2.244-0.561
	c2.316-0.531,4.634-0.988,6.949-1.559c0.865-0.215,2.355-0.101,3.326-0.48c2.544,1.215,5.698,3.374,8.244,4.551
	c1.491,0.69,3.009,1.202,4.512,1.18c4.395-0.063,8.791-0.396,13.186-0.709c1.892-0.135,3.78-0.57,5.672-0.676
	c0.748-0.043,1.497,0.562,2.249,0.675c2.797,0.415,5.544-0.356,8.298-2.3c3.785-2.675,7.627-4.535,11.435-6.922
	c0.685-0.429,1.388-1.394,1.954-2.677c0.913-2.071,1.846-1.774,2.854-1.396c1.045,0.39,2.103,0.398,3.154,0.567
	c0.078,0.012,0.162-0.073,0.239-0.028c2.142,1.284,4.31,2.249,6.418,3.965c2.222,1.809,4.401,4.185,6.567,6.592
	c3.297,3.658,6.744,4.586,10.168,6.053c1.607,0.689,3.188,1.978,4.791,2.797c1.031,0.529,2.084,0.608,3.121,1.061
	c0.742,0.323,1.467,1.068,2.209,1.383c2.515,1.061,5.023,1.559,7.508,3.913c1.871,1.774,3.99,0.807,5.985,1.476
	c1.085,0.362,2.142,1.573,3.208,2.435c1.109,0.897,2.201,2.176,3.328,2.69c2.709,1.235,5.43,2.208,8.15,3.123
	c2.962,0.994,5.898,2.929,8.919,1.095c0.864-0.526,1.839,1.071,2.769,1.204c2.69,0.382,5.389,0.261,8.074,0.807
	c3.284,0.669,6.587-3.062,9.853,0.555c0.288,0.317,0.636,0.109,0.956,0.109c2.542,0.006,5.084-0.019,7.625,0.01
	c2.26,0.026,4.445,0.621,6.686,2.615c2.072,1.844,4.398,0.78,6.609,1.207c1.063,0.204,2.119,0.887,3.179,1.354
	c2.94,1.299,5.878,2.733,8.827,3.849c1.912,0.725,3.842,1.305,5.766,1.372c2.655,0.096,5.312-0.353,7.968-0.563
	c0.24-0.019,0.482-0.058,0.721,0.011C671.284,86.237,673.384,86.865,675.679,87.544"/>
<g>
	<path fill="#808080" d="M1035.463,52.712c-4.996-0.614-9.881,0.185-14.568,3.794c-0.443,0.341-1.055,0.497-1.486,0.207
		c-2.709-1.816-4.791,0.769-7.125,2.751c-2.088,1.773-4.51,2.34-6.82,2.96c-4.111,1.104-8.107,2.528-11.969,5.787
		c-2.357,1.989-5.137,2.175-7.713,3.283c-1.537,0.661-3.211,1.002-4.531,2.438c-2.635,2.862-5.438,2.807-8.309,3.446
		c-5.027,1.123-9.84-0.657-14.764-1.531c-3.939-0.7-7.994,1.276-12.008,1.521c-3.236,0.196-6.496-0.82-9.729-0.565
		c-3.252,0.258-6.312-1.816-9.723-0.906c-4.176,1.116-8.566-0.638-12.867-1.122c-2.047-0.23-4.107-0.191-6.141-0.636
		c-3.34-0.729-6.668-2.533-9.992-2.457c-4.13,0.094-8.244,1.771-12.377,2.505c-2.398,0.427-4.824,0.444-7.238,0.462
		c-2.574,0.019-5.148-0.28-7.723-0.258c-3.318,0.029-6.643,0.05-9.953,0.43c-2.637,0.303-5.395,0.367-7.859,1.9
		c-4.883,3.039-9.787,3.648-14.842,3.013c-1.141-0.144-2.312,1.068-3.49,1.359c-1.467,0.364-2.959,0.591-4.438,0.57
		c-2.407-0.035-4.812-0.297-7.218-0.508c-1.141-0.1-2.297-0.13-3.418-0.491c-2.395-0.774-4.773-1.746-7.158-2.627
		c-0.141-0.052-0.316-0.112-0.43-0.004c-3.951,3.775-7.957,0.289-11.824-0.37c-4.111-0.7-8.082-0.455-12.139,0.182
		c-1.309,0.205-2.695-1.32-4.043-2.064c-0.6-0.33-1.187-0.913-1.795-0.996c-4.328-0.59-8.658-1.263-12.996-1.514
		c-1.766-0.103-3.557,0.672-5.32,1.239c-2.467,0.795-4.92,2.509-7.377,2.489c-3.564-0.027-7.141-1.062-10.684-2.026
		c-2.463-0.67-4.688-2.682-7.43-1.326c-2.469,1.222-5.277-0.242-7.873,0.393c-5.213,1.272-10.281,0.323-15.414-1.429
		c-1.859-0.636-3.939,0.893-5.91,1.532c-2.113,0.685-4.262,1.19-6.312,2.312c-2.451,1.342-4.814,3.259-7.219,4.916
		c-0.498,0.343-1.164,1.189-1.484,0.866c-3.654-3.69-6.424,0.747-9.374,3.433c-0.522,0.475-0.989,1.151-1.437,1.753h-0.297V285h353
		V52.733C1035.584,52.728,1035.521,52.72,1035.463,52.712z"/>
	<path fill="#808080" d="M363.432,75.067c0-11.827,0-19.796,0-22.215c-2.434,0.459-4.893,1.582-7.093,2.758
		c-3.128,1.67-6.011,0.505-8.993-0.454c-0.742-0.239-1.559-0.416-2.279-0.153c-2.482,0.905-4.943,1.987-7.402,3.066
		c-1.034,0.454-2.116,0.841-3.053,1.654c-3.504,3.046-7.234,4.782-11.006,6.707c-4.66,2.377-8.623-0.374-12.861-1.482
		c-3.641-0.952-7.291-1.867-10.885-3.178c-3.297-1.202-6.594-2.603-9.771-4.473c-4.093-2.411-8.138-5.131-12.067-8.196
		c-2.312-1.805-4.486-1.244-6.779-0.653c-3.213,0.828-6.496,2.625-9.643,2.127c-8.092-1.281-15.701,2.001-23.408,4.94
		c-2.877,1.097-5.934,1.051-8.353,4.495c-0.222,0.316-0.761,0.355-1.054,0.146c-3.969-2.862-7.6,0.931-11.369,1.645
		c-4.411,0.834-8.76,2.584-13.168,3.431c-2.094,0.402-4.297-0.844-6.396-0.482c-2.054,0.354-4.031,0.139-6.061-0.015
		c-1.523-0.115-3.096,0.719-4.609,1.368c-3.412,1.466-6.793,3.125-10.201,4.62c-2.637,1.157-5.289,2.251-8.061,3.402h-0.002
		l-4.201,0.735l-4.801-0.19c-0.699-1.794-1.463-1.896-2.748-1.228c-1.262,0.658-2.768,0.124-4.16-0.03
		c-2.371-0.263-4.736-0.65-7.107-0.964c-1.506-0.199-3.088,0.063-4.508-0.62c-3.744-1.805-7.451-3.875-11.115-6.098
		c-3.686-2.236-7.262-4.975-10.967-7.107c-1.604-0.923-3.426-0.734-5.117-1.315c-1.67-0.574-3.352-1.26-4.936-2.285
		c-5.787-3.747-11.566-7.535-17.285-11.562c-2.475-1.742-4.793-4.097-7.18-6.178c-1.281-1.118-2.545-2.297-3.844-3.358
		c-2.141-1.751-4.293-3.471-6.463-5.122c-1.496-1.139-3.016-2.198-4.557-3.156c-0.336-0.208-0.838,0.04-1.207,0.299
		c-3.205,2.249-6.384,4.606-9.605,6.79c-0.711,0.48-1.562,0.586-2.344,0.549c-6.109-0.287-11.797,3.277-17.682,5.037
		c-5.494,1.642-10.77,5.82-16.557,4.541c-0.27-0.06-0.588,0.092-0.838,0.297c-2.172,1.775-4.09,0.964-6.361-0.32
		c-3.454-1.952-7.148-1.173-10.527,1.506c-1.74,1.381-3.447,2.907-5.162,4.389V285h363.785V75.067z"/>
</g>
<g>
	<path fill="#FFFFFF" d="M387.717,275.516l0.071,2.718l-0.107,0.144l-1.404,0.108l-0.107-0.126l0.054-2.844h-3.168l-1.351,0.035
		l-0.126-0.161v-1.188l4.482-6.479h1.692l-0.055,6.371h1.62l0.108,0.162l-0.09,1.296L387.717,275.516z M386.24,274.093v-4.229
		h-0.144l-2.916,4.229H386.24z"/>
	<path fill="#FFFFFF" d="M393.152,276.182c0,0.888-0.637,1.787-1.908,2.699l-0.594-0.54l-0.019-0.144
		c0.66-0.54,0.99-1.092,0.99-1.656c0-0.371-0.186-0.689-0.558-0.954v-0.162c0.443-0.287,0.882-0.485,1.313-0.594
		C392.895,275.203,393.152,275.653,393.152,276.182z"/>
	<path fill="#FFFFFF" d="M401.765,268.774c0.666,0.786,0.999,1.905,0.999,3.356c0,1.513-0.351,2.683-1.053,3.511
		s-1.701,1.241-2.997,1.241c-1.224,0-2.172-0.393-2.844-1.179s-1.008-1.893-1.008-3.321c0-1.523,0.356-2.702,1.071-3.536
		c0.713-0.834,1.719-1.251,3.015-1.251C400.16,267.596,401.099,267.988,401.765,268.774z M396.302,272.257
		c0,2.005,0.84,3.007,2.521,3.007c1.68,0,2.52-0.973,2.52-2.916c0-2.04-0.846-3.061-2.538-3.061
		C397.136,269.287,396.302,270.277,396.302,272.257z"/>
	<path fill="#FFFFFF" d="M411.215,268.774c0.666,0.786,0.999,1.905,0.999,3.356c0,1.513-0.351,2.683-1.053,3.511
		s-1.701,1.241-2.997,1.241c-1.224,0-2.172-0.393-2.844-1.179c-0.673-0.786-1.009-1.893-1.009-3.321
		c0-1.523,0.357-2.702,1.071-3.536s1.719-1.251,3.016-1.251C409.61,267.596,410.549,267.988,411.215,268.774z M405.752,272.257
		c0,2.005,0.84,3.007,2.521,3.007c1.68,0,2.52-0.973,2.52-2.916c0-2.04-0.846-3.061-2.538-3.061
		C406.586,269.287,405.752,270.277,405.752,272.257z"/>
	<path fill="#FFFFFF" d="M420.665,268.774c0.666,0.786,0.999,1.905,0.999,3.356c0,1.513-0.352,2.683-1.053,3.511
		c-0.702,0.828-1.701,1.241-2.997,1.241c-1.225,0-2.173-0.393-2.845-1.179s-1.008-1.893-1.008-3.321
		c0-1.523,0.357-2.702,1.071-3.536s1.719-1.251,3.015-1.251C419.06,267.596,419.999,267.988,420.665,268.774z M415.202,272.257
		c0,2.005,0.84,3.007,2.52,3.007s2.521-0.973,2.521-2.916c0-2.04-0.847-3.061-2.538-3.061
		C416.036,269.287,415.202,270.277,415.202,272.257z"/>
	<path fill="#FFFFFF" d="M431.905,264.229l-0.107,1.386l-0.126,0.108c-0.517-0.229-0.979-0.343-1.387-0.343
		c-0.888,0-1.338,0.517-1.35,1.549l-0.018,1.548h2.124l0.054,0.126l-0.108,1.044h-2.088l-0.054,3.438l0.126,3.654h-1.836
		l0.107-3.492l-0.035-3.6h-1.242l-0.072-0.108l0.09-1.062h1.225l-0.019-1.242c-0.012-1.02,0.267-1.803,0.837-2.349
		s1.377-0.819,2.421-0.819C430.916,264.067,431.401,264.121,431.905,264.229z"/>
	<path fill="#FFFFFF" d="M433.075,272.671c0.036,1.872,0.828,2.809,2.376,2.809c0.78,0,1.591-0.252,2.431-0.756l0.162,0.107
		l-0.217,1.458c-0.84,0.408-1.68,0.612-2.52,0.612c-1.236,0-2.199-0.381-2.889-1.144c-0.69-0.762-1.035-1.803-1.035-3.122
		c0-1.345,0.359-2.403,1.08-3.178c0.72-0.773,1.686-1.161,2.897-1.161c0.96,0,1.704,0.282,2.232,0.847
		c0.527,0.563,0.792,1.344,0.792,2.34c0,0.312-0.024,0.612-0.072,0.899l-0.306,0.288H433.075z M436.352,269.98
		c-0.264-0.282-0.63-0.423-1.098-0.423c-0.553,0-1.008,0.174-1.368,0.521c-0.36,0.349-0.601,0.84-0.72,1.477l3.546-0.091
		l0.036-0.216C436.748,270.686,436.615,270.263,436.352,269.98z"/>
	<path fill="#FFFFFF" d="M441.338,272.671c0.036,1.872,0.828,2.809,2.376,2.809c0.779,0,1.59-0.252,2.43-0.756l0.162,0.107
		l-0.216,1.458c-0.84,0.408-1.681,0.612-2.521,0.612c-1.235,0-2.199-0.381-2.889-1.144c-0.69-0.762-1.035-1.803-1.035-3.122
		c0-1.345,0.36-2.403,1.08-3.178c0.72-0.773,1.686-1.161,2.898-1.161c0.96,0,1.703,0.282,2.231,0.847
		c0.528,0.563,0.792,1.344,0.792,2.34c0,0.312-0.024,0.612-0.072,0.899l-0.306,0.288H441.338z M444.613,269.98
		c-0.264-0.282-0.63-0.423-1.098-0.423c-0.552,0-1.008,0.174-1.368,0.521c-0.359,0.349-0.6,0.84-0.72,1.477l3.546-0.091l0.036-0.216
		C445.01,270.686,444.877,270.263,444.613,269.98z"/>
	<path fill="#FFFFFF" d="M452.731,275.029l0.18,0.126l-0.18,1.152c-0.66,0.312-1.272,0.491-1.836,0.54
		c-0.744-0.12-1.284-0.369-1.62-0.747s-0.504-0.928-0.504-1.647l0.072-1.296l-0.019-3.51h-1.134l-0.072-0.108l0.09-1.062h1.099
		v-1.314l1.62-0.612l0.162,0.145l-0.036,1.782h2.304l0.072,0.126l-0.09,1.044h-2.322l-0.09,4.518
		c-0.013,0.444,0.062,0.753,0.225,0.927c0.162,0.175,0.435,0.262,0.819,0.262C451.867,275.354,452.287,275.245,452.731,275.029z"/>
</g>
</svg>
