<?xml version="1.0" encoding="utf-8"?>
<!-- Generator: Adobe Illustrator 16.0.4, SVG Export Plug-In . SVG Version: 6.00 Build 0)  -->
<!DOCTYPE svg PUBLIC "-//W3C//DTD SVG 1.1//EN" "http://www.w3.org/Graphics/SVG/1.1/DTD/svg11.dtd">
<svg version="1.1" id="Layer_1" xmlns="http://www.w3.org/2000/svg" xmlns:xlink="http://www.w3.org/1999/xlink" x="0px" y="0px"
	 width="1036px" height="285px" viewBox="0 0 1036 285" enable-background="new 0 0 1036 285" xml:space="preserve">
<path fill-rule="evenodd" clip-rule="evenodd" d="M724.812,68.503c-2.715-0.532-5.436-0.912-8.145-1.57
	c-2.969-0.72-5.92-1.811-8.889-2.486c-1.566-0.357-3.166,0.049-4.733-0.288c-3.222-0.689-6.428-1.764-9.649-2.454
	c-2.091-0.449-4.205-0.306-6.293-0.784c-2.13-0.488-4.23-1.564-6.359-2.1c-1.687-0.425-3.404-0.219-5.092-0.646
	c-3.944-1-7.871-2.384-11.818-3.287c-3.992-0.914-8.043-0.867-11.986-2.354c-2.275-0.856-4.607-0.316-6.897-2.839
	c-3.26-3.589-6.868-5.568-10.334-8.187c-0.611-0.463-1.253-0.916-1.889-0.989c-2.774-0.316-5.552-0.468-8.327-0.724
	c-1.625-0.15-3.254-0.251-4.871-0.613c-2.677-0.6-5.364-2.211-8.014-1.905c-3.533,0.408-6.408-3.033-9.401-6.035
	c-2.79-2.798-5.601-3.398-8.479-1.148c-2.519,1.969-4.963,4.457-7.512,6.17c-1.943,1.308-4,1.739-6.003,2.602
	c-3.112,1.338-6.214,2.114-9.245-0.855c-0.732-0.717-1.478-2.216-2.177-2.104c-2.577,0.413-5.147,1.206-7.701,2.133
	c-2.358,0.858-4.683,2.165-7.035,3.108c-3.776,1.516-7.567,2.845-11.345,4.356c-1.765,0.706-3.506,1.72-5.268,2.479
	c-2.002,0.862-4.043,1.338-6.014,2.459c-2.021,1.151-3.958,3.051-5.97,4.308c-2.048,1.279-4.167,1.976-6.209,3.286
	c-3.058,1.962-6.016,4.576-9.107,6.458c-4.119,2.51-8.288,3.178-12.436,3.703c-2.303,0.292-4.708-2.201-7.017-3.812
	c-4.34-3.024-8.643-6.333-12.964-9.5c-3.042-2.23-6.053-4.723-9.142-6.548c-3.077-1.816-6.232-2.95-9.353-4.378
	c-1.548-0.708-3.095-1.436-4.647-2.096c-1.417-0.604-2.848-1.059-4.26-1.707c-1.024-0.471-2.017-1.369-3.046-1.691
	c-1.748-0.547-3.522-0.652-5.271-1.188c-3.653-1.119-7.289-2.521-10.947-3.544c-1.228-0.342-2.562-0.403-3.741,0.312
	c-3.942,2.39-7.838,5.179-11.749,7.834c-2.348,1.594-4.55,5.045-7.197,2.806c-0.149-0.125-0.374,0.265-0.568,0.354
	c-2.689,1.223-5.341,3.075-8.145,2.313c-0.332-0.09-0.688,0.205-1.029,0.374c-2.888,1.434-5.776,2.879-8.664,4.314
	c-0.097,0.049-0.202,0.013-0.3,0.053c-2.445,1.004-4.893,1.964-7.332,3.036c-1.66,0.729-3.291,1.926-4.963,2.373
	c-3.526,0.939-7.035,1.752-10.388,4.77c-1.513,1.36-3.159,2.132-4.776,2.69c-4.814,1.664-9.771,1.351-14.406,5.466
	c-0.222,0.197-0.498,0.1-0.749,0.11c-5.599,0.231-11.197,0.456-16.796,0.692c-0.4,0.016-0.811-0.008-1.199,0.178
	c-2.965,1.414-5.925,2.875-8.236,4.004V285H728.03V75.412c0-2.081,0-3.878,0-6.15C726.883,68.988,725.85,68.706,724.812,68.503z"/>
<path fill-rule="evenodd" clip-rule="evenodd" fill="#808080" d="M315.651,75.397c-3.061-0.627-6.953-1.005-10.024-2.798
	c-2.897-1.69-5.805-3.127-8.673-5.479c-1.291-1.059-2.599-1.831-3.893-2.845c-2.067-1.618-4.128-3.34-6.192-5
	c-2.16-1.738-4.314-3.604-6.486-5.126c-1.333-0.935-2.714-1.016-4.042-2.03c-2.694-2.061-5.355-4.774-8.16-3.574
	c-0.305,0.131-0.634-0.312-0.945-0.607c-1.948-1.856-3.874-4.056-5.842-5.554c-2.838-2.162-5.705-3.86-8.563-5.679
	c-0.952-0.605-1.923-1.523-2.873-1.361c-4.919,0.837-9.834,2.11-14.753,2.966c-3.062,0.532-6.132,0.454-9.195,0.924
	c-1.648,0.252-3.341,0.343-4.923,1.8c-3.435,3.165-6.936,3.92-10.429,5.287c-2.489,0.974-4.956,2.701-7.431,4.142
	c-2.475,1.44-4.945,2.976-7.421,4.406c-2.369,1.369-4.745,2.558-7.11,4.008c-2.329,1.429-4.65,3.028-6.969,4.659
	c-2.638,1.854-5.273,3.769-7.904,5.766c-1.438,1.092-2.855,2.534-4.294,3.594c-2.001,1.473-4.015,2.721-6.021,4.094
	c-1.828,1.25-3.646,2.769-5.485,3.732c-1.33,0.696-2.69,0.596-4.034,1.002c-1.213,0.367-2.422,0.929-3.633,1.429
	c-0.355,0.146-0.708,0.347-1.061,0.569c-2.521,1.591-5.039,3.19-6.987,4.426h-5.705c-0.164-0.107-0.328-0.207-0.492-0.283
	c-1.801-0.83-3.654-0.518-5.35-3.61c-0.315-0.575-0.775-0.108-1.168-0.131c-0.347-0.02-0.695,0-1.04-0.087
	c-1.039-0.264-2.075-0.73-3.114-0.825c-1.681-0.155-3.413,0.855-5.035-0.276c-4.433-3.093-8.819-7.04-13.223-10.667
	c-1.22-1.005-2.411-2.176-3.685-0.475c-0.511,0.684-1.142,0.195-1.717,0.266c-1.35,0.165-2.699,0.421-4.049,0.499
	c-1.89,0.11-3.785,0.375-5.67,0.042c-1.605-0.282-3.203-1.933-4.802-1.887c-3.217,0.093-6.436,0.716-9.646,1.544
	c-1.672,0.432-3.323,1.885-4.99,2.664c-2.703,1.263-5.408,3.12-8.12,3.321c-3.486,0.26-6.981-0.867-10.472-1.402
	c-0.107-0.016-0.214-0.116-0.322-0.129c-1.691-0.187-3.383-0.379-5.075-0.542c-1.534-0.147-3.111,0.5-4.595-0.554
	c-3-2.128-5.959-0.458-8.927,0.149c-1.999,0.409-3.788,1.122-5.788,1.657c-2.319,0.62-5.596,0.239-7.919,0.678
	c-0.002,0-0.003,0.004-0.005,0.005v2.094c0.039,0.531,0.073,1.037,0.06,1.34c-0.089,2.161-0.045,4.398-0.037,6.713h-0.018V285
	h294.25v-39.417V88.763V75.397z"/>
<g>
	<path fill="#808080" d="M16.408,105.334l-0.008,0.499c0-9.01,0-17.243,0-26.734c-1.607,0.403-3.182,0.191-4.48,0.486
		c-4.008,0.907-8.015,1.828-12.023,2.686V286h16.512V105.334z"/>
	<path fill="#808080" d="M1031.584,23.432c-1.036,0.051-2.189,0.014-3.081,0.896c-4.815,4.766-9.562,9.827-14.347,14.725
		c-0.473,0.484-1.11,0.998-1.567,0.738c-4.728-2.693-8.841,1.353-12.45,6.22c-5.012,6.757-10.645,8.129-16.199,10.664
		c-1.671,0.763-3.427,1.287-4.95,2.76c-5.155,4.985-10.067,10.395-15.933,12.45c-5.661,1.984-11.693,0.238-17.025,6.079
		c-0.311,0.341-0.794-0.06-1.175,0.104c-1.368,0.584-2.786,0.953-4.079,1.969c-1.723,1.353-3.417,2.819-5.074,4.273l0,0
		l-9.572,1.507l0,0c-0.408-0.257-0.824-0.518-1.245-0.773c-1.735-1.054-3.454-2.271-5.218-3.058
		c-3.368-1.5-6.763-2.747-10.146-4.094c-3.941-1.57-7.885-3.138-11.827-4.695c-0.153-0.061-0.32,0.036-0.474-0.02
		c-3.314-1.185-6.705-1.83-9.92-3.718c-3.854-2.263-7.578-4.997-11.69-3.173c-0.874,0.387-1.871-0.218-2.798-0.522
		c-4.214-1.383-8.408-3.034-12.636-4.189c-5.7-1.558-11.445-2.455-17.126-4.236c-2.433-0.763-4.762-2.977-7.119-4.642
		c-2.576-1.82-4.99-4.136-7.908-4.104c-2.068,0.022-4.247-2.141-6.186-4.116c-2.037-2.078-3.93-4.873-5.731-7.756
		c-2.011-3.219-3.81-2.819-5.851-0.16c-2.116,2.759-4.307,5.377-6.59,7.487c-5.744,5.308-11.987,5.688-17.991,4.425
		c-5.134-1.079-9.859,1.05-14.663,3.054c-6.125,2.556-12.137,6.239-18.252,8.915c-6.051,2.648-11.104,5.648-17.178,8.08
		c-0.23,0.092-2.119,0.581-2.617,0.71V285h302.932V23.311C1034.459,23.334,1033.021,23.359,1031.584,23.432z"/>
</g>
<g>
	<path fill="#FFFFFF" d="M336.605,276.079l0.072,2.718l-0.108,0.144l-1.404,0.108l-0.108-0.126l0.054-2.844h-3.168l-1.35,0.035
		l-0.126-0.161v-1.188l4.482-6.479h1.692l-0.054,6.371h1.62l0.108,0.162l-0.09,1.296L336.605,276.079z M335.13,274.656v-4.229
		h-0.144l-2.916,4.229H335.13z"/>
	<path fill="#FFFFFF" d="M342.042,276.745c0,0.888-0.636,1.787-1.908,2.699l-0.594-0.54l-0.018-0.144
		c0.66-0.54,0.99-1.092,0.99-1.656c0-0.371-0.187-0.689-0.558-0.954v-0.162c0.444-0.287,0.882-0.485,1.314-0.594
		C341.783,275.767,342.042,276.217,342.042,276.745z"/>
	<path fill="#FFFFFF" d="M350.654,269.338c0.666,0.786,0.999,1.905,0.999,3.356c0,1.513-0.351,2.683-1.053,3.511
		c-0.702,0.828-1.701,1.241-2.997,1.241c-1.224,0-2.172-0.393-2.844-1.179c-0.672-0.786-1.008-1.893-1.008-3.321
		c0-1.523,0.357-2.702,1.071-3.536s1.719-1.251,3.015-1.251C349.049,268.159,349.988,268.552,350.654,269.338z M345.191,272.82
		c0,2.005,0.84,3.007,2.52,3.007c1.68,0,2.52-0.973,2.52-2.916c0-2.04-0.846-3.061-2.538-3.061
		C346.025,269.851,345.191,270.841,345.191,272.82z"/>
	<path fill="#FFFFFF" d="M360.104,269.338c0.666,0.786,0.999,1.905,0.999,3.356c0,1.513-0.351,2.683-1.053,3.511
		c-0.702,0.828-1.701,1.241-2.997,1.241c-1.224,0-2.172-0.393-2.844-1.179s-1.008-1.893-1.008-3.321
		c0-1.523,0.357-2.702,1.071-3.536s1.719-1.251,3.015-1.251C358.499,268.159,359.438,268.552,360.104,269.338z M354.641,272.82
		c0,2.005,0.84,3.007,2.52,3.007c1.68,0,2.52-0.973,2.52-2.916c0-2.04-0.846-3.061-2.538-3.061
		C355.475,269.851,354.641,270.841,354.641,272.82z"/>
	<path fill="#FFFFFF" d="M369.554,269.338c0.666,0.786,0.999,1.905,0.999,3.356c0,1.513-0.351,2.683-1.053,3.511
		s-1.701,1.241-2.997,1.241c-1.224,0-2.172-0.393-2.844-1.179c-0.672-0.786-1.008-1.893-1.008-3.321
		c0-1.523,0.357-2.702,1.071-3.536c0.714-0.834,1.719-1.251,3.015-1.251C367.949,268.159,368.888,268.552,369.554,269.338z
		 M364.091,272.82c0,2.005,0.84,3.007,2.52,3.007s2.52-0.973,2.52-2.916c0-2.04-0.846-3.061-2.538-3.061
		C364.925,269.851,364.091,270.841,364.091,272.82z"/>
	<path fill="#FFFFFF" d="M380.795,264.793l-0.108,1.386l-0.126,0.108c-0.516-0.229-0.978-0.343-1.386-0.343
		c-0.888,0-1.338,0.517-1.35,1.549l-0.018,1.548h2.124l0.054,0.126l-0.108,1.044h-2.088l-0.054,3.438l0.126,3.654h-1.836
		l0.108-3.492l-0.036-3.6h-1.242l-0.072-0.108l0.09-1.062h1.224l-0.018-1.242c-0.012-1.02,0.267-1.803,0.837-2.349
		s1.377-0.819,2.421-0.819C379.805,264.631,380.291,264.685,380.795,264.793z"/>
	<path fill="#FFFFFF" d="M381.965,273.234c0.036,1.872,0.828,2.809,2.376,2.809c0.78,0,1.59-0.252,2.43-0.756l0.162,0.107
		l-0.216,1.458c-0.84,0.408-1.68,0.612-2.52,0.612c-1.236,0-2.199-0.381-2.889-1.144c-0.69-0.762-1.035-1.803-1.035-3.122
		c0-1.345,0.36-2.403,1.08-3.178c0.72-0.773,1.686-1.161,2.898-1.161c0.96,0,1.704,0.282,2.232,0.847
		c0.528,0.563,0.792,1.344,0.792,2.34c0,0.312-0.024,0.612-0.072,0.899l-0.306,0.288H381.965z M385.241,270.544
		c-0.264-0.282-0.63-0.423-1.098-0.423c-0.552,0-1.008,0.174-1.368,0.521c-0.36,0.349-0.6,0.84-0.72,1.477l3.546-0.091l0.036-0.216
		C385.637,271.249,385.504,270.826,385.241,270.544z"/>
	<path fill="#FFFFFF" d="M390.227,273.234c0.036,1.872,0.828,2.809,2.376,2.809c0.78,0,1.59-0.252,2.43-0.756l0.162,0.107
		l-0.216,1.458c-0.84,0.408-1.68,0.612-2.52,0.612c-1.236,0-2.199-0.381-2.889-1.144c-0.69-0.762-1.035-1.803-1.035-3.122
		c0-1.345,0.36-2.403,1.08-3.178c0.72-0.773,1.686-1.161,2.898-1.161c0.96,0,1.704,0.282,2.232,0.847
		c0.528,0.563,0.792,1.344,0.792,2.34c0,0.312-0.024,0.612-0.072,0.899l-0.306,0.288H390.227z M393.503,270.544
		c-0.264-0.282-0.63-0.423-1.098-0.423c-0.552,0-1.008,0.174-1.368,0.521c-0.36,0.349-0.6,0.84-0.72,1.477l3.546-0.091l0.036-0.216
		C393.899,271.249,393.767,270.826,393.503,270.544z"/>
	<path fill="#FFFFFF" d="M401.621,275.593l0.18,0.126l-0.18,1.152c-0.66,0.312-1.272,0.491-1.836,0.54
		c-0.744-0.12-1.284-0.369-1.62-0.747s-0.504-0.928-0.504-1.647l0.072-1.296l-0.018-3.51h-1.134l-0.072-0.108l0.09-1.062h1.098
		v-1.314l1.62-0.612l0.162,0.145l-0.036,1.782h2.304l0.072,0.126l-0.09,1.044h-2.322l-0.09,4.518
		c-0.012,0.444,0.063,0.753,0.225,0.927c0.162,0.175,0.435,0.262,0.819,0.262C400.757,275.917,401.177,275.809,401.621,275.593z"/>
</g>
</svg>
