<?xml version="1.0" encoding="utf-8"?>
<!-- Generator: Adobe Illustrator 16.0.4, SVG Export Plug-In . SVG Version: 6.00 Build 0)  -->
<!DOCTYPE svg PUBLIC "-//W3C//DTD SVG 1.1//EN" "http://www.w3.org/Graphics/SVG/1.1/DTD/svg11.dtd">
<svg version="1.1" id="Layer_1" xmlns="http://www.w3.org/2000/svg" xmlns:xlink="http://www.w3.org/1999/xlink" x="0px" y="0px"
	 width="1036px" height="285px" viewBox="0 0 1036 285" enable-background="new 0 0 1036 285" xml:space="preserve">
<path fill-rule="evenodd" clip-rule="evenodd" d="M321.324,115.442c0.006,0,0.01,0,0.016,0v-0.247l4.561-0.82
	c2.211-0.733,4.531-2.073,6.904-3.043c1.107-0.453,2.154-1.23,3.275-1.555c2.701-0.779,5.471-0.612,8.205-1.714
	c1.98-0.799,4.426-1.582,6.502,0.358c1.15,1.075,2.203,0.654,3.453,0.36c3.012-0.708,6.072-1.123,9.125-1.39
	c1.762-0.153,3.547,0.233,5.322,0.334c0.732,0.042,1.475,0.04,2.203-0.059c4.543-0.615,9.031-0.679,13.484,1.178
	c1.471,0.613,3.135,0.48,4.711,0.469c0.789-0.005,1.582-0.481,2.365-0.78c2.992-1.138,6.002-2.2,8.965-3.467
	c1.998-0.854,3.875-2.333,5.9-2.938c3.041-0.908,6.186-1.026,8.902,1.565c1.988,1.897,3.914,3.469,6.426,2.06
	c0.17-0.095,0.393,0.01,0.587-0.024c4.046-0.704,8.106-1.313,12.138-2.161c2.729-0.573,5.463-1.259,8.113-2.292
	c4.137-1.611,8.211-3.525,12.295-5.38c2.029-0.922,4.012-2.038,6.036-2.988c2.466-1.158,4.956-2.222,7.429-3.35
	c1.598-0.729,3.172-2.029,4.783-2.109c1.668-0.083,3.418,0.813,5.043,1.613c2.516,1.236,4.936,2.827,7.432,4.136
	c2.812,1.474,5.869,2.309,8.445,4.316c3.08,2.4,6.375,2.924,9.682,3.852c1.875,0.526,3.687,1.482,5.523,2.256
	c0.979,0.412,1.938,0.937,2.934,1.254c3.252,1.037,6.663,1.25,9.688,3.496c0.271,0.201,0.67,0.153,1.006,0.121
	c3.859-0.374,7.717-0.84,11.582-1.106c1.041-0.072,2.109,0.683,3.156,0.643c3.068-0.119,6.135-0.41,9.199-0.71
	c1.695-0.167,3.383-0.497,5.074-0.738c2.029-0.289,4.055-0.688,6.09-0.801c1.674-0.094,3.361,0.296,5.037,0.229
	c3.58-0.144,7.16-0.437,10.738-0.687c0.379-0.026,0.795-0.058,1.125-0.279c3.111-2.092,6.412-2.867,9.857-2.95
	c2.502-0.06,4.939-0.628,7.029-2.786c0.348-0.359,0.947-0.744,1.281-0.572c1.893,0.976,3.717,2.192,5.611,3.166
	c0.855,0.439,1.896,0.938,2.711,0.653c1.783-0.623,3.551-1.528,5.184-2.687c2.434-1.728,4.863-2.555,7.547-1.362
	c1.277,0.568,2.678,0.797,3.832,1.655c1.299,0.967,2.432,1.373,3.869,0.645c2.65-1.344,5.346-2.349,8.229-1.125
	c1.426,0.604,2.865,0.616,4.4,0.119c1.875-0.607,3.857-0.602,5.791-0.889c2.002-0.297,4-0.649,6.004-0.933
	c1.764-0.249,3.531-0.522,5.301-0.627c2.08-0.123,4.164-0.054,6.244-0.111c1.096-0.029,2.217,0.028,3.275-0.272
	c1.85-0.525,3.66-1.307,5.492-1.956c0.279-0.1,0.586-0.045,0.873-0.114c2.959-0.715,5.904-1.573,8.879-2.125
	c2.859-0.53,5.75-0.769,8.629-1.088c1.021-0.113,2.088,0.133,3.072-0.169c1.957-0.603,3.811-0.463,5.703,0.433
	c0.992,0.471,2.139,0.967,3.119,0.727c2.232-0.546,4.258-2.078,6.74-1.359c2.045,0.592,4.246-1.488,6.387,0.22
	c0.281,0.223,0.838-0.162,1.258-0.311c2.062-0.729,4.121-1.473,6.242-2.232c0,8.528,0,16.896,0,25.382c0,0.094,0,0.186,0,0.279V285
	h-396V115.195C321.335,115.193,321.33,115.444,321.324,115.442z"/>
<g>
	<path fill="#808080" d="M1033.623,37.969c-2.996,0.069-5.961-0.533-8.916-3.429c-1.715-1.68-3.596-0.78-5.4-1.123
		c-0.557-0.105-1.121-0.278-1.662-0.765c-0.93-0.837-1.906-1.453-2.756-3.034c-2.018-3.765-4.051-0.944-6.078-1.211
		c-3.662-0.481-7.307-2.794-10.963-4.095c-1.52-0.541-3.072-1.09-4.578-0.483c-2.104,0.846-4.08,0.752-6.164-1.718
		c-1.516-1.796-3.275-0.372-4.926-0.649c-1.568-0.266-3.229,0.217-4.678-1.64c-1.441-1.851-2.719-1.021-4.031,0.121
		c-3.885,3.384-7.729,7.485-11.627,10.561c-2.336,1.843-4.752,2.153-7.121,3.418c-1.666,0.888-3.314,2.208-4.969,3.361
		c-3.613,2.517-7.211,5.396-10.84,7.446c-2.127,1.202-4.312,0.784-6.457,1.653c-2.719,1.104-6.846,2.885-9.539,4.719
		c-0.35-0.203-2.123-0.037-2.441-0.601c-2.355-4.188-4.59,1.106-6.889,1.395c-2.475,0.311-4.936,2.074-7.408,2.707
		c-4.877,1.247-9.766,1.805-14.635,3.312c-3.658,1.135-7.287,3.743-10.947,4.847c-1.934,0.584-3.902-0.752-5.857-1.02
		c-1.408-0.191-2.82-0.055-4.23-0.053c-0.355,0.001-0.711-0.017-1.064,0.085c-1.213,0.349-2.629-0.677-3.596,1.401
		c-2.527,5.425-5.303,5.611-7.979,6.813c-4.404,1.979-8.865,2.071-13.291,3.457c-3.527,1.105-7.041,2.947-10.561,4.486
		c-0.219,0.095-0.43,0.522-0.648,0.568c-3.463,0.734-6.928,1.371-10.389,2.149c-5.436,1.223-10.869,2.674-16.307,3.761
		c-3.58,0.717-7.168,1.117-10.752,1.383c-6.355,0.471-12.713,0.629-19.068,1.106c-7.758,0.582-15.516,1.328-23.271,2.064
		c-0.164,0.017-0.33,0.045-0.494,0.063c-5.516-0.057-17.207-0.412-17.207-0.412s-0.07,0.025-0.182,0.067c0-0.022,0-0.045,0-0.067
		c-3.799,0-7.375,0.377-11.174,0.377c0,0.241-0.221,0.105-0.221,0.347c0.018,0,0.035,0,0.053,0V285h312.051V37.66
		C1035.481,37.814,1034.552,37.947,1033.623,37.969z"/>
	<path fill="#808080" d="M314.357,120.865c0-0.211,0-0.409,0-0.615c0-1.74,0-3.325,0-5.055c-1.191,0.235-2.322,0.636-3.455,0.639
		c-1.52,0.004-3.037-0.349-4.56-0.457c-1.343-0.096-2.735-0.4-4.024-0.008c-1.538,0.47-2.959,1.754-4.488,2.364
		c-1.246,0.498-2.579,0.482-3.866,0.771c-1.675,0.378-3.335,1.014-5.017,1.199c-1.391,0.153-2.811-0.367-4.208-0.272
		c-2.781,0.189-5.561,0.454-8.335,0.818h-11.502c-1.63-0.273-3.381-0.559-5.141-0.801c-0.657-0.09-1.346,0.402-2.01,0.351
		c-4.173-0.323-8.344-0.705-12.512-1.11c-1.452-0.141-2.898-0.393-4.346-0.617c-3.712-0.578-7.436-1.028-11.127-1.821
		c-1.588-0.341-3.117-1.355-4.655-2.146c-2.468-1.269-4.874-2.875-7.392-3.832c-2.234-0.85-4.576-1.205-6.885-1.42
		c-2.604-0.242-5.051,0.816-7.449,2.479c-2.034,1.41-4.192,2.715-6.484,0.441c-0.759-0.752-1.846-0.86-2.801-1.036
		c-3.027-0.557-6.061-1.069-9.1-1.449c-0.742-0.093-1.542,0.271-2.271,0.628c-1.392,0.685-2.712,1.053-4.249,0.739
		c-4.146-0.846-8.34-1.133-12.494-1.903c-3.234-0.6-6.428-1.674-9.656-2.368c-1.34-0.287-2.759-0.46-4.078-0.122
		c-3.766,0.964-7.48,2.37-11.25,3.301c-2.459,0.608-4.978,0.955-7.469,0.941c-3.369-0.019-6.745-0.362-10.104-0.817
		c-2.862-0.386-5.701-1.15-8.556-1.701c-3.31-0.638-6.63-1.152-9.933-1.859c-2.393-0.514-4.758-1.308-7.146-1.871
		c-1.099-0.26-2.232-0.186-3.338-0.405c-3.732-0.744-7.361-2.169-10.982-3.701c-2.306-0.976-4.653-1.94-7.023-2.302
		c-3.164-0.482-6.369-0.377-9.557-0.521c-3.339-0.15-6.679-0.264-10.016-0.465c-1.014-0.061-2.02-0.383-3.033-0.538
		c-0.933-0.142-1.909-0.527-2.799-0.273c-3.35,0.955-5.936-1.944-8.824-3.483C40.21,91.492,38,91.09,35.852,90.833
		c-0.702-0.085-1.517,1.152-2.21,1.927c-1.331,1.486-2.553,3.215-3.942,4.555c-0.624,0.602-1.563,0.799-2.323,0.679
		c-2.477-0.394-4.938-0.997-7.4-1.562c-1.003-0.23-1.988-0.765-2.991-0.825c-2.144-0.13-4.294-0.043-6.44-0.039
		c-0.146,0-0.301,0.008-0.434,0.083c-1.704,0.952-3.377,2.062-5.118,2.817c-0.802,0.348-1.735-0.019-2.608-0.008
		c-0.363,0.005-0.766,0.023-1.08,0.252c-0.301,0.218-0.597,0.452-0.895,0.682V285h313.947V120.865z"/>
</g>
<g>
	<path fill="#FFFFFF" d="M338.325,275.079l0.072,2.718l-0.108,0.144l-1.404,0.108l-0.108-0.126l0.054-2.844h-3.168l-1.35,0.035
		l-0.126-0.161v-1.188l4.482-6.479h1.692l-0.054,6.371h1.62l0.108,0.162l-0.09,1.296L338.325,275.079z M336.849,273.656v-4.229
		h-0.144l-2.916,4.229H336.849z"/>
	<path fill="#FFFFFF" d="M343.761,275.745c0,0.888-0.636,1.787-1.908,2.699l-0.594-0.54l-0.018-0.144
		c0.66-0.54,0.99-1.092,0.99-1.656c0-0.371-0.186-0.689-0.558-0.954v-0.162c0.444-0.287,0.882-0.485,1.314-0.594
		C343.502,274.767,343.761,275.217,343.761,275.745z"/>
	<path fill="#FFFFFF" d="M352.374,268.338c0.666,0.786,0.999,1.905,0.999,3.356c0,1.513-0.351,2.683-1.053,3.511
		c-0.702,0.828-1.701,1.241-2.997,1.241c-1.224,0-2.172-0.393-2.844-1.179c-0.672-0.786-1.008-1.893-1.008-3.321
		c0-1.523,0.357-2.702,1.071-3.536s1.719-1.251,3.015-1.251C350.769,267.159,351.708,267.552,352.374,268.338z M346.911,271.82
		c0,2.005,0.84,3.007,2.52,3.007c1.68,0,2.52-0.973,2.52-2.916c0-2.04-0.846-3.061-2.538-3.061
		C347.745,268.851,346.911,269.841,346.911,271.82z"/>
	<path fill="#FFFFFF" d="M361.823,268.338c0.666,0.786,0.999,1.905,0.999,3.356c0,1.513-0.351,2.683-1.053,3.511
		c-0.702,0.828-1.701,1.241-2.997,1.241c-1.224,0-2.172-0.393-2.844-1.179s-1.008-1.893-1.008-3.321
		c0-1.523,0.357-2.702,1.071-3.536s1.719-1.251,3.015-1.251C360.218,267.159,361.157,267.552,361.823,268.338z M356.36,271.82
		c0,2.005,0.84,3.007,2.52,3.007s2.52-0.973,2.52-2.916c0-2.04-0.846-3.061-2.538-3.061
		C357.194,268.851,356.36,269.841,356.36,271.82z"/>
	<path fill="#FFFFFF" d="M371.273,268.338c0.666,0.786,0.999,1.905,0.999,3.356c0,1.513-0.351,2.683-1.053,3.511
		s-1.701,1.241-2.997,1.241c-1.224,0-2.172-0.393-2.844-1.179c-0.672-0.786-1.008-1.893-1.008-3.321
		c0-1.523,0.357-2.702,1.071-3.536c0.714-0.834,1.719-1.251,3.015-1.251C369.668,267.159,370.607,267.552,371.273,268.338z
		 M365.81,271.82c0,2.005,0.84,3.007,2.52,3.007s2.52-0.973,2.52-2.916c0-2.04-0.846-3.061-2.538-3.061
		C366.644,268.851,365.81,269.841,365.81,271.82z"/>
	<path fill="#FFFFFF" d="M382.514,263.793l-0.108,1.386l-0.126,0.108c-0.516-0.229-0.978-0.343-1.386-0.343
		c-0.888,0-1.338,0.517-1.35,1.549l-0.018,1.548h2.124l0.054,0.126l-0.108,1.044h-2.088l-0.054,3.438l0.126,3.654h-1.836
		l0.108-3.492l-0.036-3.6h-1.242l-0.072-0.108l0.09-1.062h1.224l-0.018-1.242c-0.012-1.02,0.267-1.803,0.837-2.349
		s1.377-0.819,2.421-0.819C381.524,263.631,382.01,263.685,382.514,263.793z"/>
	<path fill="#FFFFFF" d="M383.684,272.234c0.036,1.872,0.828,2.809,2.376,2.809c0.78,0,1.59-0.252,2.43-0.756l0.162,0.107
		l-0.216,1.458c-0.84,0.408-1.68,0.612-2.52,0.612c-1.236,0-2.199-0.381-2.889-1.144c-0.69-0.762-1.035-1.803-1.035-3.122
		c0-1.345,0.36-2.403,1.08-3.178c0.72-0.773,1.686-1.161,2.898-1.161c0.959,0,1.704,0.282,2.232,0.847
		c0.528,0.563,0.792,1.344,0.792,2.34c0,0.312-0.024,0.612-0.072,0.899l-0.306,0.288H383.684z M386.96,269.544
		c-0.264-0.282-0.63-0.423-1.098-0.423c-0.552,0-1.008,0.174-1.368,0.521c-0.36,0.349-0.6,0.84-0.72,1.477l3.546-0.091l0.036-0.216
		C387.356,270.249,387.224,269.826,386.96,269.544z"/>
	<path fill="#FFFFFF" d="M391.946,272.234c0.036,1.872,0.828,2.809,2.376,2.809c0.78,0,1.59-0.252,2.43-0.756l0.162,0.107
		l-0.216,1.458c-0.84,0.408-1.681,0.612-2.52,0.612c-1.236,0-2.199-0.381-2.889-1.144c-0.69-0.762-1.035-1.803-1.035-3.122
		c0-1.345,0.36-2.403,1.08-3.178c0.72-0.773,1.686-1.161,2.898-1.161c0.96,0,1.704,0.282,2.232,0.847
		c0.528,0.563,0.792,1.344,0.792,2.34c0,0.312-0.024,0.612-0.072,0.899l-0.306,0.288H391.946z M395.222,269.544
		c-0.264-0.282-0.63-0.423-1.098-0.423c-0.552,0-1.008,0.174-1.368,0.521c-0.36,0.349-0.6,0.84-0.72,1.477l3.546-0.091l0.036-0.216
		C395.618,270.249,395.486,269.826,395.222,269.544z"/>
	<path fill="#FFFFFF" d="M403.34,274.593l0.18,0.126l-0.18,1.152c-0.66,0.312-1.272,0.491-1.836,0.54
		c-0.744-0.12-1.284-0.369-1.62-0.747s-0.504-0.928-0.504-1.647l0.072-1.296l-0.018-3.51H398.3l-0.072-0.108l0.09-1.062h1.098
		v-1.314l1.62-0.612l0.162,0.145l-0.036,1.782h2.304l0.072,0.126l-0.09,1.044h-2.322l-0.09,4.518
		c-0.012,0.444,0.063,0.753,0.225,0.927c0.162,0.175,0.435,0.262,0.819,0.262C402.476,274.917,402.896,274.809,403.34,274.593z"/>
</g>
</svg>
