<?xml version="1.0" encoding="utf-8"?>
<!-- Generator: Adobe Illustrator 16.0.4, SVG Export Plug-In . SVG Version: 6.00 Build 0)  -->
<!DOCTYPE svg PUBLIC "-//W3C//DTD SVG 1.1//EN" "http://www.w3.org/Graphics/SVG/1.1/DTD/svg11.dtd">
<svg version="1.1" id="Layer_1" xmlns="http://www.w3.org/2000/svg" xmlns:xlink="http://www.w3.org/1999/xlink" x="0px" y="0px"
	 width="1036px" height="285px" viewBox="0 0 1036 285" enable-background="new 0 0 1036 285" xml:space="preserve">
<path d="M319.141,109.724c3.693,1.115,7.332,2.345,11.007,3.26c2.026,0.504,4.11,0.509,6.171,0.656
	c2.404,0.171,4.812,0.237,7.218,0.377c2.626,0.151,5.251,0.429,7.878,0.472c1.521,0.023,3.047-0.294,4.568-0.485
	c0.237-0.029,0.471-0.182,0.698-0.306c4.677-2.538,9.636-2.432,14.47-3.48c1.467-0.317,3.078,0.041,4.406-0.741
	c3.828-2.254,7.991-1.363,11.842-3.285c2.131-1.064,4.518-0.605,6.525-2.718c1.045-1.1,2.398-1.545,3.623-2.244
	c0.245-0.141,0.675-0.279,0.789-0.095c0.887,1.433,1.633,0.566,2.445-0.164c0.91-0.818,1.852-1.567,2.807-2.259
	c0.314-0.229,0.717-0.247,1.08-0.252c0.873-0.011,1.807,0.355,2.608,0.008c1.741-0.755,3.414-1.865,5.118-2.817
	c0.133-0.075,0.288-0.083,0.434-0.083c2.146-0.004,4.297-0.091,6.44,0.039c1.003,0.061,1.988,0.595,2.991,0.825
	c2.462,0.565,4.924,1.169,7.4,1.562c0.76,0.12,1.699-0.077,2.323-0.679c1.39-1.34,2.611-3.068,3.942-4.555
	c0.693-0.774,1.508-2.012,2.21-1.927c2.147,0.257,4.358,0.659,6.372,1.733c2.889,1.539,5.475,4.438,8.824,3.483
	c0.89-0.254,1.866,0.132,2.799,0.273c1.014,0.155,2.02,0.478,3.033,0.538c3.337,0.201,6.677,0.314,10.016,0.465
	c3.188,0.145,6.393,0.039,9.557,0.521c2.37,0.361,4.718,1.326,7.023,2.302c3.621,1.532,7.25,2.957,10.982,3.701
	c1.105,0.22,2.239,0.146,3.338,0.405c2.389,0.563,4.754,1.357,7.146,1.871c3.303,0.707,6.623,1.222,9.933,1.859
	c2.854,0.551,5.694,1.315,8.555,1.701c3.359,0.455,6.734,0.799,10.104,0.817c2.492,0.014,5.01-0.333,7.469-0.941
	c3.77-0.931,7.484-2.337,11.25-3.301c1.32-0.338,2.738-0.165,4.078,0.122c3.229,0.694,6.422,1.769,9.656,2.368
	c4.154,0.771,8.35,1.058,12.494,1.903c1.537,0.313,2.857-0.055,4.25-0.739c0.729-0.357,1.527-0.721,2.27-0.628
	c3.039,0.38,6.072,0.893,9.1,1.449c0.955,0.176,2.043,0.284,2.801,1.036c2.293,2.273,4.451,0.969,6.484-0.441
	c2.398-1.663,4.846-2.722,7.449-2.479c2.309,0.215,4.65,0.57,6.885,1.42c2.518,0.957,4.924,2.563,7.393,3.832
	c1.537,0.79,3.066,1.805,4.654,2.146c3.691,0.793,7.416,1.243,11.127,1.821c1.447,0.225,2.895,0.477,4.346,0.617
	c4.168,0.405,8.34,0.787,12.512,1.11c0.664,0.052,1.354-0.44,2.01-0.351c1.76,0.242,3.512,0.527,5.141,0.801h11.502
	c2.775-0.364,5.555-0.629,8.336-0.818c1.396-0.095,2.816,0.426,4.207,0.272c1.682-0.186,3.342-0.821,5.018-1.199
	c1.287-0.289,2.619-0.273,3.865-0.771c1.529-0.61,2.951-1.895,4.488-2.364c1.289-0.393,2.682-0.088,4.025,0.008
	c1.521,0.108,3.039,0.461,4.559,0.457c1.133-0.003,2.264-0.403,3.455-0.639c0,1.729,0,3.314,0,5.055c0,0.206,0,0.404,0,0.615V285
	h-397.5V120.746V109.724z"/>
<g>
	<path fill="#808080" d="M1032.213,99.682c-2.883-1.224-5.578-0.219-8.229,1.125c-1.438,0.729-2.57,0.322-3.869-0.645
		c-1.154-0.858-2.555-1.087-3.832-1.655c-2.684-1.192-5.113-0.365-7.547,1.362c-1.633,1.158-3.4,2.063-5.182,2.687
		c-0.816,0.285-1.857-0.214-2.713-0.653c-1.895-0.974-3.719-2.19-5.611-3.166c-0.334-0.172-0.934,0.213-1.281,0.572
		c-2.09,2.158-4.527,2.727-7.029,2.786c-3.445,0.083-6.746,0.858-9.857,2.95c-0.33,0.222-0.746,0.253-1.125,0.279
		c-3.578,0.25-7.158,0.543-10.738,0.687c-1.676,0.066-3.363-0.323-5.037-0.229c-2.035,0.113-4.061,0.512-6.09,0.801
		c-1.691,0.241-3.379,0.571-5.074,0.738c-3.064,0.3-6.131,0.591-9.199,0.71c-1.047,0.04-2.115-0.715-3.156-0.643
		c-3.865,0.267-7.723,0.732-11.582,1.106c-0.336,0.032-0.734,0.08-1.006-0.121c-3.025-2.246-6.436-2.459-9.688-3.496
		c-0.996-0.317-1.955-0.842-2.934-1.254c-1.836-0.773-3.648-1.729-5.523-2.256c-3.307-0.928-6.602-1.451-9.682-3.852
		c-2.576-2.008-5.633-2.843-8.445-4.316c-2.496-1.309-4.916-2.899-7.432-4.136c-1.625-0.8-3.375-1.696-5.043-1.613
		c-1.611,0.08-3.186,1.38-4.783,2.109c-2.473,1.128-4.963,2.191-7.428,3.35c-2.025,0.95-4.008,2.066-6.037,2.988
		c-4.084,1.854-8.158,3.769-12.295,5.38c-2.65,1.033-5.385,1.719-8.113,2.292c-4.031,0.848-8.092,1.457-12.137,2.161
		c-0.195,0.034-0.418-0.07-0.588,0.024c-2.512,1.409-4.438-0.162-6.426-2.06c-2.717-2.592-5.861-2.474-8.902-1.565
		c-2.025,0.604-3.902,2.084-5.9,2.938c-2.963,1.267-5.973,2.329-8.965,3.467c-0.783,0.299-1.576,0.775-2.365,0.78
		c-1.576,0.012-3.24,0.145-4.711-0.469c-4.453-1.856-8.941-1.793-13.484-1.178c-0.729,0.099-1.471,0.101-2.203,0.059
		c-1.775-0.101-3.561-0.487-5.322-0.334c-3.053,0.267-6.113,0.682-9.125,1.39c-1.25,0.294-2.303,0.715-3.453-0.36
		c-2.076-1.94-4.521-1.157-6.502-0.358c-2.734,1.102-5.504,0.935-8.205,1.714c-1.121,0.324-2.168,1.102-3.275,1.555
		c-2.373,0.97-4.693,2.31-6.904,3.043l-4.561,0.82c-0.004-0.002-0.01,0.249-0.016,0.247c0.006,0,0.01,0,0.016,0V285h312.268V99.977
		C1034.624,100.257,1033.412,100.19,1032.213,99.682z"/>
	<path fill="#808080" d="M312.174,109.66l-0.606-0.16c-2.89-0.853-7.118-2.595-11.351-2.481c-8.151,0.219-15.752-5.018-23.506-9.103
		c-2.258-1.19-4.661-0.966-6.984-1.624c-3.507-0.993-7-2.229-10.502-3.295c-3.79-1.152-7.599-2.034-11.368-3.438
		c-1.423-0.529-2.905-1.7-4.102-3.446c-2.073-3.026-3.843-7.083-5.935-10.027c-1.472-2.069-3.217-3.508-4.928-4.353
		c-3.717-1.838-7.471-3.452-11.248-4.449c-1.461-0.385-3.017,1.302-4.547,1.763c-1.575,0.472-3.176,0.922-4.758,0.823
		c-5.98-0.364-12.007-1.82-17.545,5.14c-2.094,2.633-4.193,5.241-6.305,7.803c-0.366,0.443-0.834,0.993-1.199,0.843
		c-3.699-1.526-7.412-2.961-11.072-4.88c-3.377-1.772-6.756-3.733-10.023-6.294c-3.638-2.848-6.857-1.536-10.133,2.464
		c-3.84,4.687-7.715,1.359-11.646-0.108c-4.009-1.497-8.133-1.406-12.186-2.416c-2.876-0.718-5.739-1.882-8.568-3.255
		c-3.666-1.779-7.265-4.289-10.95-5.802c-1.294-0.531-2.747,1.154-4.145,1.486c-3.245,0.772-6.557,0.713-9.738,2.131
		c-5.274,2.348-10.456,5.697-15.699,8.413c-2.336,1.21-4.81,1.343-7.07,2.981c-2.557,1.851-4.902,1.958-7.514,0.502
		c-2.059-1.148-4.316-0.533-6.486-0.686c-0.357-0.026-0.721,0.13-1.072,0.039c-6.766-1.719-13.576-2.857-20.277-5.417
		c-4.344-1.661-8.491-5.707-12.789-8.135c-5.412-3.06-10.9-5.45-16.334-8.333c-3.785-2.009-7.629-3.775-11.273-6.71
		c-0.142-0.113-0.283-0.213-0.424-0.318V285h312.283V109.66z"/>
</g>
<g>
	<path fill="#FFFFFF" d="M337.325,275.079l0.072,2.718l-0.108,0.144l-1.404,0.108l-0.108-0.126l0.054-2.844h-3.168l-1.35,0.035
		l-0.126-0.161v-1.188l4.482-6.479h1.692l-0.054,6.371h1.62l0.108,0.162l-0.09,1.296L337.325,275.079z M335.849,273.656v-4.229
		h-0.144l-2.916,4.229H335.849z"/>
	<path fill="#FFFFFF" d="M342.761,275.745c0,0.888-0.636,1.787-1.908,2.699l-0.594-0.54l-0.018-0.144
		c0.66-0.54,0.99-1.092,0.99-1.656c0-0.371-0.186-0.689-0.558-0.954v-0.162c0.444-0.287,0.882-0.485,1.314-0.594
		C342.502,274.767,342.761,275.217,342.761,275.745z"/>
	<path fill="#FFFFFF" d="M351.374,268.338c0.666,0.786,0.999,1.905,0.999,3.356c0,1.513-0.351,2.683-1.053,3.511
		c-0.702,0.828-1.701,1.241-2.997,1.241c-1.224,0-2.172-0.393-2.844-1.179c-0.672-0.786-1.008-1.893-1.008-3.321
		c0-1.523,0.357-2.702,1.071-3.536s1.719-1.251,3.015-1.251C349.769,267.159,350.708,267.552,351.374,268.338z M345.911,271.82
		c0,2.005,0.84,3.007,2.52,3.007c1.68,0,2.52-0.973,2.52-2.916c0-2.04-0.846-3.061-2.538-3.061
		C346.745,268.851,345.911,269.841,345.911,271.82z"/>
	<path fill="#FFFFFF" d="M360.823,268.338c0.666,0.786,0.999,1.905,0.999,3.356c0,1.513-0.351,2.683-1.053,3.511
		c-0.702,0.828-1.701,1.241-2.997,1.241c-1.224,0-2.172-0.393-2.844-1.179s-1.008-1.893-1.008-3.321
		c0-1.523,0.357-2.702,1.071-3.536s1.719-1.251,3.015-1.251C359.218,267.159,360.157,267.552,360.823,268.338z M355.36,271.82
		c0,2.005,0.84,3.007,2.52,3.007s2.52-0.973,2.52-2.916c0-2.04-0.846-3.061-2.538-3.061
		C356.194,268.851,355.36,269.841,355.36,271.82z"/>
	<path fill="#FFFFFF" d="M370.273,268.338c0.666,0.786,0.999,1.905,0.999,3.356c0,1.513-0.351,2.683-1.053,3.511
		s-1.701,1.241-2.997,1.241c-1.224,0-2.172-0.393-2.844-1.179c-0.672-0.786-1.008-1.893-1.008-3.321
		c0-1.523,0.357-2.702,1.071-3.536c0.714-0.834,1.719-1.251,3.015-1.251C368.668,267.159,369.607,267.552,370.273,268.338z
		 M364.81,271.82c0,2.005,0.84,3.007,2.52,3.007s2.52-0.973,2.52-2.916c0-2.04-0.846-3.061-2.538-3.061
		C365.644,268.851,364.81,269.841,364.81,271.82z"/>
	<path fill="#FFFFFF" d="M381.514,263.793l-0.108,1.386l-0.126,0.108c-0.516-0.229-0.978-0.343-1.386-0.343
		c-0.888,0-1.338,0.517-1.35,1.549l-0.018,1.548h2.124l0.054,0.126l-0.108,1.044h-2.088l-0.054,3.438l0.126,3.654h-1.836
		l0.108-3.492l-0.036-3.6h-1.242l-0.072-0.108l0.09-1.062h1.224l-0.018-1.242c-0.012-1.02,0.267-1.803,0.837-2.349
		s1.377-0.819,2.421-0.819C380.524,263.631,381.01,263.685,381.514,263.793z"/>
	<path fill="#FFFFFF" d="M382.684,272.234c0.036,1.872,0.828,2.809,2.376,2.809c0.78,0,1.59-0.252,2.43-0.756l0.162,0.107
		l-0.216,1.458c-0.84,0.408-1.68,0.612-2.52,0.612c-1.236,0-2.199-0.381-2.889-1.144c-0.69-0.762-1.035-1.803-1.035-3.122
		c0-1.345,0.36-2.403,1.08-3.178c0.72-0.773,1.686-1.161,2.898-1.161c0.959,0,1.704,0.282,2.232,0.847
		c0.528,0.563,0.792,1.344,0.792,2.34c0,0.312-0.024,0.612-0.072,0.899l-0.306,0.288H382.684z M385.96,269.544
		c-0.264-0.282-0.63-0.423-1.098-0.423c-0.552,0-1.008,0.174-1.368,0.521c-0.36,0.349-0.6,0.84-0.72,1.477l3.546-0.091l0.036-0.216
		C386.356,270.249,386.224,269.826,385.96,269.544z"/>
	<path fill="#FFFFFF" d="M390.946,272.234c0.036,1.872,0.828,2.809,2.376,2.809c0.78,0,1.59-0.252,2.43-0.756l0.162,0.107
		l-0.216,1.458c-0.84,0.408-1.681,0.612-2.52,0.612c-1.236,0-2.199-0.381-2.889-1.144c-0.69-0.762-1.035-1.803-1.035-3.122
		c0-1.345,0.36-2.403,1.08-3.178c0.72-0.773,1.686-1.161,2.898-1.161c0.96,0,1.704,0.282,2.232,0.847
		c0.528,0.563,0.792,1.344,0.792,2.34c0,0.312-0.024,0.612-0.072,0.899l-0.306,0.288H390.946z M394.222,269.544
		c-0.264-0.282-0.63-0.423-1.098-0.423c-0.552,0-1.008,0.174-1.368,0.521c-0.36,0.349-0.6,0.84-0.72,1.477l3.546-0.091l0.036-0.216
		C394.618,270.249,394.486,269.826,394.222,269.544z"/>
	<path fill="#FFFFFF" d="M402.34,274.593l0.18,0.126l-0.18,1.152c-0.66,0.312-1.272,0.491-1.836,0.54
		c-0.744-0.12-1.284-0.369-1.62-0.747s-0.504-0.928-0.504-1.647l0.072-1.296l-0.018-3.51H397.3l-0.072-0.108l0.09-1.062h1.098
		v-1.314l1.62-0.612l0.162,0.145l-0.036,1.782h2.304l0.072,0.126l-0.09,1.044h-2.322l-0.09,4.518
		c-0.012,0.444,0.063,0.753,0.225,0.927c0.162,0.175,0.435,0.262,0.819,0.262C401.476,274.917,401.896,274.809,402.34,274.593z"/>
</g>
</svg>
