<?xml version="1.0" encoding="utf-8"?>
<!-- Generator: Adobe Illustrator 16.0.4, SVG Export Plug-In . SVG Version: 6.00 Build 0)  -->
<!DOCTYPE svg PUBLIC "-//W3C//DTD SVG 1.1//EN" "http://www.w3.org/Graphics/SVG/1.1/DTD/svg11.dtd">
<svg version="1.1" id="Layer_1" xmlns="http://www.w3.org/2000/svg" xmlns:xlink="http://www.w3.org/1999/xlink" x="0px" y="0px"
	 width="1036px" height="285px" viewBox="0 0 1036 285" enable-background="new 0 0 1036 285" xml:space="preserve">
<path fill-rule="evenodd" clip-rule="evenodd" d="M331.045,86.554c3.32-0.58,6.643-1.298,9.969-1.534
	c3.174-0.225,6.482-1.38,9.498,0.527c4.248,2.688,8.322-0.26,12.467,0.061c2.701,0.209,5.406-0.091,8.107,0.043
	c1.854,0.092,3.828,1.772,5.529,0.549c2.922-2.102,5.693-0.541,8.455,0.657c3.225,1.401,6.299,1.162,9.387-1.585
	c0.797-0.708,1.697-1.168,2.52-0.943c1.596,0.438,3.162,1.598,4.754,2.17c2.068,0.741,4.152,1.142,6.223,1.794
	c4.029,1.268,8.045,3.118,12.117,1.307c0.561-0.248,1.135-0.841,1.682-0.695c5.182,1.384,9.912-3.971,14.809-6.898
	c2.26-1.351,4.559-2.319,6.857-3.101c1.789-0.61,3.67,0.036,5.391-1.141c2.098-1.437,4.119-0.779,5.957,1.058
	c2.512,2.511,4.779,2.205,7.16-0.536c2.592-2.984,5.393-2.926,8.137-3.178c1.301-0.121,2.621,1.38,3.926,1.318
	c1.938-0.092,3.867-1.095,5.807-1.359c1.08-0.148,2.193,0.887,3.256,0.574c4.566-1.343,9.125-2.909,13.678-4.558
	c2.109-0.763,4.197-1.9,6.295-2.868c1.771-0.818,3.549-1.532,5.309-2.503c0.805-0.443,1.623-1.129,2.342-2.166
	c1.59-2.29,3.043-5.391,4.697-7.221c2.902-3.211,5.689-0.415,8.417,2.439c0.525,0.549,1.047,1.43,1.586,1.532
	c4.545,0.86,8.855-0.716,12.502-8.991c0.771-1.749,1.602-2.891,2.748-1.899c0.613,0.529,1.387-0.254,2.086-0.479
	c2.895-0.933,5.801-3.029,8.652,0.6c0.6,0.765,1.184,1.652,1.801,2.291c3.006,3.104,6.088,3.301,9.223,1.697
	c0.781-0.4,1.648-0.958,2.375-0.44c3.158,2.238,6.289,4.764,9.408,7.348c3.309,2.738,6.604,5.508,10.125,5.353
	c1.982-0.087,3.965-0.039,5.947,0.01c0.373,0.009,0.76,0.196,1.117,0.499c1.904,1.608,3.709,1.732,5.457-1.507
	c0.602-1.115,1.416-1.4,2.131-2.085c1.322-1.264,2.705-2.219,3.949-3.901c1.387-1.878,2.787-2.27,4.129-0.715
	c2.572,2.98,5.119,6.188,7.578,9.786c2.129,3.116,4.074,7.124,6.193,10.291c0.939,1.404,2.094,2.049,3.18,2.417
	c1.188,0.401,2.428-0.315,3.607,0.153c3.084,1.224,6.145,2.867,9.219,4.271c2.75,1.256,5.639,1.399,8.23,3.839
	c4.973,4.682,9.945,8.878,15.211,10.231c0.062,0.016,0.121,0.092,0.182,0.186h4.963c0.883-0.491,1.99-1.094,3.115-1.484
	c1.34-0.465,2.703-0.479,4.059-0.521c1.793-0.058,3.586,0.102,5.379,0.072c1.461-0.026,2.92-0.355,4.377-0.261
	c2.279,0.146,4.555,0.58,6.832,0.812c1.885,0.191,3.775,0.077,5.654,0.438c1.053,0.202,2.092,0.691,3.135,0.945h2.225
	c0.418-0.135,0.838-0.364,1.262-0.72c2.664-2.232,5.406-3.794,8.121-5.569c1.348-0.879,2.711-1.587,4.037-2.355
	c0,2.773,0,5.622,0,8.645c0,0.191,0,0.377,0,0.57V285H324.848V87.85C326.965,87.4,329.004,86.91,331.045,86.554z"/>
<g>
	<path fill="#808080" d="M317.881,87.872c-5.424,0-10.24,0.121-14.779,0.202c-1.145,0.021-2.283,0.675-3.43,0.794
		c-8.872,0.921-17.746,1.691-26.616,2.689c-6.288,0.706-12.578,1.488-18.854,2.659c-2.359,0.439-4.734,1.633-7.012,3.246
		c-5.074,3.595-10.105,4.732-15.443,3.579c-4.744-1.024-9.602,1.545-14.416,1.79c-4.25,0.217-8.608,0.668-12.734-1.297
		c-3.925-1.871-7.504-1.606-11.42,0.038c-4.771,2.006-9.748,0.937-14.622,1.737c-9.002,1.479-18.011,2.945-26.984,5.175
		c-8.52,2.117-17.012,4.98-25.486,8.008c-0.933,0.333-1.848,0.944-2.757,1.666L96.7,119.854l0.018,0.004
		c-9.61-0.62-19.229-0.949-28.809-2.587c-5.912-1.009-11.698-5.829-17.603-7.896c-3.813-1.337-6.976-5.662-10.38-9.259
		c-2.691-2.843-5.857-2.901-8.762-4.7c-3.8-2.356-7.538-5.311-11.324-7.817c-2.863-1.895-5.73-3.931-8.65-5.13
		c-3.748-1.541-7.518-2.763-11.284-4.046V285h317.975V87.872z"/>
	<path fill="#808080" d="M1035.707,72.49c-0.412-0.005-0.83-0.342-1.238-0.3c-4.436,0.455-8.859-0.751-13.334,0.813
		c-2.785,0.973-5.727,0.361-8.682-1.24c-3.439-1.863-7.057-4.089-10.807-2.395c-0.383,0.173-0.883-0.341-1.291-0.694
		c-1.775-1.534-3.529-2.258-5.549-1.64c-1.273,0.391-2.684-0.756-4.023-1.301c-3.123-1.271-6.238-2.623-9.363-3.889
		c-1.627-0.66-3.258-1.533-4.906-1.728c-2.375-0.28-4.801-0.494-7.148,0.093c-4.629,1.155-9.213,2.961-13.828,4.343
		c-2.789,0.835-5.596,1.481-8.404,2.016c-1.461,0.277-2.977-0.23-4.41,0.25c-2.68,0.897-5.32,2.24-7.975,3.432
		c-1.334,0.601-2.707,2.042-3.98,1.755c-2.449-0.553-4.959-0.393-7.354-2.292c-1.219-0.966-2.738-0.611-4.123-0.646
		c-1.129-0.028-2.264,0.184-3.389,0.409c-2.855,0.571-5.719,1.056-8.557,1.877c-1.918,0.555-3.865,1.26-5.678,2.541
		c-3.107,2.194-6.408,3.283-9.326,6.658c-1.158,1.34-2.838,2.074-4.148,1.636c-3.092-1.032-5.611,2.056-8.387,3.239
		c-2.029,0.866-4.068,2.298-6.105,2.301c-1.973,0.002-3.67,0.71-5.447,2.236c-1.035,0.89-2.408,0.936-3.564,0.577
		c-5.342-1.658-10.762-2.929-15.314-9.503c-1.848-2.67-3.99-2.172-6.158-1.78c-2.064,0.374-4.162,0.14-6.246,0.076
		c-5.811-0.175-11.049-4.812-16.379-8.391c-3.713-2.493-7.344-1.964-11.064-1.57c-0.979,0.104-1.971-0.091-2.941,0.119
		c-1.221,0.265-2.42,1.077-3.637,1.157c-1.455,0.097-2.92-0.35-4.383-0.523c-0.904-0.108-1.811-0.194-2.717-0.208
		c-2.035-0.032-4.07-0.039-6.104-0.006c-0.953,0.017-1.92-0.002-2.857,0.266c-1.535,0.438-3.035,0.906-4.482-0.748
		c-0.334-0.384-0.793-0.452-1.197-0.501c-2.52-0.307-5.027-0.193-7.537-1.444c-1.658-0.826-3.512-0.149-5.275-0.247
		c-0.877-0.049-1.75-0.304-2.621-0.508c-0.598-0.14-1.191-0.535-1.783-0.5c-3.316,0.195-6.572,0.487-9.854,2.326
		c-3.844,2.152-7.914,2.767-11.871,4.186c-1.684,0.604-3.334,1.55-4.998,2.349c-2.516,1.207-5.041,2.354-7.541,3.672
		c-0.842,0.442-1.637,1.264-2.422,2.029c-2.098,2.045-4.277,7.881-6.756,8.84V285h315.355V72.491
		C1035.84,72.49,1035.773,72.491,1035.707,72.49z"/>
</g>
<g>
	<path fill="#FFFFFF" d="M340.418,275.079l0.072,2.718l-0.108,0.144l-1.404,0.108l-0.108-0.126l0.054-2.844h-3.168l-1.35,0.035
		l-0.126-0.161v-1.188l4.481-6.479h1.692l-0.054,6.371h1.62l0.108,0.162l-0.09,1.296L340.418,275.079z M338.942,273.656v-4.229
		h-0.144l-2.916,4.229H338.942z"/>
	<path fill="#FFFFFF" d="M345.854,275.745c0,0.888-0.636,1.787-1.908,2.699l-0.594-0.54l-0.018-0.144
		c0.66-0.54,0.99-1.092,0.99-1.656c0-0.371-0.186-0.689-0.558-0.954v-0.162c0.444-0.287,0.882-0.485,1.314-0.594
		C345.596,274.767,345.854,275.217,345.854,275.745z"/>
	<path fill="#FFFFFF" d="M354.467,268.338c0.666,0.786,0.999,1.905,0.999,3.356c0,1.513-0.351,2.683-1.053,3.511
		c-0.702,0.828-1.701,1.241-2.997,1.241c-1.224,0-2.172-0.393-2.844-1.179c-0.672-0.786-1.008-1.893-1.008-3.321
		c0-1.523,0.357-2.702,1.071-3.536c0.714-0.834,1.719-1.251,3.015-1.251C352.861,267.159,353.801,267.552,354.467,268.338z
		 M349.004,271.82c0,2.005,0.84,3.007,2.52,3.007c1.68,0,2.521-0.973,2.521-2.916c0-2.04-0.846-3.061-2.538-3.061
		C349.837,268.851,349.004,269.841,349.004,271.82z"/>
	<path fill="#FFFFFF" d="M363.917,268.338c0.666,0.786,0.999,1.905,0.999,3.356c0,1.513-0.351,2.683-1.053,3.511
		c-0.702,0.828-1.701,1.241-2.997,1.241c-1.224,0-2.172-0.393-2.844-1.179s-1.008-1.893-1.008-3.321
		c0-1.523,0.357-2.702,1.071-3.536s1.719-1.251,3.015-1.251C362.312,267.159,363.25,267.552,363.917,268.338z M358.454,271.82
		c0,2.005,0.84,3.007,2.52,3.007c1.68,0,2.52-0.973,2.52-2.916c0-2.04-0.846-3.061-2.538-3.061
		C359.288,268.851,358.454,269.841,358.454,271.82z"/>
	<path fill="#FFFFFF" d="M373.366,268.338c0.666,0.786,0.999,1.905,0.999,3.356c0,1.513-0.351,2.683-1.053,3.511
		s-1.701,1.241-2.997,1.241c-1.224,0-2.172-0.393-2.844-1.179c-0.672-0.786-1.008-1.893-1.008-3.321
		c0-1.523,0.357-2.702,1.071-3.536s1.719-1.251,3.015-1.251C371.761,267.159,372.7,267.552,373.366,268.338z M367.903,271.82
		c0,2.005,0.84,3.007,2.52,3.007s2.52-0.973,2.52-2.916c0-2.04-0.846-3.061-2.538-3.061
		C368.737,268.851,367.903,269.841,367.903,271.82z"/>
	<path fill="#FFFFFF" d="M384.607,263.793l-0.108,1.386l-0.126,0.108c-0.516-0.229-0.978-0.343-1.386-0.343
		c-0.889,0-1.338,0.517-1.35,1.549l-0.018,1.548h2.124l0.054,0.126l-0.108,1.044h-2.088l-0.054,3.438l0.126,3.654h-1.836
		l0.108-3.492l-0.036-3.6h-1.242l-0.072-0.108l0.09-1.062h1.224l-0.018-1.242c-0.012-1.02,0.267-1.803,0.837-2.349
		s1.377-0.819,2.421-0.819C383.617,263.631,384.103,263.685,384.607,263.793z"/>
	<path fill="#FFFFFF" d="M385.777,272.234c0.036,1.872,0.828,2.809,2.376,2.809c0.78,0,1.59-0.252,2.43-0.756l0.162,0.107
		l-0.216,1.458c-0.84,0.408-1.68,0.612-2.52,0.612c-1.236,0-2.199-0.381-2.889-1.144c-0.69-0.762-1.035-1.803-1.035-3.122
		c0-1.345,0.36-2.403,1.08-3.178c0.72-0.773,1.686-1.161,2.898-1.161c0.959,0,1.704,0.282,2.231,0.847
		c0.528,0.563,0.792,1.344,0.792,2.34c0,0.312-0.024,0.612-0.072,0.899l-0.306,0.288H385.777z M389.053,269.544
		c-0.264-0.282-0.63-0.423-1.098-0.423c-0.552,0-1.008,0.174-1.368,0.521c-0.36,0.349-0.6,0.84-0.72,1.477l3.546-0.091l0.036-0.216
		C389.449,270.249,389.317,269.826,389.053,269.544z"/>
	<path fill="#FFFFFF" d="M394.039,272.234c0.036,1.872,0.828,2.809,2.376,2.809c0.78,0,1.59-0.252,2.43-0.756l0.162,0.107
		l-0.216,1.458c-0.84,0.408-1.68,0.612-2.52,0.612c-1.236,0-2.199-0.381-2.889-1.144c-0.69-0.762-1.035-1.803-1.035-3.122
		c0-1.345,0.36-2.403,1.08-3.178c0.72-0.773,1.686-1.161,2.898-1.161c0.96,0,1.704,0.282,2.232,0.847
		c0.528,0.563,0.792,1.344,0.792,2.34c0,0.312-0.024,0.612-0.072,0.899l-0.306,0.288H394.039z M397.315,269.544
		c-0.265-0.282-0.63-0.423-1.098-0.423c-0.552,0-1.008,0.174-1.368,0.521c-0.36,0.349-0.6,0.84-0.72,1.477l3.546-0.091l0.036-0.216
		C397.711,270.249,397.579,269.826,397.315,269.544z"/>
	<path fill="#FFFFFF" d="M405.433,274.593l0.18,0.126l-0.18,1.152c-0.66,0.312-1.272,0.491-1.836,0.54
		c-0.744-0.12-1.284-0.369-1.62-0.747c-0.336-0.378-0.504-0.928-0.504-1.647l0.072-1.296l-0.018-3.51h-1.134l-0.072-0.108
		l0.09-1.062h1.098v-1.314l1.62-0.612l0.162,0.145l-0.036,1.782h2.304l0.072,0.126l-0.09,1.044h-2.322l-0.09,4.518
		c-0.012,0.444,0.063,0.753,0.225,0.927c0.162,0.175,0.435,0.262,0.819,0.262C404.569,274.917,404.989,274.809,405.433,274.593z"/>
</g>
</svg>
