<?xml version="1.0" encoding="utf-8"?>
<!-- Generator: Adobe Illustrator 16.0.4, SVG Export Plug-In . SVG Version: 6.00 Build 0)  -->
<!DOCTYPE svg PUBLIC "-//W3C//DTD SVG 1.1//EN" "http://www.w3.org/Graphics/SVG/1.1/DTD/svg11.dtd">
<svg version="1.1" id="Layer_1" xmlns="http://www.w3.org/2000/svg" xmlns:xlink="http://www.w3.org/1999/xlink" x="0px" y="0px"
	 width="1036px" height="285px" viewBox="0 0 1036 285" enable-background="new 0 0 1036 285" xml:space="preserve">
<path fill="#818181" d="M5.425,219.926l0.842-0.593c1.207-0.782,2.852-1.847,4.502-2.903c0.273-0.176,0.553-0.253,0.828-0.393
	c1.164-0.589,2.334-1.112,3.494-1.801c0.998-0.596,1.688-3.342,2.977-2.579c1.432,0.847,2.988-0.386,4.49-0.732
	c0.654-0.151,1.307-0.432,1.961-0.502c0.315-0.032,0.662,0.621,0.946,0.39c2.733-2.236,5.438-4.836,8.31-4.785
	c1.236,0.023,2.48-0.023,3.711-0.351c0.877-0.233,1.734-1.187,2.611-1.464c2.039-0.646,4.088-1.003,6.127-1.636
	c0.89-0.275,1.771-1.414,2.648-1.335c1.758,0.158,3.516,1.421,5.264,1.244c2.244-0.229,4.48-1.377,6.717-2.211
	c3.375-1.256,6.746-2.561,10.117-3.887c2.23-0.878,4.466-1.684,6.686-2.785c3.635-1.804,7.238-4.405,10.891-5.597
	c4.365-1.423,8.77-1.663,13.154-2.526c1.307-0.258,2.602-1.138,3.906-1.299c2.289-0.281,4.581-0.269,6.871-0.297
	c1.094-0.015,2.209,0.621,3.278,0.152c2.39-1.048,4.745-2.837,7.134-3.893c2.918-1.289,5.863-1.98,8.784-3.228
	c2.306-0.983,4.585-2.538,6.888-3.606c1.613-0.75,3.245-1.129,4.87-1.634c0.433-0.136,0.874-0.036,1.305-0.2
	c1.218-0.457,2.438-1.5,3.648-1.396c2.489,0.21,4.98,0.803,7.458,1.639c2.148,0.725,4.27,2.391,6.42,2.918
	c1.81,0.441,3.625-0.813,5.467-0.883c3.578-0.131,7.141-3.23,10.725-3.564c4.268-0.396,8.551,0.763,12.824,1.377
	c1.184,0.17,2.357,0.879,3.539,1.203c2.327,0.642,4.693,2.275,6.977,1.508c3.129-1.053,6.223-0.199,9.33-0.406
	c3.479-0.23,6.957-0.555,10.436-0.896c0.691-0.067,1.4-0.828,2.066-0.529c1.977,0.883,3.939,1.486,5.947,1.537
	c3.657,0.091,7.311,1.065,10.969,1.365c1.68,0.137,3.367-0.699,5.049-0.658c3.438,0.086,6.876,0.781,10.312,0.644
	c4.028-0.163,8.056-1.403,12.082-1.313c3.108,0.067,6.208,1.758,9.319,2.186c2.616,0.357,5.25,0.284,7.863-0.229
	c3.145-0.615,6.271-2.502,9.416-2.746c4.524-0.354,9.027-0.844,13.541-2.274c4.413-1.399,8.876-1.199,13.316-1.769
	c3.574-0.459,7.146-0.776,10.721-1.207c1.408-0.17,2.821,0.078,4.225,0.078c0,10.752,0,27.567,0,51.274c0,0.205,0,0.408,0,0.613V285
	H5.425V219.926z"/>
<path fill="#010101" d="M343.655,168.018c0.838-0.134,1.564-0.148,2.318-0.191c1.629-0.094,3.27,0.119,4.883-0.157
	c1.945-0.334,3.84-0.553,5.748,0.478c0.568,0.307,1.262,0.098,1.887-0.026c2.514-0.493,5.016-1.288,7.535-1.521
	c3.412-0.313,6.799,0.221,10.135,1.698c1.133,0.504,2.387,0.224,3.574,0.449c2.283,0.438,4.537-1.675,6.84-0.161
	c0.404,0.268,0.926,0.007,1.387,0.075c1.061,0.155,2.121,0.332,3.176,0.565c0.828,0.183,1.646,0.461,2.469,0.701
	c1.564,0.457,3.137,0.856,4.689,1.396c1.666,0.577,3.312,1.325,4.978,1.899c0.291,0.102,0.666-0.205,0.961-0.457
	c0.932-0.798,1.819-0.562,2.799-0.127c0.852,0.379,1.787,0.23,2.688,0.303c0.295,0.023,0.625-0.141,0.877,0.033
	c1.496,1.023,3,0.431,4.502,0.164c2.57-0.457,4.99-2.316,7.66-1.998c2.123,0.254,4.267,0.051,6.4,0.06
	c1.059,0.004,2.119,0.131,3.172,0.022c2.113-0.218,4.24-0.361,6.326-0.914c1.555-0.41,3.035-1.574,4.584-2.117
	c3.475-1.217,6.965-2.318,10.461-3.336c2.008-0.586,4.1-0.463,5.896-2.512c0.328-0.373,0.882-0.3,1.326-0.268
	c2.187,0.158,4.373-1.387,6.57,0.033c0.24,0.156,0.637-0.284,0.944-0.508c1.16-0.838,2.291-0.705,3.431,0.143
	c0.77,0.572,1.543,1.156,2.348,1.547c3.258,1.581,6.539,3.021,9.789,4.643c2.67,1.334,5.299,2.904,7.965,4.254
	c0.828,0.418,1.881,1.033,2.558,0.53c1.078-0.804,1.828-0.051,2.733,0.351c0.652,0.287,1.361,0.348,2.039,0.309
	c1.701-0.1,3.41-0.604,5.095-0.411c2.776,0.314,5.532,0.869,8.276-0.407c0.219-0.103,0.492,0.054,0.732,0.145
	c1.637,0.62,3.254,1.427,4.907,1.847c3.062,0.775,6.144,1.353,9.222,1.962c1.615,0.32,3.242,0.797,4.854,0.717
	c1.375-0.069,2.713-0.491,4.062,0.383c0.479,0.312,1.106,0.421,1.598,0.195c1.31-0.601,2.644-0.17,4.017-0.811
	c1.475-0.688,3.303,0.339,4.918,1.016c2.35,0.985,4.639,2.363,6.969,3.489c0.506,0.244,1.074,0.121,1.615,0.174
	c1.502,0.146,3.006,0.291,4.51,0.438l1.963,0.224h4.115c2.338-0.521,4.674-1.125,6.989-1.873c1.263-0.406,2.479-1.195,3.712-1.833
	c2.504-1.294,5.104-2,7.362-4.606c1.379-1.592,3.037-2.633,4.65-3.504c1.746-0.94,3.574-1.502,5.387-2.029
	c1.172-0.34,2.379-0.33,3.57-0.455c0.547-0.059,1.154,0.178,1.633-0.139c2.467-1.627,5.082-1.373,7.611-1.424
	c3.336-0.07,6.528-0.812,9.666-2.631c1.219-0.707,2.475-1.281,3.737-1.715c0.945-0.324,1.951-0.596,2.894-0.396
	c0.895,0.188,1.686,0.724,2.467-0.543c0.213-0.344,0.717-0.322,1.074-0.263c1.537,0.261,3.135,0.128,4.469,1.823
	c0.15,0.189,0.42,0.255,0.611,0.188c1.477-0.52,2.924,1.14,4.426,0.062c0.668-0.479,1.434-0.727,2.162-0.773
	c1.438-0.094,2.895,0.303,4.156-1.41c0.254-0.346,0.784-0.152,1.188-0.157c0.416-0.005,0.885,0.274,1.238,0.042
	c1.422-0.934,2.709-2.217,4.332-2.514c1.35-0.25,2.623-1.662,3.899-2.539c0.832,0.42,1.699,1.175,2.586,1.238
	c1.634,0.121,3.279-0.146,4.919-0.291c0.454-0.041,0.926-0.119,1.354-0.357c3.143-1.764,6.172-1.031,9.199,0.882
	c0.949,0.601,2.078,1.203,3.021,0.901c2.861-0.914,5.681-2.207,8.496-3.476c1.517-0.683,2.455-1.192,4.383-1.567
	c0,9.244,0,20.147,0,29.358c0,0.224,0,0.446,0,0.67V285h-344V183.35v-0.684c0-0.111,0-0.221,0-0.333v-14.315H343.655z"/>
<g>
	<path fill="#818181" d="M1033.509,83.588c-7.614,0.704-15.231,1.312-22.845,2.452c-4.156,0.625-8.298,2.414-12.453,3.351
		c-1.914,0.433-3.844-0.021-5.766,0.104c-5.158,0.34-10.315,0.803-15.477,1.167c-6.021,0.426-12.042,0.612-18.061,1.267
		c-3.651,0.396-7.295,1.71-10.946,2.188c-2.868,0.375-5.743,0.103-8.614,0.109c-2.959,0.006-5.927,0.436-8.878-0.107
		c-3.812-0.702-7.609-2.264-11.42-3.284c-1.23-0.329-2.477,0.028-3.712-0.175c-6.911-1.143-13.827-2.113-20.729-3.689
		c-2.257-0.516-4.468-3.062-6.725-3.985c-3.987-1.636-7.901-3.94-12.018-0.342c-4.271,3.732-8.774,4.155-13.119,7.016
		c-3.561,2.342-7.032,6.228-10.555,9.265c-3.808,3.282-7.608,6.67-11.446,9.463c-3.562,2.594-7.157,4.695-10.758,6.573
		c-2.618,1.367-5.271,2.003-7.905,2.994c-0.905,0.342-1.811,1.188-2.711,1.101c-5.918-0.578-11.832-1.561-17.75-1.964
		c-2.714-0.185-5.438,0.388-8.146,1.081c-3.354,0.857-6.689,2.517-10.044,3.264c-6.415,1.429-12.843,2.257-19.256,3.716
		c-5.638,1.281-11.271,2.805-16.892,4.751c-4.188,1.449-8.354,3.665-12.523,5.684c-4.003,1.938-7.993,4.086-11.993,6.095
		c-5.456,2.743-10.907,5.694-16.382,8.045c-2.548,1.095-5.141,0.951-7.712,1.438c-1.361,0.258-2.285,1.169-3.646,1.507
		c0,0-0.332,0.152-0.332,0.209l-0.281,0.083L694.32,285H1036V83.528C1035.17,83.513,1034.339,83.512,1033.509,83.588z"/>
</g>
<g>
	<path fill="#FFFFFF" d="M356.631,275.079l0.072,2.718l-0.108,0.145l-1.404,0.107l-0.108-0.126l0.054-2.844h-3.168l-1.35,0.034
		l-0.126-0.16v-1.188l4.482-6.479h1.692l-0.054,6.371h1.62l0.108,0.161l-0.09,1.297L356.631,275.079z M355.155,273.656v-4.229
		h-0.144l-2.916,4.229H355.155z"/>
	<path fill="#FFFFFF" d="M362.067,275.745c0,0.888-0.636,1.787-1.908,2.698l-0.594-0.539l-0.018-0.145
		c0.66-0.539,0.99-1.092,0.99-1.656c0-0.371-0.186-0.688-0.558-0.953v-0.162c0.444-0.287,0.882-0.485,1.314-0.594
		C361.809,274.768,362.067,275.217,362.067,275.745z"/>
	<path fill="#FFFFFF" d="M370.68,268.338c0.666,0.786,0.999,1.905,0.999,3.355c0,1.514-0.351,2.684-1.053,3.512
		s-1.701,1.24-2.997,1.24c-1.224,0-2.172-0.393-2.844-1.178c-0.672-0.787-1.008-1.894-1.008-3.322c0-1.522,0.357-2.701,1.071-3.535
		c0.714-0.834,1.719-1.251,3.015-1.251C369.075,267.159,370.014,267.552,370.68,268.338z M365.217,271.82
		c0,2.005,0.84,3.007,2.52,3.007c1.68,0,2.52-0.974,2.52-2.916c0-2.04-0.846-3.062-2.538-3.062
		C366.051,268.852,365.217,269.841,365.217,271.82z"/>
	<path fill="#FFFFFF" d="M380.13,268.338c0.666,0.786,0.999,1.905,0.999,3.355c0,1.514-0.351,2.684-1.053,3.512
		c-0.702,0.828-1.701,1.24-2.997,1.24c-1.224,0-2.172-0.393-2.844-1.178c-0.672-0.787-1.008-1.894-1.008-3.322
		c0-1.522,0.357-2.701,1.071-3.535c0.714-0.834,1.719-1.251,3.015-1.251C378.525,267.159,379.464,267.552,380.13,268.338z
		 M374.667,271.82c0,2.005,0.84,3.007,2.52,3.007s2.52-0.974,2.52-2.916c0-2.04-0.846-3.062-2.538-3.062
		C375.501,268.852,374.667,269.841,374.667,271.82z"/>
	<path fill="#FFFFFF" d="M389.58,268.338c0.666,0.786,0.999,1.905,0.999,3.355c0,1.514-0.351,2.684-1.053,3.512
		c-0.702,0.828-1.701,1.24-2.997,1.24c-1.224,0-2.172-0.393-2.844-1.178c-0.672-0.787-1.008-1.894-1.008-3.322
		c0-1.522,0.357-2.701,1.071-3.535s1.719-1.251,3.015-1.251C387.975,267.159,388.914,267.552,389.58,268.338z M384.117,271.82
		c0,2.005,0.84,3.007,2.52,3.007c1.68,0,2.52-0.974,2.52-2.916c0-2.04-0.846-3.062-2.538-3.062
		C384.951,268.852,384.117,269.841,384.117,271.82z"/>
	<path fill="#FFFFFF" d="M400.821,263.793l-0.108,1.387l-0.126,0.107c-0.516-0.229-0.978-0.344-1.386-0.344
		c-0.889,0-1.338,0.518-1.351,1.55l-0.018,1.548h2.124l0.054,0.126l-0.107,1.044h-2.089l-0.054,3.438l0.126,3.654h-1.836
		l0.108-3.492l-0.036-3.6h-1.242l-0.072-0.107l0.09-1.062h1.224l-0.018-1.242c-0.013-1.02,0.267-1.803,0.837-2.349
		c0.569-0.546,1.377-0.819,2.421-0.819C399.831,263.631,400.316,263.686,400.821,263.793z"/>
	<path fill="#FFFFFF" d="M401.991,272.234c0.036,1.871,0.828,2.809,2.376,2.809c0.779,0,1.59-0.252,2.43-0.756l0.162,0.107
		l-0.216,1.457c-0.84,0.408-1.681,0.612-2.521,0.612c-1.235,0-2.198-0.381-2.889-1.144c-0.69-0.762-1.035-1.803-1.035-3.122
		c0-1.345,0.36-2.403,1.08-3.179c0.72-0.772,1.686-1.16,2.898-1.16c0.959,0,1.703,0.281,2.231,0.847
		c0.528,0.563,0.792,1.344,0.792,2.34c0,0.312-0.023,0.612-0.072,0.899l-0.306,0.287h-4.932V272.234z M405.267,269.544
		c-0.264-0.282-0.63-0.423-1.098-0.423c-0.552,0-1.008,0.174-1.368,0.521c-0.359,0.349-0.6,0.84-0.72,1.477l3.546-0.092l0.036-0.215
		C405.663,270.249,405.53,269.826,405.267,269.544z"/>
	<path fill="#FFFFFF" d="M410.252,272.234c0.036,1.871,0.828,2.809,2.376,2.809c0.78,0,1.59-0.252,2.43-0.756l0.162,0.107
		l-0.216,1.457c-0.84,0.408-1.681,0.612-2.52,0.612c-1.236,0-2.199-0.381-2.89-1.144c-0.689-0.762-1.035-1.803-1.035-3.122
		c0-1.345,0.36-2.403,1.08-3.179c0.721-0.772,1.687-1.16,2.898-1.16c0.96,0,1.704,0.281,2.231,0.847
		c0.528,0.563,0.793,1.344,0.793,2.34c0,0.312-0.024,0.612-0.072,0.899l-0.307,0.287h-4.932V272.234z M413.529,269.544
		c-0.265-0.282-0.63-0.423-1.099-0.423c-0.552,0-1.008,0.174-1.368,0.521c-0.359,0.349-0.6,0.84-0.72,1.477l3.546-0.092l0.036-0.215
		C413.925,270.249,413.792,269.826,413.529,269.544z"/>
	<path fill="#FFFFFF" d="M421.646,274.593l0.18,0.126l-0.18,1.152c-0.66,0.312-1.272,0.49-1.837,0.54
		c-0.743-0.12-1.283-0.369-1.619-0.747c-0.337-0.378-0.505-0.928-0.505-1.646l0.072-1.297l-0.018-3.51h-1.135l-0.071-0.107
		l0.09-1.062h1.098v-1.314l1.62-0.611l0.162,0.145l-0.036,1.782h2.304l0.072,0.126l-0.09,1.044h-2.322l-0.09,4.519
		c-0.012,0.443,0.063,0.752,0.226,0.927c0.161,0.175,0.435,0.262,0.818,0.262C420.783,274.917,421.202,274.809,421.646,274.593z"/>
</g>
</svg>
