<?xml version="1.0" encoding="utf-8"?>
<!-- Generator: Adobe Illustrator 16.0.4, SVG Export Plug-In . SVG Version: 6.00 Build 0)  -->
<!DOCTYPE svg PUBLIC "-//W3C//DTD SVG 1.1//EN" "http://www.w3.org/Graphics/SVG/1.1/DTD/svg11.dtd">
<svg version="1.1" id="Layer_1" xmlns="http://www.w3.org/2000/svg" xmlns:xlink="http://www.w3.org/1999/xlink" x="0px" y="0px"
	 width="1036px" height="285px" viewBox="0 0 1036 285" enable-background="new 0 0 1036 285" xml:space="preserve">
<path d="M219.159,96.884c6.472-9.222,12.983-18.499,20.314-19.38c5.944-0.715,11.675-8.492,17.787-9.103
	c3.943-0.395,7.997-0.16,12.038-5.19c6.637-8.268,13.589-13.908,20.52-18.74c2.712-1.89,5.854-0.129,8.574,2.63
	c5.735,5.814,11.318,13.398,16.971,20.196c0.291,0.349,0.644,0.022,0.959,0.202c2.984,1.694,5.969,3.379,8.949,5.166
	c5.405,3.243,10.799,6.768,16.217,9.749c2.703,1.487,5.569,0.646,8.153,3.29c5.709,5.842,11.158,15.563,16.952,19.354
	c6.481,4.241,12.471,15.508,19.304,14.696c5.189-0.617,10.431-0.293,15.591,1.565c4.908,1.77,9.422-9.244,14.546-2.658
	c2.787,3.582,6.168,1.612,9.279,2.234c0.952,0.191,1.904,0.572,2.851,1.028c4.958,2.396,9.895,5.799,14.877,7.038
	c6.26,1.558,12.557,1.357,18.838,1.923c0.723,0.065,1.451-0.008,2.165,0.297c3.544,1.51,7.091,4.55,10.626,4.379
	c5.709-0.276,11.445,2.97,17.154-4.096c3.512-4.349,7.509-3.847,11.261-6.07c5.877-3.483,11.725-7.559,17.597-11.145
	c6.096-3.725,12.408-2.672,18.352-9.88c0.361-0.437,0.799-0.152,1.199-0.154c4.859-0.022,9.721,0.109,14.578-0.141
	c1.453-0.074,2.91-1.955,4.35-1.736c5.779,0.875,11.559,3.515,17.326,3.156c9.668-0.604,19.324-3.188,28.99-4.512
	c2.381-0.327,4.783,0.818,7.168,1.569c5.83,1.833,11.66,3.665,17.479,5.812c4.793,1.768,9.561,4.805,14.363,5.772
	c4.793,0.967,9.617,0.224,14.426-0.095c3.066-0.202,6.135-0.666,9.188-1.587c7.109-2.146,14.092,2.454,21.066,5.362
	c9.623,4.01,19.16,10.438,28.75,15.462c6.531,3.421,13.084,6.41,19.643,9.206c3.602,1.536,7.232,2.196,10.848,3.389
	c3.082,1.019,6.188,1.677,9.232,3.5c2.734,1.638,5.439,3.84,8.146,6.015l21.912,0.729l-0.002,0.002
	c1.266-0.839,2.531-1.604,3.803-1.742c8.334-0.893,16.674-1.268,25.012-1.798c9.035-0.578,21.327-1.322,30.381-1.636v130.263
	L846.873,285h-654V156.813c-0.021,0-0.039,0-0.06,0c0-13.052,0-24.865,0-36.815C201.888,115.229,210.682,108.961,219.159,96.884z"/>
<g>
	<path fill="#808080" d="M185.846,135c0-0.113,0-0.221,0-0.333c0-5.312,0-10.266,0-15.116c-2.943-1.264-5.875-2.141-8.759-3.882
		c-2.226-1.343-4.381-3.923-6.588-5.665c-1.82-1.435-3.664-2.549-5.507-3.625c-3.431-2.005-6.853-4.264-10.306-5.683
		c-2.637-1.083-5.48,0.68-7.939-1.898c-3.5-3.669-6.58,2.911-10.049,1.405c-4.693-2.037-9.558,0.426-14.35,0.686
		c-4.026,0.217-8.065,0.627-12.08-0.139c-3.267-0.621-6.494-3.278-9.761-4.275c-4.44-1.354-8.722-6.492-13.354-4.038
		c-2.727,1.444-5.634-0.545-8.451-1.362c-3.476-1.008-6.95-2.188-10.41-3.684c-4.051-1.754-8.073-4.296-12.133-5.722
		c-1.456-0.51-2.979,1.323-4.478,1.925c-1.195,0.48-2.532,1.99-3.571,0.796c-2.107-2.424-4.001-2.59-6.083,0.151
		c-2.392,3.152-4.652,2.165-7.119-1.666c-3.191-4.959-6.541-8.962-10.268-9.245c-3.046-0.23-6.057-3.691-9.111-5.006
		c-4.027-1.733-8.202-1.231-12.09-4.563c-1.146-0.981-2.225-1.218-3.27-1.029V285h185.675V135z"/>
	<path fill="#808080" d="M1029.73,110.719c-1.268-0.224-2.629,0.029-3.855,0.695c-3.768,2.052-7.499,4.368-11.23,6.673
		c-1.075,0.664-2.088,1.706-3.151,2.456c-3.896,2.745-7.716,6.138-11.728,7.934c-3.244,1.455-6.402,4.404-9.988,3.169
		c-1.52-0.521-3.211,1.1-4.842,1.44c-4.487,0.936-8.977,2.08-13.48,2.404c-2.543,0.184-5.106-1.357-7.675-1.631
		c-3.03-0.322-6.077-0.059-9.114-0.162c-1.424-0.049-2.842-0.479-4.266-0.531c-2.561-0.094-5.123-0.116-7.686-0.02
		c-6.051,0.229-12.104,0.508-18.154,0.855c-1.21,0.068-2.412,0.567-3.621,0.798c-5.947,1.131-11.262-3.497-16.689-6.971
		c-4.836-3.094-9.805-4.132-14.846-3.763c-1.126,0.082-2.584,1.127-3.268,2.724c-2.65,6.19-6.156,9.471-9.907,12.133
		c-4.616,3.274-9.18,6.896-13.878,9.648c-1.712,1.003-3.521,1.396-5.362,1.762l-3.132,0.609V285h182.313V112.396
		C1034.026,111.881,1031.884,111.1,1029.73,110.719z"/>
</g>
<g>
	<path fill="#FFFFFF" d="M211.954,275.958l0.072,2.718l-0.108,0.144l-1.404,0.108l-0.108-0.126l0.054-2.844h-3.168l-1.35,0.035
		l-0.126-0.161v-1.188l4.482-6.479h1.692l-0.054,6.371h1.62l0.108,0.162l-0.09,1.296L211.954,275.958z M210.479,274.535v-4.229
		h-0.145l-2.916,4.229H210.479z"/>
	<path fill="#FFFFFF" d="M217.39,276.624c0,0.888-0.636,1.787-1.908,2.699l-0.594-0.54l-0.018-0.144
		c0.66-0.54,0.99-1.092,0.99-1.656c0-0.371-0.187-0.689-0.559-0.954v-0.162c0.444-0.287,0.882-0.485,1.314-0.594
		C217.132,275.646,217.39,276.096,217.39,276.624z"/>
	<path fill="#FFFFFF" d="M226.003,269.217c0.666,0.786,0.999,1.905,0.999,3.356c0,1.513-0.351,2.683-1.053,3.511
		c-0.702,0.828-1.701,1.241-2.997,1.241c-1.224,0-2.172-0.393-2.844-1.179c-0.672-0.786-1.008-1.893-1.008-3.321
		c0-1.523,0.357-2.702,1.071-3.536s1.719-1.251,3.015-1.251C224.397,268.038,225.337,268.431,226.003,269.217z M220.54,272.699
		c0,2.005,0.84,3.007,2.52,3.007c1.68,0,2.521-0.973,2.521-2.916c0-2.04-0.846-3.061-2.538-3.061
		C221.374,269.729,220.54,270.72,220.54,272.699z"/>
	<path fill="#FFFFFF" d="M235.453,269.217c0.666,0.786,0.999,1.905,0.999,3.356c0,1.513-0.351,2.683-1.053,3.511
		c-0.702,0.828-1.701,1.241-2.997,1.241c-1.224,0-2.172-0.393-2.844-1.179s-1.008-1.893-1.008-3.321
		c0-1.523,0.357-2.702,1.071-3.536c0.713-0.834,1.719-1.251,3.015-1.251C233.848,268.038,234.787,268.431,235.453,269.217z
		 M229.99,272.699c0,2.005,0.84,3.007,2.52,3.007c1.68,0,2.52-0.973,2.52-2.916c0-2.04-0.846-3.061-2.538-3.061
		C230.824,269.729,229.99,270.72,229.99,272.699z"/>
	<path fill="#FFFFFF" d="M244.902,269.217c0.666,0.786,0.999,1.905,0.999,3.356c0,1.513-0.351,2.683-1.053,3.511
		s-1.701,1.241-2.997,1.241c-1.224,0-2.172-0.393-2.844-1.179c-0.672-0.786-1.008-1.893-1.008-3.321
		c0-1.523,0.356-2.702,1.071-3.536c0.713-0.834,1.719-1.251,3.015-1.251C243.298,268.038,244.236,268.431,244.902,269.217z
		 M239.439,272.699c0,2.005,0.84,3.007,2.521,3.007c1.68,0,2.52-0.973,2.52-2.916c0-2.04-0.846-3.061-2.538-3.061
		C240.273,269.729,239.439,270.72,239.439,272.699z"/>
	<path fill="#FFFFFF" d="M256.144,264.672l-0.108,1.386l-0.126,0.108c-0.516-0.229-0.978-0.343-1.386-0.343
		c-0.888,0-1.338,0.517-1.35,1.549l-0.018,1.548h2.124l0.054,0.126l-0.108,1.044h-2.088l-0.054,3.438l0.126,3.654h-1.836
		l0.108-3.492l-0.036-3.6h-1.242l-0.072-0.108l0.09-1.062h1.224l-0.018-1.242c-0.012-1.02,0.267-1.803,0.837-2.349
		c0.569-0.546,1.377-0.819,2.421-0.819C255.153,264.51,255.64,264.563,256.144,264.672z"/>
	<path fill="#FFFFFF" d="M257.313,273.113c0.036,1.872,0.828,2.809,2.376,2.809c0.78,0,1.59-0.252,2.43-0.756l0.162,0.107
		l-0.216,1.458c-0.84,0.408-1.68,0.612-2.52,0.612c-1.236,0-2.199-0.381-2.889-1.144c-0.69-0.762-1.035-1.803-1.035-3.122
		c0-1.345,0.36-2.403,1.08-3.178c0.72-0.773,1.686-1.161,2.898-1.161c0.96,0,1.704,0.282,2.232,0.847
		c0.528,0.563,0.792,1.344,0.792,2.34c0,0.312-0.024,0.612-0.072,0.899l-0.307,0.288H257.313z M260.589,270.423
		c-0.264-0.282-0.63-0.423-1.098-0.423c-0.552,0-1.008,0.174-1.368,0.521c-0.36,0.349-0.6,0.84-0.72,1.477l3.546-0.091l0.036-0.216
		C260.985,271.128,260.854,270.705,260.589,270.423z"/>
	<path fill="#FFFFFF" d="M265.575,273.113c0.036,1.872,0.828,2.809,2.376,2.809c0.78,0,1.59-0.252,2.43-0.756l0.162,0.107
		l-0.216,1.458c-0.84,0.408-1.68,0.612-2.52,0.612c-1.236,0-2.199-0.381-2.889-1.144c-0.69-0.762-1.035-1.803-1.035-3.122
		c0-1.345,0.36-2.403,1.08-3.178c0.72-0.773,1.686-1.161,2.898-1.161c0.96,0,1.704,0.282,2.232,0.847
		c0.527,0.563,0.792,1.344,0.792,2.34c0,0.312-0.024,0.612-0.072,0.899l-0.306,0.288H265.575z M268.852,270.423
		c-0.264-0.282-0.63-0.423-1.098-0.423c-0.552,0-1.008,0.174-1.368,0.521c-0.36,0.349-0.601,0.84-0.72,1.477l3.546-0.091
		l0.036-0.216C269.247,271.128,269.115,270.705,268.852,270.423z"/>
	<path fill="#FFFFFF" d="M276.969,275.472l0.18,0.126l-0.18,1.152c-0.66,0.312-1.272,0.491-1.836,0.54
		c-0.744-0.12-1.284-0.369-1.62-0.747s-0.504-0.928-0.504-1.647l0.072-1.296l-0.018-3.51h-1.134l-0.072-0.108l0.09-1.062h1.098
		v-1.314l1.62-0.612l0.162,0.145l-0.036,1.782h2.304l0.072,0.126l-0.09,1.044h-2.322l-0.09,4.518
		c-0.012,0.444,0.063,0.753,0.225,0.927c0.162,0.175,0.435,0.262,0.819,0.262C276.105,275.796,276.525,275.688,276.969,275.472z"/>
</g>
</svg>
