<?xml version="1.0" encoding="utf-8"?>
<!-- Generator: Adobe Illustrator 16.0.4, SVG Export Plug-In . SVG Version: 6.00 Build 0)  -->
<!DOCTYPE svg PUBLIC "-//W3C//DTD SVG 1.1//EN" "http://www.w3.org/Graphics/SVG/1.1/DTD/svg11.dtd">
<svg version="1.1" id="Layer_1" xmlns="http://www.w3.org/2000/svg" xmlns:xlink="http://www.w3.org/1999/xlink" x="0px" y="0px"
	 width="1036px" height="285px" viewBox="0 0 1036 285" enable-background="new 0 0 1036 285" xml:space="preserve">
<path fill-rule="evenodd" clip-rule="evenodd" d="M279.381,70.698c3.335-1.389,6.673-2.737,10.005-4.187
	c1.97-0.856,3.946-2.878,5.895-2.642c6.794,0.826,13.571,2.86,20.364,3.52c3.59,0.348,7.225-0.673,10.797-2.005
	c6.139-2.287,12.279-4.761,18.353-8.164c5.95-3.335,11.89-6.085,17.958-5.25c2.416,0.332,4.83,2.1,7.231,1.887
	c8.584-0.762,17.213,2.635,25.757-2.851c3.096-1.987,6.311-2.628,9.484-3.325c5.443-1.196,10.775-5.035,16.314-4.316
	c6.39,0.829,12.803-0.05,19.201,0.288c3.546,0.188,7.083,1.781,10.629,1.955c3.941,0.192,7.933,0.454,11.822-1.064
	c4.773-1.863,9.51-3.504,14.334-3.183c1.816,0.121,3.666-0.612,5.459-1.604c3.525-1.954,6.998-4.752,10.533-6.502
	c7.822-3.872,15.457,0.283,22.983,6.007c3.976,3.022,7.815,7.529,11.751,11.05c4.416,3.949,8.842,3.864,13.271-0.287
	c1.619-1.518,3.336-3.29,4.988-3.131c4.459,0.429,8.422-4.992,12.604-7.803c1.025-0.69,2.072-1.799,3.1-1.697
	c4.836,0.481,9.559-1.474,14.215-5.043c1.627-1.248,3.184-3.825,4.824-4.289c4.238-1.199,8.502-1.939,12.76-2.143
	c3.881-0.185,7.773,0.315,11.646,1.045c1.688,0.318,3.33,2.284,5.018,2.943c3.271,1.277,6.561,2.259,9.848,3.173
	c2.238,0.623,4.51,0.481,6.719,1.548c1.186,0.572,2.115,0.503,2.918-1.987c3.105-9.626,7.189-13.097,11.436-15.088
	c2.852-1.339,5.771-1.425,8.646-2.409c4.393-1.506,8.723-1.337,13.01,2.337c1.346,1.153,2.785,1.369,4.178,2.066
	c4.658,2.332,8.641-4.926,12.912-7.93c3.213-2.258,6.328-3.972,9.557-0.737c1.281,1.286,2.664,3.656,3.889,3.163
	c4.018-1.618,8.232-2.575,11.908-7.042c4.912-5.97,10.018-5.378,15.002-6.752c3.754-1.034,7.666,2.814,11.506,4.526
	c0.289,0.128,0.602,0.378,0.836,0.855c2.686,5.491,5.709,8.083,8.924,9.382c1.33,0.538,2.623,1.91,3.92,3.041
	c2.775,2.419,5.502,5.426,8.32,7.248c2.393,1.549,4.785,6.998,7.371,2.637c0.182-0.308,0.533,0.24,0.77,0.37
	c0,14.686,0,27.988,0,42.556h0.035V285h-483V91.526V71.012V70.698z"/>
<g>
	<path fill="#808080" d="M272.413,70.63L271.642,70c-3.561-2.448-7.516-3.904-11.398-7.093c-5.215-4.282-10.371-9.128-15.521-13.979
		c-3.342-3.146-6.777-5.283-9.846-10.896c-2.084-3.813-4.723-6.761-7.188-7.261c-7.188-1.456-14.414-1.58-21.625-2.053
		c-6.479-0.424-12.973,0.022-19.434-1.125c-4.693-0.835-9.303-0.908-13.877,2.017c-2.717,1.736-5.396,2.106-8.172,0.968
		c-2.08-0.855-4.229-1.111-6.334-0.792c-4.172,0.634-8.33,4.993-12.506-0.083c-0.359-0.438-0.842-0.124-1.27-0.125
		c-2.523-0.007-5.051-0.077-7.576,0.021c-1.744,0.068-3.494,0.737-5.23,0.5c-4.115-0.562-8.227-1.516-12.338-2.286
		c-5.324-0.998-10.396,2.623-15.422,6.719c-1.699,1.385-3.26,4.049-4.947,5.566c-3.096,2.779-6.146,0.319-8.955-2.705
		c-3.18-3.424-6.127-8.49-9.17-12.875c-0.797-1.15-1.525-3.11-2.363-3.526c-4.146-2.062-8.309-4.869-12.49-5.211
		c-4.02-0.33-8.1,1.509-12.096,3.354c-4.414,2.04-8.782,4.955-13.135,7.893c-3.859,2.605-7.754,2.824-11.68,2.45
		c-2.007-0.191-5.547-0.592-7.533-0.142c-1.479,0.079-4.475,0.717-5.945,1.16c-1.561,0.471-3.162,0.695-4.655,1.898
		c-3.082,2.484-5.989,6.11-9.354,6.218C1.054,38.63,0.527,38.674,0,38.735V285h272.413V70.63z"/>
	<path fill="#808080" d="M1030.471,18.031c-1.615,0.934-3.557,0.588-5.139,1.604c-3.648,2.342-7.191,5.086-10.727,7.814
		c-1.879,1.449-3.721,0.839-5.182-0.705c-2.67-2.82-5.076-6.226-7.611-9.35c-0.357-0.44-0.807-0.754-1.244-0.981
		c-0.518-0.268-1.137-0.19-1.594-0.585c-2.625-2.265-5.064-1.215-7.535,0.67c-0.559,0.426-1.318,0.334-1.984,0.312
		c-0.596-0.02-1.211-0.174-1.783-0.438c-1.445-0.666-2.867-1.454-4.309-2.143c-1.07-0.511-2.207-1.519-3.221-1.296
		c-2.82,0.619-5.588,1.788-8.385,2.689c-1.016,0.328-2.082,0.888-3.074,0.697c-2.775-0.536-5.09,1.338-7.4,3.059
		c-2.322,1.729-4.492,3.937-6.77,5.815c-0.607,0.501-1.398,0.438-2.047,0.853c-2.207,1.411-4.586,2.475-6.525,4.509
		c-2.182,2.287-4.359,3.936-6.98,3.692c-4.309-0.4-8.625-0.819-12.91-1.592c-2.043-0.367-4.137-1.09-5.455-4.155
		c-1.596-3.701-3.912-2.148-6.035-1.622c-0.812,0.201-1.59,0.925-2.393,0.969c-1.049,0.057-2.146-0.123-3.154-0.571
		c-1.285-0.571-2.52-1.454-3.744-2.306c-2.449-1.703-4.887-3.449-7.312-5.228c-2.377-1.742-4.678-3.767-7.113-5.271
		c-3.617-2.235-7.598-1.747-11.352-3.135c-2.227-0.823-4.545-1.506-6.818-1.483c-2.822,0.028-5.572,1.14-7.793,4.194
		c-1.562,2.149-3.482,2.231-5.426,2.222c-0.443-0.002-0.963-0.009-1.314,0.321c-2.439,2.29-4.779,4.843-7.275,6.97
		c-2.307,1.966-4.73,3.651-7.176,5.185c-1.711,1.073-3.533,1.764-5.332,2.483c-3.125,1.251-6.271,2.379-9.404,3.595
		c-0.527,0.205-1.027,0.587-1.537,0.901s-1.068,1.049-1.512,0.906c-2.684-0.864-4.145,2.516-6.176,3.9
		c-1.158,0.791-2.506,0.909-3.754,1.419c-0.652,0.266-1.295,0.572-1.939,0.884h-6.125c-3.371-1.016-6.584-3.023-9.855-4.788
		c-4.289-2.315-8.625-4.892-13.275-4.753c-4.131,0.123-7.889-1.654-11.621-4.078c-1.115-0.724-2.457-0.626-3.809-0.931
		c0,4.969,0,9.774,0,14.944c0.006,0,0.01,0,0.016,0V285H1036V17.203C1034.215,16.801,1032.371,16.934,1030.471,18.031z"/>
</g>
<g>
	<path fill="#FFFFFF" d="M294.629,274.841l0.072,2.718l-0.108,0.144l-1.404,0.108l-0.108-0.126l0.054-2.844h-3.168l-1.35,0.035
		l-0.126-0.161v-1.188l4.482-6.479h1.692l-0.054,6.371h1.62l0.108,0.162l-0.09,1.296L294.629,274.841z M293.153,273.418v-4.229
		h-0.144l-2.916,4.229H293.153z"/>
	<path fill="#FFFFFF" d="M300.065,275.507c0,0.888-0.636,1.787-1.908,2.699l-0.594-0.54l-0.018-0.144
		c0.66-0.54,0.99-1.092,0.99-1.656c0-0.371-0.186-0.689-0.558-0.954v-0.162c0.444-0.287,0.882-0.485,1.314-0.594
		C299.807,274.528,300.065,274.979,300.065,275.507z"/>
	<path fill="#FFFFFF" d="M308.678,268.1c0.666,0.786,0.999,1.905,0.999,3.356c0,1.513-0.351,2.683-1.053,3.511
		c-0.702,0.828-1.701,1.241-2.997,1.241c-1.224,0-2.172-0.393-2.844-1.179c-0.672-0.786-1.008-1.893-1.008-3.321
		c0-1.523,0.357-2.702,1.071-3.536s1.719-1.251,3.015-1.251C307.073,266.921,308.012,267.313,308.678,268.1z M303.215,271.582
		c0,2.005,0.84,3.007,2.52,3.007c1.68,0,2.52-0.973,2.52-2.916c0-2.04-0.846-3.061-2.538-3.061
		C304.049,268.612,303.215,269.603,303.215,271.582z"/>
	<path fill="#FFFFFF" d="M318.128,268.1c0.666,0.786,0.999,1.905,0.999,3.356c0,1.513-0.351,2.683-1.053,3.511
		c-0.702,0.828-1.701,1.241-2.997,1.241c-1.224,0-2.172-0.393-2.844-1.179s-1.008-1.893-1.008-3.321
		c0-1.523,0.357-2.702,1.071-3.536s1.719-1.251,3.015-1.251C316.523,266.921,317.462,267.313,318.128,268.1z M312.665,271.582
		c0,2.005,0.84,3.007,2.52,3.007s2.52-0.973,2.52-2.916c0-2.04-0.846-3.061-2.538-3.061
		C313.499,268.612,312.665,269.603,312.665,271.582z"/>
	<path fill="#FFFFFF" d="M327.578,268.1c0.666,0.786,0.999,1.905,0.999,3.356c0,1.513-0.351,2.683-1.053,3.511
		s-1.701,1.241-2.997,1.241c-1.224,0-2.172-0.393-2.844-1.179c-0.672-0.786-1.008-1.893-1.008-3.321
		c0-1.523,0.357-2.702,1.071-3.536c0.714-0.834,1.719-1.251,3.015-1.251C325.973,266.921,326.912,267.313,327.578,268.1z
		 M322.115,271.582c0,2.005,0.84,3.007,2.52,3.007s2.52-0.973,2.52-2.916c0-2.04-0.846-3.061-2.538-3.061
		C322.949,268.612,322.115,269.603,322.115,271.582z"/>
	<path fill="#FFFFFF" d="M338.819,263.555l-0.108,1.386l-0.126,0.108c-0.516-0.229-0.978-0.343-1.386-0.343
		c-0.888,0-1.338,0.517-1.35,1.549l-0.018,1.548h2.124l0.054,0.126l-0.108,1.044h-2.088l-0.054,3.438l0.126,3.654h-1.836
		l0.108-3.492l-0.036-3.6h-1.242l-0.072-0.108l0.09-1.062h1.224l-0.018-1.242c-0.012-1.02,0.267-1.803,0.837-2.349
		s1.377-0.819,2.421-0.819C337.829,263.393,338.314,263.446,338.819,263.555z"/>
	<path fill="#FFFFFF" d="M339.989,271.996c0.036,1.872,0.828,2.809,2.376,2.809c0.78,0,1.59-0.252,2.43-0.756l0.162,0.107
		l-0.216,1.458c-0.84,0.408-1.68,0.612-2.52,0.612c-1.236,0-2.199-0.381-2.889-1.144c-0.69-0.762-1.035-1.803-1.035-3.122
		c0-1.345,0.36-2.403,1.08-3.178c0.72-0.773,1.686-1.161,2.898-1.161c0.959,0,1.704,0.282,2.232,0.847
		c0.528,0.563,0.792,1.344,0.792,2.34c0,0.312-0.024,0.612-0.072,0.899l-0.306,0.288H339.989z M343.265,269.306
		c-0.264-0.282-0.63-0.423-1.098-0.423c-0.552,0-1.008,0.174-1.368,0.521c-0.36,0.349-0.6,0.84-0.72,1.477l3.546-0.091l0.036-0.216
		C343.661,270.011,343.528,269.588,343.265,269.306z"/>
	<path fill="#FFFFFF" d="M348.25,271.996c0.036,1.872,0.828,2.809,2.376,2.809c0.78,0,1.59-0.252,2.43-0.756l0.162,0.107
		l-0.216,1.458c-0.84,0.408-1.681,0.612-2.52,0.612c-1.236,0-2.199-0.381-2.889-1.144c-0.69-0.762-1.035-1.803-1.035-3.122
		c0-1.345,0.36-2.403,1.08-3.178c0.72-0.773,1.686-1.161,2.898-1.161c0.96,0,1.704,0.282,2.232,0.847
		c0.528,0.563,0.792,1.344,0.792,2.34c0,0.312-0.024,0.612-0.072,0.899l-0.306,0.288H348.25z M351.527,269.306
		c-0.264-0.282-0.63-0.423-1.098-0.423c-0.552,0-1.008,0.174-1.368,0.521c-0.36,0.349-0.6,0.84-0.72,1.477l3.546-0.091l0.036-0.216
		C351.923,270.011,351.791,269.588,351.527,269.306z"/>
	<path fill="#FFFFFF" d="M359.645,274.354l0.18,0.126l-0.18,1.152c-0.66,0.312-1.272,0.491-1.836,0.54
		c-0.744-0.12-1.284-0.369-1.62-0.747s-0.504-0.928-0.504-1.647l0.072-1.296l-0.018-3.51h-1.134l-0.072-0.108l0.09-1.062h1.098
		v-1.314l1.62-0.612l0.162,0.145l-0.036,1.782h2.304l0.072,0.126l-0.09,1.044h-2.322l-0.09,4.518
		c-0.012,0.444,0.063,0.753,0.225,0.927c0.162,0.175,0.435,0.262,0.819,0.262C358.781,274.679,359.2,274.57,359.645,274.354z"/>
</g>
</svg>
