<?xml version="1.0" encoding="utf-8"?>
<!-- Generator: Adobe Illustrator 16.0.4, SVG Export Plug-In . SVG Version: 6.00 Build 0)  -->
<!DOCTYPE svg PUBLIC "-//W3C//DTD SVG 1.1//EN" "http://www.w3.org/Graphics/SVG/1.1/DTD/svg11.dtd">
<svg version="1.1" id="Layer_1" xmlns="http://www.w3.org/2000/svg" xmlns:xlink="http://www.w3.org/1999/xlink" x="0px" y="0px"
	 width="1036px" height="285px" viewBox="0 0 1036 285" enable-background="new 0 0 1036 285" xml:space="preserve">
<path fill-rule="evenodd" clip-rule="evenodd" d="M226.646,87.422V285h587.006V87.422c0-12.693,0-23.992,0-36.951
	c-1.09,0-2.225-1.213-3.332-0.964c-5.477,1.234-10.94,2.695-16.424,3.817c-1.119,0.229-2.299-0.894-3.459-0.972
	c-5.129-0.346-10.273-0.25-15.393-0.863c-5.791-0.693-10.896-5.201-15.693-11.136c-1.678-2.078-3.441-3.976-5.26-5.581
	c-2.305-2.033-4.52-2.396-6.973,0.364c-1.064,1.199-3.445,0.892-4.373-0.604c-2.549-4.11-4.991-1.62-7.482-0.879
	c-1.053,0.312-2.275,0.779-3.031,2.017c-2.158,3.528-4.842,2.927-7.314,3.934c-0.623,0.254-1.316,0.238-1.947,0.021
	c-2.506-0.862-5.088-1.367-7.477-2.907c-3.709-2.393-7.107-1.808-10.512,1.615c-1.771,1.783-3.592,3.581-5.506,4.612
	c-1.172,0.631-2.693,0.424-3.832-0.449c-5.045-3.873-10.107-5.321-15.365-1.779c-0.201,0.135-0.408,0.341-0.561,0.613
	c-2.729,4.881-6.211,3.383-9.453,4.444c-3.605,1.181-6.609-2.227-9.927-2.307c-2.55-0.062-5.118,0.55-7.655,1.185
	c-3.576,0.895-7.176,1.736-10.686,3.246c-3.805,1.636-7.516,4.023-11.271,6.056c-0.406,0.22-0.84,0.308-1.264,0.36
	c-2.975,0.366-5.949,0.796-8.926,1.035c-3.633,0.29-8.207,0.128-11.836-0.032c-5.152-1.03-11.069-0.528-16.071-2.14
	c-4.056-1.307-8.313-4.365-12.524-0.553c-0.18,0.164-0.43,0.113-0.643,0.087c-4.996-0.614-9.881,0.185-14.568,3.794
	c-0.443,0.341-1.055,0.497-1.486,0.207c-2.709-1.816-4.791,0.769-7.125,2.751c-2.088,1.773-4.51,2.34-6.82,2.96
	c-4.111,1.104-8.107,2.528-11.969,5.787c-2.357,1.989-5.137,2.175-7.713,3.283c-1.537,0.661-3.211,1.002-4.531,2.438
	c-2.635,2.862-5.438,2.807-8.309,3.446c-5.027,1.123-9.84-0.657-14.764-1.531c-3.939-0.7-7.994,1.276-12.008,1.521
	c-3.236,0.196-6.496-0.82-9.729-0.565c-3.252,0.258-6.312-1.816-9.723-0.906c-4.176,1.116-8.566-0.638-12.867-1.122
	c-2.047-0.23-4.107-0.191-6.141-0.636c-3.34-0.729-6.668-2.533-9.992-2.457c-4.13,0.094-8.244,1.771-12.377,2.505
	c-2.398,0.427-4.824,0.444-7.238,0.462c-2.574,0.019-5.148-0.28-7.723-0.258c-3.318,0.029-6.643,0.05-9.953,0.43
	c-2.637,0.303-5.395,0.367-7.859,1.9c-4.883,3.039-9.787,3.648-14.842,3.013c-1.141-0.144-2.312,1.068-3.49,1.359
	c-1.467,0.364-2.959,0.591-4.438,0.57c-2.407-0.035-4.812-0.297-7.218-0.508c-1.141-0.1-2.297-0.13-3.418-0.491
	c-2.395-0.774-4.773-1.746-7.158-2.627c-0.141-0.052-0.316-0.112-0.43-0.004c-3.951,3.775-7.957,0.289-11.824-0.37
	c-4.111-0.7-8.082-0.455-12.139,0.182c-1.309,0.205-2.695-1.32-4.043-2.064c-0.6-0.33-1.187-0.913-1.795-0.996
	c-4.328-0.59-8.658-1.263-12.996-1.514c-1.766-0.103-3.557,0.672-5.32,1.239c-2.467,0.795-4.92,2.509-7.377,2.489
	c-3.564-0.027-7.141-1.062-10.684-2.026c-2.463-0.67-4.688-2.682-7.43-1.326c-2.469,1.222-5.277-0.242-7.873,0.393
	c-5.213,1.272-10.281,0.323-15.414-1.429c-1.859-0.636-3.939,0.893-5.91,1.532c-2.113,0.685-4.262,1.19-6.312,2.312
	c-2.451,1.342-4.814,3.259-7.219,4.916c-0.498,0.343-1.164,1.189-1.484,0.866c-3.654-3.69-6.424,0.747-9.374,3.433
	c-0.522,0.475-0.989,1.151-1.437,1.753H226.646z"/>
<g>
	<path fill="#808080" d="M1025.889,137.866c-4.438,2.216-8.876,5.769-13.32,5.976c-4.562,0.212-9.136-2.719-13.698-4.641
		c-3.821-1.607-7.626-4.16-11.449-5.542c-5.163-1.868-10.347-2.614-15.506-4.695c-1.733-0.7-3.429-5.959-5.128-5.808
		c-8.14,0.729-16.111-5.845-24.131-10.743c-4.828-2.949-9.812-2.05-14.514-7.281c-10.834-12.055-21.786-8.724-32.72-10.732
		c-6.3-1.157-12.563-7.399-18.834-11.618c-5.397-3.633-10.786-7.571-16.173-11.554c-0.865-0.64-1.688-2.819-2.551-3.23
		c-1.571-0.743-3.159-0.708-4.741-0.975c-0.774-0.132-1.573,0.344-2.319-0.406c-6.842-6.894-13.631-15.366-20.529-20.403
		c-3.033-2.216-6.283,2.439-9.656,4.083c0,47.522,0,93.938,0,141.37V285H1036V133.018
		C1032.642,134.988,1029.256,136.184,1025.889,137.866z"/>
	<path fill="#808080" d="M219.679,87.544L219.679,87.544c-2.295-0.679-4.395-1.307-6.497-1.911c-0.238-0.068-0.48-0.029-0.721-0.011
		c-2.655,0.211-5.312,0.659-7.968,0.563c-1.924-0.067-3.854-0.647-5.766-1.372c-2.949-1.115-5.887-2.55-8.827-3.849
		c-1.06-0.467-2.115-1.149-3.179-1.354c-2.211-0.427-4.537,0.637-6.609-1.207c-2.24-1.994-4.426-2.589-6.686-2.615
		c-2.541-0.028-5.083-0.004-7.625-0.01c-0.32,0-0.668,0.208-0.956-0.109c-3.266-3.617-6.568,0.114-9.853-0.555
		c-2.686-0.546-5.384-0.425-8.074-0.807c-0.93-0.133-1.904-1.73-2.769-1.204c-3.021,1.834-5.957-0.101-8.919-1.095
		c-2.721-0.915-5.441-1.888-8.15-3.123c-1.127-0.515-2.219-1.793-3.328-2.69c-1.066-0.861-2.123-2.072-3.208-2.435
		c-1.995-0.669-4.114,0.299-5.985-1.476c-2.484-2.354-4.993-2.853-7.508-3.913c-0.742-0.314-1.467-1.06-2.209-1.383
		c-1.037-0.452-2.09-0.531-3.121-1.061c-1.604-0.819-3.184-2.107-4.791-2.797c-3.424-1.467-6.871-2.395-10.168-6.053
		c-2.166-2.407-4.346-4.783-6.567-6.592c-2.108-1.716-4.276-2.681-6.418-3.965c-0.077-0.045-0.161,0.04-0.239,0.028
		c-1.052-0.169-2.109-0.178-3.154-0.567c-1.008-0.378-1.94-0.675-2.854,1.396c-0.566,1.283-1.27,2.248-1.954,2.677
		c-3.808,2.387-7.649,4.247-11.435,6.922c-2.754,1.943-5.501,2.715-8.298,2.3c-0.752-0.112-1.501-0.718-2.249-0.675
		c-1.892,0.105-3.78,0.541-5.672,0.676c-4.395,0.312-8.791,0.646-13.186,0.709c-1.503,0.022-3.021-0.489-4.512-1.18
		c-2.546-1.177-5.7-3.336-8.244-4.551c-0.971,0.38-2.461,0.266-3.326,0.48c-2.315,0.57-4.633,1.027-6.949,1.559
		C1.139,46.429,0.561,46.886,0,46.947V285h219.679V87.544z"/>
</g>
<g>
	<path fill="#FFFFFF" d="M243.717,274.85l0.071,2.718l-0.107,0.144l-1.404,0.108l-0.107-0.126l0.054-2.844h-3.168l-1.351,0.035
		l-0.126-0.161v-1.188l4.482-6.479h1.692l-0.055,6.371h1.62l0.108,0.162l-0.09,1.296L243.717,274.85z M242.24,273.427v-4.229h-0.144
		l-2.916,4.229H242.24z"/>
	<path fill="#FFFFFF" d="M249.152,275.516c0,0.888-0.637,1.787-1.908,2.699l-0.594-0.54l-0.019-0.144
		c0.66-0.54,0.99-1.092,0.99-1.656c0-0.371-0.186-0.689-0.558-0.954v-0.162c0.443-0.287,0.882-0.485,1.313-0.594
		C248.895,274.537,249.152,274.987,249.152,275.516z"/>
	<path fill="#FFFFFF" d="M257.765,268.108c0.666,0.786,0.999,1.905,0.999,3.356c0,1.513-0.351,2.683-1.053,3.511
		s-1.701,1.241-2.997,1.241c-1.224,0-2.172-0.393-2.844-1.179s-1.008-1.893-1.008-3.321c0-1.523,0.356-2.702,1.071-3.536
		c0.713-0.834,1.719-1.251,3.015-1.251C256.16,266.93,257.099,267.322,257.765,268.108z M252.302,271.591
		c0,2.005,0.84,3.007,2.521,3.007c1.68,0,2.52-0.973,2.52-2.916c0-2.04-0.846-3.061-2.538-3.061
		C253.136,268.621,252.302,269.611,252.302,271.591z"/>
	<path fill="#FFFFFF" d="M267.215,268.108c0.666,0.786,0.999,1.905,0.999,3.356c0,1.513-0.351,2.683-1.053,3.511
		s-1.701,1.241-2.997,1.241c-1.224,0-2.172-0.393-2.844-1.179c-0.673-0.786-1.009-1.893-1.009-3.321
		c0-1.523,0.357-2.702,1.071-3.536s1.719-1.251,3.016-1.251C265.61,266.93,266.549,267.322,267.215,268.108z M261.752,271.591
		c0,2.005,0.84,3.007,2.521,3.007c1.68,0,2.52-0.973,2.52-2.916c0-2.04-0.846-3.061-2.538-3.061
		C262.586,268.621,261.752,269.611,261.752,271.591z"/>
	<path fill="#FFFFFF" d="M276.665,268.108c0.666,0.786,0.999,1.905,0.999,3.356c0,1.513-0.352,2.683-1.053,3.511
		c-0.702,0.828-1.701,1.241-2.997,1.241c-1.225,0-2.173-0.393-2.845-1.179s-1.008-1.893-1.008-3.321
		c0-1.523,0.357-2.702,1.071-3.536s1.719-1.251,3.015-1.251C275.06,266.93,275.999,267.322,276.665,268.108z M271.202,271.591
		c0,2.005,0.84,3.007,2.52,3.007s2.521-0.973,2.521-2.916c0-2.04-0.847-3.061-2.538-3.061
		C272.036,268.621,271.202,269.611,271.202,271.591z"/>
	<path fill="#FFFFFF" d="M287.905,263.563l-0.107,1.386l-0.126,0.108c-0.517-0.229-0.979-0.343-1.387-0.343
		c-0.888,0-1.338,0.517-1.35,1.549l-0.018,1.548h2.124l0.054,0.126l-0.108,1.044h-2.088l-0.054,3.438l0.126,3.654h-1.836
		l0.107-3.492l-0.035-3.6h-1.242l-0.072-0.108l0.09-1.062h1.225l-0.019-1.242c-0.012-1.02,0.267-1.803,0.837-2.349
		s1.377-0.819,2.421-0.819C286.916,263.401,287.401,263.455,287.905,263.563z"/>
	<path fill="#FFFFFF" d="M289.075,272.005c0.036,1.872,0.828,2.809,2.376,2.809c0.78,0,1.591-0.252,2.431-0.756l0.162,0.107
		l-0.217,1.458c-0.84,0.408-1.68,0.612-2.52,0.612c-1.236,0-2.199-0.381-2.889-1.144c-0.69-0.762-1.035-1.803-1.035-3.122
		c0-1.345,0.359-2.403,1.08-3.178c0.72-0.773,1.686-1.161,2.897-1.161c0.96,0,1.704,0.282,2.232,0.847
		c0.527,0.563,0.792,1.344,0.792,2.34c0,0.312-0.024,0.612-0.072,0.899l-0.306,0.288H289.075z M292.352,269.314
		c-0.264-0.282-0.63-0.423-1.098-0.423c-0.553,0-1.008,0.174-1.368,0.521c-0.36,0.349-0.601,0.84-0.72,1.477l3.546-0.091
		l0.036-0.216C292.748,270.02,292.615,269.597,292.352,269.314z"/>
	<path fill="#FFFFFF" d="M297.338,272.005c0.036,1.872,0.828,2.809,2.376,2.809c0.779,0,1.59-0.252,2.43-0.756l0.162,0.107
		l-0.216,1.458c-0.84,0.408-1.681,0.612-2.521,0.612c-1.235,0-2.199-0.381-2.889-1.144c-0.69-0.762-1.035-1.803-1.035-3.122
		c0-1.345,0.36-2.403,1.08-3.178c0.72-0.773,1.686-1.161,2.898-1.161c0.96,0,1.703,0.282,2.231,0.847
		c0.528,0.563,0.792,1.344,0.792,2.34c0,0.312-0.024,0.612-0.072,0.899l-0.306,0.288H297.338z M300.613,269.314
		c-0.264-0.282-0.63-0.423-1.098-0.423c-0.552,0-1.008,0.174-1.368,0.521c-0.359,0.349-0.6,0.84-0.72,1.477l3.546-0.091l0.036-0.216
		C301.01,270.02,300.877,269.597,300.613,269.314z"/>
	<path fill="#FFFFFF" d="M308.731,274.363l0.18,0.126l-0.18,1.152c-0.66,0.312-1.272,0.491-1.836,0.54
		c-0.744-0.12-1.284-0.369-1.62-0.747s-0.504-0.928-0.504-1.647l0.072-1.296l-0.019-3.51h-1.134l-0.072-0.108l0.09-1.062h1.099
		v-1.314l1.62-0.612l0.162,0.145l-0.036,1.782h2.304l0.072,0.126l-0.09,1.044h-2.322l-0.09,4.518
		c-0.013,0.444,0.062,0.753,0.225,0.927c0.162,0.175,0.435,0.262,0.819,0.262C307.867,274.688,308.287,274.579,308.731,274.363z"/>
</g>
</svg>
