<?xml version="1.0" encoding="utf-8"?>
<!-- Generator: Adobe Illustrator 16.0.4, SVG Export Plug-In . SVG Version: 6.00 Build 0)  -->
<!DOCTYPE svg PUBLIC "-//W3C//DTD SVG 1.1//EN" "http://www.w3.org/Graphics/SVG/1.1/DTD/svg11.dtd">
<svg version="1.1" id="Layer_1" xmlns="http://www.w3.org/2000/svg" xmlns:xlink="http://www.w3.org/1999/xlink" x="0px" y="0px"
	 width="1036px" height="285px" viewBox="0 0 1036 285" enable-background="new 0 0 1036 285" xml:space="preserve">
<path fill-rule="evenodd" clip-rule="evenodd" d="M825.251,40.104c-2.147,0.052-4.299,0.725-6.438,0.572
	c-4.365-0.312-8.729-1.53-13.087-1.403c-7.563,0.22-15.122,1.188-22.683,1.817c-1.545,0.128-3.096,0.031-4.639,0.222
	c-7.471,0.928-14.763,5.459-22.322,4.671c-0.31-0.032-0.625,0.143-0.938,0.21c-4.135,0.896-8.284,1.579-12.4,2.748
	c-3.488,0.99-7.004,2.047-10.385,3.979c-3.613,2.067-7.07,5.139-10.951,4.759c-2.723-0.267-5.461-0.267-8.185-0.004
	c-4.821,0.465-9.634,1.236-14.452,1.832c-0.543,0.066-1.096-0.281-1.643-0.26c-1.307,0.054-2.625,0.024-3.916,0.369
	c-2.544,0.68-5.175,2.88-7.583,2.084c-3.062-1.014-5.935-4.038-9.215-3.779c-2.017,0.16-4.066-1.34-6.081-1.148
	c-3.638,0.344-7.256,1.499-10.892,2.103c-1.382,0.229-2.794,0.02-4.181-0.242c-3.857-0.728-8.057,0.102-11.477-2.829
	c-4.031-3.455-8.197-2.485-12.188-4.82c-3.37-1.973-7.086-1.665-10.373-3.992c-3.827-2.71-7.049-1.546-10.345,2.391
	c-3.735,4.463-7.868,4.247-11.919,3.154c-3.853-1.039-11.52-2.936-15.304-4.806c-4.663-0.63-13.135-2.947-17.767-4.529
	c-0.769-0.263-1.582-1.165-2.281-0.866c-3.189,1.362-6.064-0.381-8.82-3.321c-2.328-2.48-4.68-3.443-7.302-2.256
	c-4.817,2.183-9.373,0.708-13.743-4.207c-1.512-1.698-3.361-2.163-5.066-3.104c-1.49-0.822-3.113-1.026-4.471-2.374
	c-3.69-3.661-7.252-7.899-11.61-6.396c-2.394,0.826-4.783,1.989-7.194,2.258c-4.137,0.461-8.291,0.291-12.436,0.498
	c-1.037,0.051-2.19,0.014-3.082,0.896c-4.815,4.766-9.562,9.827-14.346,14.725c-0.473,0.484-1.111,0.998-1.568,0.738
	c-4.728-2.693-8.84,1.353-12.451,6.22c-5.012,6.757-10.644,8.129-16.199,10.664c-1.671,0.763-3.427,1.287-4.95,2.76
	c-5.155,4.985-10.068,10.395-15.933,12.45c-5.661,1.984-11.693,0.238-17.026,6.079c-0.31,0.341-0.793-0.06-1.174,0.104
	c-1.369,0.584-2.786,0.953-4.08,1.969c-1.722,1.353-3.417,2.819-5.073,4.273h0l-9.572,1.507h0c-0.408-0.257-0.824-0.518-1.245-0.773
	c-1.735-1.054-3.454-2.271-5.218-3.058c-3.368-1.5-6.762-2.747-10.146-4.094c-3.942-1.57-7.884-3.138-11.827-4.695
	c-0.153-0.061-0.32,0.036-0.474-0.02c-3.314-1.185-6.704-1.83-9.92-3.718c-3.854-2.263-7.578-4.997-11.69-3.173
	c-0.875,0.387-1.871-0.218-2.798-0.522c-4.213-1.383-8.407-3.034-12.635-4.189c-5.7-1.558-11.445-2.455-17.126-4.236
	c-2.432-0.763-4.761-2.977-7.119-4.642c-2.576-1.82-4.99-4.136-7.908-4.104c-2.068,0.022-4.247-2.141-6.186-4.116
	c-2.037-2.078-3.929-4.873-5.731-7.756c-2.011-3.219-3.81-2.819-5.85-0.16c-2.117,2.759-4.307,5.377-6.591,7.487
	c-5.743,5.308-11.987,5.688-17.991,4.425c-5.134-1.079-9.859,1.05-14.663,3.054c-6.125,2.556-12.137,6.239-18.252,8.915
	c-6.051,2.648-11.103,5.648-17.177,8.08c-0.23,0.092-2.119,0.581-2.617,0.71V285h643.867V87.322c0-0.071,0-0.142,0-0.213
	c0-15.733,0-30.665,0-47.035C833.809,40.074,829.529,40.003,825.251,40.104z"/>
<g>
	<path fill="#808080" d="M189.413,75.412c0-2.081,0-3.878,0-6.15c-1.147-0.273-2.181-0.556-3.218-0.759
		c-2.714-0.532-5.436-0.912-8.144-1.57c-2.969-0.72-5.92-1.811-8.89-2.486c-1.566-0.357-3.165,0.049-4.733-0.288
		c-3.222-0.689-6.428-1.764-9.65-2.454c-2.09-0.449-4.205-0.306-6.293-0.784c-2.129-0.488-4.23-1.564-6.358-2.1
		c-1.687-0.425-3.405-0.219-5.092-0.646c-3.945-1-7.871-2.384-11.819-3.287c-3.992-0.914-8.043-0.867-11.987-2.354
		c-2.274-0.856-4.606-0.316-6.897-2.839c-3.26-3.589-6.868-5.568-10.334-8.187c-0.611-0.463-1.252-0.916-1.889-0.989
		c-2.774-0.316-5.552-0.468-8.327-0.724c-1.625-0.15-3.254-0.251-4.871-0.613c-2.677-0.6-5.365-2.211-8.014-1.905
		c-3.533,0.408-6.408-3.033-9.401-6.035c-2.79-2.798-5.601-3.398-8.479-1.148c-2.519,1.969-4.963,4.457-7.512,6.17
		c-1.943,1.308-4,1.739-6.003,2.602c-3.113,1.338-6.213,2.114-9.246-0.855c-0.732-0.717-1.477-2.216-2.176-2.104
		c-2.578,0.413-5.148,1.206-7.701,2.133c-2.358,0.858-4.683,2.165-7.035,3.108C11.568,42.663,7.777,43.992,4,45.504
		c-1.354,0.541-2.693,1.262-4.039,1.912V285h189.452V75.412z"/>
</g>
<rect x="1010.5" y="254.322" fill="#FFFFFF" width="25" height="30.678"/>
<g>
	<path fill="#FFFFFF" d="M212.605,275.079l0.072,2.718l-0.108,0.144l-1.404,0.108l-0.108-0.126l0.054-2.844h-3.168l-1.35,0.035
		l-0.126-0.161v-1.188l4.482-6.479h1.692l-0.054,6.371h1.62l0.108,0.162l-0.09,1.296L212.605,275.079z M211.13,273.656v-4.229
		h-0.144l-2.916,4.229H211.13z"/>
	<path fill="#FFFFFF" d="M218.042,275.745c0,0.888-0.636,1.787-1.908,2.699l-0.594-0.54l-0.018-0.144
		c0.66-0.54,0.99-1.092,0.99-1.656c0-0.371-0.187-0.689-0.558-0.954v-0.162c0.444-0.287,0.882-0.485,1.314-0.594
		C217.783,274.767,218.042,275.217,218.042,275.745z"/>
	<path fill="#FFFFFF" d="M226.654,268.338c0.666,0.786,0.999,1.905,0.999,3.356c0,1.513-0.351,2.683-1.053,3.511
		c-0.702,0.828-1.701,1.241-2.997,1.241c-1.224,0-2.172-0.393-2.844-1.179c-0.672-0.786-1.008-1.893-1.008-3.321
		c0-1.523,0.357-2.702,1.071-3.536s1.719-1.251,3.015-1.251C225.049,267.159,225.988,267.552,226.654,268.338z M221.191,271.82
		c0,2.005,0.84,3.007,2.52,3.007c1.68,0,2.52-0.973,2.52-2.916c0-2.04-0.846-3.061-2.538-3.061
		C222.025,268.851,221.191,269.841,221.191,271.82z"/>
	<path fill="#FFFFFF" d="M236.104,268.338c0.666,0.786,0.999,1.905,0.999,3.356c0,1.513-0.351,2.683-1.053,3.511
		c-0.702,0.828-1.701,1.241-2.997,1.241c-1.224,0-2.172-0.393-2.844-1.179s-1.008-1.893-1.008-3.321
		c0-1.523,0.357-2.702,1.071-3.536s1.719-1.251,3.015-1.251C234.499,267.159,235.438,267.552,236.104,268.338z M230.641,271.82
		c0,2.005,0.84,3.007,2.52,3.007c1.68,0,2.52-0.973,2.52-2.916c0-2.04-0.846-3.061-2.538-3.061
		C231.475,268.851,230.641,269.841,230.641,271.82z"/>
	<path fill="#FFFFFF" d="M245.554,268.338c0.666,0.786,0.999,1.905,0.999,3.356c0,1.513-0.351,2.683-1.053,3.511
		s-1.701,1.241-2.997,1.241c-1.224,0-2.172-0.393-2.844-1.179c-0.672-0.786-1.008-1.893-1.008-3.321
		c0-1.523,0.357-2.702,1.071-3.536c0.714-0.834,1.719-1.251,3.015-1.251C243.949,267.159,244.888,267.552,245.554,268.338z
		 M240.091,271.82c0,2.005,0.84,3.007,2.52,3.007s2.52-0.973,2.52-2.916c0-2.04-0.846-3.061-2.538-3.061
		C240.925,268.851,240.091,269.841,240.091,271.82z"/>
	<path fill="#FFFFFF" d="M256.795,263.793l-0.108,1.386l-0.126,0.108c-0.516-0.229-0.978-0.343-1.386-0.343
		c-0.888,0-1.338,0.517-1.35,1.549l-0.018,1.548h2.124l0.054,0.126l-0.108,1.044h-2.088l-0.054,3.438l0.126,3.654h-1.836
		l0.108-3.492l-0.036-3.6h-1.242l-0.072-0.108l0.09-1.062h1.224l-0.018-1.242c-0.012-1.02,0.267-1.803,0.837-2.349
		s1.377-0.819,2.421-0.819C255.805,263.631,256.291,263.685,256.795,263.793z"/>
	<path fill="#FFFFFF" d="M257.965,272.234c0.036,1.872,0.828,2.809,2.376,2.809c0.78,0,1.59-0.252,2.43-0.756l0.162,0.107
		l-0.216,1.458c-0.84,0.408-1.68,0.612-2.52,0.612c-1.236,0-2.199-0.381-2.889-1.144c-0.69-0.762-1.035-1.803-1.035-3.122
		c0-1.345,0.36-2.403,1.08-3.178c0.72-0.773,1.686-1.161,2.898-1.161c0.96,0,1.704,0.282,2.232,0.847
		c0.528,0.563,0.792,1.344,0.792,2.34c0,0.312-0.024,0.612-0.072,0.899l-0.306,0.288H257.965z M261.241,269.544
		c-0.264-0.282-0.63-0.423-1.098-0.423c-0.552,0-1.008,0.174-1.368,0.521c-0.36,0.349-0.6,0.84-0.72,1.477l3.546-0.091l0.036-0.216
		C261.637,270.249,261.504,269.826,261.241,269.544z"/>
	<path fill="#FFFFFF" d="M266.227,272.234c0.036,1.872,0.828,2.809,2.376,2.809c0.78,0,1.59-0.252,2.43-0.756l0.162,0.107
		l-0.216,1.458c-0.84,0.408-1.68,0.612-2.52,0.612c-1.236,0-2.199-0.381-2.889-1.144c-0.69-0.762-1.035-1.803-1.035-3.122
		c0-1.345,0.36-2.403,1.08-3.178c0.72-0.773,1.686-1.161,2.898-1.161c0.96,0,1.704,0.282,2.232,0.847
		c0.528,0.563,0.792,1.344,0.792,2.34c0,0.312-0.024,0.612-0.072,0.899l-0.306,0.288H266.227z M269.503,269.544
		c-0.264-0.282-0.63-0.423-1.098-0.423c-0.552,0-1.008,0.174-1.368,0.521c-0.36,0.349-0.6,0.84-0.72,1.477l3.546-0.091l0.036-0.216
		C269.899,270.249,269.767,269.826,269.503,269.544z"/>
	<path fill="#FFFFFF" d="M277.621,274.593l0.18,0.126l-0.18,1.152c-0.66,0.312-1.272,0.491-1.836,0.54
		c-0.744-0.12-1.284-0.369-1.62-0.747s-0.504-0.928-0.504-1.647l0.072-1.296l-0.018-3.51h-1.134l-0.072-0.108l0.09-1.062h1.098
		v-1.314l1.62-0.612l0.162,0.145l-0.036,1.782h2.304l0.072,0.126l-0.09,1.044h-2.322l-0.09,4.518
		c-0.012,0.444,0.063,0.753,0.225,0.927c0.162,0.175,0.435,0.262,0.819,0.262C276.757,274.917,277.177,274.809,277.621,274.593z"/>
</g>
</svg>
