<?xml version="1.0" encoding="utf-8"?>
<!-- Generator: Adobe Illustrator 16.0.4, SVG Export Plug-In . SVG Version: 6.00 Build 0)  -->
<!DOCTYPE svg PUBLIC "-//W3C//DTD SVG 1.1//EN" "http://www.w3.org/Graphics/SVG/1.1/DTD/svg11.dtd">
<svg version="1.1" id="Layer_1" xmlns="http://www.w3.org/2000/svg" xmlns:xlink="http://www.w3.org/1999/xlink" x="0px" y="0px"
	 width="1036px" height="285px" viewBox="0 0 1036 285" enable-background="new 0 0 1036 285" xml:space="preserve">
<path fill="#010101" d="M751.812,285H286.657l0.095-132.037l0.281-0.083c0-0.057,0.332-0.209,0.332-0.209
	c1.361-0.338,2.284-1.249,3.646-1.507c2.571-0.487,5.164-0.346,7.712-1.438c5.474-2.353,10.925-5.304,16.381-8.046
	c4-2.009,7.991-4.157,11.994-6.095c4.17-2.019,8.336-4.234,12.523-5.684c5.619-1.946,11.254-3.47,16.892-4.751
	c6.413-1.459,12.84-2.287,19.255-3.716c3.354-0.747,6.691-2.406,10.044-3.264c2.71-0.693,5.434-1.266,8.147-1.081
	c5.918,0.403,11.832,1.386,17.75,1.964c0.9,0.088,1.806-0.759,2.711-1.101c2.636-0.991,5.287-1.627,7.905-2.994
	c3.601-1.878,7.196-3.979,10.758-6.573c3.838-2.793,7.64-6.181,11.446-9.463c3.521-3.037,6.994-6.923,10.555-9.265
	c4.345-2.86,8.85-3.283,13.119-7.016c4.115-3.599,8.029-1.294,12.018,0.342c2.256,0.924,4.468,3.47,6.725,3.985
	c6.902,1.576,13.818,2.547,20.729,3.689c1.235,0.203,2.48-0.154,3.712,0.175c3.811,1.021,7.607,2.582,11.42,3.284
	c2.951,0.543,5.918,0.113,8.877,0.107c2.872-0.007,5.747,0.266,8.615-0.109c3.651-0.479,7.295-1.791,10.946-2.188
	c6.019-0.654,12.04-0.841,18.061-1.267c5.16-0.364,10.317-0.827,15.477-1.167c1.922-0.126,3.852,0.328,5.766-0.104
	c4.155-0.937,8.297-2.726,12.453-3.351c7.612-1.141,15.229-1.748,22.845-2.452c2.389-0.22,4.779,0.146,7.168-0.085
	c2.342-0.227,4.685-0.763,7.021-1.354c4.095-1.036,8.183-2.464,12.283-3.245c2.549-0.486,5.116,0.293,7.668-0.168
	c5.017-0.906,10.025-3.259,15.038-3.222c6.912,0.05,13.744-5.844,20.684-2.677c2.544,1.162,5.11,1.709,7.661,2.709
	c4.623,1.811,9.243,3.725,13.863,5.652c1.353,0.565,2.71,1.152,4.048,2.033c2.234,1.472,4.438,3.645,6.688,4.656
	c1.839,0.828,3.742-0.104,5.589,0.612c6.146,2.383,12.159,5.567,18.243,7.067c0,2.803,0.007,5.66,0.015,8.539V285H751.812z"/>
<g>
	<path fill="#818181" d="M279.689,183.003c0-0.224,0-0.446,0-0.67c0-9.211,0-20.115,0-29.358c-1.928,0.375-2.867,0.885-4.383,1.567
		c-2.816,1.269-5.635,2.562-8.496,3.476c-0.943,0.301-2.072-0.302-3.021-0.901c-3.027-1.913-6.057-2.646-9.199-0.882
		c-0.43,0.238-0.9,0.316-1.355,0.357c-1.639,0.146-3.285,0.412-4.918,0.291c-0.887-0.064-1.754-0.818-2.586-1.238
		c-1.277,0.877-2.551,2.289-3.9,2.539c-1.623,0.297-2.91,1.58-4.332,2.514c-0.354,0.232-0.822-0.047-1.238-0.042
		c-0.404,0.005-0.936-0.188-1.188,0.157c-1.262,1.713-2.719,1.316-4.156,1.41c-0.729,0.049-1.494,0.297-2.162,0.773
		c-1.502,1.076-2.949-0.582-4.426-0.062c-0.191,0.066-0.461,0.002-0.611-0.188c-1.334-1.695-2.932-1.562-4.469-1.823
		c-0.357-0.062-0.861-0.082-1.074,0.263c-0.781,1.267-1.572,0.731-2.467,0.543c-0.941-0.199-1.947,0.072-2.893,0.396
		c-1.264,0.434-2.52,1.008-3.738,1.715c-3.137,1.817-6.33,2.561-9.666,2.631c-2.529,0.051-5.145-0.203-7.611,1.424
		c-0.479,0.315-1.086,0.08-1.633,0.139c-1.191,0.125-2.398,0.115-3.57,0.455c-1.812,0.527-3.641,1.089-5.387,2.029
		c-1.613,0.871-3.271,1.912-4.65,3.504c-2.258,2.606-4.859,3.312-7.363,4.606c-1.232,0.638-2.449,1.427-3.711,1.833
		c-2.316,0.748-4.652,1.352-6.99,1.873h-4.115l-1.963-0.225c-1.504-0.146-3.008-0.291-4.51-0.437
		c-0.541-0.053-1.109,0.07-1.615-0.174c-2.33-1.126-4.619-2.504-6.969-3.489c-1.615-0.677-3.443-1.701-4.918-1.016
		c-1.373,0.64-2.707,0.21-4.016,0.811c-0.49,0.226-1.117,0.115-1.598-0.195c-1.35-0.875-2.688-0.452-4.062-0.383
		c-1.613,0.08-3.24-0.396-4.855-0.717c-3.078-0.609-6.158-1.187-9.221-1.962c-1.654-0.42-3.271-1.228-4.908-1.847
		c-0.24-0.092-0.514-0.246-0.732-0.145c-2.744,1.276-5.5,0.723-8.277,0.407c-1.684-0.19-3.393,0.312-5.094,0.411
		c-0.678,0.039-1.387-0.021-2.039-0.309c-0.906-0.4-1.656-1.153-2.734-0.351c-0.676,0.503-1.729-0.112-2.557-0.53
		c-2.666-1.35-5.295-2.92-7.965-4.254c-3.25-1.621-6.531-3.062-9.789-4.643c-0.805-0.391-1.578-0.975-2.348-1.547
		c-1.139-0.848-2.27-0.98-3.43-0.143c-0.309,0.224-0.705,0.664-0.945,0.508c-2.197-1.42-4.385,0.125-6.57-0.033
		c-0.445-0.032-0.998-0.105-1.326,0.268c-1.797,2.049-3.889,1.926-5.896,2.512c-3.496,1.018-6.986,2.119-10.461,3.336
		c-1.549,0.543-3.029,1.707-4.584,2.117c-2.086,0.553-4.213,0.696-6.326,0.914c-1.053,0.107-2.113-0.02-3.172-0.022
		c-2.135-0.009-4.277,0.194-6.4-0.06c-2.67-0.318-5.09,1.541-7.66,1.997c-1.502,0.267-3.006,0.86-4.502-0.163
		c-0.252-0.174-0.582-0.01-0.877-0.033c-0.706-0.057-1.431,0.014-2.123-0.133V285h279.755V183.003H279.689z"/>
	<path fill="#818181" d="M1030.922,108.641c-2.104,0.543-4.33,0.152-6.402,0.838c-3.959,1.311-7.844,3.101-11.766,4.666
		c-0.082,0.033-0.166,0.061-0.25,0.091l-5.41,0.392c-2.264-0.974-4.539-1.891-6.783-2.953c-1.289-0.611-2.521-1.488-3.784-2.226
		c-3.201-1.871-6.203-0.879-9.236,1.09c-2.373,1.541-4.879,2.64-7.324,3.935c-0.084,0.044-0.17,0.088-0.264,0.136l-9.31-0.464
		c-0.414-0.129-0.838-0.252-1.266-0.357c-1.104-0.272-2.289-0.402-3.383-0.131c-2.75,0.682-5.059-0.331-7.291-2.779
		c-0.916-1.004-2.346-0.971-3.535-1.458c-2.807-1.151-5.59-2.448-8.422-3.462c-2.072-0.742-4.225-0.997-6.305-1.699
		c-3.82-1.287-7.592-2.886-11.422-4.084c-2.804-0.877-5.652-1.514-8.504-1.911c-4.408-0.614-8.66-1.831-12.763-4.46
		c-1.561-1.002-3.471-1.077-5.225-1.108c-1.918-0.033-3.84,0.547-5.765,0.704c-0.758,0.062-1.577-0.103-2.284-0.495
		c-2.343-1.302-4.658-2.043-7.216-1.332c-1.342,0.373-2.832-0.527-4.205-0.274c-2.487,0.459-4.807-0.389-7.174-1.176
		c-1.313-0.438-2.75-0.238-4.012-0.855c-1.674-0.816-3.205-2.244-4.85-3.216c-0.705-0.416-1.545-0.462-2.322-0.449
		c-0.502,0.008-1.002,0.426-1.502,0.664c-1.877,0.892-3.65,1.964-5.789,1.354c-1.621-0.462-3.396,0.064-5.086,0.351
		c-2.724,0.463-5.168-0.852-7.652-2.153c-0.676-0.354-1.733-0.607-2.199-0.092c-2.34,2.594-4.719,0.973-7.051,0.39
		c-1.85-0.463-3.645-1.388-5.463-2.11c-0.102-0.04-0.229-0.197-0.291-0.15c-2.414,1.78-4.709-0.451-7.018-0.398
		c-3.922,0.09-7.729,1.425-11.187,4.654c-1.104,1.032-2.768,0.811-4.184,1.062c-0.756,0.136-1.709-0.357-2.265,0.158
		c-1.395,1.303-2.389,0.493-3.336-0.843c-0.737-1.044-1.409-1.373-2.5-1.113c-1.196,0.284-2.569,0.118-3.707-0.498
		c-1.61-0.876-3.03-0.319-4.567,0.141c-1.396,0.418-2.849,0.394-4.277,0.546c-2.887,0.309-5.781,0.509-8.656,0.969
		c-0.778,0.125-1.5,1.017-2.245,1.564c-0.185,0.136-0.351,0.398-0.541,0.439c-3.461,0.755-6.931,2.456-10.39,3.237
		c-0.987,0.224-1.942,0.752-2.932,0.965c-0.418,0.091-1.014,0.496-1.324,0.563c-0.424,0.092-1.186,0.199-1.512,0.244v19.713V285
		h277.151V107.021C1034.271,107.626,1032.605,108.206,1030.922,108.641z"/>
</g>
<g>
	<path fill="#FFFFFF" d="M300.428,275.079l0.072,2.718l-0.108,0.145l-1.404,0.107l-0.108-0.126l0.054-2.844h-3.168l-1.35,0.034
		l-0.126-0.16v-1.188l4.482-6.479h1.692l-0.054,6.371h1.62l0.108,0.161l-0.09,1.297L300.428,275.079z M298.952,273.656v-4.229
		h-0.144l-2.916,4.229H298.952z"/>
	<path fill="#FFFFFF" d="M305.864,275.745c0,0.888-0.636,1.787-1.908,2.698l-0.594-0.539l-0.018-0.145
		c0.66-0.539,0.99-1.092,0.99-1.656c0-0.371-0.187-0.688-0.558-0.953v-0.162c0.444-0.287,0.882-0.485,1.314-0.594
		C305.605,274.768,305.864,275.217,305.864,275.745z"/>
	<path fill="#FFFFFF" d="M314.477,268.338c0.666,0.786,0.999,1.905,0.999,3.355c0,1.514-0.351,2.684-1.053,3.512
		c-0.702,0.828-1.701,1.24-2.997,1.24c-1.224,0-2.172-0.393-2.844-1.178c-0.672-0.787-1.008-1.894-1.008-3.322
		c0-1.522,0.357-2.701,1.071-3.535s1.719-1.251,3.015-1.251C312.872,267.159,313.811,267.552,314.477,268.338z M309.014,271.82
		c0,2.005,0.84,3.007,2.52,3.007c1.68,0,2.52-0.974,2.52-2.916c0-2.04-0.846-3.062-2.538-3.062
		C309.848,268.852,309.014,269.841,309.014,271.82z"/>
	<path fill="#FFFFFF" d="M323.926,268.338c0.666,0.786,0.999,1.905,0.999,3.355c0,1.514-0.351,2.684-1.053,3.512
		s-1.701,1.24-2.997,1.24c-1.224,0-2.172-0.393-2.844-1.178c-0.672-0.787-1.008-1.894-1.008-3.322c0-1.522,0.357-2.701,1.071-3.535
		c0.714-0.834,1.719-1.251,3.015-1.251C322.321,267.159,323.26,267.552,323.926,268.338z M318.463,271.82
		c0,2.005,0.84,3.007,2.52,3.007c1.68,0,2.52-0.974,2.52-2.916c0-2.04-0.846-3.062-2.538-3.062
		C319.297,268.852,318.463,269.841,318.463,271.82z"/>
	<path fill="#FFFFFF" d="M333.376,268.338c0.666,0.786,0.999,1.905,0.999,3.355c0,1.514-0.351,2.684-1.053,3.512
		c-0.702,0.828-1.701,1.24-2.997,1.24c-1.224,0-2.172-0.393-2.844-1.178c-0.672-0.787-1.008-1.894-1.008-3.322
		c0-1.522,0.357-2.701,1.071-3.535s1.719-1.251,3.015-1.251C331.771,267.159,332.71,267.552,333.376,268.338z M327.913,271.82
		c0,2.005,0.84,3.007,2.52,3.007c1.68,0,2.52-0.974,2.52-2.916c0-2.04-0.846-3.062-2.538-3.062
		C328.747,268.852,327.913,269.841,327.913,271.82z"/>
	<path fill="#FFFFFF" d="M344.617,263.793l-0.108,1.387l-0.126,0.107c-0.516-0.229-0.978-0.344-1.386-0.344
		c-0.888,0-1.338,0.518-1.35,1.55l-0.018,1.548h2.124l0.054,0.126l-0.108,1.044h-2.088l-0.054,3.438l0.126,3.654h-1.836l0.108-3.492
		l-0.036-3.6h-1.242l-0.072-0.107l0.09-1.062h1.224l-0.018-1.242c-0.012-1.02,0.267-1.803,0.837-2.349
		c0.57-0.546,1.377-0.819,2.421-0.819C343.627,263.631,344.113,263.686,344.617,263.793z"/>
	<path fill="#FFFFFF" d="M345.787,272.234c0.036,1.871,0.828,2.809,2.376,2.809c0.78,0,1.59-0.252,2.43-0.756l0.162,0.107
		l-0.216,1.457c-0.84,0.408-1.68,0.612-2.52,0.612c-1.236,0-2.199-0.381-2.889-1.144c-0.69-0.762-1.035-1.803-1.035-3.122
		c0-1.345,0.36-2.403,1.08-3.179c0.72-0.772,1.686-1.16,2.898-1.16c0.96,0,1.704,0.281,2.232,0.847
		c0.528,0.563,0.792,1.344,0.792,2.34c0,0.312-0.024,0.612-0.072,0.899l-0.306,0.287h-4.932V272.234z M349.063,269.544
		c-0.264-0.282-0.63-0.423-1.098-0.423c-0.552,0-1.008,0.174-1.368,0.521c-0.36,0.349-0.6,0.84-0.72,1.477l3.546-0.092l0.036-0.215
		C349.459,270.249,349.327,269.826,349.063,269.544z"/>
	<path fill="#FFFFFF" d="M354.049,272.234c0.036,1.871,0.828,2.809,2.376,2.809c0.78,0,1.59-0.252,2.43-0.756l0.162,0.107
		l-0.216,1.457c-0.84,0.408-1.68,0.612-2.52,0.612c-1.236,0-2.199-0.381-2.889-1.144c-0.69-0.762-1.035-1.803-1.035-3.122
		c0-1.345,0.36-2.403,1.08-3.179c0.72-0.772,1.686-1.16,2.898-1.16c0.96,0,1.704,0.281,2.232,0.847
		c0.528,0.563,0.792,1.344,0.792,2.34c0,0.312-0.024,0.612-0.072,0.899l-0.306,0.287h-4.932V272.234z M357.325,269.544
		c-0.264-0.282-0.63-0.423-1.098-0.423c-0.552,0-1.008,0.174-1.368,0.521c-0.36,0.349-0.6,0.84-0.72,1.477l3.546-0.092l0.036-0.215
		C357.721,270.249,357.589,269.826,357.325,269.544z"/>
	<path fill="#FFFFFF" d="M365.443,274.593l0.18,0.126l-0.18,1.152c-0.66,0.312-1.272,0.49-1.836,0.54
		c-0.744-0.12-1.284-0.369-1.62-0.747c-0.336-0.378-0.504-0.928-0.504-1.646l0.072-1.297l-0.018-3.51h-1.134l-0.072-0.107
		l0.09-1.062h1.098v-1.314l1.62-0.611l0.162,0.145l-0.036,1.782h2.304l0.072,0.126l-0.09,1.044h-2.322l-0.09,4.519
		c-0.012,0.443,0.063,0.752,0.225,0.927c0.162,0.175,0.435,0.262,0.819,0.262C364.579,274.917,364.999,274.809,365.443,274.593z"/>
</g>
</svg>
