<?xml version="1.0" encoding="utf-8"?>
<!-- Generator: Adobe Illustrator 16.0.4, SVG Export Plug-In . SVG Version: 6.00 Build 0)  -->
<!DOCTYPE svg PUBLIC "-//W3C//DTD SVG 1.1//EN" "http://www.w3.org/Graphics/SVG/1.1/DTD/svg11.dtd">
<svg version="1.1" id="Layer_1" xmlns="http://www.w3.org/2000/svg" xmlns:xlink="http://www.w3.org/1999/xlink" x="0px" y="0px"
	 width="1036px" height="285px" viewBox="0 0 1036 285" enable-background="new 0 0 1036 285" xml:space="preserve">
<path d="M295.602,28.897c3.732,2.424,7.49,4.201,11.621,4.078c4.65-0.139,8.986,2.438,13.275,4.753
	c3.271,1.765,6.484,3.772,9.855,4.788h6.125c0.645-0.312,1.287-0.618,1.939-0.884c1.248-0.51,2.596-0.628,3.755-1.419
	c2.03-1.385,3.491-4.765,6.175-3.9c0.443,0.143,1.002-0.592,1.512-0.906s1.01-0.696,1.537-0.901
	c3.133-1.216,6.279-2.344,9.404-3.595c1.799-0.72,3.621-1.41,5.332-2.483c2.445-1.533,4.869-3.219,7.176-5.185
	c2.496-2.127,4.836-4.68,7.275-6.97c0.352-0.33,0.871-0.323,1.314-0.321c1.943,0.01,3.863-0.072,5.426-2.222
	c2.221-3.055,4.971-4.166,7.793-4.194c2.273-0.022,4.592,0.66,6.818,1.483c3.754,1.388,7.734,0.899,11.352,3.135
	c2.436,1.505,4.736,3.529,7.113,5.271c2.426,1.778,4.863,3.524,7.312,5.228c1.225,0.852,2.459,1.734,3.744,2.306
	c1.008,0.448,2.105,0.628,3.154,0.571c0.803-0.044,1.58-0.768,2.393-0.969c2.123-0.526,4.439-2.079,6.035,1.622
	c1.318,3.065,3.412,3.788,5.455,4.155c4.285,0.772,8.602,1.191,12.91,1.592c2.621,0.243,4.799-1.405,6.98-3.692
	c1.939-2.034,4.318-3.098,6.525-4.509c0.648-0.414,1.439-0.352,2.047-0.853c2.277-1.879,4.447-4.087,6.77-5.815
	c2.311-1.721,4.625-3.595,7.4-3.059c0.992,0.19,2.059-0.369,3.074-0.697c2.797-0.901,5.564-2.07,8.385-2.689
	c1.014-0.223,2.15,0.785,3.221,1.296c1.441,0.688,2.863,1.477,4.309,2.143c0.572,0.265,1.188,0.419,1.783,0.438
	c0.666,0.021,1.426,0.113,1.984-0.312c2.471-1.885,4.91-2.935,7.535-0.67c0.457,0.395,1.076,0.317,1.594,0.585
	c0.438,0.228,0.887,0.541,1.244,0.981c2.535,3.124,4.941,6.529,7.611,9.35c1.461,1.544,3.303,2.154,5.182,0.705
	c3.535-2.729,7.078-5.473,10.727-7.814c1.582-1.016,3.523-0.67,5.139-1.604c3.941-2.276,7.637-0.428,11.088,1.814
	c2.031,1.32,3.998,2.455,6.146,3.123c2.688,0.836,5.254,0.121,7.76-1.141c1.637-0.822,3.15-2.206,4.76-3.17
	c3.203-1.915,6.447-3.674,9.654-5.572c2.441-1.445,4.701-3.619,7.424-3.871c4.143-0.384,7.779,2.549,11.629,4.063
	c1.996,0.785,3.875,2.412,5.885,2.925c1.541,0.394,3.51,0.379,4.738-0.803c1.404-1.351,2.711-2.756,4.32-3.488
	c0.557-0.254,1.184-0.709,1.531-1.375c1.113-2.125,2.48-2.411,4.105-1.941c1.709,0.494,3.441,0.777,5.164,1.159
	c0.215,0.048,0.447,0.069,0.639,0.209c2.236,1.622,4.412,3.479,6.713,4.845c2.523,1.497,4.199,5.056,6.975,6.046
	c1.555,0.555,2.826,0.974,4.184-0.487c0.672-0.724,1.395-1.748,2.135-1.837c3.387-0.405,6.801-0.321,10.178-0.84
	c1.68-0.258,3.404,0.05,5.055-1.699c2.227-2.357,4.705-3.769,7.6-1.541c1.188,0.914,2.488,2.801,4.16,1.605
	c1.242-0.889,2.441-0.794,3.568,0.594c0.326,0.402,0.811,0.682,1.229,0.7c2.738,0.127,4.893,2.226,7.104,4.435
	c1.521,1.521,3.311,2.492,5.049,3.404c2.16,1.135,4.516,1.55,6.551,3.037c1.652,1.208,3.251,1.843,5.02,1.987
	c0.98,0.08,2.064,0.026,2.9,0.658c0.945,0.713,1.551,0.514,2.406-0.202c1.619-1.354,3.266-2.616,5.279-1.516
	c0.627,0.343,1.701,0.011,2.219-0.656c1.771-2.279,3.645-2.869,5.582-1.025c1.521,1.446,2.691,0.634,3.928-0.576
	c0.842-0.822,1.623-1.808,2.502-2.517c1.062-0.858,2.172-1.666,3.324-2.141c0.303-0.125,1.148,0.488,1.393,0.981v48.474l0,0v213.307
	h-451V42.911c-0.006,0-0.01,0-0.016,0c0-5.17,0-9.976,0-14.944C293.145,28.271,294.486,28.174,295.602,28.897z"/>
<g>
	<path fill="#808080" d="M284.825,70.547h-0.035c0-14.567,0-27.87,0-42.556c-0.237-0.13-0.588-0.678-0.771-0.37
		c-2.586,4.361-4.978-1.088-7.37-2.637c-2.818-1.822-5.546-4.829-8.32-7.248c-1.297-1.131-2.591-2.503-3.92-3.041
		c-3.215-1.299-6.238-3.891-8.925-9.382c-0.233-0.478-0.546-0.728-0.835-0.855c-3.84-1.712-7.752-5.561-11.506-4.526
		c-4.985,1.374-10.091,0.782-15.002,6.752c-3.676,4.467-7.891,5.424-11.909,7.042c-1.225,0.493-2.606-1.877-3.889-3.163
		c-3.228-3.234-6.343-1.521-9.556,0.737c-4.271,3.004-8.254,10.262-12.912,7.93c-1.393-0.697-2.832-0.913-4.178-2.066
		c-4.288-3.674-8.617-3.843-13.01-2.337c-2.876,0.984-5.795,1.07-8.647,2.409c-4.245,1.991-8.33,5.462-11.435,15.088
		c-0.804,2.49-1.732,2.56-2.918,1.987c-2.209-1.066-4.481-0.925-6.719-1.548c-3.288-0.914-6.576-1.896-9.849-3.173
		c-1.688-0.659-3.33-2.625-5.017-2.943c-3.874-0.729-7.766-1.229-11.646-1.045c-4.258,0.203-8.522,0.943-12.761,2.143
		c-1.64,0.464-3.196,3.041-4.824,4.289c-4.655,3.569-9.378,5.524-14.215,5.043c-1.026-0.102-2.073,1.007-3.1,1.697
		c-4.181,2.811-8.144,8.231-12.603,7.803c-1.652-0.159-3.369,1.613-4.988,3.131c-4.431,4.151-8.856,4.236-13.271,0.287
		c-3.936-3.521-7.775-8.027-11.751-11.05c-7.526-5.724-15.161-9.879-22.983-6.007c-3.535,1.75-7.008,4.548-10.533,6.502
		c-1.793,0.992-3.643,1.726-5.459,1.604c-0.108-0.007-0.216-0.001-0.323-0.006v243.645h285.179V70.547z"/>
	<path fill="#808080" d="M1023.507,81.774c-4.369-3.382-8.914-2.994-13.328-5.669c-4.936-2.997-9.906-3.712-14.484-15.525
		c-2.738-7.066-6.669-7.139-10.102-9.467c-4.194-2.841-8.729-1.779-12.557-7.938c-3.517-5.657-7.002-8.66-10.627-11.111
		c-3.916-2.648-7.811-5.91-11.745-7.979c-6.022-3.164-12.069-5.649-18.114-8.125c-0.945-0.387-1.934,1.262-2.896,1.164
		c-3.227-0.326-6.46-1.936-9.672-1.33c-3.756,0.709-7.481,4.032-11.236,4.735c-3.894,0.732-7.809-0.096-11.711-0.673
		c-1.879-0.276-3.744-2.01-5.622-2.275c-3.484-0.496-6.974-0.509-10.46-0.523c-5.109-0.02-10.22-0.023-15.328,0.261
		c-5.059,0.284-10.117,1.008-15.176,1.401c-2.679,0.21-5.372-0.535-8.035,0.327c-4.803,1.557-9.586,4.053-14.381,6.051
		c-5.979,2.494-11.961,6.727-17.941,6.743c-4.967,0.012-10-0.648-14.932-7.686c-3.692-5.267-7.744-7.849-11.907-4.65
		c-2.829,2.171-5.828,0.612-8.747,1.146c-3.428,0.628-6.848,2.179-10.274,2.478c-3.498,0.305-7.001-0.444-10.501-0.679
		c-1.654-0.112-2.692,0.509-3.877,0.509c0,36.262,0,71.309,0,107.559h-0.075v154.166h285.869V87.417
		C1031.587,86.44,1027.535,84.892,1023.507,81.774z"/>
</g>
<g>
	<path fill="#FFFFFF" d="M306.57,274.762l0.071,2.718l-0.107,0.144l-1.404,0.108l-0.107-0.126l0.054-2.844h-3.168l-1.351,0.035
		l-0.126-0.161v-1.188l4.482-6.479h1.692l-0.055,6.371h1.62l0.108,0.162l-0.09,1.296L306.57,274.762z M305.094,273.339v-4.229
		h-0.144l-2.916,4.229H305.094z"/>
	<path fill="#FFFFFF" d="M312.006,275.428c0,0.888-0.637,1.787-1.908,2.699l-0.594-0.54l-0.019-0.144
		c0.66-0.54,0.99-1.092,0.99-1.656c0-0.371-0.186-0.689-0.558-0.954v-0.162c0.443-0.287,0.882-0.485,1.313-0.594
		C311.748,274.449,312.006,274.899,312.006,275.428z"/>
	<path fill="#FFFFFF" d="M320.618,268.021c0.666,0.786,0.999,1.905,0.999,3.356c0,1.513-0.351,2.683-1.053,3.511
		s-1.701,1.241-2.997,1.241c-1.224,0-2.172-0.393-2.844-1.179s-1.008-1.893-1.008-3.321c0-1.523,0.356-2.702,1.071-3.536
		c0.713-0.834,1.719-1.251,3.015-1.251C319.014,266.842,319.952,267.234,320.618,268.021z M315.155,271.503
		c0,2.005,0.84,3.007,2.521,3.007c1.68,0,2.52-0.973,2.52-2.916c0-2.04-0.846-3.061-2.538-3.061
		C315.989,268.533,315.155,269.523,315.155,271.503z"/>
	<path fill="#FFFFFF" d="M330.068,268.021c0.666,0.786,0.999,1.905,0.999,3.356c0,1.513-0.351,2.683-1.053,3.511
		s-1.701,1.241-2.997,1.241c-1.224,0-2.172-0.393-2.844-1.179c-0.673-0.786-1.009-1.893-1.009-3.321
		c0-1.523,0.357-2.702,1.071-3.536s1.719-1.251,3.016-1.251C328.464,266.842,329.402,267.234,330.068,268.021z M324.605,271.503
		c0,2.005,0.84,3.007,2.521,3.007c1.68,0,2.52-0.973,2.52-2.916c0-2.04-0.846-3.061-2.538-3.061
		C325.439,268.533,324.605,269.523,324.605,271.503z"/>
	<path fill="#FFFFFF" d="M339.519,268.021c0.666,0.786,0.999,1.905,0.999,3.356c0,1.513-0.352,2.683-1.053,3.511
		c-0.702,0.828-1.701,1.241-2.997,1.241c-1.225,0-2.173-0.393-2.845-1.179s-1.008-1.893-1.008-3.321
		c0-1.523,0.357-2.702,1.071-3.536s1.719-1.251,3.015-1.251C337.913,266.842,338.853,267.234,339.519,268.021z M334.056,271.503
		c0,2.005,0.84,3.007,2.52,3.007s2.521-0.973,2.521-2.916c0-2.04-0.847-3.061-2.538-3.061
		C334.89,268.533,334.056,269.523,334.056,271.503z"/>
	<path fill="#FFFFFF" d="M350.759,263.476l-0.107,1.386l-0.126,0.108c-0.517-0.229-0.979-0.343-1.387-0.343
		c-0.888,0-1.338,0.517-1.35,1.549l-0.018,1.548h2.124l0.054,0.126l-0.108,1.044h-2.088l-0.054,3.438l0.126,3.654h-1.836
		l0.107-3.492l-0.035-3.6h-1.242l-0.072-0.108l0.09-1.062h1.225l-0.019-1.242c-0.012-1.02,0.267-1.803,0.837-2.349
		s1.377-0.819,2.421-0.819C349.77,263.313,350.255,263.367,350.759,263.476z"/>
	<path fill="#FFFFFF" d="M351.929,271.917c0.036,1.872,0.828,2.809,2.376,2.809c0.78,0,1.591-0.252,2.431-0.756l0.162,0.107
		l-0.217,1.458c-0.84,0.408-1.68,0.612-2.52,0.612c-1.236,0-2.199-0.381-2.889-1.144c-0.69-0.762-1.035-1.803-1.035-3.122
		c0-1.345,0.359-2.403,1.08-3.178c0.72-0.773,1.686-1.161,2.897-1.161c0.96,0,1.704,0.282,2.232,0.847
		c0.527,0.563,0.792,1.344,0.792,2.34c0,0.312-0.024,0.612-0.072,0.899l-0.306,0.288H351.929z M355.205,269.227
		c-0.264-0.282-0.63-0.423-1.098-0.423c-0.553,0-1.008,0.174-1.368,0.521c-0.36,0.349-0.601,0.84-0.72,1.477l3.546-0.091
		l0.036-0.216C355.602,269.932,355.469,269.509,355.205,269.227z"/>
	<path fill="#FFFFFF" d="M360.191,271.917c0.036,1.872,0.828,2.809,2.376,2.809c0.779,0,1.59-0.252,2.43-0.756l0.162,0.107
		l-0.216,1.458c-0.84,0.408-1.681,0.612-2.521,0.612c-1.235,0-2.199-0.381-2.889-1.144c-0.69-0.762-1.035-1.803-1.035-3.122
		c0-1.345,0.36-2.403,1.08-3.178c0.72-0.773,1.686-1.161,2.898-1.161c0.96,0,1.703,0.282,2.231,0.847
		c0.528,0.563,0.792,1.344,0.792,2.34c0,0.312-0.024,0.612-0.072,0.899l-0.306,0.288H360.191z M363.467,269.227
		c-0.264-0.282-0.63-0.423-1.098-0.423c-0.552,0-1.008,0.174-1.368,0.521c-0.359,0.349-0.6,0.84-0.72,1.477l3.546-0.091l0.036-0.216
		C363.863,269.932,363.73,269.509,363.467,269.227z"/>
	<path fill="#FFFFFF" d="M371.585,274.275l0.18,0.126l-0.18,1.152c-0.66,0.312-1.272,0.491-1.836,0.54
		c-0.744-0.12-1.284-0.369-1.62-0.747s-0.504-0.928-0.504-1.647l0.072-1.296l-0.019-3.51h-1.134l-0.072-0.108l0.09-1.062h1.099
		v-1.314l1.62-0.612l0.162,0.145l-0.036,1.782h2.304l0.072,0.126l-0.09,1.044h-2.322l-0.09,4.518
		c-0.013,0.444,0.062,0.753,0.225,0.927c0.162,0.175,0.435,0.262,0.819,0.262C370.721,274.6,371.141,274.491,371.585,274.275z"/>
</g>
</svg>
