<?xml version="1.0" encoding="utf-8"?>
<!-- Generator: Adobe Illustrator 16.0.4, SVG Export Plug-In . SVG Version: 6.00 Build 0)  -->
<!DOCTYPE svg PUBLIC "-//W3C//DTD SVG 1.1//EN" "http://www.w3.org/Graphics/SVG/1.1/DTD/svg11.dtd">
<svg version="1.1" id="Layer_1" xmlns="http://www.w3.org/2000/svg" xmlns:xlink="http://www.w3.org/1999/xlink" x="0px" y="0px"
	 width="1036px" height="285px" viewBox="0 0 1036 285" enable-background="new 0 0 1036 285" xml:space="preserve">
<path fill-rule="evenodd" clip-rule="evenodd" d="M303.14,75.005c1.947-1.701,3.602-2.15,5.145-4.232
	c2.525-3.407,4.984-4.241,7.863-2.31c2.305,1.548,4.719,1.843,7.117-0.227c1.289-1.111,2.732-1.451,4.119-2.009
	c1.848-0.743,3.729-1.162,5.555-2.086c1.721-0.869,3.338-2.889,5.207-1.382c0.299,0.241,0.715-0.249,1.078-0.288
	c1.865-0.204,3.752-0.83,5.59-0.431c2.123,0.46,4.184,2.181,6.307,2.725c2.807,0.718,5.682,0.23,8.385,2.578
	c0.363,0.317,0.834,0.176,1.25,0.106c2.352-0.39,4.712-0.672,7.05-1.288c1.963-0.516,3.955-1.072,5.838-2.281
	c2.135-1.37,4.196-2.902,6.481-2.388c1.693,0.382,3.403,0.608,5.104,0.583c2.176-0.033,4.351-0.457,6.527-0.565
	c0.668-0.033,1.376,0.207,2.008,0.678c2.888,2.152,5.829,1.544,8.755,0.811c2.077-0.521,4.133-1.431,6.195-2.208
	c2.823-1.064,5.778-1.385,8.427-3.471c2.76-2.176,5.314-5.777,7.786-9.305c2.085-2.975,3.881-3.624,6.143-1.095
	c2.745,3.07,5.486,6.172,8.306,8.907c0.768,0.744,1.834,0.54,2.717,0.208c2.575-0.966,5.132-2.17,7.686-3.376
	c1.257-0.594,2.487-1.432,3.737-2.096c0.857-0.456,1.806-1.479,2.579-1.075c2.678,1.398,5.254,3.799,7.95,4.896
	c3.172,1.291,5.881,4.667,8.771,7.26c0.914,0.819,1.892,1.399,2.865,1.82c2.838,1.227,5.633,2.427,8.056,6.285
	c4.7,7.486,10.221,9.961,15.91,11.41c1.957,0.499,3.869,1.767,5.812,2.564c0.751,0.309,1.724,0.981,2.263,0.296
	c1.913-2.435,3.838-2.501,5.93-1.653c0.839,0.34,1.763-0.387,2.651-0.44c0.889-0.055,1.802-0.118,2.666,0.242
	c3.146,1.308,6.213,1.457,9.223-1.467c2.278-2.214,4.631-2.943,6.933-0.046c2.168,2.728,4.53,2.087,6.862,1.938
	c2.336-0.148,4.675-0.677,7.006-0.549c3.323,0.182,6.521,2.585,9.947,1.973c2.287-0.408,4.643,1.421,6.982,1.765
	c4.333,0.636,8.361-2.284,12.354-5.425c0.629-0.495,1.335-1.206,1.948-1.008c2.219,0.72,4.516,1.202,6.593,2.854
	c3.119,2.482,6.27,1.112,9.398,1.605c2.582,0.406,5.229,0.409,7.714,1.724c2.245,1.188,4.338,3.646,6.265,5.466h0.19l3.082-0.314
	c0.635-0.288,1.268-0.624,1.91-0.753c1.62-0.324,3.27-0.221,4.868-0.792c6.185-2.208,12.334-4.893,18.535-6.84
	c3.826-1.202,7.488-4.228,11.447-4.047c2.069,0.095,4.16-0.94,6.224-1.684c3.043-1.096,6.075-2.336,9.104-3.604
	c5.438-2.277,10.863-4.725,16.312-6.896c2.747-1.096,5.411-3.601,8.35-2.014c0.965,0.521,2.104,0.03,3.119-0.429
	c2.249-1.015,4.449-2.553,6.708-3.428c5.197-2.012,10.438-3.538,15.623-5.685c3.492-1.445,6.896-3.865,10.385-5.368
	c2.268-0.976,4.396-1.746,6.702-2.241V285H303.139V75.36h-0.001C303.138,75.244,303.14,75.119,303.14,75.005z"/>
<g>
	<path fill="#808080" d="M296.17,133.619c0-0.124,0-0.245,0-0.369c0-19.945,0-39.319,0-58.245c-2.53,0-5.038,0.367-7.532-0.224
		c-3.431-0.812-6.851-2.45-10.276-3.678c-0.564-0.203-1.139,0.026-1.704-0.185c-4.495-1.67-8.989-3.441-13.485-5.091
		c-2.763-1.014-5.53-1.756-8.291-2.821c-4.188-1.616-8.369-3.538-12.557-5.07c-2.152-0.788-4.322-0.694-6.471-1.569
		c-3.365-1.37-6.72-3.249-10.08-4.862c-3.057-1.467-6.107-3.153-9.172-4.208c-2.541-0.872-5.105-1.758-7.643-1.246
		c-6.259,1.264-12.508,3.395-18.763,5.042c-3.9,1.028-7.804,1.836-11.707,2.703c-2.157,0.479-4.322,1.508-6.474,1.151
		c-2.814-0.468-5.615-2.235-8.428-3.098c-1.588-0.486-3.189-0.146-4.782-0.412c-2.339-0.39-4.724,0.104-7.002-1.738
		c-3.989-3.229-7.94-7.011-12.036-6.432c-3.141,0.444-6.283,1.087-9.426,1.22c-1.617,0.066-3.234-0.886-4.853-1.207
		c-2.901-0.575-5.638,2.269-8.429,5.661c-3.729,4.533-7.607,6.855-11.42,10.152c-2.709,2.344-5.396,5.286-8.127,6.972
		c-4.713,2.911-9.454,5.019-14.182,7.527c-3.559,1.89-7.103,4.444-10.674,5.659c-3.207,1.091-6.442,0.669-9.664,1.098
		c-1.641,0.219-3.36-0.369-4.904,1.502c-5.182,6.279-10.474,5.396-15.76,6.447c-6.097,1.209-12.174,4.084-18.26,6.23
		c-3.887,1.371-7.772,2.815-11.661,4.079c-4.1,1.332-8.2,2.663-12.301,3.889V285H296.17V133.619z"/>
	<path fill="#808080" d="M1033.914,64.679c-5.412-3.06-10.9-5.45-16.334-8.333c-3.785-2.009-7.629-3.775-11.273-6.71
		c-4.161-3.352-8.259-2.956-12.321-0.562c-6.767,3.986-13.569,7.354-20.598,6.199c-3.29-0.541-6.513-2.891-9.796-3.955
		c-4.348-1.408-8.729-2.326-13.091-3.522c-2.041-0.559-4.126-0.841-6.099-2.014c-3.5-2.082-6.835-0.289-9.716,3.214
		c-3.961,4.815-8.234,5.699-12.469,7.295c-3.63,1.367-7.453,0.914-10.952,3.121c-6.072,3.832-12.184,2.538-18.284,2.541
		c-4.47,0.002-8.937-1.335-13.411-1.693c-2.119-0.17-4.314-0.039-6.367,1.008c-3.642,1.858-7.021-0.76-10.521-1.651
		c-2.826-0.721-5.713-0.247-8.574-0.289c-2.396-0.034-4.793-0.056-7.189-0.067c-3.686-0.019-7.381,0.354-11.055-0.115
		c-7.023-0.898-14.029-2.604-21.057-3.232c-1.857-0.165-3.734,2.677-5.656,3.613c-4.068,1.984-8.144,4.301-12.271,5.145
		c-2.387,0.486-4.87-1.853-7.33-2.521c-3.169-0.861-6.379-1.031-9.535-2.047c-2.65-0.853-5.252-2.475-7.871-3.788
		c-4.348-2.179-8.673-4.608-13.049-6.442c-1.339-0.561-2.828,0.922-4.225,0.702c-3.326-0.521-6.637-1.495-9.953-2.3
		c-1.674-0.406-3.354-0.845-5.196-1.312v62.791V285h296.389V66.058C1035.38,65.567,1034.649,65.095,1033.914,64.679z"/>
</g>
<g>
	<path fill="#FFFFFF" d="M322.146,275.079l0.072,2.718l-0.108,0.144l-1.404,0.108l-0.108-0.126l0.054-2.844h-3.168l-1.35,0.035
		l-0.126-0.161v-1.188l4.482-6.479h1.692l-0.054,6.371h1.62l0.108,0.162l-0.09,1.296L322.146,275.079z M320.671,273.656v-4.229
		h-0.144l-2.916,4.229H320.671z"/>
	<path fill="#FFFFFF" d="M327.583,275.745c0,0.888-0.636,1.787-1.908,2.699l-0.594-0.54l-0.018-0.144
		c0.66-0.54,0.99-1.092,0.99-1.656c0-0.371-0.187-0.689-0.558-0.954v-0.162c0.444-0.287,0.882-0.485,1.314-0.594
		C327.324,274.767,327.583,275.217,327.583,275.745z"/>
	<path fill="#FFFFFF" d="M336.195,268.338c0.666,0.786,0.999,1.905,0.999,3.356c0,1.513-0.351,2.683-1.053,3.511
		c-0.702,0.828-1.701,1.241-2.997,1.241c-1.224,0-2.172-0.393-2.844-1.179c-0.672-0.786-1.008-1.893-1.008-3.321
		c0-1.523,0.357-2.702,1.071-3.536s1.719-1.251,3.015-1.251C334.59,267.159,335.529,267.552,336.195,268.338z M330.732,271.82
		c0,2.005,0.84,3.007,2.52,3.007c1.68,0,2.52-0.973,2.52-2.916c0-2.04-0.846-3.061-2.538-3.061
		C331.566,268.851,330.732,269.841,330.732,271.82z"/>
	<path fill="#FFFFFF" d="M345.645,268.338c0.666,0.786,0.999,1.905,0.999,3.356c0,1.513-0.351,2.683-1.053,3.511
		c-0.702,0.828-1.701,1.241-2.997,1.241c-1.224,0-2.172-0.393-2.844-1.179s-1.008-1.893-1.008-3.321
		c0-1.523,0.357-2.702,1.071-3.536s1.719-1.251,3.015-1.251C344.04,267.159,344.979,267.552,345.645,268.338z M340.182,271.82
		c0,2.005,0.84,3.007,2.52,3.007c1.68,0,2.52-0.973,2.52-2.916c0-2.04-0.846-3.061-2.538-3.061
		C341.016,268.851,340.182,269.841,340.182,271.82z"/>
	<path fill="#FFFFFF" d="M355.095,268.338c0.666,0.786,0.999,1.905,0.999,3.356c0,1.513-0.351,2.683-1.053,3.511
		s-1.701,1.241-2.997,1.241c-1.224,0-2.172-0.393-2.844-1.179c-0.672-0.786-1.008-1.893-1.008-3.321
		c0-1.523,0.357-2.702,1.071-3.536c0.714-0.834,1.719-1.251,3.015-1.251C353.49,267.159,354.429,267.552,355.095,268.338z
		 M349.632,271.82c0,2.005,0.84,3.007,2.52,3.007s2.52-0.973,2.52-2.916c0-2.04-0.846-3.061-2.538-3.061
		C350.466,268.851,349.632,269.841,349.632,271.82z"/>
	<path fill="#FFFFFF" d="M366.336,263.793l-0.108,1.386l-0.126,0.108c-0.516-0.229-0.978-0.343-1.386-0.343
		c-0.888,0-1.338,0.517-1.35,1.549l-0.018,1.548h2.124l0.054,0.126l-0.108,1.044h-2.088l-0.054,3.438l0.126,3.654h-1.836
		l0.108-3.492l-0.036-3.6h-1.242l-0.072-0.108l0.09-1.062h1.224l-0.018-1.242c-0.012-1.02,0.267-1.803,0.837-2.349
		s1.377-0.819,2.421-0.819C365.346,263.631,365.832,263.685,366.336,263.793z"/>
	<path fill="#FFFFFF" d="M367.506,272.234c0.036,1.872,0.828,2.809,2.376,2.809c0.78,0,1.59-0.252,2.43-0.756l0.162,0.107
		l-0.216,1.458c-0.84,0.408-1.68,0.612-2.52,0.612c-1.236,0-2.199-0.381-2.889-1.144c-0.69-0.762-1.035-1.803-1.035-3.122
		c0-1.345,0.36-2.403,1.08-3.178c0.72-0.773,1.686-1.161,2.898-1.161c0.96,0,1.704,0.282,2.232,0.847
		c0.528,0.563,0.792,1.344,0.792,2.34c0,0.312-0.024,0.612-0.072,0.899l-0.306,0.288H367.506z M370.782,269.544
		c-0.264-0.282-0.63-0.423-1.098-0.423c-0.552,0-1.008,0.174-1.368,0.521c-0.36,0.349-0.6,0.84-0.72,1.477l3.546-0.091l0.036-0.216
		C371.178,270.249,371.045,269.826,370.782,269.544z"/>
	<path fill="#FFFFFF" d="M375.768,272.234c0.036,1.872,0.828,2.809,2.376,2.809c0.78,0,1.59-0.252,2.43-0.756l0.162,0.107
		l-0.216,1.458c-0.84,0.408-1.68,0.612-2.52,0.612c-1.236,0-2.199-0.381-2.889-1.144c-0.69-0.762-1.035-1.803-1.035-3.122
		c0-1.345,0.36-2.403,1.08-3.178c0.72-0.773,1.686-1.161,2.898-1.161c0.96,0,1.704,0.282,2.232,0.847
		c0.528,0.563,0.792,1.344,0.792,2.34c0,0.312-0.024,0.612-0.072,0.899l-0.306,0.288H375.768z M379.044,269.544
		c-0.264-0.282-0.63-0.423-1.098-0.423c-0.552,0-1.008,0.174-1.368,0.521c-0.36,0.349-0.6,0.84-0.72,1.477l3.546-0.091l0.036-0.216
		C379.44,270.249,379.308,269.826,379.044,269.544z"/>
	<path fill="#FFFFFF" d="M387.162,274.593l0.18,0.126l-0.18,1.152c-0.66,0.312-1.272,0.491-1.836,0.54
		c-0.744-0.12-1.284-0.369-1.62-0.747s-0.504-0.928-0.504-1.647l0.072-1.296l-0.018-3.51h-1.134l-0.072-0.108l0.09-1.062h1.098
		v-1.314l1.62-0.612l0.162,0.145l-0.036,1.782h2.304l0.072,0.126l-0.09,1.044h-2.322l-0.09,4.518
		c-0.012,0.444,0.063,0.753,0.225,0.927c0.162,0.175,0.435,0.262,0.819,0.262C386.298,274.917,386.718,274.809,387.162,274.593z"/>
</g>
</svg>
