<?xml version="1.0" encoding="utf-8"?>
<!-- Generator: Adobe Illustrator 16.0.4, SVG Export Plug-In . SVG Version: 6.00 Build 0)  -->
<!DOCTYPE svg PUBLIC "-//W3C//DTD SVG 1.1//EN" "http://www.w3.org/Graphics/SVG/1.1/DTD/svg11.dtd">
<svg version="1.1" id="Layer_1" xmlns="http://www.w3.org/2000/svg" xmlns:xlink="http://www.w3.org/1999/xlink" x="0px" y="0px"
	 width="2365px" height="285px" viewBox="0 0 2365 285" enable-background="new 0 0 2365 285" xml:space="preserve">
<path d="M280.075,104.75c-1.284-0.776-2.473-0.676-3.644-1.8c-3.122-2.996-6.247-5.953-9.347-9.661
	c-1.542-1.845-3.01-6.717-4.553-7.729c-3.06-2.009-5.924-9.482-9.038-10.427c-2.056-0.624-4.066-6.13-6.117-8.881
	c-1.015-1.361-2.073-1.491-3.114-2.075c-0.631-0.354-1.272-0.237-1.897-0.804c-1.757-1.597-3.506-3.551-5.263-5.139
	c-1.074-0.97-2.161-1.386-3.237-2.289c-1.957-1.641-3.91-3.438-5.863-5.207c-2.622-2.372-5.246-4.64-7.863-7.215
	c-2.42-2.385-4.827-5.308-7.248-7.643c-2.654-2.562-5.314-4.904-7.978-7.01c-2.983-2.359-5.981-6.366-8.96-5.975
	c-3.498,0.461-6.987,4.652-10.47,7.662c-2.777,2.399-5.532,5.821-8.312,8.107c-2.508,2.062-5.038,3.03-7.553,4.784
	c-3.26,2.275-6.513,4.947-9.773,7.267c-2.436,1.732-4.88,3.065-7.318,4.773c-4.008,2.811-8.01,5.99-12.021,8.619
	c-3.542,2.32-7.099,3.813-10.64,6.195c-3.612,2.429-7.267,1.805-10.848,7.065c-1.539,2.265-3.206,0.934-4.786,2.408
	c-1.599,1.491-3.147,5.073-4.745,6.613c-3.557,3.425-7.127,6.329-10.7,9.106c-3.572,2.776-7.155,4.98-10.727,7.745
	c-2.351,1.82-4.743,2.923-7.025,6.571c-5.014,8.019-10.036,12.887-15.244,11.444c-2.958-0.819-5.937,2.095-8.91,2.511
	c-2.021,0.285-4.048-1.299-6.072-1.237c-3.021,0.088-6.042,1.246-9.063,1.278c-2.582,0.027-5.164-1.137-7.747-1.325
	c-3.43-0.25-6.86-0.209-10.29-0.03c-7.687,0.402-15.375,0.946-23.062,1.528c-0.182,0.014-0.363,0.324-0.543,0.682h-0.06V285h280
	V124.729c0.009,0,0.018,0,0.027,0C280.075,117.45,280.075,110.715,280.075,104.75z"/>
<path d="M1004.4,104.833c0-9.01,0-17.243,0-26.734c-1.607,0.403-3.182,0.191-4.48,0.486c-4.456,1.009-8.91,2.046-13.368,2.979
	c-3.967,0.829-7.953,1.249-11.901,2.403c-2.248,0.658-4.411,2.978-6.659,3.588c-6.32,1.718-12.678,2.683-18.998,4.413
	c-8.641,2.367-16.73,12.114-25.73,10.353c-1.27-0.249-2.554-0.008-3.843,0.363v-0.005l-47.991,1.037l0.012,0.004
	c-2.355-0.272-4.727-0.494-7.1-0.554c-5.729-0.143-11.465,0.833-17.192,0.594c-7.17-0.299-14.347-0.945-21.497-2.216
	c-4.08-0.724-8.192-2.252-12.146-4.714c-7.788-4.85-15.415-11.179-23.224-15.794c-6.104-3.606-12.406-5.305-18.581-8.303
	c-5.625-2.731-11.297-5.319-16.767-9.352c-5.43-4.006-10.725-7.813-16.542-7.126c-4.47,0.527-8.977-0.636-13.467-1.073
	c-1.714-0.167-3.47,0.094-5.132-0.706c-4.929-2.368-9.832-4.729-14.878-2.112c-8.775,4.552-17.52,9.477-26.342,13.444
	c-3.492,1.57-7.175,1.749-10.735,1.217c-4.44-0.666-8.828-3.073-13.265-4.095c-6.782-1.561-13.586-2.605-20.383-3.804
	c-1.144-0.201-2.329-0.482-3.441-0.015c-2.761,1.161-5.467,3.206-8.241,4.004c-2.548,0.733-5.27,1.479-7.713,0.142
	c-5.262-2.876-10.349-7.507-15.589-10.651c-7.558-4.537-15.237-7.957-22.773-12.676c-6.02-3.771-11.942-8.495-17.833-13.305
	c-4.301-3.511-8.405-9.283-13.18-5.297c-1.63,1.359-3.119,3.653-4.69,5.43c-2.963,3.35-6.127,4.943-9.089,9.192
	c-4.559,6.541-9.869,12.134-15.085,13.583c-5.493,1.525-10.719,3.465-15.958,7.775c-5.18,4.263-10.668,6.417-16.015,9.565
	c-4.419,2.604-8.827,5.32-13.245,7.94c-0.324,0.192-0.688,0.012-1.034-0.008c-2.496-0.137-5.005-0.744-7.485-0.33
	c-7.969,1.33-15.922,3.171-23.89,4.525c-2.857,0.485-5.749-0.18-8.61,0.245c-6.875,1.021-13.734,2.673-20.611,3.521
	c-9.328,1.151-18.681,1.3-27.998,2.781c-9.491,1.509-18.702,7.872-28.435,6.74c-7.818-0.909-15.721,3.083-23.603,4.236
	c-8.753,1.28-17.539,1.348-26.285,2.815c-5.628,0.945-11.22,3.16-16.984,4.991l-1.328,0.416V285h719.333V104.334"/>
<path fill-rule="evenodd" clip-rule="evenodd" d="M1712.812,67.503c-2.715-0.532-5.436-0.912-8.145-1.57
	c-2.969-0.72-5.92-1.811-8.889-2.486c-1.566-0.357-3.166,0.049-4.733-0.288c-3.222-0.689-6.428-1.764-9.649-2.454
	c-2.091-0.449-4.205-0.306-6.293-0.784c-2.13-0.488-4.23-1.564-6.359-2.1c-1.687-0.425-3.404-0.219-5.092-0.646
	c-3.944-1-7.871-2.384-11.818-3.287c-3.992-0.914-8.043-0.867-11.986-2.354c-2.275-0.856-4.607-0.316-6.897-2.839
	c-3.26-3.589-6.868-5.568-10.334-8.187c-0.611-0.463-1.253-0.916-1.889-0.989c-2.774-0.316-5.552-0.468-8.327-0.724
	c-1.625-0.15-3.254-0.251-4.871-0.613c-2.677-0.6-5.364-2.211-8.014-1.905c-3.533,0.408-6.408-3.033-9.401-6.035
	c-2.79-2.798-5.601-3.398-8.479-1.148c-2.519,1.969-4.963,4.457-7.512,6.17c-1.943,1.308-4,1.739-6.003,2.602
	c-3.112,1.338-6.214,2.114-9.245-0.855c-0.732-0.717-1.478-2.216-2.177-2.104c-2.577,0.413-5.147,1.206-7.701,2.133
	c-2.358,0.858-4.683,2.165-7.035,3.108c-3.776,1.516-7.567,2.845-11.345,4.356c-1.765,0.706-3.506,1.72-5.268,2.479
	c-2.002,0.862-4.043,1.338-6.014,2.459c-2.021,1.151-3.958,3.051-5.97,4.308c-2.048,1.279-4.167,1.976-6.209,3.286
	c-3.058,1.962-6.017,4.576-9.106,6.458c-4.119,2.51-8.289,3.178-12.437,3.703c-2.303,0.292-4.708-2.201-7.017-3.812
	c-4.34-3.024-8.643-6.333-12.964-9.5c-3.042-2.23-6.054-4.723-9.142-6.548c-3.076-1.816-6.232-2.95-9.354-4.378
	c-1.548-0.708-3.095-1.436-4.646-2.096c-1.418-0.604-2.848-1.059-4.261-1.707c-1.024-0.471-2.017-1.369-3.046-1.691
	c-1.748-0.547-3.523-0.652-5.271-1.188c-3.653-1.119-7.289-2.521-10.947-3.544c-1.229-0.342-2.562-0.403-3.742,0.312
	c-3.941,2.39-7.838,5.179-11.748,7.834c-2.348,1.594-4.551,5.045-7.197,2.806c-0.148-0.125-0.373,0.265-0.568,0.354
	c-2.689,1.223-5.342,3.075-8.145,2.313c-0.332-0.09-0.688,0.205-1.029,0.374c-2.888,1.434-5.775,2.879-8.663,4.314
	c-0.097,0.049-0.202,0.013-0.3,0.053c-2.445,1.004-4.894,1.964-7.332,3.036c-1.66,0.729-3.291,1.926-4.964,2.373
	c-3.526,0.939-7.035,1.752-10.388,4.77c-1.514,1.36-3.159,2.132-4.777,2.69c-4.813,1.664-9.771,1.351-14.406,5.466
	c-0.222,0.197-0.498,0.1-0.748,0.11c-5.6,0.231-11.197,0.456-16.797,0.692c-0.4,0.016-0.811-0.008-1.199,0.178
	c-2.965,1.414-5.925,2.875-8.235,4.004V284h407.303V74.412c0-2.081,0-3.878,0-6.15C1714.883,67.988,1713.85,67.706,1712.812,67.503z
	"/>
<path fill-rule="evenodd" clip-rule="evenodd" d="M1303.65,74.397c-3.061-0.627-6.952-1.005-10.023-2.798
	c-2.897-1.69-5.805-3.127-8.674-5.479c-1.291-1.059-2.6-1.831-3.893-2.845c-2.067-1.618-4.129-3.34-6.193-5
	c-2.16-1.738-4.314-3.604-6.486-5.126c-1.333-0.935-2.714-1.016-4.041-2.03c-2.695-2.061-5.355-4.774-8.16-3.574
	c-0.305,0.131-0.635-0.312-0.945-0.607c-1.947-1.856-3.873-4.056-5.842-5.554c-2.838-2.162-5.705-3.86-8.562-5.679
	c-0.953-0.605-1.924-1.523-2.873-1.361c-4.92,0.837-9.834,2.11-14.754,2.966c-3.062,0.532-6.132,0.454-9.195,0.924
	c-1.647,0.252-3.341,0.343-4.922,1.8c-3.436,3.165-6.936,3.92-10.43,5.287c-2.488,0.974-4.955,2.701-7.431,4.142
	c-2.475,1.44-4.945,2.976-7.421,4.406c-2.369,1.369-4.745,2.558-7.11,4.008c-2.329,1.429-4.65,3.028-6.969,4.659
	c-2.638,1.854-5.273,3.769-7.904,5.766c-1.438,1.092-2.855,2.534-4.294,3.594c-2.001,1.473-4.015,2.721-6.021,4.094
	c-1.828,1.25-3.646,2.769-5.485,3.732c-1.33,0.696-2.69,0.596-4.034,1.002c-1.213,0.367-2.422,0.929-3.633,1.429
	c-0.355,0.146-0.708,0.347-1.061,0.569c-2.521,1.591-5.039,3.19-6.987,4.426h-5.705c-0.164-0.107-0.328-0.207-0.492-0.283
	c-1.801-0.83-3.654-0.518-5.35-3.61c-0.315-0.575-0.775-0.108-1.168-0.131c-0.347-0.02-0.695,0-1.04-0.087
	c-1.039-0.264-2.075-0.73-3.114-0.825c-1.681-0.155-3.413,0.855-5.035-0.276c-4.433-3.093-8.819-7.04-13.223-10.667
	c-1.22-1.005-2.411-2.176-3.685-0.475c-0.511,0.684-1.142,0.195-1.717,0.266c-1.35,0.165-2.699,0.421-4.049,0.499
	c-1.89,0.11-3.785,0.375-5.67,0.042c-1.605-0.282-3.203-1.933-4.802-1.887c-3.217,0.093-6.436,0.716-9.646,1.544
	c-1.672,0.432-3.323,1.885-4.99,2.664c-2.703,1.263-5.408,3.12-8.12,3.321c-3.486,0.26-6.981-0.867-10.472-1.402
	c-0.107-0.016-0.214-0.116-0.322-0.129c-1.691-0.187-3.383-0.379-5.075-0.542c-1.534-0.147-3.111,0.5-4.595-0.554
	c-3-2.128-5.959-0.458-8.927,0.149c-1.999,0.409-3.788,1.122-5.788,1.657c-2.319,0.62-5.596,0.239-7.919,0.678
	c-0.002,0-0.003,0.004-0.005,0.005v2.094c0.039,0.531,0.073,1.037,0.06,1.34c-0.089,2.161-0.045,4.398-0.037,6.713h-0.018V284
	h294.25v-39.417V87.763V74.397z"/>
<path fill-rule="evenodd" clip-rule="evenodd" d="M2351.868,39.104c-2.147,0.052-4.299,0.725-6.438,0.572
	c-4.365-0.312-8.729-1.53-13.087-1.403c-7.563,0.22-15.122,1.188-22.683,1.817c-1.545,0.128-3.096,0.031-4.639,0.222
	c-7.471,0.928-14.763,5.459-22.322,4.671c-0.31-0.032-0.625,0.143-0.938,0.21c-4.135,0.896-8.284,1.579-12.4,2.748
	c-3.488,0.99-7.004,2.047-10.385,3.979c-3.613,2.067-7.07,5.139-10.951,4.759c-2.723-0.267-5.461-0.267-8.185-0.004
	c-4.821,0.465-9.634,1.236-14.452,1.832c-0.543,0.066-1.096-0.281-1.643-0.26c-1.307,0.054-2.625,0.024-3.916,0.369
	c-2.544,0.68-5.175,2.88-7.583,2.084c-3.062-1.014-5.935-4.038-9.215-3.779c-2.017,0.16-4.066-1.34-6.081-1.148
	c-3.638,0.344-7.256,1.499-10.892,2.103c-1.382,0.229-2.794,0.02-4.181-0.242c-3.857-0.728-8.057,0.102-11.477-2.829
	c-4.031-3.455-8.197-2.485-12.188-4.82c-3.37-1.973-7.086-1.665-10.373-3.992c-3.827-2.71-7.049-1.546-10.345,2.391
	c-3.735,4.463-7.868,4.247-11.919,3.154c-3.853-1.039-11.52-2.936-15.304-4.806c-4.663-0.63-13.135-2.947-17.767-4.529
	c-0.769-0.263-1.582-1.165-2.281-0.866c-3.189,1.362-6.064-0.381-8.82-3.321c-2.328-2.48-4.68-3.443-7.302-2.256
	c-4.817,2.183-9.373,0.708-13.743-4.207c-1.512-1.698-3.361-2.163-5.066-3.104c-1.49-0.822-3.113-1.026-4.471-2.374
	c-3.69-3.661-7.252-7.899-11.609-6.396c-2.395,0.826-4.783,1.989-7.195,2.258c-4.137,0.461-8.29,0.291-12.436,0.498
	c-1.036,0.051-2.189,0.014-3.081,0.896c-4.815,4.766-9.562,9.827-14.347,14.725c-0.473,0.484-1.11,0.998-1.567,0.738
	c-4.728-2.693-8.841,1.353-12.45,6.22c-5.012,6.757-10.645,8.129-16.199,10.664c-1.671,0.763-3.427,1.287-4.95,2.76
	c-5.155,4.985-10.067,10.395-15.933,12.45c-5.661,1.984-11.693,0.238-17.025,6.079c-0.311,0.341-0.794-0.06-1.175,0.104
	c-1.368,0.584-2.786,0.953-4.079,1.969c-1.723,1.353-3.417,2.819-5.074,4.273l0,0l-9.572,1.507l0,0
	c-0.408-0.257-0.824-0.518-1.245-0.773c-1.735-1.054-3.454-2.271-5.218-3.058c-3.368-1.5-6.763-2.747-10.146-4.094
	c-3.941-1.57-7.885-3.138-11.827-4.695c-0.153-0.061-0.32,0.036-0.474-0.02c-3.314-1.185-6.705-1.83-9.92-3.718
	c-3.854-2.263-7.578-4.997-11.69-3.173c-0.874,0.387-1.871-0.218-2.798-0.522c-4.214-1.383-8.408-3.034-12.636-4.189
	c-5.7-1.558-11.445-2.455-17.126-4.236c-2.433-0.763-4.762-2.977-7.119-4.642c-2.576-1.82-4.99-4.136-7.908-4.104
	c-2.068,0.022-4.247-2.141-6.186-4.116c-2.037-2.078-3.93-4.873-5.731-7.756c-2.011-3.219-3.81-2.819-5.851-0.16
	c-2.116,2.759-4.307,5.377-6.59,7.487c-5.744,5.308-11.987,5.688-17.991,4.425c-5.134-1.079-9.859,1.05-14.663,3.054
	c-6.125,2.556-12.137,6.239-18.252,8.915c-6.051,2.648-11.104,5.648-17.178,8.08c-0.23,0.092-2.119,0.581-2.617,0.71V284h643.867
	V86.322c0-0.071,0-0.142,0-0.213c0-15.733,0-30.665,0-47.035C2360.426,39.074,2356.146,39.003,2351.868,39.104z"/>
</svg>
