<?xml version="1.0" encoding="utf-8"?>
<!-- Generator: Adobe Illustrator 16.0.4, SVG Export Plug-In . SVG Version: 6.00 Build 0)  -->
<!DOCTYPE svg PUBLIC "-//W3C//DTD SVG 1.1//EN" "http://www.w3.org/Graphics/SVG/1.1/DTD/svg11.dtd">
<svg version="1.1" id="Layer_1" xmlns="http://www.w3.org/2000/svg" xmlns:xlink="http://www.w3.org/1999/xlink" x="0px" y="0px"
	 width="1036px" height="285px" viewBox="0 0 1036 285" enable-background="new 0 0 1036 285" xml:space="preserve">
<path fill-rule="evenodd" clip-rule="evenodd" d="M213.223,96.497c1.195-0.009,2.223-0.222,3.223-0.431
	c2.801-0.585,5.864-0.29,8.321-2.265c3.696-2.97,8.131-2.543,11.292-7.725c0.098-0.161,0.279-0.165,0.424-0.24
	c4.33-2.263,8.656-4.552,12.998-6.749c0.457-0.231,1.014-0.037,1.501,0.145c2.255,0.838,4.482,1.949,6.755,2.581
	c5.38,1.498,11.094,0.45,15.809,6.882c0.516,0.706,1.6,0.152,2.42,0.156c1.99,0.009,3.98,0.014,5.972,0.001
	c2.214-0.015,4.436,0.152,6.64-0.119c4.67-0.575,9.325-1.779,13.995-1.947c2.833-0.102,5.462,1.566,8.579,0.278
	c3.6-1.486,7.286-2.345,10.779-4.756c2.396-1.655,4.814-2.22,7.341-0.417c1.507,1.074,3.128,1.907,4.738,2.215
	c1.718,0.329,3.497,0.135,5.224-0.222c5.086-1.048,10.043-5.355,15.319-1.421c0.897,0.671,2.079,0.161,3.13,0.214
	c0.674,0.034,1.402-0.178,2.013,0.193c3.981,2.417,7.95,4.906,11.899,7.482c3.633,2.369,7.182,5.163,10.865,7.242
	c3.815,2.152,7.852,3.177,11.593,5.626c2.817,1.846,5.438,4.137,8.546,4.714c2.902,0.539,5.736,2.366,8.57,3.8
	c4.477,2.262,9.004,4.306,13.373,7.1c6.262,4.004,12.819,2.731,19.227,4.035c1.442,0.294,2.955-0.68,4.432-0.64
	c2.95,0.084,5.896,0.641,8.846,0.689c6.761,0.111,13.522-0.076,20.281,0.096c2.367,0.06,4.733,1.229,7.093,1.163
	c4.25-0.118,8.493-1.052,12.743-1.147c4.033-0.09,8.07,0.5,12.107,0.704c2.293,0.117,4.59-0.008,6.883,0.097
	c3.62,0.165,7.237,0.518,10.857,0.636c4.203,0.137,8.408,0.168,12.612,0.128c4.158-0.04,8.345,0.264,12.467-0.472
	c5.212-0.932,10.319-3.615,15.646-1.24c1.85,0.825,3.853,0.857,5.782,0.812c5.122-0.119,10.24-0.511,15.361-0.727
	c2.211-0.094,4.58,0.882,6.604-0.2c5.306-2.835,10.497-6.378,15.659-9.965c2.065-1.434,3.891-3.641,6.307-3.349
	c3.133,0.38,6.189-0.068,9.25-2.107c4.113-2.74,8.443-4.108,12.916-2.622c0.938,0.312,1.948,0.066,2.92-0.058
	c3.39-0.432,6.791-1.484,10.162-1.229c3.158,0.239,6.254,2.245,9.373-0.688c0.668-0.629,1.753-0.132,2.615,0.143
	c4.152,1.322,8.264,3.569,12.494,0.457c1.213-0.892,2.581-1.563,3.881-1.577c3.053-0.031,6.106,0.421,9.161,0.619
	c0.744,0.049,1.534,0.115,2.232-0.245c2.325-1.201,4.438-0.55,6.41,1.807c1.403,1.677,2.814,2.049,4.444,0.81
	c0.658-0.499,1.588-0.359,2.32-0.021c3.572,1.648,7.064,4.154,10.689,5.005c3.07,0.721,5.46,3.596,8.196,5.284
	c2.342,1.445,4.938,3.17,7.274,2.67c2.42-0.52,4.771-0.822,6.967,0.407c4.809,2.692,9.453,1.581,14.055-0.93
	c5.031-2.745,9.982-5.937,14.981-8.865c1.323-0.774,2.749-2.05,4.03-1.764c2.066,0.462,4.076,1.916,6.068,3.156
	c2.674,1.665,5.254,3.849,7.97,5.236c6.17,3.152,12.397,5.959,18.604,8.896c0.571,0.27,1.149,0.602,1.732,0.669
	c3.729,0.434,12.67,5.241,15.672,8.16h0.188V285H213.223V156.442v-23.598V96.497z"/>
<g>
	<path fill="#808080" d="M1032.861,71.289c-0.193,0.159-0.412,0.168-0.58,0.484c-3.322,6.252-6.682,12.312-9.941,18.907
		c-1.816,3.673-3.609,4.636-5.582,2.276c-2.83-3.388-5.643-6.962-8.496-10.134c-0.65-0.725-1.511-0.807-2.146-0.029
		c-3.098,3.794-6.23,2.624-9.105-1.058c-4.442-5.692-8.732-12.76-13.023-19.682c-4.397-7.094-8.922-12.94-13.863-12.164
		c-3.26,0.513-6.529,2.512-9.725,4.881c-3.32,2.462-6.509,7.118-9.848,8.979c-2.023,1.127-4.219-1.386-6.346-1.962
		c-1.241-0.337-2.497-0.142-3.746-0.079c-4.871,0.248-9.324,6.238-13.904,10.764c-5.529,5.463-11.17,9.668-16.729,14.814
		c-1.803,1.669-3.442,5.405-5.255,6.795c-6.916,5.302-13.865,10.14-20.815,14.94c-5.182,3.579-10.373,7.044-15.583,10.135
		c-2.109,1.251-4.283,1.251-6.42,2.033c-3.869,1.418-7.733,2.984-11.599,4.507c-4.127,1.627-8.259,3.16-12.379,4.954
		c-2.473,1.076-3.701,0.4-6.579,1.916l-2.173,0.25V285H1036V68.751C1034.953,69.589,1033.906,70.43,1032.861,71.289z"/>
	<path fill="#808080" d="M206.255,96.5h-2.855c-1.761-0.449-3.52-0.916-5.252-1.629c-1.736-0.716-3.365-2.376-5.074-3.41
		c-0.664-0.4-1.432-0.118-2.129-0.372c-0.756-0.275-1.489-0.789-2.225-1.245c-1.305-0.808-2.604-1.643-3.902-2.484
		c-0.431-0.279-0.845-0.652-1.276-0.92c-0.994-0.616-2.001-1.159-2.99-1.8c-0.596-0.385-1.171-0.896-1.754-1.353
		c-1.27-0.994-2.532-2.02-3.811-2.967c-0.519-0.384-1.098-0.479-1.601-0.913c-2.609-2.25-5.4-2.48-8.179-2.911
		c-0.458-0.07-0.905-0.359-1.36-0.503c-1.777-0.561-3.562-1.052-5.336-1.668c-1.547-0.538-3.072-1.334-4.626-1.779
		c-0.898-0.257-1.833-0.047-2.751-0.046c-2.445,0.001-4.89,0.019-7.334-0.01c-0.412-0.005-0.829-0.342-1.237-0.3
		c-4.436,0.455-8.86-0.751-13.335,0.813c-2.784,0.973-5.727,0.361-8.682-1.24c-3.439-1.863-7.056-4.089-10.806-2.395
		c-0.384,0.173-0.883-0.341-1.292-0.694c-1.774-1.534-3.529-2.258-5.549-1.64c-1.273,0.391-2.684-0.756-4.023-1.301
		c-3.123-1.271-6.238-2.623-9.362-3.889c-1.628-0.66-3.259-1.533-4.906-1.728c-2.376-0.28-4.801-0.494-7.149,0.093
		c-4.629,1.155-9.213,2.961-13.828,4.343c-2.789,0.835-5.596,1.481-8.404,2.016c-1.461,0.277-2.977-0.23-4.409,0.25
		c-2.681,0.897-5.321,2.24-7.975,3.432c-1.335,0.601-2.708,2.042-3.981,1.755c-2.449-0.553-4.959-0.393-7.354-2.292
		c-1.218-0.966-2.738-0.611-4.123-0.646c-1.129-0.028-2.263,0.184-3.389,0.409c-2.855,0.571-5.719,1.056-8.557,1.877
		c-1.918,0.555-3.865,1.26-5.678,2.541c-3.106,2.194-6.407,3.283-9.326,6.658C0.297,80.712,0.151,80.861,0,81.003V285h206.255V96.5z
		"/>
</g>
<g>
	<path fill="#FFFFFF" d="M231.148,275.095l0.072,2.718l-0.108,0.144l-1.404,0.108l-0.108-0.126l0.054-2.844h-3.168l-1.35,0.035
		l-0.126-0.161v-1.188l4.482-6.479h1.692l-0.054,6.371h1.62l0.108,0.162l-0.09,1.296L231.148,275.095z M229.672,273.672v-4.229
		h-0.144l-2.916,4.229H229.672z"/>
	<path fill="#FFFFFF" d="M236.584,275.761c0,0.888-0.636,1.787-1.908,2.699l-0.594-0.54l-0.018-0.144
		c0.66-0.54,0.99-1.092,0.99-1.656c0-0.371-0.186-0.689-0.558-0.954v-0.162c0.443-0.287,0.882-0.485,1.314-0.594
		C236.326,274.782,236.584,275.232,236.584,275.761z"/>
	<path fill="#FFFFFF" d="M245.197,268.354c0.666,0.786,0.999,1.905,0.999,3.356c0,1.513-0.351,2.683-1.053,3.511
		s-1.701,1.241-2.997,1.241c-1.224,0-2.172-0.393-2.844-1.179s-1.008-1.893-1.008-3.321c0-1.523,0.356-2.702,1.071-3.536
		c0.714-0.834,1.719-1.251,3.015-1.251C243.592,267.175,244.531,267.567,245.197,268.354z M239.733,271.836
		c0,2.005,0.84,3.007,2.521,3.007c1.68,0,2.52-0.973,2.52-2.916c0-2.04-0.846-3.061-2.538-3.061
		C240.567,268.866,239.733,269.856,239.733,271.836z"/>
	<path fill="#FFFFFF" d="M254.646,268.354c0.666,0.786,0.999,1.905,0.999,3.356c0,1.513-0.351,2.683-1.053,3.511
		s-1.701,1.241-2.997,1.241c-1.224,0-2.172-0.393-2.844-1.179c-0.673-0.786-1.008-1.893-1.008-3.321
		c0-1.523,0.357-2.702,1.071-3.536s1.719-1.251,3.015-1.251C253.042,267.175,253.98,267.567,254.646,268.354z M249.184,271.836
		c0,2.005,0.84,3.007,2.52,3.007s2.52-0.973,2.52-2.916c0-2.04-0.846-3.061-2.538-3.061
		C250.018,268.866,249.184,269.856,249.184,271.836z"/>
	<path fill="#FFFFFF" d="M264.097,268.354c0.666,0.786,0.999,1.905,0.999,3.356c0,1.513-0.351,2.683-1.053,3.511
		c-0.702,0.828-1.701,1.241-2.997,1.241c-1.224,0-2.172-0.393-2.844-1.179c-0.672-0.786-1.008-1.893-1.008-3.321
		c0-1.523,0.357-2.702,1.071-3.536s1.719-1.251,3.015-1.251C262.491,267.175,263.431,267.567,264.097,268.354z M258.634,271.836
		c0,2.005,0.84,3.007,2.52,3.007c1.68,0,2.521-0.973,2.521-2.916c0-2.04-0.846-3.061-2.538-3.061
		C259.468,268.866,258.634,269.856,258.634,271.836z"/>
	<path fill="#FFFFFF" d="M275.337,263.809l-0.107,1.386l-0.126,0.108c-0.517-0.229-0.979-0.343-1.386-0.343
		c-0.888,0-1.338,0.517-1.35,1.549l-0.018,1.548h2.124l0.054,0.126l-0.108,1.044h-2.088l-0.054,3.438l0.126,3.654h-1.836
		l0.108-3.492l-0.036-3.6h-1.242l-0.072-0.108l0.09-1.062h1.224l-0.018-1.242c-0.012-1.02,0.267-1.803,0.837-2.349
		c0.57-0.546,1.377-0.819,2.421-0.819C274.347,263.646,274.833,263.7,275.337,263.809z"/>
	<path fill="#FFFFFF" d="M276.507,272.25c0.036,1.872,0.828,2.809,2.376,2.809c0.78,0,1.59-0.252,2.43-0.756l0.162,0.107
		l-0.216,1.458c-0.84,0.408-1.68,0.612-2.52,0.612c-1.236,0-2.199-0.381-2.889-1.144c-0.69-0.762-1.035-1.803-1.035-3.122
		c0-1.345,0.36-2.403,1.08-3.178c0.72-0.773,1.686-1.161,2.897-1.161c0.96,0,1.704,0.282,2.232,0.847
		c0.528,0.563,0.792,1.344,0.792,2.34c0,0.312-0.024,0.612-0.072,0.899l-0.306,0.288H276.507z M279.783,269.56
		c-0.264-0.282-0.63-0.423-1.098-0.423c-0.552,0-1.008,0.174-1.368,0.521c-0.36,0.349-0.601,0.84-0.72,1.477l3.546-0.091
		l0.036-0.216C280.179,270.265,280.047,269.842,279.783,269.56z"/>
	<path fill="#FFFFFF" d="M284.77,272.25c0.036,1.872,0.828,2.809,2.376,2.809c0.78,0,1.59-0.252,2.43-0.756l0.162,0.107
		l-0.216,1.458c-0.84,0.408-1.681,0.612-2.521,0.612c-1.236,0-2.199-0.381-2.889-1.144c-0.69-0.762-1.035-1.803-1.035-3.122
		c0-1.345,0.36-2.403,1.08-3.178c0.72-0.773,1.686-1.161,2.898-1.161c0.96,0,1.704,0.282,2.232,0.847
		c0.528,0.563,0.792,1.344,0.792,2.34c0,0.312-0.024,0.612-0.072,0.899l-0.306,0.288H284.77z M288.045,269.56
		c-0.264-0.282-0.63-0.423-1.098-0.423c-0.552,0-1.008,0.174-1.368,0.521c-0.36,0.349-0.6,0.84-0.72,1.477l3.546-0.091l0.036-0.216
		C288.441,270.265,288.309,269.842,288.045,269.56z"/>
	<path fill="#FFFFFF" d="M296.163,274.608l0.18,0.126l-0.18,1.152c-0.66,0.312-1.272,0.491-1.836,0.54
		c-0.744-0.12-1.284-0.369-1.62-0.747s-0.504-0.928-0.504-1.647l0.072-1.296l-0.019-3.51h-1.134l-0.072-0.108l0.09-1.062h1.098
		v-1.314l1.62-0.612l0.162,0.145l-0.036,1.782h2.304l0.072,0.126l-0.09,1.044h-2.322l-0.09,4.518
		c-0.013,0.444,0.062,0.753,0.225,0.927c0.162,0.175,0.435,0.262,0.819,0.262C295.299,274.933,295.719,274.824,296.163,274.608z"/>
</g>
</svg>
