<?xml version="1.0" encoding="utf-8"?>
<!-- Generator: Adobe Illustrator 16.0.4, SVG Export Plug-In . SVG Version: 6.00 Build 0)  -->
<!DOCTYPE svg PUBLIC "-//W3C//DTD SVG 1.1//EN" "http://www.w3.org/Graphics/SVG/1.1/DTD/svg11.dtd">
<svg version="1.1" id="Layer_1" xmlns="http://www.w3.org/2000/svg" xmlns:xlink="http://www.w3.org/1999/xlink" x="0px" y="0px"
	 width="1036px" height="285px" viewBox="0 0 1036 285" enable-background="new 0 0 1036 285" xml:space="preserve">
<path fill-rule="evenodd" clip-rule="evenodd" d="M234.786,48.864c3.316,0.805,6.627,1.778,9.952,2.3
	c1.396,0.22,2.886-1.263,4.225-0.702c4.376,1.834,8.702,4.264,13.049,6.442c2.62,1.313,5.221,2.936,7.872,3.788
	c3.156,1.016,6.366,1.186,9.535,2.047c2.46,0.669,4.943,3.008,7.33,2.521c4.128-0.844,8.203-3.16,12.271-5.145
	c1.922-0.937,3.799-3.778,5.656-3.613c7.027,0.628,14.033,2.334,21.057,3.232c3.674,0.47,7.369,0.097,11.055,0.115
	c2.396,0.012,4.793,0.033,7.189,0.067c2.861,0.042,5.748-0.432,8.574,0.289c3.5,0.892,6.88,3.51,10.521,1.651
	c2.053-1.047,4.248-1.178,6.367-1.008c4.475,0.358,8.941,1.695,13.411,1.693c6.101-0.003,12.212,1.291,18.284-2.541
	c3.499-2.207,7.322-1.754,10.952-3.121c4.234-1.596,8.508-2.479,12.469-7.295c2.881-3.503,6.216-5.296,9.716-3.214
	c1.973,1.173,4.058,1.455,6.099,2.014c4.362,1.196,8.743,2.114,13.091,3.522c3.283,1.064,6.506,3.414,9.796,3.955
	c7.028,1.155,13.831-2.213,20.598-6.199c4.062-2.395,8.16-2.79,12.321,0.562c3.645,2.935,7.488,4.701,11.273,6.71
	c5.434,2.883,10.922,5.273,16.333,8.333c4.299,2.428,8.445,6.474,12.789,8.135c6.701,2.56,13.512,3.698,20.277,5.417
	c0.352,0.091,0.715-0.065,1.072-0.039c2.17,0.152,4.428-0.463,6.486,0.686c2.611,1.456,4.957,1.349,7.514-0.502
	c2.262-1.639,4.734-1.771,7.07-2.981c5.244-2.716,10.426-6.065,15.699-8.413c3.182-1.418,6.494-1.358,9.738-2.131
	c1.398-0.332,2.852-2.018,4.145-1.486c3.686,1.513,7.285,4.022,10.951,5.802c2.828,1.373,5.691,2.537,8.568,3.255
	c4.053,1.01,8.176,0.919,12.186,2.416c3.93,1.468,7.805,4.795,11.645,0.108c3.275-4,6.496-5.312,10.133-2.464
	c3.268,2.561,6.646,4.521,10.023,6.294c3.66,1.919,7.373,3.354,11.072,4.88c0.365,0.15,0.834-0.399,1.199-0.843
	c2.111-2.562,4.211-5.17,6.305-7.803c5.539-6.96,11.564-5.504,17.545-5.14c1.582,0.099,3.184-0.352,4.758-0.823
	c1.531-0.461,3.086-2.147,4.547-1.763c3.777,0.997,7.531,2.611,11.248,4.449c1.711,0.845,3.457,2.283,4.928,4.353
	c2.092,2.944,3.861,7.001,5.936,10.027c1.195,1.746,2.678,2.917,4.102,3.446c3.77,1.404,7.578,2.286,11.367,3.438
	c3.502,1.066,6.996,2.302,10.502,3.295c2.324,0.658,4.727,0.434,6.984,1.624c7.754,4.085,15.355,9.321,23.506,9.103
	c4.232-0.113,8.461,1.629,11.352,2.481l0.605,0.16v175.34H229.589V110.344V47.553C231.433,48.02,233.111,48.458,234.786,48.864z"/>
<g>
	<path fill="#808080" d="M222.622,47.497c-2.306,0.495-4.435,1.266-6.702,2.241c-3.489,1.503-6.893,3.923-10.385,5.368
		c-5.185,2.146-10.426,3.673-15.623,5.685c-2.259,0.875-4.459,2.413-6.708,3.428c-1.016,0.459-2.154,0.949-3.119,0.429
		c-2.938-1.587-5.603,0.918-8.35,2.014c-5.448,2.171-10.873,4.618-16.312,6.896c-3.028,1.269-6.061,2.509-9.104,3.604
		c-2.063,0.743-4.154,1.778-6.224,1.684c-3.959-0.181-7.621,2.845-11.447,4.047c-6.201,1.947-12.351,4.632-18.535,6.84
		c-1.599,0.571-3.248,0.468-4.868,0.792c-0.643,0.129-1.275,0.465-1.91,0.753l-3.082,0.314h-0.19
		c-1.927-1.819-4.02-4.277-6.265-5.466c-2.485-1.314-5.132-1.317-7.714-1.724c-3.129-0.493-6.279,0.877-9.398-1.605
		c-2.077-1.652-4.374-2.135-6.593-2.854c-0.613-0.198-1.319,0.513-1.948,1.008c-3.993,3.141-8.021,6.061-12.354,5.425
		c-2.34-0.344-4.695-2.173-6.982-1.765c-3.426,0.612-6.624-1.791-9.947-1.973c-2.331-0.128-4.67,0.4-7.006,0.549
		c-2.332,0.149-4.694,0.79-6.862-1.938c-2.302-2.897-4.654-2.168-6.933,0.046c-3.01,2.924-6.076,2.774-9.223,1.467
		c-0.864-0.36-1.777-0.297-2.666-0.242c-0.889,0.054-1.812,0.78-2.651,0.44c-1.238-0.502-2.417-0.667-3.569-0.228v202.859h222.671
		V47.497z"/>
	<path fill="#808080" d="M1031.68,111.096c-3.369-0.019-6.744-0.362-10.104-0.817c-2.861-0.386-5.701-1.15-8.555-1.701
		c-3.311-0.638-6.631-1.152-9.934-1.859c-2.393-0.514-4.758-1.308-7.146-1.871c-1.098-0.26-2.232-0.186-3.338-0.405
		c-3.732-0.744-7.361-2.169-10.982-3.701c-2.305-0.976-4.652-1.94-7.023-2.302c-3.164-0.482-6.369-0.377-9.557-0.521
		c-3.338-0.15-6.678-0.264-10.016-0.465c-1.014-0.061-2.02-0.383-3.033-0.538c-0.932-0.142-1.908-0.527-2.799-0.273
		c-3.35,0.955-5.936-1.944-8.824-3.483c-2.014-1.074-4.225-1.477-6.371-1.733c-0.703-0.085-1.518,1.152-2.211,1.927
		c-1.33,1.486-2.553,3.215-3.941,4.555c-0.625,0.602-1.564,0.799-2.324,0.679c-2.477-0.394-4.938-0.997-7.4-1.562
		c-1.002-0.23-1.988-0.765-2.99-0.825c-2.145-0.13-4.295-0.043-6.441-0.039c-0.145,0-0.301,0.008-0.434,0.083
		c-1.703,0.952-3.377,2.062-5.117,2.817c-0.803,0.348-1.736-0.019-2.609-0.008c-0.363,0.005-0.766,0.023-1.08,0.252
		c-0.955,0.691-1.896,1.44-2.807,2.259c-0.812,0.73-1.559,1.597-2.445,0.164c-0.113-0.185-0.543-0.046-0.789,0.095
		c-1.225,0.699-2.578,1.145-3.623,2.244c-2.008,2.112-4.395,1.653-6.525,2.718c-3.85,1.922-8.014,1.031-11.842,3.285
		c-1.328,0.782-2.939,0.424-4.406,0.741c-4.834,1.049-9.793,0.942-14.469,3.48c-0.229,0.124-0.461,0.276-0.699,0.306
		c-1.521,0.191-3.047,0.509-4.568,0.485c-2.627-0.043-5.252-0.32-7.877-0.472c-2.406-0.14-4.814-0.206-7.219-0.377
		c-2.061-0.147-4.145-0.152-6.17-0.656c-3.676-0.915-7.314-2.145-11.008-3.26v11.022v164.254h220.949V110.774
		C1034.529,110.982,1033.101,111.104,1031.68,111.096z"/>
</g>
<g>
	<path fill="#FFFFFF" d="M247.159,275.67l0.072,2.718l-0.108,0.144l-1.404,0.108l-0.108-0.126l0.054-2.844h-3.168l-1.35,0.035
		l-0.126-0.161v-1.188l4.482-6.479h1.692l-0.054,6.371h1.62l0.108,0.162l-0.09,1.296L247.159,275.67z M245.684,274.247v-4.229
		h-0.144l-2.916,4.229H245.684z"/>
	<path fill="#FFFFFF" d="M252.595,276.336c0,0.888-0.636,1.787-1.908,2.699l-0.594-0.54l-0.018-0.144
		c0.66-0.54,0.99-1.092,0.99-1.656c0-0.371-0.187-0.689-0.558-0.954v-0.162c0.444-0.287,0.882-0.485,1.314-0.594
		C252.337,275.357,252.595,275.808,252.595,276.336z"/>
	<path fill="#FFFFFF" d="M261.208,268.929c0.666,0.786,0.999,1.905,0.999,3.356c0,1.513-0.351,2.683-1.053,3.511
		c-0.702,0.828-1.701,1.241-2.997,1.241c-1.224,0-2.172-0.393-2.844-1.179c-0.672-0.786-1.008-1.893-1.008-3.321
		c0-1.523,0.357-2.702,1.071-3.536s1.719-1.251,3.015-1.251C259.603,267.75,260.542,268.143,261.208,268.929z M255.745,272.411
		c0,2.005,0.84,3.007,2.52,3.007c1.68,0,2.52-0.973,2.52-2.916c0-2.04-0.846-3.061-2.538-3.061
		C256.579,269.441,255.745,270.432,255.745,272.411z"/>
	<path fill="#FFFFFF" d="M270.658,268.929c0.666,0.786,0.999,1.905,0.999,3.356c0,1.513-0.351,2.683-1.053,3.511
		c-0.702,0.828-1.701,1.241-2.997,1.241c-1.224,0-2.172-0.393-2.844-1.179s-1.008-1.893-1.008-3.321
		c0-1.523,0.357-2.702,1.071-3.536s1.719-1.251,3.015-1.251C269.053,267.75,269.992,268.143,270.658,268.929z M265.195,272.411
		c0,2.005,0.84,3.007,2.52,3.007c1.68,0,2.52-0.973,2.52-2.916c0-2.04-0.846-3.061-2.538-3.061
		C266.029,269.441,265.195,270.432,265.195,272.411z"/>
	<path fill="#FFFFFF" d="M280.108,268.929c0.666,0.786,0.999,1.905,0.999,3.356c0,1.513-0.351,2.683-1.053,3.511
		s-1.701,1.241-2.997,1.241c-1.224,0-2.172-0.393-2.844-1.179c-0.672-0.786-1.008-1.893-1.008-3.321
		c0-1.523,0.357-2.702,1.071-3.536c0.714-0.834,1.719-1.251,3.015-1.251C278.502,267.75,279.442,268.143,280.108,268.929z
		 M274.645,272.411c0,2.005,0.84,3.007,2.52,3.007s2.52-0.973,2.52-2.916c0-2.04-0.846-3.061-2.538-3.061
		C275.479,269.441,274.645,270.432,274.645,272.411z"/>
	<path fill="#FFFFFF" d="M291.349,264.384l-0.108,1.386l-0.126,0.108c-0.516-0.229-0.978-0.343-1.386-0.343
		c-0.888,0-1.338,0.517-1.35,1.549l-0.018,1.548h2.124l0.054,0.126l-0.108,1.044h-2.088l-0.054,3.438l0.126,3.654h-1.836
		l0.108-3.492l-0.036-3.6h-1.242l-0.072-0.108l0.09-1.062h1.224l-0.018-1.242c-0.012-1.02,0.267-1.803,0.837-2.349
		s1.377-0.819,2.421-0.819C290.358,264.222,290.844,264.275,291.349,264.384z"/>
	<path fill="#FFFFFF" d="M292.519,272.825c0.036,1.872,0.828,2.809,2.376,2.809c0.78,0,1.59-0.252,2.43-0.756l0.162,0.107
		l-0.216,1.458c-0.84,0.408-1.68,0.612-2.52,0.612c-1.236,0-2.199-0.381-2.889-1.144c-0.69-0.762-1.035-1.803-1.035-3.122
		c0-1.345,0.36-2.403,1.08-3.178c0.72-0.773,1.686-1.161,2.898-1.161c0.96,0,1.704,0.282,2.232,0.847
		c0.528,0.563,0.792,1.344,0.792,2.34c0,0.312-0.024,0.612-0.072,0.899l-0.306,0.288H292.519z M295.794,270.135
		c-0.264-0.282-0.63-0.423-1.098-0.423c-0.552,0-1.008,0.174-1.368,0.521c-0.36,0.349-0.6,0.84-0.72,1.477l3.546-0.091l0.036-0.216
		C296.19,270.84,296.058,270.417,295.794,270.135z"/>
	<path fill="#FFFFFF" d="M300.78,272.825c0.036,1.872,0.828,2.809,2.376,2.809c0.78,0,1.59-0.252,2.43-0.756l0.162,0.107
		l-0.216,1.458c-0.84,0.408-1.68,0.612-2.52,0.612c-1.236,0-2.199-0.381-2.889-1.144c-0.69-0.762-1.035-1.803-1.035-3.122
		c0-1.345,0.36-2.403,1.08-3.178c0.72-0.773,1.686-1.161,2.898-1.161c0.96,0,1.704,0.282,2.232,0.847
		c0.528,0.563,0.792,1.344,0.792,2.34c0,0.312-0.024,0.612-0.072,0.899l-0.306,0.288H300.78z M304.057,270.135
		c-0.264-0.282-0.63-0.423-1.098-0.423c-0.552,0-1.008,0.174-1.368,0.521c-0.36,0.349-0.6,0.84-0.72,1.477l3.546-0.091l0.036-0.216
		C304.453,270.84,304.32,270.417,304.057,270.135z"/>
	<path fill="#FFFFFF" d="M312.174,275.184l0.18,0.126l-0.18,1.152c-0.66,0.312-1.272,0.491-1.836,0.54
		c-0.744-0.12-1.284-0.369-1.62-0.747s-0.504-0.928-0.504-1.647l0.072-1.296l-0.018-3.51h-1.134l-0.072-0.108l0.09-1.062h1.098
		v-1.314l1.62-0.612l0.162,0.145l-0.036,1.782h2.304l0.072,0.126l-0.09,1.044h-2.322l-0.09,4.518
		c-0.012,0.444,0.063,0.753,0.225,0.927c0.162,0.175,0.435,0.262,0.819,0.262C311.311,275.508,311.73,275.399,312.174,275.184z"/>
</g>
</svg>
